<svg width="73" height="29" viewBox="0 0 73 29" fill="none" xmlns="http://www.w3.org/2000/svg">
<rect id="state" x="0.500031" y="0.500008" width="72" height="28" rx="4.5" stroke="white"/>
<path d="M10.5117 19.0078C10.4726 19.0469 10.4336 19.0664 10.3555 19.0664C10.2969 19.0664 10.2383 19.0469 10.1797 19.0078L6.09765 14.9062C6.05859 14.8672 6.01952 14.8086 6.01952 14.75C6.01952 14.6719 6.05859 14.6328 6.09765 14.5937L10.1797 10.4922C10.2383 10.4531 10.2969 10.4336 10.3555 10.4336C10.4336 10.4336 10.4727 10.4531 10.5117 10.4922L10.9023 10.8828C10.9609 10.9219 10.9805 10.9609 10.9805 11.0391C10.9805 11.0977 10.9609 11.1562 10.9023 11.2148L7.36718 14.75L10.9023 18.2852C10.9609 18.3242 10.9805 18.3828 10.9805 18.4609C10.9805 18.5195 10.9609 18.5781 10.9023 18.6172L10.5117 19.0078Z" fill="white"/>
<path d="M48.26 18.08C49.74 18.08 50.56 17.07 50.56 15.48C50.56 13.89 49.74 12.88 48.26 12.88C47.77 12.88 47.27 13.13 47.04 13.42V10.92H45.8V18H47.04V17.48C47.2 17.77 47.69 18.08 48.26 18.08ZM48.93 16.61C48.71 16.88 48.43 17.02 48.09 17.02C47.75 17.02 47.47 16.89 47.25 16.62C47.04 16.35 46.93 15.97 46.93 15.48C46.93 14.99 47.04 14.62 47.25 14.35C47.47 14.08 47.75 13.94 48.09 13.94C48.43 13.94 48.71 14.08 48.93 14.35C49.15 14.62 49.26 15 49.26 15.48C49.26 15.96 49.15 16.34 48.93 16.61ZM52.6259 14.52C52.7559 14.13 53.0459 13.94 53.4959 13.94C54.0859 13.94 54.3759 14.19 54.3759 14.68V14.9H53.5359C52.2559 14.9 51.3859 15.55 51.3859 16.55C51.3859 17.52 52.0259 18.08 52.9159 18.08C53.5559 18.08 54.0759 17.84 54.4659 17.36L54.5959 18H55.6159V14.99C55.6159 13.58 54.9059 12.88 53.4959 12.88C52.4859 12.88 51.7359 13.44 51.5759 14.28L52.6259 14.52ZM52.6859 16.53C52.6859 16.1 52.9759 15.88 53.5459 15.88H54.3759V15.98C54.3759 16.29 54.2559 16.54 54.0159 16.73C53.7859 16.92 53.5159 17.02 53.2059 17.02C52.8759 17.02 52.6859 16.8 52.6859 16.53ZM60.3298 16.19C60.0598 16.74 59.6598 17.02 59.1498 17.02C58.3898 17.02 57.9898 16.4 57.9898 15.48C57.9898 14.56 58.3898 13.94 59.1498 13.94C59.6598 13.94 60.0598 14.22 60.3298 14.77L61.4398 14.32C61.0498 13.36 60.2898 12.88 59.1498 12.88C58.3598 12.88 57.7598 13.13 57.3298 13.62C56.8998 14.11 56.6898 14.73 56.6898 15.48C56.6898 16.23 56.8998 16.85 57.3298 17.34C57.7598 17.83 58.3598 18.08 59.1498 18.08C60.2898 18.08 61.0498 17.6 61.4398 16.64L60.3298 16.19ZM62.3528 18H63.5928V15.62L65.3728 18H66.8928L64.7428 15.28L66.7628 12.96H65.2328L63.5928 14.94V10.92H62.3528V18Z" fill="white"/>
</svg>
