<svg width="73" height="30" viewBox="0 0 73 30" fill="none" xmlns="http://www.w3.org/2000/svg">
<rect id="state" x="0.5" y="0.5" width="72" height="28" rx="4.5" stroke="white"/>
<path d="M6.8 18H8.04V15.99C8.04 14.72 8.55 13.94 9.19 13.94C9.67 13.94 9.91 14.22 9.91 14.77V18H11.15V14.4C11.15 13.41 10.53 12.88 9.6 12.88C8.97 12.88 8.45 13.18 8.04 13.77V12.96H6.8V18ZM17.0301 15.37C17.0301 14.8 16.8501 14.21 16.4901 13.72C16.1301 13.21 15.4801 12.88 14.6801 12.88C12.9501 12.88 12.2601 14.28 12.2601 15.48C12.2601 16.68 12.9501 18.08 14.6801 18.08C15.7801 18.08 16.5401 17.59 16.9701 16.61L15.9701 16.24C15.6701 16.76 15.2601 17.02 14.7501 17.02C14.0301 17.02 13.5901 16.49 13.5601 15.88H17.0301V15.37ZM14.6801 13.94C15.2601 13.94 15.6201 14.26 15.7601 14.9H13.5901C13.6801 14.37 14.0901 13.94 14.6801 13.94ZM19.7577 14.27L18.9377 12.96H17.6377L19.0977 15.31L17.4277 18H18.7277L19.7577 16.36L20.7877 18H22.0877L20.4177 15.31L21.8777 12.96H20.5777L19.7577 14.27ZM25.5119 16.9C25.3619 16.98 25.2019 17.02 25.0319 17.02C24.5919 17.02 24.3719 16.8 24.3719 16.2V14.02H25.7019V12.96H24.3719V10.92L23.1319 11.7V12.96H22.3519V14.02H23.1319V16.22C23.1319 17.45 23.8219 18.08 24.9819 18.08C25.2719 18.08 25.5419 18.02 25.8019 17.9L25.5119 16.9Z" fill="white"/>
<path d="M62.1878 10.9922C62.2268 10.9531 62.2659 10.9336 62.344 10.9336C62.4026 10.9336 62.4612 10.9531 62.5198 10.9922L66.6018 15.0938C66.6409 15.1328 66.68 15.1914 66.68 15.25C66.68 15.3281 66.6409 15.3672 66.6018 15.4062L62.5198 19.5078C62.4612 19.5469 62.4026 19.5664 62.344 19.5664C62.2659 19.5664 62.2268 19.5469 62.1878 19.5078L61.7972 19.1172C61.7386 19.0781 61.719 19.0391 61.719 18.9609C61.719 18.9023 61.7386 18.8438 61.7972 18.7852L65.3323 15.25L61.7972 11.7148C61.7386 11.6758 61.719 11.6172 61.719 11.5391C61.719 11.4805 61.7386 11.4219 61.7972 11.3828L62.1878 10.9922Z" fill="white"/>
</svg>
