<svg width="237" height="232" viewBox="0 0 237 232" fill="none" xmlns="http://www.w3.org/2000/svg">
<path d="M236.028 157.823C234.715 148.791 232.352 139.943 228.985 131.459C221.061 111.685 213.137 91.912 204.773 72.1388C203.245 68.2659 200.705 64.8724 197.418 62.3115C194.131 59.7507 190.216 58.116 186.081 57.5777C181.946 57.0393 177.742 57.617 173.907 59.2505C170.072 60.884 166.745 63.5137 164.273 66.8659H163.393C161.006 64.1573 158.032 62.0274 154.697 60.6382C151.362 59.249 147.754 58.637 144.146 58.8489C140.539 59.0607 137.027 60.0907 133.878 61.8606C130.73 63.6305 128.026 66.0937 125.974 69.0629C123.766 66.32 120.941 64.1349 117.729 62.6845C114.517 61.234 111.008 60.5591 107.486 60.7142C104.011 60.7453 100.588 61.5504 97.4654 63.0708C94.3428 64.5912 91.5998 66.7886 89.4367 69.5023L88.5563 67.7447L82.3933 52.8049C80.6539 58.8263 78.4461 64.7029 75.7901 70.3811L98.241 124.428L99.5617 127.504C100.242 129.046 101.487 130.269 103.043 130.923C104.598 131.577 106.346 131.611 107.926 131.019C108.749 130.695 109.493 130.198 110.106 129.561C110.72 128.924 111.189 128.163 111.481 127.329C111.773 126.495 111.882 125.608 111.801 124.728C111.719 123.849 111.448 122.997 111.007 122.231C107.045 111.685 102.643 101.579 98.241 91.0332C97.1319 88.2946 97.1581 85.2283 98.3139 82.509C99.4697 79.7896 101.66 77.6399 104.404 76.5328C107.148 75.4257 110.22 75.4519 112.944 76.6055C115.668 77.7592 117.822 79.9459 118.931 82.6845C122.013 90.1544 125.094 98.0637 128.616 105.534C132.137 113.004 133.458 117.398 135.659 123.11C135.995 123.927 136.492 124.668 137.12 125.289C137.748 125.911 138.495 126.4 139.316 126.728C140.137 127.056 141.016 127.215 141.9 127.198C142.784 127.18 143.656 126.985 144.463 126.625C145.228 126.294 145.917 125.812 146.489 125.207C147.061 124.603 147.505 123.889 147.793 123.109C148.081 122.328 148.208 121.498 148.165 120.667C148.122 119.837 147.911 119.023 147.545 118.276C144.023 109.049 140.061 99.8214 136.099 90.5938C135.318 88.9303 134.95 87.103 135.026 85.2672C135.103 83.4313 135.622 81.641 136.54 80.0481C137.544 78.2932 139.032 76.8633 140.827 75.9285C142.622 74.9937 144.648 74.5934 146.665 74.7752C148.725 74.6359 150.776 75.1577 152.518 76.2644C154.261 77.3711 155.603 79.0048 156.349 80.9269C158.991 86.1998 161.192 92.3515 163.393 98.0637L171.317 116.958C171.997 118.5 173.242 119.724 174.798 120.377C176.353 121.031 178.1 121.065 179.681 120.473C180.483 120.186 181.218 119.735 181.837 119.149C182.456 118.563 182.947 117.856 183.278 117.071C183.609 116.286 183.773 115.441 183.76 114.59C183.747 113.739 183.557 112.899 183.202 112.125L173.518 88.3968L172.197 85.321C171.929 83.4085 172.133 81.4597 172.791 79.6438C173.45 77.8279 174.542 76.1998 175.973 74.9009C177.405 73.6019 179.132 72.6714 181.006 72.19C182.879 71.7087 184.842 71.6911 186.724 72.1388C188.049 72.5687 189.275 73.2559 190.333 74.1608C191.391 75.0658 192.259 76.1706 192.887 77.4116C193.426 78.0204 193.737 78.7968 193.767 79.6087L216.218 133.656C219.286 140.729 221.645 148.089 223.262 155.626C224.928 163.065 224.354 170.829 221.613 177.943C218.872 185.058 214.085 191.205 207.854 195.612C200.23 201.622 191.78 206.505 182.762 210.112C173.527 214.357 163.75 217.314 153.708 218.9C143.592 220.183 133.315 218.977 123.773 215.385L40.573 181.111C37.8177 180.295 35.4522 178.51 33.9144 176.086C32.3766 173.662 31.7707 170.765 32.2089 167.929C32.7592 164.955 34.2557 162.237 36.4761 160.179C38.6966 158.121 41.5227 156.833 44.5349 156.505C46.6583 156.516 48.7565 156.964 50.6979 157.823L93.3987 175.399H95.1595V174.081L60.8228 92.7909C57.6668 96.2342 54.2843 99.4636 50.6979 102.458C57.3011 118.276 63.9043 134.534 70.9478 150.353V152.111H70.5075C70.274 152.111 70.0501 152.018 69.885 151.853C69.7199 151.688 69.6271 151.465 69.6271 151.232L52.4588 144.201C50.7555 143.558 48.9826 143.115 47.1762 142.883C42.684 142.31 38.1196 142.9 33.9215 144.595C29.7234 146.291 26.0326 149.035 23.2035 152.565C20.3744 156.095 18.5021 160.292 17.7664 164.752C17.0307 169.213 17.4564 173.787 19.0025 178.036C20.172 181.146 21.9949 183.971 24.3487 186.321C26.7024 188.67 29.5326 190.49 32.6491 191.657L108.366 222.416C114.497 225.214 120.823 227.564 127.295 229.446C141.054 233.19 155.621 232.731 169.115 228.128C178.013 225.41 186.695 222.032 195.088 218.022C203.07 214.178 210.6 209.462 217.539 203.961C224.342 198.512 229.618 191.401 232.858 183.317C236.097 175.234 237.189 166.452 236.028 157.823Z" fill="white"/>
<path d="M60.8226 92.7908L48.9369 63.79C48.037 62.0818 47.6039 60.167 47.6812 58.2385C47.7584 56.31 48.3434 54.4359 49.3771 52.8049C50.2885 51.0389 51.6811 49.5658 53.3944 48.5552C55.1078 47.5446 57.0724 47.0376 59.0618 47.0926C61.1091 47.2621 63.0774 47.9584 64.7747 49.1136C66.4721 50.2688 67.8405 51.8433 68.7465 53.6837C68.8666 54.3412 69.172 54.9509 69.6269 55.4413C71.3878 60.2748 73.5888 65.5476 75.7899 70.3811C78.4459 64.7028 80.6537 58.8262 82.3931 52.8049L78.8714 44.8956C77.1867 41.4779 74.6878 38.5248 71.5938 36.2952C68.4998 34.0656 64.9052 32.6276 61.1249 32.1072C57.3447 31.5867 53.4943 31.9997 49.9111 33.31C46.328 34.6203 43.1215 36.7878 40.5728 39.6227C37.0495 43.0179 34.6859 47.4336 33.8168 52.2443C32.9477 57.055 33.6172 62.0167 35.7304 66.4265L50.6977 102.458C54.2841 99.4636 57.6666 96.2341 60.8226 92.7908Z" fill="white"/>
<path fill-rule="evenodd" clip-rule="evenodd" d="M65.1084 13.6226C53.4931 11.9856 41.6961 14.9508 32.2421 21.8853C22.7854 28.8218 16.4257 39.1776 14.5233 50.7351C13.545 57.488 14.1398 64.3754 16.2618 70.8619C18.3895 77.366 21.9949 83.291 26.7965 88.1739C29.3511 90.7718 29.3121 94.9448 26.7095 97.4947C24.1068 100.045 19.9261 100.006 17.3715 97.4078C11.1438 91.0745 6.46737 83.3897 3.7077 74.9537C0.94803 66.5177 0.17983 57.5591 1.46312 48.7777L1.47111 48.723L1.48002 48.6684C3.9277 33.6833 12.1645 20.2536 24.4218 11.2628C36.6791 2.2721 51.9796 -1.56276 67.038 0.58164L67.1024 0.590814L67.1667 0.601254C77.8479 2.33737 87.8312 7.0163 95.9919 14.1109C104.152 21.2055 110.166 30.4338 113.355 40.7562C114.43 44.2347 112.476 47.9242 108.991 48.997C105.506 50.0697 101.81 48.1194 100.735 44.6409C98.271 36.6645 93.6241 29.5335 87.3181 24.0513C81.0286 18.5834 73.3378 14.9724 65.1084 13.6226Z" fill="white"/>
</svg>
