<svg width="91" height="29" viewBox="0 0 91 29" fill="none" xmlns="http://www.w3.org/2000/svg">
<rect x="0.25" y="0.25" width="90.5" height="28.5" rx="4.75" stroke="white" stroke-width="0.5"/>
<path d="M34.0663 14.45C34.0663 13.45 33.5063 12.88 32.5863 12.88C31.8563 12.88 31.2963 13.22 30.9163 13.89V12.96H30.0763V18H30.9163V15.89C30.9163 15.22 31.0563 14.67 31.3363 14.26C31.6263 13.85 31.9663 13.64 32.3563 13.64C32.9363 13.64 33.2263 13.98 33.2263 14.67V18H34.0663V14.45ZM39.9105 15.27C39.9105 14.6 39.7105 14.04 39.3005 13.58C38.9005 13.11 38.3405 12.88 37.6305 12.88C36.9005 12.88 36.3405 13.13 35.9405 13.64C35.5505 14.14 35.3505 14.75 35.3505 15.48C35.3505 16.21 35.5505 16.82 35.9405 17.33C36.3405 17.83 36.9005 18.08 37.6305 18.08C38.6705 18.08 39.3005 17.67 39.7705 16.68L39.0305 16.36C38.7405 17.01 38.3405 17.32 37.6305 17.32C36.7605 17.32 36.2605 16.65 36.2105 15.66H39.9105V15.27ZM37.6305 13.64C38.4005 13.64 38.8705 14.14 39.0305 14.9H36.2605C36.4205 14.13 36.8805 13.64 37.6305 13.64ZM42.1774 15.34L40.5374 18H41.4874L42.6474 16.11L43.8074 18H44.7574L43.1174 15.34L44.5774 12.96H43.6274L42.6474 14.56L41.6674 12.96H40.7174L42.1774 15.34ZM46.1845 13.72V16.42C46.1845 17.51 46.7545 18.08 47.6445 18.08C47.9745 18.08 48.2445 18.02 48.4645 17.89L48.2645 17.16C48.1045 17.27 47.9145 17.32 47.6945 17.32C47.2645 17.32 47.0245 17.02 47.0245 16.49V13.72H48.3445V12.96H47.0245V10.92L46.1845 11.45V12.96H45.3145V13.72H46.1845Z" fill="white"/>
<path d="M73.4883 9.99219C73.5273 9.95312 73.5664 9.93359 73.6445 9.93359C73.7031 9.93359 73.7617 9.95312 73.8203 9.99219L77.9023 14.0938C77.9414 14.1328 77.9805 14.1914 77.9805 14.25C77.9805 14.3281 77.9414 14.3672 77.9023 14.4062L73.8203 18.5078C73.7617 18.5469 73.7031 18.5664 73.6445 18.5664C73.5664 18.5664 73.5273 18.5469 73.4883 18.5078L73.0977 18.1172C73.0391 18.0781 73.0195 18.0391 73.0195 17.9609C73.0195 17.9023 73.0391 17.8438 73.0977 17.7852L76.6328 14.25L73.0977 10.7148C73.0391 10.6758 73.0195 10.6172 73.0195 10.5391C73.0195 10.4805 73.0391 10.4219 73.0977 10.3828L73.4883 9.99219Z" fill="white"/>
</svg>
