<svg width="59" height="9" viewBox="0 0 59 9" fill="none" xmlns="http://www.w3.org/2000/svg">
<path d="M4.61207 6.04C4.61207 4.68 5.06207 3.94 5.70207 3.94C6.11207 3.94 6.32207 4.17 6.32207 4.64V8H7.56207V4.43C7.56207 3.46 6.99207 2.88 6.06207 2.88C5.42207 2.88 4.91207 3.23 4.52207 3.92C4.31207 3.23 3.76207 2.88 3.11207 2.88C2.54207 2.88 2.05207 3.18 1.66207 3.77V2.96H0.42207V8H1.66207V6.15C1.66207 4.71 2.11207 3.94 2.75207 3.94C3.16207 3.94 3.37207 4.17 3.37207 4.64V8H4.61207V6.04ZM9.37488 7.35C9.83488 7.84 10.4549 8.08 11.2449 8.08C12.0349 8.08 12.6549 7.84 13.1149 7.35C13.5749 6.86 13.8049 6.23 13.8049 5.48C13.8049 4.73 13.5749 4.11 13.1149 3.62C12.6549 3.13 12.0349 2.88 11.2449 2.88C10.4549 2.88 9.83488 3.13 9.37488 3.62C8.91488 4.11 8.68488 4.73 8.68488 5.48C8.68488 6.23 8.91488 6.86 9.37488 7.35ZM10.3249 4.39C10.5549 4.09 10.8549 3.94 11.2449 3.94C11.6349 3.94 11.9349 4.09 12.1649 4.39C12.3949 4.68 12.5049 5.05 12.5049 5.48C12.5049 5.91 12.3949 6.28 12.1649 6.58C11.9349 6.87 11.6349 7.02 11.2449 7.02C10.8549 7.02 10.5549 6.87 10.3249 6.58C10.0949 6.28 9.98488 5.91 9.98488 5.48C9.98488 5.05 10.0949 4.68 10.3249 4.39ZM15.9036 8H17.0236L18.7336 2.96H17.4836L16.4636 6.47L15.4436 2.96H14.1936L15.9036 8ZM23.8943 5.37C23.8943 4.8 23.7143 4.21 23.3543 3.72C22.9943 3.21 22.3443 2.88 21.5443 2.88C19.8143 2.88 19.1243 4.28 19.1243 5.48C19.1243 6.68 19.8143 8.08 21.5443 8.08C22.6443 8.08 23.4043 7.59 23.8343 6.61L22.8343 6.24C22.5343 6.76 22.1243 7.02 21.6143 7.02C20.8943 7.02 20.4543 6.49 20.4243 5.88H23.8943V5.37ZM21.5443 3.94C22.1243 3.94 22.4843 4.26 22.6243 4.9H20.4543C20.5443 4.37 20.9543 3.94 21.5443 3.94ZM28.3514 4.52C28.4814 4.13 28.7714 3.94 29.2214 3.94C29.8114 3.94 30.1014 4.19 30.1014 4.68V4.9H29.2614C27.9814 4.9 27.1114 5.55 27.1114 6.55C27.1114 7.52 27.7514 8.08 28.6414 8.08C29.2814 8.08 29.8014 7.84 30.1914 7.36L30.3214 8H31.3414V4.99C31.3414 3.58 30.6314 2.88 29.2214 2.88C28.2114 2.88 27.4614 3.44 27.3014 4.28L28.3514 4.52ZM28.4114 6.53C28.4114 6.1 28.7014 5.88 29.2714 5.88H30.1014V5.98C30.1014 6.29 29.9814 6.54 29.7414 6.73C29.5114 6.92 29.2414 7.02 28.9314 7.02C28.6014 7.02 28.4114 6.8 28.4114 6.53ZM33.7714 6.21C33.7714 4.68 34.3314 3.99 35.1214 3.99C35.3114 3.99 35.4914 4.04 35.6414 4.13L35.8714 2.98C35.6514 2.91 35.4514 2.88 35.2614 2.88C34.6714 2.88 34.1314 3.21 33.7714 3.78V2.96H32.5314V8H33.7714V6.21ZM37.0897 7.35C37.5497 7.84 38.1697 8.08 38.9597 8.08C39.7497 8.08 40.3697 7.84 40.8297 7.35C41.2897 6.86 41.5197 6.23 41.5197 5.48C41.5197 4.73 41.2897 4.11 40.8297 3.62C40.3697 3.13 39.7497 2.88 38.9597 2.88C38.1697 2.88 37.5497 3.13 37.0897 3.62C36.6297 4.11 36.3997 4.73 36.3997 5.48C36.3997 6.23 36.6297 6.86 37.0897 7.35ZM38.0397 4.39C38.2697 4.09 38.5697 3.94 38.9597 3.94C39.3497 3.94 39.6497 4.09 39.8797 4.39C40.1097 4.68 40.2197 5.05 40.2197 5.48C40.2197 5.91 40.1097 6.28 39.8797 6.58C39.6497 6.87 39.3497 7.02 38.9597 7.02C38.5697 7.02 38.2697 6.87 38.0397 6.58C37.8097 6.28 37.6997 5.91 37.6997 5.48C37.6997 5.05 37.8097 4.68 38.0397 4.39ZM46.987 2.96H45.747V4.97C45.747 6.24 45.237 7.02 44.597 7.02C44.117 7.02 43.877 6.74 43.877 6.19V2.96H42.637V6.56C42.637 7.55 43.257 8.08 44.187 8.08C44.817 8.08 45.337 7.78 45.747 7.19V8H46.987V2.96ZM48.3615 8H49.6015V5.99C49.6015 4.72 50.1115 3.94 50.7515 3.94C51.2315 3.94 51.4715 4.22 51.4715 4.77V8H52.7115V4.4C52.7115 3.41 52.0915 2.88 51.1615 2.88C50.5315 2.88 50.0115 3.18 49.6015 3.77V2.96H48.3615V8ZM56.1216 2.88C54.6416 2.88 53.8216 3.89 53.8216 5.48C53.8216 7.07 54.6416 8.08 56.1216 8.08C56.6916 8.08 57.1816 7.77 57.3416 7.48V8H58.5816V0.92H57.3416V3.42C57.1116 3.13 56.6116 2.88 56.1216 2.88ZM55.4516 4.35C55.6716 4.08 55.9516 3.94 56.2916 3.94C56.6316 3.94 56.9116 4.08 57.1216 4.35C57.3416 4.62 57.4516 4.99 57.4516 5.48C57.4516 5.97 57.3416 6.35 57.1216 6.62C56.9116 6.89 56.6316 7.02 56.2916 7.02C55.9516 7.02 55.6716 6.88 55.4516 6.61C55.2316 6.34 55.1216 5.96 55.1216 5.48C55.1216 5 55.2316 4.62 55.4516 4.35Z" fill="white"/>
</svg>
