<svg width="27" height="27" viewBox="0 0 27 27" fill="none" xmlns="http://www.w3.org/2000/svg">
<path d="M14 0.0090877C13.8341 0.00304671 13.6674 0 13.5 0C6.04416 0 0 6.04416 0 13.5C0 20.9558 6.04416 27 13.5 27C20.4488 27 26.1714 21.7499 26.9176 15H24.9031C24.1681 20.6425 19.3429 25 13.5 25C7.14873 25 2 19.8513 2 13.5C2 7.14873 7.14873 2 13.5 2C13.6675 2 13.8342 2.00358 14 2.01067V0.0090877Z" fill="white"/>
<ellipse cx="13.6215" cy="9.76514" rx="2.15469" ry="2.69336" fill="white"/>
<ellipse cx="13.6219" cy="16.2292" rx="4.30938" ry="3.77071" fill="white"/>
<path fill-rule="evenodd" clip-rule="evenodd" d="M21.0909 5.90909V10H22.9091V5.90909L27 5.90909V4.09091L22.9091 4.09091V0H21.0909V4.09091L17 4.09091V5.90909L21.0909 5.90909Z" fill="white"/>
</svg>
