<svg width="38" height="56" viewBox="0 0 38 56" fill="none" xmlns="http://www.w3.org/2000/svg">
<path fill-rule="evenodd" clip-rule="evenodd" d="M24.6885 1.56423H13.0505C6.62309 1.56423 1.41261 6.64085 1.41261 12.9032V37.4709C1.41261 46.8643 9.22833 54.4793 18.8695 54.4793C28.5107 54.4793 36.3264 46.8643 36.3264 37.4709V12.9032C36.3264 6.64085 31.1159 1.56423 24.6885 1.56423ZM13.0505 0.304352C5.90893 0.304352 0.119507 5.94503 0.119507 12.9032V37.4709C0.119507 47.5602 8.51417 55.7391 18.8695 55.7391C29.2248 55.7391 37.6195 47.5602 37.6195 37.4709V12.9032C37.6195 5.94503 31.8301 0.304352 24.6885 0.304352H13.0505Z" fill="white"/>
<path d="M16.4238 8.7826C16.4238 7.70204 17.5188 6.82608 18.8695 6.82608C20.2202 6.82608 21.3151 7.70205 21.3151 8.7826V17.913C21.3151 18.9936 20.2202 19.8696 18.8695 19.8696C17.5188 19.8696 16.4238 18.9936 16.4238 17.913V8.7826Z" fill="white"/>
</svg>
