<svg width="9" height="6" viewBox="0 0 9 6" fill="none" xmlns="http://www.w3.org/2000/svg">
<path d="M8.65527 1.13556C8.69433 1.17462 8.71387 1.21369 8.71387 1.29181C8.71387 1.3504 8.69433 1.409 8.65527 1.46759L4.55371 5.54962C4.51465 5.58869 4.45605 5.62775 4.39746 5.62775C4.31933 5.62775 4.28027 5.58869 4.24121 5.54962L0.139647 1.46759C0.100585 1.409 0.0810536 1.3504 0.0810536 1.29181C0.0810536 1.21369 0.100585 1.17462 0.139647 1.13556L0.530272 0.744935C0.569335 0.686341 0.608397 0.66681 0.686522 0.66681C0.745116 0.66681 0.80371 0.686341 0.862304 0.744935L4.39746 4.28009L7.93262 0.744936C7.97168 0.686342 8.03027 0.666811 8.1084 0.666811C8.16699 0.666811 8.22558 0.686342 8.26465 0.744936L8.65527 1.13556Z" fill="white"/>
</svg>
