<svg width="5" height="10" viewBox="0 0 5 10" fill="none" xmlns="http://www.w3.org/2000/svg">
<path d="M4.51207 9.00781C4.47301 9.04687 4.43394 9.0664 4.35582 9.0664C4.29722 9.0664 4.23863 9.04687 4.18004 9.00781L0.0980065 4.90625C0.058944 4.86719 0.0198815 4.80859 0.0198815 4.75C0.0198815 4.67187 0.0589441 4.63281 0.0980066 4.59375L4.18004 0.492185C4.23863 0.453123 4.29723 0.433592 4.35582 0.433592C4.43394 0.433592 4.47301 0.453123 4.51207 0.492185L4.90269 0.88281C4.96129 0.921873 4.98082 0.960935 4.98082 1.03906C4.98082 1.09765 4.96129 1.15625 4.90269 1.21484L1.36754 4.75L4.90269 8.28515C4.96129 8.32422 4.98082 8.38281 4.98082 8.46094C4.98082 8.51953 4.96129 8.57812 4.90269 8.61719L4.51207 9.00781Z" fill="white"/>
</svg>
