<svg width="21" height="14" viewBox="0 0 21 14" fill="none" xmlns="http://www.w3.org/2000/svg">
<path d="M19.4648 1.625C19.2539 1.625 19.043 1.69531 18.832 1.83594L15 4.29688V2.1875C15 1.27344 14.1562 0.5 13.1719 0.5H2.16797C1.18359 0.5 0.375 1.27344 0.375 2.1875V12.3477C0.375 13.2617 1.18359 14 2.16797 14H13.1719C14.1562 14 15 13.2617 15 12.3477V10.2383L18.832 12.6992C19.043 12.8398 19.2539 12.875 19.4648 12.875C20.0625 12.875 20.5898 12.418 20.5898 11.7852V2.75C20.625 2.08203 20.0625 1.625 19.4648 1.625ZM13.875 12.3477C13.875 12.6289 13.5234 12.875 13.1719 12.875H2.16797C1.81641 12.875 1.5 12.6289 1.5 12.3477V2.1875C1.5 1.90625 1.81641 1.625 2.16797 1.625H13.1719C13.5234 1.625 13.875 1.90625 13.875 2.1875V12.3477ZM19.5 11.7852L19.4297 11.75L15 8.90234V5.63281L19.5 2.75V11.7852Z" fill="white"/>
<line id="mute" x1="1" y1="1" x2="20" y2="13" stroke="white" stroke-width="2" />
</svg>
