<svg width="21" height="26" viewBox="0 0 21 26" fill="none" xmlns="http://www.w3.org/2000/svg">
<path d="M12.6179 14.3332C14.0247 12.6355 12.9727 10.7248 10.5388 10.4617C8.45964 10.2425 6.39297 11.3951 5.48414 13.2933C4.25161 15.8429 5.16044 18.9501 7.78735 20.8169C10.9807 23.0847 14.4604 23.1536 18.0896 21.719C18.351 21.6188 18.6 21.4998 18.9112 21.3682C18.9112 22.4833 18.9112 23.5483 18.9112 24.6696C18.3448 24.6696 17.7908 24.6696 17.2367 24.6696C15.5996 24.6696 13.9625 24.6571 12.3315 24.6759C10.3271 24.6947 8.65884 23.8928 7.05904 22.9531C5.83896 22.239 4.83675 21.3181 4.10843 20.1842C3.98394 19.99 3.89679 19.7394 3.89056 19.5139C3.87811 17.0144 3.87811 14.5086 3.88434 12.009C3.88434 11.8462 3.90924 11.652 4.00884 11.5267C5.70201 9.20882 8.72108 8.0812 11.4165 8.75151C13.1906 9.19002 14.4231 10.1861 14.8153 11.8462C15.002 12.6355 14.8153 13.381 14.2052 14.0074C13.7633 14.4459 13.2404 14.5524 12.6179 14.3332Z" fill="white"/>
<path d="M6.46765 5.76961C7.61303 4.88632 8.80199 4.41021 10.1341 4.20348C14.5787 3.50186 18.9921 6.54014 18.9424 11.0067C18.9237 12.9237 18.9424 14.8469 18.9361 16.7638C18.9361 16.9204 18.8926 17.1209 18.7867 17.2336C16.5707 19.5202 13.0785 20.0965 10.5387 18.5868C9.18171 17.7787 8.44717 16.6385 8.63392 15.1413C8.71484 14.5149 9.05721 13.9824 9.67347 13.6754C9.98472 13.5188 10.4018 13.5439 10.8562 13.4687C10.8064 13.6691 10.8126 13.7381 10.7815 13.7568C9.67347 14.4522 10.0781 15.9244 10.8189 16.5759C11.9891 17.6033 13.7695 17.835 15.363 17.1334C17.3799 16.2439 18.5813 14.2267 18.5066 12.1343C18.3759 8.5072 14.8401 5.65685 10.8251 5.3311C9.52408 5.2246 8.2542 5.35615 7.00299 5.66311C6.87227 5.69444 6.74777 5.71323 6.46765 5.76961Z" fill="white"/>
<path fill-rule="evenodd" clip-rule="evenodd" d="M2.77008 3.06334H20.038V25.8035H2.77008V3.06334ZM3.33032 3.62714V25.2397H19.4777V3.62714H3.33032Z" fill="white"/>
<path fill-rule="evenodd" clip-rule="evenodd" d="M1.38196 1.54107H18.6498V3.09467H18.0896V2.10487H1.9422V23.7174H2.80123V24.2812H1.38196V1.54107Z" fill="white"/>
<path fill-rule="evenodd" clip-rule="evenodd" d="M0.0124512 0.0375824H17.2803V1.59118H16.7201V0.601388H0.572692V22.2139H1.43173V22.7777H0.0124512V0.0375824Z" fill="white"/>
</svg>
