<svg width="21" height="17" viewBox="0 0 21 17" fill="none" xmlns="http://www.w3.org/2000/svg">
<path d="M20.3789 14.7891C20.3789 14.7539 19.6055 13.9102 19.0781 12.8555C20.0273 11.9062 20.625 10.7109 20.625 9.375C20.625 6.5625 17.918 4.24219 14.4023 3.85547C13.3125 1.81641 10.7109 0.375 7.6875 0.375C3.64453 0.375 0.375 2.90625 0.375 6C0.375 7.30078 0.9375 8.49609 1.92188 9.48047C1.35938 10.5352 0.585938 11.3789 0.585938 11.4141C0.375 11.625 0.304688 11.9766 0.410156 12.293C0.550781 12.5742 0.832031 12.7852 1.18359 12.7852C3.04688 12.7852 4.55859 12.0469 5.57812 11.4141C5.89453 11.4844 6.21094 11.5195 6.5625 11.5898C7.65234 13.5938 10.2539 15.0352 13.3125 15.0352C14.0156 15.0352 14.7188 14.9297 15.3867 14.7891C16.4062 15.4219 17.918 16.1602 19.8164 16.1602C20.1328 16.1602 20.4141 15.9492 20.5547 15.668C20.6602 15.3516 20.625 15 20.3789 14.7891ZM5.82422 10.2891L5.36719 10.1836L4.94531 10.4648C4.24219 10.9219 3.1875 11.4492 1.88672 11.5898C2.16797 11.2031 2.58984 10.6406 2.90625 9.97266L3.29297 9.23438L2.69531 8.67188C2.13281 8.10938 1.5 7.23047 1.5 6C1.5 3.53906 4.27734 1.5 7.6875 1.5C11.0977 1.5 13.875 3.53906 13.875 6C13.875 8.49609 11.0977 10.5 7.6875 10.5C7.05469 10.5 6.42188 10.4297 5.82422 10.2891ZM16.0195 13.8398L15.5977 13.5586L15.1406 13.6992C14.543 13.8398 13.9102 13.9102 13.3125 13.9102C10.9922 13.9102 9.02344 12.9961 7.93359 11.625C11.8359 11.5195 15 9.05859 15 6C15 5.68359 14.9297 5.36719 14.8594 5.05078C17.5312 5.54297 19.5 7.30078 19.5 9.375C19.5 10.6055 18.832 11.4844 18.2695 12.0469L17.707 12.6094L18.0586 13.3477C18.375 14.0156 18.7969 14.5781 19.0781 14.9648C17.7773 14.8242 16.7227 14.2969 16.0195 13.8398Z" fill="white"/>
<path id="state" d="M5.82422 10.2891L5.36719 10.1836L4.94531 10.4648C4.24219 10.9219 3.1875 11.4492 1.88672 11.5898C2.16797 11.2031 2.58984 10.6406 2.90625 9.97266L3.29297 9.23438L2.69531 8.67188C2.13281 8.10938 1.5 7.23047 1.5 6C1.5 3.53906 4.27734 1.5 7.6875 1.5C11.0977 1.5 13.875 3.53906 13.875 6C13.875 8.49609 11.0977 10.5 7.6875 10.5C7.05469 10.5 6.42188 10.4297 5.82422 10.2891Z" stroke="white" stroke-width="1" fill="white"/>
</svg>
