<svg width="27" height="27" viewBox="0 0 27 27" fill="none" xmlns="http://www.w3.org/2000/svg">
<circle cx="13.5" cy="13.5" r="12.42" stroke="white" stroke-width="2.16"/>
<path d="M10.0668 18.154C9.04015 18.154 8.22815 17.8693 7.63082 17.3C7.03349 16.7213 6.73482 15.9373 6.73482 14.948V11.252C6.73482 10.2813 7.03349 9.51133 7.63082 8.942C8.22815 8.37267 9.04015 8.088 10.0668 8.088C11.0935 8.088 11.9055 8.37267 12.5028 8.942C13.1095 9.51133 13.4128 10.2813 13.4128 11.252V14.948C13.4128 15.9373 13.1095 16.7213 12.5028 17.3C11.9055 17.8693 11.0935 18.154 10.0668 18.154ZM10.0668 16.46C10.4868 16.46 10.8182 16.334 11.0608 16.082C11.3128 15.8207 11.4388 15.4753 11.4388 15.046V11.196C11.4388 10.7667 11.3128 10.426 11.0608 10.174C10.8182 9.91267 10.4868 9.782 10.0668 9.782C9.65615 9.782 9.32482 9.91267 9.07282 10.174C8.83015 10.426 8.70882 10.7667 8.70882 11.196V15.046C8.70882 15.4753 8.83015 15.8207 9.07282 16.082C9.32482 16.334 9.65615 16.46 10.0668 16.46ZM17.3372 16.222C17.3185 16.2407 17.3139 16.2593 17.3232 16.278C17.3325 16.2967 17.3512 16.306 17.3792 16.306H21.1732C21.2199 16.306 21.2572 16.3247 21.2852 16.362C21.3225 16.39 21.3412 16.4273 21.3412 16.474V17.832C21.3412 17.8787 21.3225 17.9207 21.2852 17.958C21.2572 17.986 21.2199 18 21.1732 18H14.8732C14.8265 18 14.7845 17.986 14.7472 17.958C14.7192 17.9207 14.7052 17.8787 14.7052 17.832V16.544C14.7052 16.46 14.7332 16.39 14.7892 16.334C15.2465 15.886 15.7132 15.4007 16.1892 14.878C16.6652 14.346 16.9639 14.0147 17.0852 13.884C17.3465 13.576 17.6125 13.282 17.8832 13.002C18.7325 12.0593 19.1572 11.3593 19.1572 10.902C19.1572 10.5753 19.0405 10.3093 18.8072 10.104C18.5739 9.88933 18.2705 9.782 17.8972 9.782C17.5239 9.782 17.2205 9.88933 16.9872 10.104C16.7539 10.3093 16.6372 10.5847 16.6372 10.93V11.28C16.6372 11.3267 16.6185 11.3687 16.5812 11.406C16.5532 11.434 16.5159 11.448 16.4692 11.448H14.8172C14.7705 11.448 14.7285 11.434 14.6912 11.406C14.6632 11.3687 14.6492 11.3267 14.6492 11.28V10.622C14.6772 10.118 14.8359 9.67467 15.1252 9.292C15.4145 8.9 15.7972 8.60133 16.2732 8.396C16.7585 8.19067 17.2999 8.088 17.8972 8.088C18.5599 8.088 19.1339 8.214 19.6192 8.466C20.1139 8.70867 20.4919 9.04 20.7532 9.46C21.0239 9.88 21.1592 10.3467 21.1592 10.86C21.1592 11.252 21.0612 11.6533 20.8652 12.064C20.6692 12.4747 20.3752 12.918 19.9832 13.394C19.6939 13.758 19.3812 14.1173 19.0452 14.472C18.7092 14.8267 18.2099 15.34 17.5472 16.012L17.3372 16.222Z" fill="white"/>
</svg>
