<svg width="251" height="251" viewBox="0 0 251 251" fill="none" xmlns="http://www.w3.org/2000/svg">
<path d="M18.5128 119.111L11.9286 109.881L37.8266 93.619L41.7771 98.8933L18.5128 119.111Z" fill="white"/>
<path d="M3.14963 89.6633C1.74491 83.758 1.00869 77.7131 0.95488 71.6428L0.95488 67.687L31.6813 69.4451V71.6428C31.688 75.1997 32.1303 78.7423 32.9982 82.1914L3.14963 89.6633ZM34.315 57.1384L5.78332 46.1503C8.4236 39.4016 11.9676 33.0435 16.3181 27.2506L40.4603 46.1503C37.8326 49.4566 35.7573 53.1674 34.315 57.1384ZM105.864 47.9084C103.401 44.4209 100.443 41.3115 97.0847 38.6783L115.521 14.0649C121.391 18.5535 126.568 23.8853 130.884 29.8878L105.864 47.9084ZM49.6782 37.7993L32.5592 12.3068C38.501 8.00649 45.2038 4.8744 52.3119 3.07672L61.0909 32.525C56.9559 33.452 53.0654 35.25 49.6782 37.7993ZM86.111 32.9645C82.0025 31.5946 77.7109 30.8537 73.3815 30.7669L74.2594 4.27707e-05C81.6101 -0.00872966 88.9001 1.33201 95.7679 3.95578L86.111 32.9645Z" fill="white"/>
<path d="M112.887 65.0499C112.614 62.9667 112.173 60.9089 111.57 58.8965L140.979 49.2269L143.613 60.2151L112.887 65.0499Z" fill="white"/>
<path d="M249.839 176.25C248.528 167.118 246.323 158.138 243.255 149.439C235.354 129.66 227.453 109.442 219.113 89.6633C217.589 85.7893 215.057 82.3949 211.779 79.8334C208.501 77.2718 204.598 75.6367 200.475 75.0982C196.352 74.5597 192.16 75.1375 188.336 76.7715C184.511 78.4055 181.194 81.0359 178.729 84.389L177.852 85.268C175.581 82.4896 172.69 80.2857 169.41 78.8349C166.131 77.384 162.557 76.727 158.977 76.917C155.391 77.1096 151.888 78.0729 148.707 79.7414C145.526 81.4099 142.741 83.7445 140.541 86.5866C138.303 83.9978 135.541 81.9146 132.438 80.4749C129.336 79.0353 125.963 78.272 122.544 78.2356C119.006 78.2005 115.506 78.974 112.311 80.4973C109.117 82.0206 106.311 84.2535 104.108 87.0261C103.811 86.4886 103.66 85.8824 103.669 85.268L97.0849 70.3242C95.3494 76.2044 93.1477 81.9365 90.5006 87.4657L112.448 141.527L113.765 145.044C114.52 146.507 115.795 147.634 117.338 148.204C118.882 148.773 120.582 148.743 122.105 148.12C122.906 147.832 123.638 147.381 124.255 146.795C124.873 146.21 125.362 145.502 125.692 144.717C126.022 143.932 126.186 143.087 126.173 142.235C126.16 141.383 125.97 140.544 125.617 139.769C121.227 129.221 116.838 118.672 112.887 108.123C112.394 106.825 112.162 105.442 112.204 104.053C112.246 102.665 112.562 101.298 113.133 100.032C113.704 98.7664 114.519 97.6258 115.531 96.6761C116.544 95.7263 117.733 94.9862 119.032 94.4981C120.32 93.8401 121.73 93.4546 123.173 93.3656C124.616 93.2766 126.062 93.4859 127.421 93.9807C128.779 94.4755 130.022 95.245 131.071 96.2414C132.12 97.2378 132.953 98.4397 133.518 99.7724C136.59 107.684 139.663 115.595 143.175 123.067C146.686 130.539 147.564 134.934 150.198 140.648C150.42 141.495 150.833 142.28 151.406 142.941C151.979 143.603 152.697 144.124 153.503 144.464C154.309 144.803 155.182 144.953 156.055 144.901C156.928 144.849 157.778 144.597 158.538 144.165C159.338 143.877 160.07 143.426 160.688 142.84C161.305 142.254 161.795 141.546 162.125 140.761C162.455 139.976 162.619 139.131 162.606 138.279C162.593 137.428 162.403 136.588 162.049 135.814L150.637 108.123C149.857 106.459 149.49 104.632 149.567 102.795C149.643 100.959 150.161 99.1681 151.076 97.5748C152.077 95.8194 153.561 94.3891 155.351 93.454C157.14 92.519 159.161 92.1186 161.171 92.3005C163.226 92.1611 165.271 92.6831 167.008 93.7901C168.746 94.8971 170.084 96.5312 170.828 98.4538C173.462 104.168 175.657 109.881 177.852 115.595L185.753 134.495C186.04 135.297 186.491 136.03 187.076 136.648C187.661 137.266 188.368 137.756 189.152 138.087C189.936 138.417 190.78 138.581 191.63 138.568C192.481 138.555 193.319 138.365 194.093 138.011C195.633 137.332 196.855 136.089 197.508 134.535C198.161 132.982 198.196 131.238 197.604 129.66C194.093 121.749 191.02 113.837 187.947 105.926L186.63 102.849C186.364 100.936 186.567 98.9868 187.223 97.1704C187.879 95.354 188.969 93.7255 190.396 92.4261C191.823 91.1268 193.546 90.196 195.414 89.7146C197.282 89.2331 199.239 89.2155 201.116 89.6633C202.437 90.0933 203.66 90.7807 204.715 91.6859C205.769 92.5911 206.635 93.6962 207.261 94.9376C207.668 95.6188 207.965 96.3606 208.139 97.1352C215.601 115.156 223.063 133.176 230.086 151.197C233.085 158.446 235.435 165.948 237.11 173.613C238.771 181.054 238.199 188.82 235.466 195.936C232.732 203.053 227.959 209.201 221.746 213.61C214.085 219.532 205.671 224.41 196.726 228.114C187.326 232.162 177.44 234.969 167.317 236.465C157.193 237.782 146.901 236.418 137.468 232.509L54.9458 198.226C52.1636 197.321 49.7953 195.451 48.2666 192.953C46.7379 190.456 46.149 187.494 46.6057 184.601C47.1725 181.676 48.6814 179.017 50.9013 177.032C53.1212 175.048 55.9296 173.847 58.8963 173.613C60.9846 173.443 63.0843 173.744 65.0416 174.492L107.62 192.512L108.937 193.391H109.375L108.498 191.633L75.5764 109.881L65.4805 119.551L85.2333 167.459V169.217H84.7943C84.3554 169.217 84.3554 168.778 83.9164 168.338L66.7974 161.306C65.099 160.662 63.3312 160.22 61.53 159.987C42.2162 156.471 26.853 176.25 33.4373 194.71C34.5792 197.765 36.3379 200.552 38.6037 202.897C40.8694 205.241 43.5934 207.092 46.6057 208.335L122.105 239.542C128.338 242.655 134.794 245.299 141.419 247.453C155.12 251.135 169.585 250.83 183.119 246.574C192.067 243.663 200.858 240.289 209.456 236.465C217.331 232.716 224.705 227.991 231.403 222.4C238.254 217.007 243.565 209.902 246.802 201.8C250.038 193.699 251.086 184.886 249.839 176.25Z" fill="white"/>
<path d="M75.5761 109.881L63.7245 80.8728C62.8272 79.164 62.3953 77.2488 62.4724 75.3198C62.5494 73.3908 63.1327 71.5161 64.1634 69.8846C65.1454 68.0832 66.6116 66.5931 68.396 65.5833C70.1803 64.5734 72.2114 64.0841 74.2592 64.1708C76.2633 64.2765 78.1955 64.9531 79.8285 66.1211C81.4615 67.289 82.7274 68.8997 83.4772 70.7637C83.9161 71.2032 83.9161 72.0823 84.3551 72.5218C84.794 72.9613 88.3056 82.6309 90.5004 87.4657C93.1474 81.9365 95.3491 76.2044 97.0846 70.3242C96.2665 67.5439 95.0858 64.8838 93.573 62.4127C91.9563 59.014 89.5411 56.0582 86.5342 53.7985C83.5273 51.5388 80.0182 50.0424 76.3075 49.4376C72.5967 48.8327 68.7948 49.1373 65.2274 50.3254C61.6599 51.5135 58.4332 53.5496 55.8234 56.2593C52.2934 59.6402 49.8928 64.0305 48.9499 68.8297C48.0071 73.6289 48.568 78.6026 50.556 83.0704C55.8234 95.3771 60.6518 107.244 65.4803 119.551L75.5761 109.881Z" fill="white"/>
</svg>
