<svg width="71" height="9" viewBox="0 0 71 9" fill="none" xmlns="http://www.w3.org/2000/svg">
<path d="M4.29176 6.04C4.29176 4.68 4.74176 3.94 5.38176 3.94C5.79176 3.94 6.00176 4.17 6.00176 4.64V8H7.24176V4.43C7.24176 3.46 6.67176 2.88 5.74176 2.88C5.10176 2.88 4.59176 3.23 4.20176 3.92C3.99176 3.23 3.44176 2.88 2.79176 2.88C2.22176 2.88 1.73176 3.18 1.34176 3.77V2.96H0.101758V8H1.34176V6.15C1.34176 4.71 1.79176 3.94 2.43176 3.94C2.84176 3.94 3.05176 4.17 3.05176 4.64V8H4.29176V6.04ZM9.05457 7.35C9.51457 7.84 10.1346 8.08 10.9246 8.08C11.7146 8.08 12.3346 7.84 12.7946 7.35C13.2546 6.86 13.4846 6.23 13.4846 5.48C13.4846 4.73 13.2546 4.11 12.7946 3.62C12.3346 3.13 11.7146 2.88 10.9246 2.88C10.1346 2.88 9.51457 3.13 9.05457 3.62C8.59457 4.11 8.36457 4.73 8.36457 5.48C8.36457 6.23 8.59457 6.86 9.05457 7.35ZM10.0046 4.39C10.2346 4.09 10.5346 3.94 10.9246 3.94C11.3146 3.94 11.6146 4.09 11.8446 4.39C12.0746 4.68 12.1846 5.05 12.1846 5.48C12.1846 5.91 12.0746 6.28 11.8446 6.58C11.6146 6.87 11.3146 7.02 10.9246 7.02C10.5346 7.02 10.2346 6.87 10.0046 6.58C9.77457 6.28 9.66457 5.91 9.66457 5.48C9.66457 5.05 9.77457 4.68 10.0046 4.39ZM18.9518 2.96H17.7118V4.97C17.7118 6.24 17.2018 7.02 16.5618 7.02C16.0818 7.02 15.8418 6.74 15.8418 6.19V2.96H14.6018V6.56C14.6018 7.55 15.2218 8.08 16.1518 8.08C16.7818 8.08 17.3018 7.78 17.7118 7.19V8H18.9518V2.96ZM21.8168 2.88C21.3468 2.88 20.9568 3.02 20.6568 3.31C20.3568 3.6 20.2068 3.94 20.2068 4.35C20.2068 5.07 20.5868 5.44 21.2268 5.71C21.4168 5.79 21.7668 5.9 21.9368 5.98C22.0268 6.01 22.1268 6.05 22.2168 6.1C22.4068 6.19 22.4868 6.32 22.4868 6.48C22.4868 6.84 22.2768 7.02 21.8668 7.02C21.3968 7.02 21.0568 6.74 20.8568 6.19L19.8668 6.72C20.0168 7.08 20.2668 7.4 20.6168 7.67C20.9668 7.94 21.3868 8.08 21.8668 8.08C22.3968 8.08 22.8268 7.92 23.1568 7.59C23.4868 7.26 23.6568 6.87 23.6568 6.4C23.6568 6.05 23.4968 5.75 23.3468 5.58C23.2768 5.49 23.1568 5.41 22.9868 5.32C22.8268 5.23 22.7068 5.16 22.6268 5.13L22.1968 4.98L21.8368 4.85C21.5168 4.73 21.3568 4.57 21.3568 4.36C21.3568 4.09 21.5668 3.94 21.8168 3.94C22.1468 3.94 22.4268 4.09 22.6568 4.38L23.3968 3.7C23.0768 3.21 22.4868 2.88 21.8168 2.88ZM29.2186 5.37C29.2186 4.8 29.0386 4.21 28.6786 3.72C28.3186 3.21 27.6686 2.88 26.8686 2.88C25.1386 2.88 24.4486 4.28 24.4486 5.48C24.4486 6.68 25.1386 8.08 26.8686 8.08C27.9686 8.08 28.7286 7.59 29.1586 6.61L28.1586 6.24C27.8586 6.76 27.4486 7.02 26.9386 7.02C26.2186 7.02 25.7786 6.49 25.7486 5.88H29.2186V5.37ZM26.8686 3.94C27.4486 3.94 27.8086 4.26 27.9486 4.9H25.7786C25.8686 4.37 26.2786 3.94 26.8686 3.94ZM36.1257 6.19C35.8557 6.74 35.4557 7.02 34.9457 7.02C34.1857 7.02 33.7857 6.4 33.7857 5.48C33.7857 4.56 34.1857 3.94 34.9457 3.94C35.4557 3.94 35.8557 4.22 36.1257 4.77L37.2357 4.32C36.8457 3.36 36.0857 2.88 34.9457 2.88C34.1557 2.88 33.5557 3.13 33.1257 3.62C32.6957 4.11 32.4857 4.73 32.4857 5.48C32.4857 6.23 32.6957 6.85 33.1257 7.34C33.5557 7.83 34.1557 8.08 34.9457 8.08C36.0857 8.08 36.8457 7.6 37.2357 6.64L36.1257 6.19ZM38.7616 7.35C39.2216 7.84 39.8416 8.08 40.6316 8.08C41.4216 8.08 42.0416 7.84 42.5016 7.35C42.9616 6.86 43.1916 6.23 43.1916 5.48C43.1916 4.73 42.9616 4.11 42.5016 3.62C42.0416 3.13 41.4216 2.88 40.6316 2.88C39.8416 2.88 39.2216 3.13 38.7616 3.62C38.3016 4.11 38.0716 4.73 38.0716 5.48C38.0716 6.23 38.3016 6.86 38.7616 7.35ZM39.7116 4.39C39.9416 4.09 40.2416 3.94 40.6316 3.94C41.0216 3.94 41.3216 4.09 41.5516 4.39C41.7816 4.68 41.8916 5.05 41.8916 5.48C41.8916 5.91 41.7816 6.28 41.5516 6.58C41.3216 6.87 41.0216 7.02 40.6316 7.02C40.2416 7.02 39.9416 6.87 39.7116 6.58C39.4816 6.28 39.3716 5.91 39.3716 5.48C39.3716 5.05 39.4816 4.68 39.7116 4.39ZM44.3107 8H45.5507V5.99C45.5507 4.72 46.0607 3.94 46.7007 3.94C47.1807 3.94 47.4207 4.22 47.4207 4.77V8H48.6607V4.4C48.6607 3.41 48.0407 2.88 47.1107 2.88C46.4807 2.88 45.9607 3.18 45.5507 3.77V2.96H44.3107V8ZM52.7199 6.9C52.5699 6.98 52.4099 7.02 52.2399 7.02C51.7999 7.02 51.5799 6.8 51.5799 6.2V4.02H52.9099V2.96H51.5799V0.92L50.3399 1.7V2.96H49.5599V4.02H50.3399V6.22C50.3399 7.45 51.0299 8.08 52.1899 8.08C52.4799 8.08 52.7499 8.02 53.0099 7.9L52.7199 6.9ZM55.3359 6.21C55.3359 4.68 55.8959 3.99 56.6859 3.99C56.8759 3.99 57.0559 4.04 57.2059 4.13L57.4359 2.98C57.2159 2.91 57.0159 2.88 56.8259 2.88C56.2359 2.88 55.6959 3.21 55.3359 3.78V2.96H54.0959V8H55.3359V6.21ZM58.6542 7.35C59.1142 7.84 59.7342 8.08 60.5242 8.08C61.3142 8.08 61.9342 7.84 62.3942 7.35C62.8542 6.86 63.0842 6.23 63.0842 5.48C63.0842 4.73 62.8542 4.11 62.3942 3.62C61.9342 3.13 61.3142 2.88 60.5242 2.88C59.7342 2.88 59.1142 3.13 58.6542 3.62C58.1942 4.11 57.9642 4.73 57.9642 5.48C57.9642 6.23 58.1942 6.86 58.6542 7.35ZM59.6042 4.39C59.8342 4.09 60.1342 3.94 60.5242 3.94C60.9142 3.94 61.2142 4.09 61.4442 4.39C61.6742 4.68 61.7842 5.05 61.7842 5.48C61.7842 5.91 61.6742 6.28 61.4442 6.58C61.2142 6.87 60.9142 7.02 60.5242 7.02C60.1342 7.02 59.8342 6.87 59.6042 6.58C59.3742 6.28 59.2642 5.91 59.2642 5.48C59.2642 5.05 59.3742 4.68 59.6042 4.39ZM64.2517 8H65.4917V0.92H64.2517V8ZM68.4477 2.88C67.9777 2.88 67.5877 3.02 67.2877 3.31C66.9877 3.6 66.8377 3.94 66.8377 4.35C66.8377 5.07 67.2177 5.44 67.8577 5.71C68.0477 5.79 68.3977 5.9 68.5677 5.98C68.6577 6.01 68.7577 6.05 68.8477 6.1C69.0377 6.19 69.1177 6.32 69.1177 6.48C69.1177 6.84 68.9077 7.02 68.4977 7.02C68.0277 7.02 67.6877 6.74 67.4877 6.19L66.4977 6.72C66.6477 7.08 66.8977 7.4 67.2477 7.67C67.5977 7.94 68.0177 8.08 68.4977 8.08C69.0277 8.08 69.4577 7.92 69.7877 7.59C70.1177 7.26 70.2877 6.87 70.2877 6.4C70.2877 6.05 70.1277 5.75 69.9777 5.58C69.9077 5.49 69.7877 5.41 69.6177 5.32C69.4577 5.23 69.3377 5.16 69.2577 5.13L68.8277 4.98L68.4677 4.85C68.1477 4.73 67.9877 4.57 67.9877 4.36C67.9877 4.09 68.1977 3.94 68.4477 3.94C68.7777 3.94 69.0577 4.09 69.2877 4.38L70.0277 3.7C69.7077 3.21 69.1177 2.88 68.4477 2.88Z" fill="white"/>
</svg>
