<?xml version="1.0" encoding="utf-8"?>
<!-- Generator: Adobe Illustrator 24.1.0, SVG Export Plug-In . SVG Version: 6.00 Build 0)  -->
<svg version="1.1" id="Layer_1" xmlns="http://www.w3.org/2000/svg" xmlns:xlink="http://www.w3.org/1999/xlink" x="0px" y="0px"
	 viewBox="0 0 1000 1000" style="enable-background:new 0 0 1000 1000;" xml:space="preserve">
<style type="text/css">
	.st0{fill:#FFFFFF;}
</style>
<g id="h2Lsjk.tif">
	<g>
		<path class="st0" d="M912.28,580.19c-8.85,52.83-41.65,90.01-78.54,125.99c-83.46,81.4-165.2,164.57-247.66,246.99
			c-5.11,5.1-9.8,13.02-15.81,14.27c-9.37,1.96-23.22,2.92-28.6-2.38c-5.14-5.06-4.14-19.29-1.58-28.28
			c1.96-6.9,10.46-12.01,16.2-17.76c92-92.06,184.08-184.05,276.02-276.16c30.11-30.17,39.71-66.49,27.6-107.02
			c-12.22-40.89-41.32-65.29-82.92-72.86c-39.89-7.26-71.76,9.05-99.61,37.06c-107.71,108.31-216.2,215.83-323.75,324.29
			c-41.58,41.93-90.66,59.54-147.91,46.35c-58.69-13.52-95.36-52.26-111.85-110.07c-2.19-7.66-4.11-15.4-6.15-23.11
			c0-9.04,0-18.08,0-27.12c11.53-74.45,71.37-114.34,117.5-163.98c10.45-11.25,21.92-21.54,32.79-32.4
			c19.58-19.55,44.94-34.41,23.75-71.09c-11.39-19.72,0.89-43.99,18.14-61.25c85-85.03,170.15-169.91,254.95-255.14
			c15.57-15.65,29.67-15.4,43.62,0.91c6.47,7.57,11.86,16.06,19.67,26.8c37.83-37.96,70.87-71.11,103.92-104.26
			c5.74-5.76,10.65-14.49,17.51-16.49c10.5-3.07,22.35-1.48,33.63-1.87c-0.78,11.21,2.81,26.33-3.1,32.96
			c-27.05,30.31-56.6,58.39-85.61,86.92c-9.64,9.48-20.35,17.89-28.98,25.41c1.67,5.87,1.63,8.03,2.69,9.1
			c41.62,41.78,42.32,40.39-2.22,84.6c-74.42,73.86-148.36,148.22-222.57,222.29c-38.18,38.11-56.87,41.21-106.21,17.79
			c-49.18,48.85-99.9,96.52-147.35,147.26c-36,38.5-32.5,99.88,3.36,138.46c36.1,38.83,94.75,44.82,137.99,13.51
			c9.45-6.84,17.86-15.24,26.15-23.52c107.49-107.32,214.89-214.72,322.27-322.15c43.44-43.46,95.33-58.58,153.96-40.87
			c57.56,17.39,92.24,57.7,104.09,117.1c0.86,4.34,3.05,8.41,4.61,12.61C912.28,562.1,912.28,571.15,912.28,580.19z M416.39,414.95
			c65.49-65.4,129.03-128.85,187.08-186.81c-14.12-17.11-30.56-37.04-43.15-52.3c-64.36,64.39-127.82,127.89-190.71,190.82
			C384.53,382.06,402.06,400.15,416.39,414.95z M324.04,393.04c-7.01,16.92-21,34.58-16.74,43.96
			c7.47,16.44,24.18,32.38,40.87,39.49c9.32,3.97,26.39-10.27,43.06-17.68C367.25,435.33,348.71,417.18,324.04,393.04z"/>
	</g>
</g>
</svg>
