<?xml version="1.0" encoding="utf-8"?>
<!-- Generator: Adobe Illustrator 24.1.0, SVG Export Plug-In . SVG Version: 6.00 Build 0)  -->
<svg version="1.1" id="Layer_1" xmlns="http://www.w3.org/2000/svg" xmlns:xlink="http://www.w3.org/1999/xlink" x="0px" y="0px"
	 viewBox="0 0 1000 511" style="enable-background:new 0 0 1000 511;" xml:space="preserve">
<style type="text/css">
	.st0{fill:#FFFFFF;}
</style>
<g id="IeQEWF.tif">
	<g>
		<path class="st0" d="M39.43,68.42c9.44-7.85,21.02-8.36,32.39-9.08c19.38-1.22,38.36,2.15,57.31,5.67
			c5.85,1.09,11.81,1.61,18.37,2.48c0,5.85,0,11.42,0,18.03c-3.63,0.65-7.62,1.62-11.67,2.06c-23.07,2.48-46.17,4.71-69.14-0.78
			c-9.98-2.39-19.82-5.21-27.28-12.97C39.43,72.03,39.43,70.23,39.43,68.42z"/>
		<path class="st0" d="M211.7,128.21c1,15.41-0.12,29.78-5.8,43.24c-3.24,7.67-7.01,15.5-12.23,21.87
			c-13.1,15.97-32.26,15.74-45.93,0.26c-8.39-9.51-12.88-21.04-15.6-33.14c-1.64-7.28-2.4-14.86-2.6-22.34
			c-0.42-15.5,7.43-25.63,22.27-29.8c2.28-0.64,4.62-1.08,7.46-1.74c0.23-2.45,0.63-4.75,0.64-7.06c0.07-15.66,0.05-31.32,0.1-46.98
			c0.01-2.4-0.1-4.87,0.38-7.2c0.95-4.67,4.86-7.8,9.6-8.07c5.07-0.28,9.01,1.76,10.62,6.6c1.02,3.06,1.2,6.49,1.23,9.76
			c0.13,13.85,0.05,27.71,0.06,41.56c0,3.26,0,6.52,0,10.49c68.43,0,136.01,0,204.2,0c0.71-2.45,1.45-4.99,2.19-7.53
			c2.47-8.48,4.49-10.11,13.41-10.14c21.08-0.07,42.16-0.05,63.25-0.06c1.49,0,2.98,0,4.89,0c7.14-12.12,17.05-19.94,31.82-20.1
			c14.87-0.16,24.89,7.45,32.48,20.14c18.5,0,37.14,0,55.79,0c0.9,0,1.81-0.01,2.71,0c20.99,0.28,18.6-2.73,25.63,17.79
			c67.38,0,134.96,0,203.38,0c0.17-3.52,0.45-6.72,0.45-9.93c0.03-13.85-0.06-27.71,0-41.56c0.01-2.99,0.09-6.07,0.83-8.93
			c1.47-5.73,5.75-8.57,11.36-8.12c5.37,0.43,9.28,4.13,9.58,10.1c0.39,7.81,0.18,15.65,0.19,23.48c0.02,11.7,0,23.4,0,35.3
			c4.1,1.22,7.55,2.09,10.9,3.27c13.02,4.62,19.45,13.46,19.65,27.15c0.27,17.54-3.73,34.1-12.69,49.18
			c-15.47,26.03-41.27,26.2-57.07,0.34c-9.67-15.82-13.3-33.36-12.86-51.81c0.04-1.73,0.2-3.45,0.33-5.61
			c-2.81-0.16-5.17-0.42-7.52-0.42c-42.77-0.04-85.53,0.07-128.3-0.19c-6.22-0.04-10.2,1.37-12.18,7.65
			c-1.33,4.22-3.6,8.15-5.61,12.54c2.85,2.09,5.23,3.85,7.62,5.6c38.27,27.88,60.72,65.38,66.9,112.21
			c1.76,13.36,1.21,27.06,1.27,40.6c0.16,34.62,0.07,69.24,0.06,103.85c0,2.4,0.02,4.83-0.3,7.21c-0.82,6.12-3.99,9.19-9.13,9.1
			c-5.12-0.09-8.37-3.36-8.53-9.56c-0.27-10.23-0.1-20.48-0.11-30.72c0-3.23,0-6.46,0-10.11c-6-0.35-11-0.65-16.66-0.98
			c0-13.76,0-27.13,0-41.48c5.12-0.34,10.08-0.66,14.83-0.98c0.57-0.72,1.26-1.17,1.27-1.64c0.63-27.65,2.74-55.44-4.47-82.6
			c-8.91-33.55-27.69-60.43-56.14-80.46c-0.74-0.52-1.5-1.02-2.31-1.41c-0.52-0.25-1.13-0.3-2.21-0.55
			c-0.97,1.61-2.32,3.24-3.02,5.11c-3.12,8.28-9.35,11.02-17.75,10.96c-20.48-0.15-40.96-0.01-61.44,0
			c-49.99,0.01-99.99-0.22-149.98,0.16c-11.49,0.09-20.24-2.31-23.82-14.39c-0.25-0.83-0.93-1.53-1.67-2.7
			c-16.13,10.17-28.84,22.72-39.36,37.59c-17.79,25.16-25.75,53.42-26.21,83.96c-0.23,15-0.04,30-0.04,45.79
			c5.76,0.39,10.74,0.72,16.99,1.14c0.63,13.79,0.36,27.37,0.15,41.54c-6.04,0.32-11.04,0.59-17.16,0.92
			c0,10.14,0.01,19.99-0.01,29.84c-0.01,4.22,0.21,8.46-0.19,12.64c-0.48,4.94-3.69,7.77-8.21,7.96c-4.55,0.19-7.96-2.36-9.06-7.09
			c-0.47-2.03-0.57-4.18-0.56-6.28c0.15-44.87-0.58-89.76,0.77-134.59c1.58-52.42,25.35-93.78,67.31-124.89
			c2.39-1.77,4.79-3.51,7.9-5.78c-2.84-5.96-5.49-11.63-8.24-17.25c-1.95-3.99-5.72-2.63-8.82-2.64
			c-35.54-0.08-71.07-0.06-106.61-0.06C231.93,128.21,222.06,128.21,211.7,128.21z"/>
		<path class="st0" d="M451.64,247.54c5.22-13.47,15.19-17.3,28.27-16.84c16.24,0.57,32.52,0.25,48.78,0.1
			c9.26-0.09,16.63,3.37,20.9,11.56c2.2,4.23,4.95,5.26,9.25,5.23c18.67-0.12,37.34,0.02,56.01-0.01c10.65-0.02,20.18,2.79,28,10.38
			c7.32,7.1,10.94,15.88,10.97,25.89c0.13,47.28,0.3,94.56-0.06,141.84c-0.18,22.92-19.35,35.71-36.61,35.58
			c-57.82-0.43-115.64-0.14-173.46-0.14c-18.67,0-37.37-0.62-56.01,0.14c-19.05,0.77-37.68-14.35-37.59-37.52
			c0.18-46.08-0.04-92.15,0.1-138.23c0.07-22.46,14.68-37.36,37.25-37.85c18.06-0.39,36.14-0.11,54.21-0.13
			C444.93,247.54,448.2,247.54,451.64,247.54z M502.18,279.76c-41.6-0.06-75.5,33.58-75.44,74.86c0.06,40.76,33.96,74.8,74.65,74.98
			c41.49,0.18,75.96-33.24,75.72-74.64C576.84,307.75,538.02,278.74,502.18,279.76z M610.38,305.17
			c7.63-0.06,13.82-5.99,14.03-13.44c0.22-7.55-6.49-14.51-14.09-14.63c-7.87-0.13-14.21,6.21-14.21,14.2
			C596.12,299.51,602.01,305.24,610.38,305.17z"/>
		<path class="st0" d="M193.2,63.38c30.52-3.89,60.21-8.13,89.73,1.29c5.08,1.62,10.16,3.84,14.61,6.74
			c6.5,4.25,6.29,10.36-0.92,12.76c-8.98,2.98-18.55,4.92-27.99,5.64c-18.67,1.42-37.03-2.14-55.34-5.47
			c-6.44-1.17-12.98-1.82-20.08-2.79C193.2,75.7,193.2,70.16,193.2,63.38z"/>
		<path class="st0" d="M811.03,63.61c0,6.46,0,11.81,0,17.58c-12.44,2-24.55,3.91-36.63,5.9c-17.3,2.84-34.64,4.41-52.1,1.48
			c-3.25-0.55-6.61-0.92-9.68-2.05c-4.37-1.61-10.09-2.56-10.4-8.51c-0.29-5.41,4.68-7.62,8.72-9.25
			c7.21-2.92,14.61-5.89,22.21-7.28C758.92,56.76,784.57,59.52,811.03,63.61z"/>
		<path class="st0" d="M856.36,86.16c0-6.9,0-12.49,0-18.47c16.41-2.45,32.34-4.85,48.28-7.21c14.07-2.08,28.16-2.09,42.12,0.58
			c4.92,0.94,9.91,2.59,14.3,4.97c4.93,2.67,5.24,6.59,0.88,10.07c-3.68,2.93-8.04,5.26-12.45,6.97
			C930,90.62,909.61,91,889.14,89.59C878.42,88.85,867.76,87.38,856.36,86.16z"/>
		<path class="st0" d="M454.45,354.43c-0.11-25.91,20.88-47.4,46.55-47.67c27.1-0.28,48.3,20.44,48.55,47.47
			c0.24,26.36-21.06,48.27-46.98,48.32C475.8,402.61,454.56,381.36,454.45,354.43z"/>
	</g>
</g>
</svg>
