<?xml version="1.0" encoding="utf-8"?>
<!-- Generator: Adobe Illustrator 24.1.0, SVG Export Plug-In . SVG Version: 6.00 Build 0)  -->
<svg version="1.1" id="Layer_1" xmlns="http://www.w3.org/2000/svg" xmlns:xlink="http://www.w3.org/1999/xlink" x="0px" y="0px"
	 viewBox="0 0 1000 1000" style="enable-background:new 0 0 1000 1000;" xml:space="preserve">
<style type="text/css">
	.st0{fill:#FFFFFF;}
</style>
<g id="evfati_1_">
	<g>
		<path class="st0" d="M753.58,940.67c47.2-123.28,94.26-246.2,141.57-369.77c4.6,3.43,8.69,6.47,13.84,10.3
			c0-10.46,0.26-19.77-0.04-29.07c-1.94-59.23-12.11-116.93-32.38-172.74c-11.38-31.34-25.32-61.46-42.81-89.89
			c-3.56-5.78-6.97-11.67-10.89-17.2c-1.16-1.64-3.81-3.05-5.83-3.11c-9.58-0.32-19.18,0.09-28.76-0.28
			c-2.6-0.1-5.87-1.32-7.57-3.17c-17.77-19.48-36.83-37.56-57.77-53.59c-52.89-40.49-111.83-66.81-178.19-75.64
			c-57.03-7.58-112.47-1.21-166.55,18.3c-35.34,12.75-67.81,30.64-97.91,52.98c-22.46,16.66-43.14,35.3-61.65,56.27
			c-3.27,3.71-6.67,5.37-11.69,5.12c-8.52-0.42-17.08,0.04-25.62-0.19c-3.55-0.09-5.63,1.13-7.59,4.11
			c-33.1,50.46-55.9,105.29-70.17,163.82c-6.99,28.67-11.28,57.77-13.52,87.13c-1.41,18.52-1.43,37.15-2.12,57.39
			c3.35-2.41,5.34-3.65,7.1-5.15c12.09-10.34,26.36-16.02,41.59-19.74c3.57-0.87,5.47-0.33,6.97,3.59
			c19.91,52.2,40.05,104.32,60.07,156.48c13.78,35.9,27.48,71.84,41.22,107.76c12.38,32.35,24.76,64.69,37.13,97.04
			c0.49,1.28,0.86,2.61,1.39,4.26c-18.33,11.28-37.97,17.67-59.5,16.07c-36.99-2.75-64.95-20.44-82.99-52.88
			c-4.7-8.45-7.66-17.9-11.02-27.04c-1.45-3.94-3.19-6.07-7.77-5.51c-3.78,0.46-7.78-0.51-11.47,0.22
			c-7.35,1.44-10.39-2.62-13.29-8.32c-15.6-30.62-29.18-62.07-39.58-94.83c-10.88-34.25-18.45-69.24-23.33-104.86
			c-4.46-32.55-5.76-65.22-5.15-98.02c0.7-37.57,5.47-74.67,13.13-111.4c8.66-41.54,21.73-81.63,39.11-120.38
			c15.81-35.27,34.96-68.54,57.65-99.77c21.88-30.1,46.76-57.51,74.65-82.21c34.42-30.48,72.4-55.51,114.27-74.42
			c40.58-18.33,83.06-30,127.44-34.59c41.21-4.26,82.05-2.39,122.74,5.59c47.48,9.32,91.71,26.72,133.37,51.13
			c50.99,29.86,94.31,68.56,131.23,114.4c37.42,46.47,66.12,98.02,87.06,153.93c19.61,52.35,31.9,106.39,36.18,162.02
			c4.7,61.07,1.63,121.79-11.53,181.9c-10.03,45.81-24.99,89.82-44.99,132.16c-3.86,8.18-8.02,16.25-12.45,24.14
			c-0.92,1.64-3.59,3.08-5.55,3.23c-5.9,0.43-11.85,0.37-17.77,0.1c-3.2-0.15-4.47,1.21-5.64,3.95
			c-4.95,11.67-8.85,24.05-15.52,34.68c-19.68,31.34-49.04,46.3-85.84,47.03c-1.74,0.03-3.49-0.08-5.22-0.26
			C759.22,941.48,756.82,941.11,753.58,940.67z"/>
		<path class="st0" d="M826.45,548.78c16.24-0.3,33.11,4.22,48.78,13.59c3.29,1.97,3.68,3.61,2.37,6.98
			c-10.25,26.26-20.37,52.56-30.44,78.89c-16.41,42.9-32.71,85.84-49.11,128.75c-19.2,50.22-38.46,100.41-57.7,150.61
			c-2.74,7.14-2.74,7.14-9.91,5.48c-51.6-11.96-84.58-60.3-75.85-112.67c2.06-12.36,7.1-24.31,11.47-36.18
			c9.62-26.12,19.64-52.1,29.6-78.09c12.19-31.79,24.27-63.63,36.79-95.3C747.4,573,784.35,548.28,826.45,548.78z"/>
		<path class="st0" d="M157.83,549.73c16.85-1.99,32.53-1.25,47.7,4.3c29.54,10.8,49.85,31.02,60.99,60.46
			c10.16,26.83,20.3,53.67,30.58,80.45c13.1,34.1,26.52,68.08,39.45,102.25c14.16,37.42,9.44,72.25-16.12,103.45
			c-5.77,7.04-13.2,12.72-20.66,19.79C252.2,796.18,205.17,673.37,157.83,549.73z"/>
	</g>
</g>
</svg>
