<?xml version="1.0" encoding="utf-8"?>
<!-- Generator: Adobe Illustrator 24.1.0, SVG Export Plug-In . SVG Version: 6.00 Build 0)  -->
<svg version="1.1" id="Layer_1" xmlns="http://www.w3.org/2000/svg" xmlns:xlink="http://www.w3.org/1999/xlink" x="0px" y="0px"
	 viewBox="0 0 1000 1000" style="enable-background:new 0 0 1000 1000;" xml:space="preserve">
<style type="text/css">
	.st0{fill:#FFFFFF;}
</style>
<g id="ZPQVhK.tif">
	<g>
		<path class="st0" d="M660.12,89.61c16.53-16.6,32.04-32.41,47.84-47.93c7.98-7.83,18.88-8.8,27.25-3.16
			c7.9,5.32,11.64,15.54,8.02,24.51c-1.67,4.13-4.8,7.91-7.97,11.15c-14.6,14.88-29.45,29.51-46.22,46.23
			c8.47,7.75,16.57,14.93,24.39,22.4c7.19,6.86,14.12,14,21.1,21.08c14.09,14.29,14.01,24.44-0.44,38.86
			c-14.3,14.27-28.7,28.43-43.36,42.93c1.53,2.18,2.48,3.84,3.71,5.24c11.05,12.58,10.92,22.96-0.81,34.73
			c-31.35,31.45-62.78,62.82-94.17,94.23c-17.81,17.81-35.49,35.75-53.44,53.41c-29.53,29.06-64.32,39.04-104.85,28.89
			c-3.53-0.88-8.74,0.94-11.84,3.28c-5.51,4.14-9.99,9.64-14.92,14.55c-30.23,30.11-57.58,32.92-93.52,9.37
			c-1.4,1.18-2.99,2.33-4.36,3.7c-43.36,43.34-87.13,86.29-129.92,130.19c-44.55,45.69-34.91,120.72,18.77,152.66
			c39.58,23.55,90.34,17.18,123.45-15.89c104.81-104.68,209.25-209.74,314.39-314.09c43.99-43.66,96.68-55.42,154.46-32.94
			c93.89,36.53,118.59,157.82,47.26,230.17C773.5,715.64,701.18,787.2,629.24,859.15c-33.74,33.75-67.45,67.53-101.29,101.18
			c-8.52,8.47-18.07,9.84-27.04,4.56c-7.94-4.68-12.55-13.96-9.57-22.97c1.77-5.33,5.72-10.38,9.78-14.46
			c103.69-103.93,207.57-207.67,311.29-311.57c29.95-30,39.25-65.84,25.07-105.78c-24.31-68.45-110.41-87.33-162.6-35.93
			c-51.47,50.69-102.25,102.08-153.34,153.17c-54.84,54.83-109.26,110.09-164.66,164.35c-40.08,39.25-88.52,51.52-141.96,34.76
			c-53.02-16.63-85.87-53.99-96.31-108.7c-9.28-48.61,4.93-91.2,39.69-126.4c41.22-41.73,82.87-83.04,124.42-124.44
			c2.56-2.55,5.9-4.32,8.95-6.5c-13.42-17.88-20.97-35.69-15.34-55.53c3.23-11.38,9.74-22.13,16.26-32.19
			c4.41-6.8,11.07-12.33,17.37-17.67c7.26-6.15,8.96-12.09,6.7-22.08c-8.31-36.86,0.92-69.96,27.44-96.93
			c49.96-50.8,100.58-100.94,151.05-151.23c11.25-11.21,20.63-10.21,38.83,4.49c11.98-12.31,24.03-24.91,36.33-37.27
			c23.7-23.8,28.81-23.74,52.2-0.18C634.65,64.04,646.8,76.23,660.12,89.61z M659.51,213.91c10.89-10.44,21.76-20.87,31.73-30.44
			c-31.8-31.74-63.72-63.61-94.2-94.04c-10.17,10.09-21.03,20.86-31.08,30.83C596.88,151.22,628.6,182.96,659.51,213.91z"/>
	</g>
</g>
</svg>
