<svg width="44" height="53" viewBox="0 0 44 53" fill="none" xmlns="http://www.w3.org/2000/svg">
<path d="M29.9661 33.002C31.6167 30.762 30.3788 28.2468 27.5099 27.9029C25.0536 27.6081 22.6269 29.131 21.556 31.6364C20.1019 34.9965 21.1728 39.0837 24.2677 41.5498C28.0306 44.5365 32.1276 44.625 36.4015 42.7288C36.7159 42.5912 37.0008 42.4438 37.3741 42.2572C37.3741 43.7309 37.3741 45.1359 37.3741 46.6096C36.7061 46.6096 36.0576 46.6096 35.3993 46.6096C33.4638 46.6096 31.5479 46.59 29.6124 46.6096C27.2544 46.6391 25.2894 45.5878 23.4031 44.3499C21.9686 43.4067 20.7798 42.1982 19.925 40.7048C19.7776 40.4494 19.6696 40.1153 19.6696 39.8206C19.6499 36.5292 19.6499 33.228 19.6597 29.9367C19.6597 29.7303 19.6892 29.4651 19.8071 29.298C21.8016 26.2425 25.3582 24.7589 28.5415 25.6431C30.6342 26.2228 32.0883 27.5295 32.5403 29.7205C32.7564 30.7521 32.5403 31.7445 31.8132 32.5599C31.3121 33.1494 30.703 33.2968 29.9661 33.002Z" fill="white"/>
<path d="M22.7251 21.723C24.081 20.5636 25.4761 19.9348 27.0383 19.6597C32.275 18.7362 37.4724 22.735 37.4134 28.6201C37.3938 31.1451 37.4134 33.68 37.4036 36.205C37.4036 36.4113 37.3545 36.6766 37.2268 36.8239C34.6133 39.8304 30.4967 40.5967 27.5099 38.6121C25.9084 37.551 25.0536 36.0478 25.2698 34.0631C25.3582 33.2378 25.7709 32.5403 26.4881 32.1276C26.8516 31.9213 27.3527 31.9508 27.8832 31.8623C27.8243 32.1276 27.8341 32.216 27.7948 32.2455C26.4881 33.1592 26.9597 35.0948 27.8341 35.9594C29.2096 37.3152 31.3023 37.6198 33.1887 36.6962C35.5664 35.5271 36.9811 32.8743 36.8927 30.1135C36.7355 25.3386 32.5796 21.5854 27.8439 21.1531C26.3112 21.0156 24.8178 21.1924 23.3343 21.5953C23.2066 21.6247 23.0592 21.6444 22.7251 21.723Z" fill="white"/>
<path fill-rule="evenodd" clip-rule="evenodd" d="M13.6862 14.0792H43.3968V52.2H13.6862V14.0792ZM17.0266 17.4196V48.8595H40.0563V17.4196H17.0266Z" fill="white"/>
<path fill-rule="evenodd" clip-rule="evenodd" d="M6.87747 7.17223H36.5882V14.7866H33.2477V10.5127H10.218V41.9624H15.1206V45.3029H6.87747V7.17223Z" fill="white"/>
<path fill-rule="evenodd" clip-rule="evenodd" d="M0 0H29.7107V8.84246H26.3702V3.34049H3.34049V34.7902H7.62417V38.1307H0V0Z" fill="white"/>
</svg>
