<svg width="18" height="18" viewBox="0 0 18 18" fill="none" xmlns="http://www.w3.org/2000/svg">
<path d="M17.5 9C17.5 13.6944 13.6944 17.5 9 17.5C4.30558 17.5 0.5 13.6944 0.5 9C0.5 4.30558 4.30558 0.5 9 0.5C13.6944 0.5 17.5 4.30558 17.5 9Z" stroke="black"/>
<path fill-rule="evenodd" clip-rule="evenodd" d="M9 17C13.4183 17 17 13.4183 17 9C17 4.58172 13.4183 1 9 1C4.58172 1 1 4.58172 1 9C1 13.4183 4.58172 17 9 17ZM9 18C13.9706 18 18 13.9706 18 9C18 4.02944 13.9706 0 9 0C4.02944 0 0 4.02944 0 9C0 13.9706 4.02944 18 9 18Z" fill="white"/>
<g style="mix-blend-mode:screen">
<path d="M4.8365 12V9.17395H7.3565V12H8.5265V5.69995H7.3565V8.09395H4.8365V5.69995H3.6665V12H4.8365Z" fill="white"/>
<path d="M11.7811 12C13.2661 12 14.7151 11.046 14.7151 8.84995C14.7151 6.65395 13.2661 5.69995 11.7811 5.69995H9.81006V12H11.7811ZM10.9801 6.77995H11.4121C11.9611 6.77995 12.4111 6.89695 12.8341 7.18495C13.2661 7.47295 13.5271 8.04895 13.5271 8.84995C13.5271 9.65095 13.2661 10.227 12.8341 10.515C12.4111 10.803 11.9611 10.92 11.4121 10.92H10.9801V6.77995Z" fill="white"/>
</g>
</svg>
