<svg width="22" height="22" viewBox="0 0 22 22" fill="none" xmlns="http://www.w3.org/2000/svg">
<path d="M1.20393 14.2304C0.703124 12.4138 0.698988 10.4773 1.18784 8.65848L2.401 10.1039C1.75349 11.381 1.29683 12.796 1.20393 14.2304ZM1.53413 7.59662C2.10345 6.11858 3.01263 4.74906 4.2497 3.61454L5.9232 5.60903C4.68107 6.71182 3.66336 7.94291 2.89353 9.21677L1.53413 7.59662ZM13.4537 21.8027L12.0943 20.1826C13.4822 19.6459 14.8715 18.8572 16.1734 17.8252L17.8469 19.8193C16.5147 20.8411 15.0081 21.4983 13.4537 21.8027ZM11.4505 19.415L9.35527 16.9184C10.5454 16.1531 11.8193 15.2242 13.1051 14.1683L15.5641 17.0991C14.247 18.1398 12.8411 18.9156 11.4505 19.415ZM8.74225 16.1876L6.24558 13.2122C7.19476 12.1779 8.32974 11.082 9.60131 9.99259L12.4958 13.4421C11.2021 14.5049 9.92506 15.4325 8.74225 16.1876ZM5.6321 12.4814L3.53736 9.98477C4.27086 8.70125 5.27891 7.45222 6.53254 6.33564L8.99197 9.26644C7.72868 10.3495 6.59324 11.4426 5.6321 12.4814ZM3.06506 10.8962L4.99287 13.1938C4.07633 14.2511 3.00849 15.6049 2.52378 16.9119C1.75349 14.9809 2.21106 12.7279 3.06506 10.8962ZM5.6091 13.9282L7.92689 16.6898C7.08807 17.1874 3.90848 18.9423 3.30098 18.218C2.69256 17.4927 4.97401 14.6686 5.6091 13.9282ZM8.54267 17.4242L10.4714 19.7222C8.52013 20.246 6.21936 20.3026 4.45251 19.2104C5.82387 18.9597 7.34285 18.1435 8.54267 17.4242ZM11.135 20.5137L12.3482 21.9591C10.4696 22.1251 8.56888 21.7857 6.86411 20.9759C8.29157 21.1336 9.7664 20.9303 11.135 20.5137ZM4.97585 3.00566C6.30858 1.98381 7.81468 1.32665 9.36907 1.02221L10.7285 2.64236C9.34056 3.1795 7.95126 3.96773 6.64935 4.99969L4.97585 3.00566ZM18.5735 19.2104L16.9 17.2159C18.1422 16.1131 19.1599 14.882 19.9297 13.6081L21.2896 15.2288C20.7198 16.7068 19.8111 18.0754 18.5735 19.2104ZM16.2907 16.4897L13.8313 13.5589C15.095 12.4759 16.2309 11.3828 17.1916 10.3444L19.2859 12.8406C18.5528 14.1237 17.5448 15.3732 16.2907 16.4897ZM13.2224 12.8333L10.3275 9.38325C11.6215 8.32047 12.8982 7.3929 14.081 6.63778L16.5781 9.61365C15.6289 10.6475 14.4935 11.7433 13.2224 12.8333ZM9.71858 8.65756L7.25915 5.7263C8.5767 4.68514 9.98209 3.90978 11.3728 3.41036L13.468 5.90703C12.2783 6.67227 11.0044 7.60168 9.71858 8.65756ZM10.4755 0.86677C12.3564 0.700755 14.2539 1.03968 15.961 1.84999C14.5298 1.69179 13.0605 1.89506 11.6882 2.31171L10.4755 0.86677ZM21.6359 14.1674L20.4222 12.7215C21.0711 11.4435 21.5273 10.028 21.6198 8.59226C22.1219 10.4097 22.1261 12.3476 21.6359 14.1674ZM19.7586 11.9301L17.8304 9.6325C18.7464 8.57754 19.8157 7.2186 20.2994 5.91393C21.0693 7.84588 20.6122 10.0974 19.7586 11.9301ZM17.2146 8.89808L14.8963 6.13605C15.7352 5.63846 18.9148 3.88357 19.5223 4.60788C20.1298 5.33218 17.8501 8.15813 17.2146 8.89808ZM14.2806 5.40163L12.3518 3.10362C14.3045 2.58074 16.6025 2.52233 18.3712 3.61546C17.0003 3.86609 15.4799 4.68192 14.2806 5.40163Z" fill="white"/>
</svg>
