<svg width="129" height="30" viewBox="0 0 129 30" fill="none" xmlns="http://www.w3.org/2000/svg">
<rect id="state" x="0.5" y="0.5" width="128" height="28" rx="4.5" fill="none" fill-opacity="0.52" stroke="white"/>
<path d="M39.149 18H39.989V10.92H39.149V18ZM45.8393 15.27C45.8393 14.6 45.6393 14.04 45.2293 13.58C44.8293 13.11 44.2693 12.88 43.5593 12.88C42.8293 12.88 42.2693 13.13 41.8693 13.64C41.4793 14.14 41.2793 14.75 41.2793 15.48C41.2793 16.21 41.4793 16.82 41.8693 17.33C42.2693 17.83 42.8293 18.08 43.5593 18.08C44.5993 18.08 45.2293 17.67 45.6993 16.68L44.9593 16.36C44.6693 17.01 44.2693 17.32 43.5593 17.32C42.6893 17.32 42.1893 16.65 42.1393 15.66H45.8393V15.27ZM43.5593 13.64C44.3293 13.64 44.7993 14.14 44.9593 14.9H42.1893C42.3493 14.13 42.8093 13.64 43.5593 13.64ZM47.5136 13.72V16.42C47.5136 17.51 48.0836 18.08 48.9736 18.08C49.3036 18.08 49.5736 18.02 49.7936 17.89L49.5936 17.16C49.4336 17.27 49.2436 17.32 49.0236 17.32C48.5936 17.32 48.3536 17.02 48.3536 16.49V13.72H49.6736V12.96H48.3536V10.92L47.5136 11.45V12.96H46.6436V13.72H47.5136ZM60.5886 14.45C60.5886 13.46 60.0786 12.88 59.1686 12.88C58.4486 12.88 57.8986 13.23 57.5286 13.93C57.3686 13.26 56.8686 12.88 56.1786 12.88C55.4686 12.88 54.9486 13.22 54.6086 13.89V12.96H53.7686V18H54.6086V15.93C54.6086 14.52 55.1886 13.64 55.9486 13.64C56.4886 13.64 56.7586 13.97 56.7586 14.63V18H57.5986V15.93C57.5986 14.52 58.1786 13.64 58.9386 13.64C59.4786 13.64 59.7486 13.97 59.7486 14.63V18H60.5886V14.45ZM66.4643 15.27C66.4643 14.6 66.2643 14.04 65.8543 13.58C65.4543 13.11 64.8943 12.88 64.1843 12.88C63.4543 12.88 62.8943 13.13 62.4943 13.64C62.1043 14.14 61.9043 14.75 61.9043 15.48C61.9043 16.21 62.1043 16.82 62.4943 17.33C62.8943 17.83 63.4543 18.08 64.1843 18.08C65.2243 18.08 65.8543 17.67 66.3243 16.68L65.5843 16.36C65.2943 17.01 64.8943 17.32 64.1843 17.32C63.3143 17.32 62.8143 16.65 62.7643 15.66H66.4643V15.27ZM64.1843 13.64C64.9543 13.64 65.4243 14.14 65.5843 14.9H62.8143C62.9743 14.13 63.4343 13.64 64.1843 13.64ZM70.5657 18H71.4057V12.96H70.5657V18ZM70.3557 11.56C70.3557 11.91 70.6257 12.18 70.9857 12.18C71.3457 12.18 71.6157 11.91 71.6157 11.56C71.6157 11.2 71.3457 10.92 70.9857 10.92C70.6257 10.92 70.3557 11.2 70.3557 11.56ZM76.8895 14.45C76.8895 13.45 76.3295 12.88 75.4095 12.88C74.6795 12.88 74.1195 13.22 73.7395 13.89V12.96H72.8995V18H73.7395V15.89C73.7395 15.22 73.8795 14.67 74.1595 14.26C74.4495 13.85 74.7895 13.64 75.1795 13.64C75.7595 13.64 76.0495 13.98 76.0495 14.67V18H76.8895V14.45Z" fill="white"/>
<path d="M112.488 10.9922C112.527 10.9531 112.566 10.9336 112.645 10.9336C112.703 10.9336 112.762 10.9531 112.82 10.9922L116.902 15.0938C116.941 15.1328 116.98 15.1914 116.98 15.25C116.98 15.3281 116.941 15.3672 116.902 15.4062L112.82 19.5078C112.762 19.5469 112.703 19.5664 112.645 19.5664C112.566 19.5664 112.527 19.5469 112.488 19.5078L112.098 19.1172C112.039 19.0781 112.02 19.0391 112.02 18.9609C112.02 18.9023 112.039 18.8438 112.098 18.7852L115.633 15.25L112.098 11.7148C112.039 11.6758 112.02 11.6172 112.02 11.5391C112.02 11.4805 112.039 11.4219 112.098 11.3828L112.488 10.9922Z" fill="white"/>
</svg>
