<svg width="331" height="75" viewBox="0 0 331 75" fill="none" xmlns="http://www.w3.org/2000/svg">
<line x1="327" y1="69.3997" x2="1.47964" y2="69.3997" stroke="#C6C6C6" stroke-width="0.8"/>
<line x1="166.219" y1="65.0001" x2="166.219" y2="75.0001" stroke="white"/>
<line x1="327.5" y1="65.9997" x2="327.5" y2="73.9997" stroke="white"/>
<line x1="0.5" y1="66.0001" x2="0.5" y2="74.0001" stroke="white"/>
<path d="M86.873 48H90.527V47.244H87.665V41.7H86.873V48ZM91.9714 46.695C91.9714 46.182 92.4124 45.894 93.1774 45.894H93.9874V46.002C93.9874 46.479 93.8614 46.83 93.6094 47.055C93.3574 47.28 93.0604 47.388 92.7184 47.388C92.2414 47.388 91.9714 47.127 91.9714 46.695ZM94.7434 45.102C94.7434 43.95 94.0504 43.392 92.9974 43.392C92.1424 43.392 91.5034 43.869 91.3864 44.634L92.0524 44.787C92.1514 44.346 92.5204 44.076 92.9974 44.076C93.6544 44.076 93.9874 44.391 93.9874 45.012V45.21H93.2494C91.9804 45.21 91.1974 45.732 91.1974 46.695C91.1974 47.622 91.7824 48.072 92.6014 48.072C93.2224 48.072 93.6904 47.838 94.0234 47.361L94.1494 48H94.7434V45.102ZM98.2322 48.072C99.5282 48.072 100.248 47.136 100.248 45.732C100.248 44.328 99.5282 43.392 98.2322 43.392C97.6922 43.392 97.1342 43.671 96.9092 44.022V43.464H96.1532V49.836H96.9092V47.46C96.9902 47.604 97.1702 47.739 97.4312 47.874C97.6922 48.009 97.9622 48.072 98.2322 48.072ZM98.1602 44.076C98.9522 44.076 99.4742 44.751 99.4742 45.732C99.4742 46.713 98.9522 47.388 98.1602 47.388C97.3412 47.388 96.8462 46.713 96.8462 45.732C96.8462 44.751 97.3412 44.076 98.1602 44.076ZM101.695 44.148V46.578C101.695 47.559 102.208 48.072 103.009 48.072C103.306 48.072 103.549 48.018 103.747 47.901L103.567 47.244C103.423 47.343 103.252 47.388 103.054 47.388C102.667 47.388 102.451 47.118 102.451 46.641V44.148H103.639V43.464H102.451V41.628L101.695 42.105V43.464H100.912V44.148H101.695ZM105.089 47.388C105.494 47.847 106.016 48.072 106.673 48.072C107.33 48.072 107.852 47.847 108.248 47.388C108.653 46.929 108.851 46.371 108.851 45.732C108.851 45.093 108.653 44.544 108.248 44.085C107.852 43.626 107.33 43.392 106.673 43.392C106.016 43.392 105.494 43.626 105.089 44.085C104.693 44.544 104.495 45.093 104.495 45.732C104.495 46.371 104.693 46.929 105.089 47.388ZM105.638 44.571C105.89 44.238 106.232 44.076 106.673 44.076C107.114 44.076 107.456 44.238 107.699 44.571C107.951 44.895 108.077 45.282 108.077 45.732C108.077 46.182 107.951 46.569 107.699 46.902C107.456 47.226 107.114 47.388 106.673 47.388C106.232 47.388 105.89 47.226 105.638 46.902C105.395 46.569 105.269 46.182 105.269 45.732C105.269 45.282 105.395 44.895 105.638 44.571ZM112.242 48.072C113.538 48.072 114.258 47.136 114.258 45.732C114.258 44.328 113.538 43.392 112.242 43.392C111.702 43.392 111.144 43.671 110.919 44.022V43.464H110.163V49.836H110.919V47.46C111 47.604 111.18 47.739 111.441 47.874C111.702 48.009 111.972 48.072 112.242 48.072ZM112.17 44.076C112.962 44.076 113.484 44.751 113.484 45.732C113.484 46.713 112.962 47.388 112.17 47.388C111.351 47.388 110.856 46.713 110.856 45.732C110.856 44.751 111.351 44.076 112.17 44.076Z" fill="white"/>
<path d="M189.873 48H191.601C192.42 48 193.104 47.721 193.662 47.163C194.22 46.596 194.499 45.831 194.499 44.85C194.499 43.869 194.22 43.104 193.662 42.546C193.104 41.979 192.42 41.7 191.601 41.7H189.873V48ZM191.466 42.456C192.627 42.456 193.653 43.086 193.653 44.85C193.653 46.614 192.627 47.244 191.466 47.244H190.665V42.456H191.466ZM199.646 45.543C199.646 44.94 199.466 44.436 199.097 44.022C198.737 43.599 198.233 43.392 197.594 43.392C196.937 43.392 196.433 43.617 196.073 44.076C195.722 44.526 195.542 45.075 195.542 45.732C195.542 46.389 195.722 46.938 196.073 47.397C196.433 47.847 196.937 48.072 197.594 48.072C198.53 48.072 199.097 47.703 199.52 46.812L198.854 46.524C198.593 47.109 198.233 47.388 197.594 47.388C196.811 47.388 196.361 46.785 196.316 45.894H199.646V45.543ZM197.594 44.076C198.287 44.076 198.71 44.526 198.854 45.21H196.361C196.505 44.517 196.919 44.076 197.594 44.076ZM202.163 43.392C201.362 43.392 200.831 43.923 200.831 44.643C200.831 45.507 201.587 45.795 202.181 46.02C202.586 46.164 202.919 46.38 202.919 46.677C202.919 47.154 202.676 47.388 202.19 47.388C201.731 47.388 201.38 47.091 201.137 46.497L200.498 46.848C200.759 47.541 201.335 48.072 202.19 48.072C203.117 48.072 203.693 47.532 203.693 46.632C203.702 45.3 201.578 45.462 201.587 44.652C201.587 44.292 201.821 44.076 202.136 44.076C202.415 44.076 202.685 44.229 202.964 44.526L203.477 44.085C203.153 43.626 202.712 43.392 202.163 43.392ZM204.91 48H205.666V45.723L207.583 48H208.546L206.476 45.543L208.402 43.464H207.43L205.666 45.363V41.628H204.91V48ZM209.687 44.148V46.578C209.687 47.559 210.2 48.072 211.001 48.072C211.298 48.072 211.541 48.018 211.739 47.901L211.559 47.244C211.415 47.343 211.244 47.388 211.046 47.388C210.659 47.388 210.443 47.118 210.443 46.641V44.148H211.631V43.464H210.443V41.628L209.687 42.105V43.464H208.904V44.148H209.687ZM213.081 47.388C213.486 47.847 214.008 48.072 214.665 48.072C215.322 48.072 215.844 47.847 216.24 47.388C216.645 46.929 216.843 46.371 216.843 45.732C216.843 45.093 216.645 44.544 216.24 44.085C215.844 43.626 215.322 43.392 214.665 43.392C214.008 43.392 213.486 43.626 213.081 44.085C212.685 44.544 212.487 45.093 212.487 45.732C212.487 46.371 212.685 46.929 213.081 47.388ZM213.63 44.571C213.882 44.238 214.224 44.076 214.665 44.076C215.106 44.076 215.448 44.238 215.691 44.571C215.943 44.895 216.069 45.282 216.069 45.732C216.069 46.182 215.943 46.569 215.691 46.902C215.448 47.226 215.106 47.388 214.665 47.388C214.224 47.388 213.882 47.226 213.63 46.902C213.387 46.569 213.261 46.182 213.261 45.732C213.261 45.282 213.387 44.895 213.63 44.571ZM220.234 48.072C221.53 48.072 222.25 47.136 222.25 45.732C222.25 44.328 221.53 43.392 220.234 43.392C219.694 43.392 219.136 43.671 218.911 44.022V43.464H218.155V49.836H218.911V47.46C218.992 47.604 219.172 47.739 219.433 47.874C219.694 48.009 219.964 48.072 220.234 48.072ZM220.162 44.076C220.954 44.076 221.476 44.751 221.476 45.732C221.476 46.713 220.954 47.388 220.162 47.388C219.343 47.388 218.848 46.713 218.848 45.732C218.848 44.751 219.343 44.076 220.162 44.076Z" fill="white"/>
<path d="M308.076 45.579C308.004 46.623 307.392 47.316 306.339 47.316C305.736 47.316 305.25 47.1 304.872 46.677C304.503 46.254 304.314 45.642 304.314 44.85C304.314 44.058 304.503 43.446 304.872 43.023C305.25 42.6 305.736 42.384 306.339 42.384C307.176 42.384 307.752 42.843 308.049 43.761L308.814 43.536C308.526 42.357 307.635 41.628 306.339 41.628C305.547 41.628 304.872 41.907 304.323 42.465C303.774 43.023 303.495 43.815 303.495 44.85C303.495 45.885 303.765 46.677 304.314 47.235C304.863 47.793 305.529 48.072 306.303 48.072C307.122 48.072 307.761 47.685 308.076 47.136L308.157 48H308.832V44.823H306.717V45.579H308.076ZM310.703 46.695C310.703 46.182 311.144 45.894 311.909 45.894H312.719V46.002C312.719 46.479 312.593 46.83 312.341 47.055C312.089 47.28 311.792 47.388 311.45 47.388C310.973 47.388 310.703 47.127 310.703 46.695ZM313.475 45.102C313.475 43.95 312.782 43.392 311.729 43.392C310.874 43.392 310.235 43.869 310.118 44.634L310.784 44.787C310.883 44.346 311.252 44.076 311.729 44.076C312.386 44.076 312.719 44.391 312.719 45.012V45.21H311.981C310.712 45.21 309.929 45.732 309.929 46.695C309.929 47.622 310.514 48.072 311.333 48.072C311.954 48.072 312.422 47.838 312.755 47.361L312.881 48H313.475V45.102ZM320.935 44.805C320.935 43.914 320.476 43.392 319.657 43.392C319.009 43.392 318.514 43.707 318.181 44.337C318.037 43.734 317.587 43.392 316.966 43.392C316.327 43.392 315.859 43.698 315.553 44.301V43.464H314.797V48H315.553V46.137C315.553 44.868 316.075 44.076 316.759 44.076C317.245 44.076 317.488 44.373 317.488 44.967V48H318.244V46.137C318.244 44.868 318.766 44.076 319.45 44.076C319.936 44.076 320.179 44.373 320.179 44.967V48H320.935V44.805ZM326.223 45.543C326.223 44.94 326.043 44.436 325.674 44.022C325.314 43.599 324.81 43.392 324.171 43.392C323.514 43.392 323.01 43.617 322.65 44.076C322.299 44.526 322.119 45.075 322.119 45.732C322.119 46.389 322.299 46.938 322.65 47.397C323.01 47.847 323.514 48.072 324.171 48.072C325.107 48.072 325.674 47.703 326.097 46.812L325.431 46.524C325.17 47.109 324.81 47.388 324.171 47.388C323.388 47.388 322.938 46.785 322.893 45.894H326.223V45.543ZM324.171 44.076C324.864 44.076 325.287 44.526 325.431 45.21H322.938C323.082 44.517 323.496 44.076 324.171 44.076ZM330.083 43.527C329.912 43.437 329.705 43.392 329.462 43.392C328.958 43.392 328.391 43.734 328.13 44.238V43.464H327.374V48H328.13V46.281C328.13 45.588 328.256 45.048 328.508 44.661C328.76 44.274 329.057 44.076 329.399 44.076C329.588 44.076 329.759 44.121 329.93 44.202L330.083 43.527Z" fill="white"/>
<path d="M4.644 46.623L1.8 41.7H0.873V48H1.665V43.095L4.509 48H5.436V41.7H4.644V46.623ZM10.8566 45.543C10.8566 44.94 10.6766 44.436 10.3076 44.022C9.9476 43.599 9.4436 43.392 8.8046 43.392C8.1476 43.392 7.6436 43.617 7.2836 44.076C6.9326 44.526 6.7526 45.075 6.7526 45.732C6.7526 46.389 6.9326 46.938 7.2836 47.397C7.6436 47.847 8.1476 48.072 8.8046 48.072C9.7406 48.072 10.3076 47.703 10.7306 46.812L10.0646 46.524C9.8036 47.109 9.4436 47.388 8.8046 47.388C8.0216 47.388 7.5716 46.785 7.5266 45.894H10.8566V45.543ZM8.8046 44.076C9.4976 44.076 9.9206 44.526 10.0646 45.21H7.5716C7.7156 44.517 8.1296 44.076 8.8046 44.076ZM12.3635 44.148V46.578C12.3635 47.559 12.8765 48.072 13.6775 48.072C13.9745 48.072 14.2175 48.018 14.4155 47.901L14.2355 47.244C14.0915 47.343 13.9205 47.388 13.7225 47.388C13.3355 47.388 13.1195 47.118 13.1195 46.641V44.148H14.3075V43.464H13.1195V41.628L12.3635 42.105V43.464H11.5805V44.148H12.3635ZM17.6638 48.072C18.9598 48.072 19.6798 47.136 19.6798 45.732C19.6798 44.328 18.9598 43.392 17.6638 43.392C17.3938 43.392 17.1238 43.455 16.8628 43.59C16.6018 43.725 16.4218 43.86 16.3408 44.004V41.628H15.5848V48H16.3408V47.442C16.5658 47.793 17.1238 48.072 17.6638 48.072ZM17.5918 44.076C18.3838 44.076 18.9058 44.751 18.9058 45.732C18.9058 46.713 18.3838 47.388 17.5918 47.388C16.7728 47.388 16.2778 46.713 16.2778 45.732C16.2778 44.751 16.7728 44.076 17.5918 44.076ZM21.2245 47.388C21.6295 47.847 22.1515 48.072 22.8085 48.072C23.4655 48.072 23.9875 47.847 24.3835 47.388C24.7885 46.929 24.9865 46.371 24.9865 45.732C24.9865 45.093 24.7885 44.544 24.3835 44.085C23.9875 43.626 23.4655 43.392 22.8085 43.392C22.1515 43.392 21.6295 43.626 21.2245 44.085C20.8285 44.544 20.6305 45.093 20.6305 45.732C20.6305 46.371 20.8285 46.929 21.2245 47.388ZM21.7735 44.571C22.0255 44.238 22.3675 44.076 22.8085 44.076C23.2495 44.076 23.5915 44.238 23.8345 44.571C24.0865 44.895 24.2125 45.282 24.2125 45.732C24.2125 46.182 24.0865 46.569 23.8345 46.902C23.5915 47.226 23.2495 47.388 22.8085 47.388C22.3675 47.388 22.0255 47.226 21.7735 46.902C21.5305 46.569 21.4045 46.182 21.4045 45.732C21.4045 45.282 21.5305 44.895 21.7735 44.571ZM26.5331 47.388C26.9381 47.847 27.4601 48.072 28.1171 48.072C28.7741 48.072 29.2961 47.847 29.6921 47.388C30.0971 46.929 30.2951 46.371 30.2951 45.732C30.2951 45.093 30.0971 44.544 29.6921 44.085C29.2961 43.626 28.7741 43.392 28.1171 43.392C27.4601 43.392 26.9381 43.626 26.5331 44.085C26.1371 44.544 25.9391 45.093 25.9391 45.732C25.9391 46.371 26.1371 46.929 26.5331 47.388ZM27.0821 44.571C27.3341 44.238 27.6761 44.076 28.1171 44.076C28.5581 44.076 28.9001 44.238 29.1431 44.571C29.3951 44.895 29.5211 45.282 29.5211 45.732C29.5211 46.182 29.3951 46.569 29.1431 46.902C28.9001 47.226 28.5581 47.388 28.1171 47.388C27.6761 47.388 27.3341 47.226 27.0821 46.902C26.8391 46.569 26.7131 46.182 26.7131 45.732C26.7131 45.282 26.8391 44.895 27.0821 44.571ZM31.5282 48H32.2842V45.723L34.2012 48H35.1642L33.0942 45.543L35.0202 43.464H34.0482L32.2842 45.363V41.628H31.5282V48Z" fill="white"/>
<circle cx="204" cy="69" r="5" fill="white"/>
<path d="M118.139 3.19C117.739 2.34 117.069 1.92 116.119 1.92C115.569 1.92 115.119 2.1 114.749 2.47C114.389 2.84 114.209 3.29 114.209 3.82C114.189 5.11 115.269 5.64 116.099 5.99C116.689 6.24 117.139 6.56 117.139 6.97C117.139 7.58 116.839 7.88 116.229 7.88C115.569 7.88 115.109 7.41 114.839 6.46L113.789 7.12C113.899 7.67 114.179 8.14 114.619 8.52C115.059 8.89 115.589 9.08 116.199 9.08C117.559 9.08 118.439 8.26 118.439 6.9C118.449 5.69 117.339 5.17 116.499 4.8C115.929 4.53 115.449 4.2 115.449 3.76C115.449 3.39 115.729 3.12 116.119 3.12C116.509 3.12 116.839 3.37 117.089 3.86L118.139 3.19ZM124.147 6.37C124.147 5.8 123.967 5.21 123.607 4.72C123.247 4.21 122.597 3.88 121.797 3.88C120.067 3.88 119.377 5.28 119.377 6.48C119.377 7.68 120.067 9.08 121.797 9.08C122.897 9.08 123.657 8.59 124.087 7.61L123.087 7.24C122.787 7.76 122.377 8.02 121.867 8.02C121.147 8.02 120.707 7.49 120.677 6.88H124.147V6.37ZM121.797 4.94C122.377 4.94 122.737 5.26 122.877 5.9H120.707C120.797 5.37 121.207 4.94 121.797 4.94ZM125.245 9H126.485V1.92H125.245V9ZM132.409 6.37C132.409 5.8 132.229 5.21 131.869 4.72C131.509 4.21 130.859 3.88 130.059 3.88C128.329 3.88 127.639 5.28 127.639 6.48C127.639 7.68 128.329 9.08 130.059 9.08C131.159 9.08 131.919 8.59 132.349 7.61L131.349 7.24C131.049 7.76 130.639 8.02 130.129 8.02C129.409 8.02 128.969 7.49 128.939 6.88H132.409V6.37ZM130.059 4.94C130.639 4.94 130.999 5.26 131.139 5.9H128.969C129.059 5.37 129.469 4.94 130.059 4.94ZM137.05 7.19C136.78 7.74 136.38 8.02 135.87 8.02C135.11 8.02 134.71 7.4 134.71 6.48C134.71 5.56 135.11 4.94 135.87 4.94C136.38 4.94 136.78 5.22 137.05 5.77L138.16 5.32C137.77 4.36 137.01 3.88 135.87 3.88C135.08 3.88 134.48 4.13 134.05 4.62C133.62 5.11 133.41 5.73 133.41 6.48C133.41 7.23 133.62 7.85 134.05 8.34C134.48 8.83 135.08 9.08 135.87 9.08C137.01 9.08 137.77 8.6 138.16 7.64L137.05 7.19ZM142.043 7.9C141.893 7.98 141.733 8.02 141.563 8.02C141.123 8.02 140.903 7.8 140.903 7.2V5.02H142.233V3.96H140.903V1.92L139.663 2.7V3.96H138.883V5.02H139.663V7.22C139.663 8.45 140.353 9.08 141.513 9.08C141.803 9.08 142.073 9.02 142.333 8.9L142.043 7.9ZM145.91 5.58C145.91 5.99 146.03 6.33 146.26 6.62C145.85 6.87 145.64 7.22 145.64 7.68C145.64 7.99 145.73 8.25 145.9 8.46C145.63 8.71 145.49 9.05 145.49 9.46C145.49 9.99 145.7 10.4 146.12 10.69C146.55 10.98 147.1 11.12 147.77 11.12C148.57 11.12 149.24 10.92 149.71 10.37C149.94 10.1 150.06 9.77 150.06 9.38C150.06 8.43 149.37 7.9 148.29 7.9H147.26C146.95 7.9 146.79 7.78 146.79 7.53C146.79 7.37 146.87 7.24 147.03 7.15C147.26 7.22 147.51 7.26 147.76 7.26C148.29 7.26 148.73 7.11 149.08 6.81C149.43 6.5 149.61 6.09 149.61 5.58C149.61 5.28 149.54 5.01 149.41 4.78L150.13 4.42L149.64 3.6L148.69 4.1C148.4 3.95 148.09 3.88 147.76 3.88C147.23 3.88 146.79 4.04 146.44 4.35C146.09 4.66 145.91 5.07 145.91 5.58ZM148.01 8.94C148.55 8.94 148.82 9.11 148.82 9.46C148.82 9.87 148.47 10.08 147.77 10.08C147.09 10.08 146.64 9.83 146.64 9.36C146.64 9.16 146.68 9.01 146.75 8.9C146.91 8.93 147.1 8.94 147.33 8.94H148.01ZM147.07 5.58C147.07 5.17 147.36 4.88 147.76 4.88C148.16 4.88 148.45 5.17 148.45 5.58C148.45 5.98 148.16 6.26 147.76 6.26C147.36 6.26 147.07 5.98 147.07 5.58ZM152.286 7.21C152.286 5.68 152.846 4.99 153.636 4.99C153.826 4.99 154.006 5.04 154.156 5.13L154.386 3.98C154.166 3.91 153.966 3.88 153.776 3.88C153.186 3.88 152.646 4.21 152.286 4.78V3.96H151.046V9H152.286V7.21ZM156.143 5.52C156.273 5.13 156.563 4.94 157.013 4.94C157.603 4.94 157.893 5.19 157.893 5.68V5.9H157.053C155.773 5.9 154.903 6.55 154.903 7.55C154.903 8.52 155.543 9.08 156.433 9.08C157.073 9.08 157.593 8.84 157.983 8.36L158.113 9H159.133V5.99C159.133 4.58 158.423 3.88 157.013 3.88C156.003 3.88 155.253 4.44 155.093 5.28L156.143 5.52ZM156.203 7.53C156.203 7.1 156.493 6.88 157.063 6.88H157.893V6.98C157.893 7.29 157.773 7.54 157.533 7.73C157.303 7.92 157.033 8.02 156.723 8.02C156.393 8.02 156.203 7.8 156.203 7.53ZM162.862 9.08C164.342 9.08 165.162 8.07 165.162 6.48C165.162 4.89 164.342 3.88 162.862 3.88C162.292 3.88 161.802 4.19 161.642 4.48V3.96H160.402V11.04H161.642V8.54C161.872 8.83 162.372 9.08 162.862 9.08ZM163.532 7.61C163.312 7.88 163.032 8.02 162.692 8.02C162.352 8.02 162.072 7.89 161.852 7.62C161.642 7.35 161.532 6.97 161.532 6.48C161.532 5.99 161.642 5.62 161.852 5.35C162.072 5.08 162.352 4.94 162.692 4.94C163.032 4.94 163.312 5.08 163.532 5.35C163.752 5.62 163.862 6 163.862 6.48C163.862 6.96 163.752 7.34 163.532 7.61ZM166.349 9H167.589V6.87C167.589 5.6 168.129 4.94 168.769 4.94C169.269 4.94 169.519 5.24 169.519 5.84V9H170.759V5.4C170.759 4.4 170.159 3.88 169.189 3.88C168.499 3.88 167.959 4.18 167.589 4.77V1.92H166.349V9ZM172.07 3.08C172.38 3.39 172.9 3.39 173.21 3.08C173.52 2.77 173.52 2.25 173.21 1.94C172.9 1.63 172.38 1.63 172.07 1.94C171.76 2.25 171.76 2.77 172.07 3.08ZM172.02 9H173.26V3.96H172.02V9ZM178.095 7.19C177.825 7.74 177.425 8.02 176.915 8.02C176.155 8.02 175.755 7.4 175.755 6.48C175.755 5.56 176.155 4.94 176.915 4.94C177.425 4.94 177.825 5.22 178.095 5.77L179.205 5.32C178.815 4.36 178.055 3.88 176.915 3.88C176.125 3.88 175.525 4.13 175.095 4.62C174.665 5.11 174.455 5.73 174.455 6.48C174.455 7.23 174.665 7.85 175.095 8.34C175.525 8.83 176.125 9.08 176.915 9.08C178.055 9.08 178.815 8.6 179.205 7.64L178.095 7.19ZM181.843 3.88C181.373 3.88 180.983 4.02 180.683 4.31C180.383 4.6 180.233 4.94 180.233 5.35C180.233 6.07 180.613 6.44 181.253 6.71C181.443 6.79 181.793 6.9 181.963 6.98C182.053 7.01 182.153 7.05 182.243 7.1C182.433 7.19 182.513 7.32 182.513 7.48C182.513 7.84 182.303 8.02 181.893 8.02C181.423 8.02 181.083 7.74 180.883 7.19L179.893 7.72C180.043 8.08 180.293 8.4 180.643 8.67C180.993 8.94 181.413 9.08 181.893 9.08C182.423 9.08 182.853 8.92 183.183 8.59C183.513 8.26 183.683 7.87 183.683 7.4C183.683 7.05 183.523 6.75 183.373 6.58C183.303 6.49 183.183 6.41 183.013 6.32C182.853 6.23 182.733 6.16 182.653 6.13L182.223 5.98L181.863 5.85C181.543 5.73 181.383 5.57 181.383 5.36C181.383 5.09 181.593 4.94 181.843 4.94C182.173 4.94 182.453 5.09 182.683 5.38L183.423 4.7C183.103 4.21 182.513 3.88 181.843 3.88ZM189.304 3.88C187.824 3.88 187.004 4.89 187.004 6.48C187.004 8.07 187.824 9.08 189.304 9.08C189.794 9.08 190.294 8.83 190.524 8.54V11.04H191.764V3.96H190.524V4.48C190.364 4.19 189.874 3.88 189.304 3.88ZM188.634 5.35C188.854 5.08 189.134 4.94 189.474 4.94C189.814 4.94 190.094 5.08 190.304 5.35C190.524 5.62 190.634 5.99 190.634 6.48C190.634 6.97 190.524 7.35 190.304 7.62C190.094 7.89 189.814 8.02 189.474 8.02C189.134 8.02 188.854 7.88 188.634 7.61C188.414 7.34 188.304 6.96 188.304 6.48C188.304 6 188.414 5.62 188.634 5.35ZM197.435 3.96H196.195V5.97C196.195 7.24 195.685 8.02 195.045 8.02C194.565 8.02 194.325 7.74 194.325 7.19V3.96H193.085V7.56C193.085 8.55 193.705 9.08 194.635 9.08C195.265 9.08 195.785 8.78 196.195 8.19V9H197.435V3.96ZM199.854 5.52C199.984 5.13 200.274 4.94 200.724 4.94C201.314 4.94 201.604 5.19 201.604 5.68V5.9H200.764C199.484 5.9 198.614 6.55 198.614 7.55C198.614 8.52 199.254 9.08 200.144 9.08C200.784 9.08 201.304 8.84 201.694 8.36L201.824 9H202.844V5.99C202.844 4.58 202.134 3.88 200.724 3.88C199.714 3.88 198.964 4.44 198.804 5.28L199.854 5.52ZM199.914 7.53C199.914 7.1 200.204 6.88 200.774 6.88H201.604V6.98C201.604 7.29 201.484 7.54 201.244 7.73C201.014 7.92 200.744 8.02 200.434 8.02C200.104 8.02 199.914 7.8 199.914 7.53ZM204.073 9H205.313V1.92H204.073V9ZM206.679 3.08C206.989 3.39 207.509 3.39 207.819 3.08C208.129 2.77 208.129 2.25 207.819 1.94C207.509 1.63 206.989 1.63 206.679 1.94C206.369 2.25 206.369 2.77 206.679 3.08ZM206.629 9H207.869V3.96H206.629V9ZM211.985 7.9C211.835 7.98 211.675 8.02 211.505 8.02C211.065 8.02 210.845 7.8 210.845 7.2V5.02H212.175V3.96H210.845V1.92L209.605 2.7V3.96H208.825V5.02H209.605V7.22C209.605 8.45 210.295 9.08 211.455 9.08C211.745 9.08 212.015 9.02 212.275 8.9L211.985 7.9ZM214.606 8.68L213.736 11.04H214.936L217.536 3.96H216.296L215.196 7.12L214.026 3.96H212.776L214.606 8.68Z" fill="white"/>
</svg>
