<svg width="28" height="23" viewBox="-1 -1 29 24" fill="none" xmlns="http://www.w3.org/2000/svg">
<path d="M19.5488 0C19.7734 0 19.9984 0 20.223 0C20.5524 0.03618 20.8821 0.0691198 21.2112 0.10908C21.9912 0.20358 22.7507 0.37827 23.4533 0.74061C25.4491 1.76931 26.5901 3.44034 27.0724 5.5971C27.1328 5.8671 27.1636 6.14385 27.2082 6.41736C27.2082 6.83073 27.2082 7.24437 27.2082 7.65774C27.1998 7.69689 27.1906 7.73577 27.1831 7.77492C27.1053 8.16615 27.0467 8.56251 26.946 8.9478C26.7392 9.73809 26.2969 10.4115 25.852 11.0835C25.5174 11.5887 25.1815 12.0949 24.8851 12.6225C24.5622 13.1965 24.364 13.8038 24.4633 14.4901C24.6542 15.8099 24.8146 17.1342 24.9844 18.4572C25.0133 18.6816 25.0271 18.9081 25.0479 19.1333C22.1327 19.1333 19.241 19.1333 16.3633 19.1333C16.3633 18.6594 16.3798 18.1961 16.3577 17.7344C16.3428 17.4274 16.2985 17.1164 16.2211 16.8194C16.1303 16.4722 15.8898 16.3037 15.5309 16.3145C15.2725 16.322 15.0106 16.3558 14.759 16.4144C14.1853 16.5483 13.6112 16.6325 13.0237 16.5289C12.6751 16.4673 12.3382 16.3723 12.0782 16.1117C11.8759 15.9092 11.8473 15.6592 12.0131 15.4278C12.0979 15.3093 12.2091 15.2056 12.3225 15.1124C12.5501 14.9253 12.568 14.8273 12.3752 14.6035C12.2345 14.4401 12.0801 14.2884 11.9424 14.1229C11.7666 13.9118 11.8419 13.6758 12.1046 13.5886C12.16 13.5702 12.2197 13.561 12.271 13.5351C12.3196 13.5103 12.3598 13.4687 12.4038 13.4347C12.3579 13.3974 12.3169 13.3483 12.2645 13.3256C12.1956 13.2956 12.1165 13.2897 12.0439 13.2673C11.8368 13.2027 11.7447 13.048 11.8079 12.8409C11.8425 12.727 11.8957 12.6128 11.9653 12.5167C12.0784 12.3611 12.2072 12.2159 12.3385 12.0749C12.4181 11.9894 12.433 11.903 12.3806 11.8063C12.3468 11.7439 12.3052 11.6832 12.2561 11.6324C12.0398 11.4086 11.7706 11.286 11.4693 11.2188C11.1218 11.141 10.945 10.8597 11.0152 10.5122C11.0284 10.4463 11.0438 10.3804 11.0646 10.3164C11.182 9.95652 11.407 9.6579 11.6162 9.34956C11.8554 8.99694 12.0998 8.64702 12.3196 8.28252C12.5045 7.9758 12.5809 7.63911 12.5131 7.27326C12.4748 7.06698 12.4608 6.85314 12.4613 6.64281C12.467 4.77603 13.2041 3.24 14.5805 1.998C15.0255 1.59651 15.5536 1.32732 16.0842 1.05867C16.9501 0.62046 17.837 0.24813 18.8023 0.0947699C19.0498 0.0545399 19.2999 0.03078 19.5488 0Z" fill="none" stroke="white" stroke-width="1.5" />
<g id="voiceLines">
    <path fill-rule="evenodd" clip-rule="evenodd" d="M10.3114 5.62689C9.49078 5.88677 8.788 6.49306 8.264 7.27906C7.55624 8.3407 7.13473 9.77854 7.13473 11.3418C7.13473 12.905 7.55624 14.3428 8.264 15.4045C8.788 16.1905 9.49078 16.7968 10.3114 17.0566V15.9806C9.86771 15.763 9.45096 15.3821 9.09605 14.8498C8.51214 13.9739 8.13473 12.7351 8.13473 11.3418C8.13473 9.94843 8.51214 8.70963 9.09605 7.83376C9.45096 7.3014 9.86771 6.92056 10.3114 6.70289V5.62689Z" fill="white"/>
    <path fill-rule="evenodd" clip-rule="evenodd" d="M9 3C7.7084 3.38652 6.60223 4.28829 5.77746 5.45734C4.66345 7.03638 4 9.17495 4 11.5C4 13.825 4.66345 15.9636 5.77746 17.5427C6.60223 18.7117 7.7084 19.6135 9 20V18.3996C8.30167 18.0759 7.64571 17.5094 7.08709 16.7176C6.16802 15.4149 5.57399 13.5724 5.57399 11.5C5.57399 9.42764 6.16802 7.5851 7.08709 6.28238C7.64571 5.49057 8.30167 4.92413 9 4.60039V3Z" fill="white"/>
    <path fill-rule="evenodd" clip-rule="evenodd" d="M7 0C5.19176 0.522944 3.64312 1.74298 2.48844 3.32464C0.928829 5.46098 0 8.35435 0 11.5C0 14.6457 0.928829 17.539 2.48844 19.6754C3.64312 21.257 5.19176 22.4771 7 23V20.8348C6.02234 20.3968 5.104 19.6304 4.32193 18.5591C3.03523 16.7966 2.20358 14.3038 2.20358 11.5C2.20358 8.69621 3.03523 6.20337 4.32193 4.44086C5.104 3.36959 6.02234 2.60324 7 2.16523V0Z" fill="white"/>
</g>
<line id="mute" x1="9" y1="1" x2="27" y2="19" stroke="white" stroke-width="2" />
</svg>
