<svg width="25" height="20" viewBox="0 0 25 20" fill="none" xmlns="http://www.w3.org/2000/svg">
<path d="M17.1869 0.732498C17.4115 0.732498 17.6364 0.732498 17.8611 0.732498C18.1905 0.768678 18.5202 0.801618 18.8493 0.841578C19.6293 0.936078 20.3888 1.11077 21.0914 1.47311C23.0872 2.50181 24.2282 4.17284 24.7104 6.3296C24.7709 6.5996 24.8017 6.87635 24.8463 7.14986C24.8463 7.56323 24.8463 7.97687 24.8463 8.39024C24.8379 8.42939 24.8287 8.46827 24.8211 8.50742C24.7434 8.89865 24.6848 9.29501 24.5841 9.6803C24.3773 10.4706 23.935 11.144 23.49 11.816C23.1555 12.3212 22.8196 12.8274 22.5232 13.355C22.2003 13.929 22.0021 14.5362 22.1014 15.2226C22.2923 16.5423 22.4527 17.8667 22.6225 19.1897C22.6514 19.4141 22.6652 19.6406 22.686 19.8658C19.7708 19.8658 16.8791 19.8658 14.0014 19.8658C14.0014 19.3919 14.0179 18.9286 13.9958 18.4669C13.9809 18.1599 13.9366 17.8489 13.8591 17.5519C13.7684 17.2047 13.5279 17.0362 13.169 17.047C12.9106 17.0545 12.6487 17.0883 12.3971 17.1469C11.8233 17.2808 11.2493 17.365 10.6618 17.2614C10.3132 17.1998 9.97628 17.1048 9.71627 16.8442C9.51404 16.6417 9.48542 16.3917 9.6512 16.1603C9.73598 16.0418 9.84722 15.9381 9.96062 15.8449C10.1882 15.6578 10.206 15.5598 10.0133 15.336C9.8726 15.1726 9.71816 15.0209 9.58046 14.8554C9.40469 14.6442 9.48002 14.4083 9.74273 14.3211C9.79808 14.3027 9.85775 14.2935 9.90905 14.2676C9.95765 14.2428 9.99788 14.2012 10.0419 14.1672C9.99599 14.1299 9.95495 14.0808 9.90257 14.0581C9.83372 14.0281 9.75461 14.0222 9.68198 13.9998C9.47489 13.9352 9.38282 13.7805 9.446 13.5734C9.48056 13.4595 9.53375 13.3453 9.60341 13.2492C9.71654 13.0936 9.84533 12.9484 9.97655 12.8074C10.0562 12.7219 10.071 12.6355 10.0187 12.5388C9.98492 12.4764 9.94334 12.4157 9.8942 12.3649C9.67793 12.1411 9.40874 12.0185 9.10742 11.9513C8.75993 11.8735 8.58308 11.5922 8.65328 11.2447C8.66651 11.1788 8.6819 11.1129 8.70269 11.0489C8.82014 10.689 9.04505 10.3904 9.2543 10.0821C9.49352 9.72944 9.73787 9.37952 9.95765 9.01502C10.1426 8.7083 10.219 8.37161 10.1512 8.00576C10.1129 7.79948 10.0989 7.58564 10.0994 7.37531C10.1051 5.50853 10.8422 3.9725 12.2186 2.7305C12.6636 2.32901 13.1917 2.05982 13.7223 1.79117C14.5882 1.35296 15.4751 0.980628 16.4404 0.827268C16.6879 0.787038 16.938 0.763278 17.1869 0.732498Z" fill="none" stroke="white" stroke-width="1.5" />
<g id="voiceLines">
    <path d="M0.177643 14.0146C0.211123 12.5777 0.629353 11.3627 1.33783 10.2406C1.48903 10.0011 1.65319 9.76996 1.81762 9.53911C1.98043 9.31042 2.16241 9.26101 2.32819 9.38926C2.48641 9.51184 2.49046 9.69301 2.33278 9.90739C1.8133 10.6137 1.37509 11.3638 1.10293 12.2021C0.551863 13.8988 0.845353 15.4861 1.7404 16.989C1.92967 17.3065 2.15215 17.6046 2.36059 17.9105C2.48884 18.0984 2.47723 18.2785 2.32603 18.393C2.17348 18.5085 1.99069 18.4756 1.85299 18.2944C1.02787 17.2077 0.418753 16.024 0.241093 14.651C0.209503 14.4061 0.191953 14.1596 0.177643 14.0146Z" fill="white"/>
    <path d="M2.05342 13.8967C2.06908 12.5164 2.62258 11.3287 3.44311 10.2435C3.56299 10.0851 3.74254 10.068 3.88672 10.1755C4.03738 10.2878 4.05034 10.455 3.94126 10.6388C3.6421 11.144 3.2965 11.6297 3.06403 12.1643C2.41495 13.6555 2.63824 15.0895 3.46795 16.4525C3.61132 16.6879 3.77899 16.9088 3.93451 17.1369C4.05574 17.3151 4.04008 17.4882 3.89455 17.6016C3.75442 17.7107 3.56623 17.6977 3.44851 17.5449C2.62204 16.4719 2.068 15.2931 2.05342 13.8967Z" fill="white"/>
    <path d="M3.92011 13.8413C3.93199 12.8026 4.3648 11.8827 4.9993 11.0408C5.12566 10.8732 5.31276 10.8513 5.45856 10.9661C5.60382 11.0803 5.61759 11.2509 5.4996 11.4315C5.34489 11.6686 5.17696 11.8986 5.04115 12.146C4.37695 13.3564 4.40017 14.5619 5.09893 15.7513C5.22367 15.9638 5.37378 16.1611 5.50959 16.3674C5.62002 16.5351 5.59923 16.7036 5.45965 16.814C5.3152 16.9285 5.12592 16.9074 4.99957 16.7427C4.35238 15.8987 3.91957 14.972 3.92011 13.8413Z" fill="white"/>
    <path d="M6.78137 11.6821C7.06919 11.6851 7.21742 11.9392 7.10024 12.1552C7.03814 12.2696 6.95255 12.3709 6.88208 12.481C6.27026 13.439 6.27296 14.3929 6.90449 15.3411C6.96092 15.4259 7.02518 15.5053 7.07918 15.5914C7.18394 15.7586 7.15613 15.9316 7.01276 16.0359C6.86858 16.1406 6.69119 16.1206 6.56942 15.9627C6.12041 15.3808 5.81396 14.7407 5.79128 13.9895C5.76644 13.1636 6.08396 12.4594 6.57239 11.8201C6.62855 11.7469 6.73466 11.7118 6.78137 11.6821Z" fill="white"/>
    <path d="M7.649 13.9112C7.65548 13.4198 7.83584 12.9911 8.13176 12.6082C8.25029 12.4548 8.43389 12.4313 8.57592 12.5326C8.71686 12.633 8.74575 12.8104 8.64504 12.9773C8.58888 13.0704 8.52435 13.1587 8.47089 13.2532C8.21978 13.6974 8.23247 14.1391 8.49249 14.5754C8.52975 14.6378 8.5716 14.6972 8.61183 14.7574C8.74494 14.9564 8.72928 15.1457 8.57052 15.2547C8.415 15.3619 8.2376 15.3214 8.10017 15.1376C7.82909 14.7739 7.66196 14.3705 7.649 13.9112Z" fill="white"/>
</g>
<line id="mute" x1="8" y1="1" x2="27" y2="19" stroke="white" stroke-width="2" />
<rect x="-1" y="-1" fill="white" fill-opacity="0" height="20px" width="25px" z-index="-1"></rect>
</svg>

