<svg width="84" height="11" viewBox="0 0 84 11" fill="none" xmlns="http://www.w3.org/2000/svg">
<path id="keyboard controls" d="M0.817578 8H2.05758V5.62L3.83758 8H5.35758L3.20758 5.28L5.22758 2.96H3.69758L2.05758 4.94V0.92H0.817578V8ZM10.452 5.37C10.452 4.8 10.272 4.21 9.91195 3.72C9.55195 3.21 8.90195 2.88 8.10195 2.88C6.37195 2.88 5.68195 4.28 5.68195 5.48C5.68195 6.68 6.37195 8.08 8.10195 8.08C9.20195 8.08 9.96195 7.59 10.392 6.61L9.39195 6.24C9.09195 6.76 8.68195 7.02 8.17195 7.02C7.45195 7.02 7.01195 6.49 6.98195 5.88H10.452V5.37ZM8.10195 3.94C8.68195 3.94 9.04195 4.26 9.18195 4.9H7.01195C7.10195 4.37 7.51195 3.94 8.10195 3.94ZM12.6295 7.68L11.7595 10.04H12.9595L15.5595 2.96H14.3195L13.2195 6.12L12.0495 2.96H10.7995L12.6295 7.68ZM18.844 8.08C20.324 8.08 21.144 7.07 21.144 5.48C21.144 3.89 20.324 2.88 18.844 2.88C18.354 2.88 17.854 3.13 17.624 3.42V0.92H16.384V8H17.624V7.48C17.784 7.77 18.274 8.08 18.844 8.08ZM19.514 6.61C19.294 6.88 19.014 7.02 18.674 7.02C18.334 7.02 18.054 6.89 17.834 6.62C17.624 6.35 17.514 5.97 17.514 5.48C17.514 4.99 17.624 4.62 17.834 4.35C18.054 4.08 18.334 3.94 18.674 3.94C19.014 3.94 19.294 4.08 19.514 4.35C19.734 4.62 19.844 5 19.844 5.48C19.844 5.96 19.734 6.34 19.514 6.61ZM22.7587 7.35C23.2187 7.84 23.8387 8.08 24.6287 8.08C25.4187 8.08 26.0387 7.84 26.4987 7.35C26.9587 6.86 27.1887 6.23 27.1887 5.48C27.1887 4.73 26.9587 4.11 26.4987 3.62C26.0387 3.13 25.4187 2.88 24.6287 2.88C23.8387 2.88 23.2187 3.13 22.7587 3.62C22.2987 4.11 22.0687 4.73 22.0687 5.48C22.0687 6.23 22.2987 6.86 22.7587 7.35ZM23.7087 4.39C23.9387 4.09 24.2387 3.94 24.6287 3.94C25.0187 3.94 25.3187 4.09 25.5487 4.39C25.7787 4.68 25.8887 5.05 25.8887 5.48C25.8887 5.91 25.7787 6.28 25.5487 6.58C25.3187 6.87 25.0187 7.02 24.6287 7.02C24.2387 7.02 23.9387 6.87 23.7087 6.58C23.4787 6.28 23.3687 5.91 23.3687 5.48C23.3687 5.05 23.4787 4.68 23.7087 4.39ZM29.2548 4.52C29.3848 4.13 29.6748 3.94 30.1248 3.94C30.7148 3.94 31.0048 4.19 31.0048 4.68V4.9H30.1648C28.8848 4.9 28.0148 5.55 28.0148 6.55C28.0148 7.52 28.6548 8.08 29.5448 8.08C30.1848 8.08 30.7048 7.84 31.0948 7.36L31.2248 8H32.2448V4.99C32.2448 3.58 31.5348 2.88 30.1248 2.88C29.1148 2.88 28.3648 3.44 28.2048 4.28L29.2548 4.52ZM29.3148 6.53C29.3148 6.1 29.6048 5.88 30.1748 5.88H31.0048V5.98C31.0048 6.29 30.8848 6.54 30.6448 6.73C30.4148 6.92 30.1448 7.02 29.8348 7.02C29.5048 7.02 29.3148 6.8 29.3148 6.53ZM34.6748 6.21C34.6748 4.68 35.2348 3.99 36.0248 3.99C36.2148 3.99 36.3948 4.04 36.5448 4.13L36.7748 2.98C36.5548 2.91 36.3548 2.88 36.1648 2.88C35.5748 2.88 35.0348 3.21 34.6748 3.78V2.96H33.4348V8H34.6748V6.21ZM39.603 2.88C38.123 2.88 37.303 3.89 37.303 5.48C37.303 7.07 38.123 8.08 39.603 8.08C40.173 8.08 40.663 7.77 40.823 7.48V8H42.063V0.92H40.823V3.42C40.593 3.13 40.093 2.88 39.603 2.88ZM38.933 4.35C39.153 4.08 39.433 3.94 39.773 3.94C40.113 3.94 40.393 4.08 40.603 4.35C40.823 4.62 40.933 4.99 40.933 5.48C40.933 5.97 40.823 6.35 40.603 6.62C40.393 6.89 40.113 7.02 39.773 7.02C39.433 7.02 39.153 6.88 38.933 6.61C38.713 6.34 38.603 5.96 38.603 5.48C38.603 5 38.713 4.62 38.933 4.35ZM49.4098 6.19C49.1398 6.74 48.7398 7.02 48.2298 7.02C47.4698 7.02 47.0698 6.4 47.0698 5.48C47.0698 4.56 47.4698 3.94 48.2298 3.94C48.7398 3.94 49.1398 4.22 49.4098 4.77L50.5198 4.32C50.1298 3.36 49.3698 2.88 48.2298 2.88C47.4398 2.88 46.8398 3.13 46.4098 3.62C45.9798 4.11 45.7698 4.73 45.7698 5.48C45.7698 6.23 45.9798 6.85 46.4098 7.34C46.8398 7.83 47.4398 8.08 48.2298 8.08C49.3698 8.08 50.1298 7.6 50.5198 6.64L49.4098 6.19ZM52.0458 7.35C52.5058 7.84 53.1258 8.08 53.9158 8.08C54.7058 8.08 55.3258 7.84 55.7858 7.35C56.2458 6.86 56.4758 6.23 56.4758 5.48C56.4758 4.73 56.2458 4.11 55.7858 3.62C55.3258 3.13 54.7058 2.88 53.9158 2.88C53.1258 2.88 52.5058 3.13 52.0458 3.62C51.5858 4.11 51.3558 4.73 51.3558 5.48C51.3558 6.23 51.5858 6.86 52.0458 7.35ZM52.9958 4.39C53.2258 4.09 53.5258 3.94 53.9158 3.94C54.3058 3.94 54.6058 4.09 54.8358 4.39C55.0658 4.68 55.1758 5.05 55.1758 5.48C55.1758 5.91 55.0658 6.28 54.8358 6.58C54.6058 6.87 54.3058 7.02 53.9158 7.02C53.5258 7.02 53.2258 6.87 52.9958 6.58C52.7658 6.28 52.6558 5.91 52.6558 5.48C52.6558 5.05 52.7658 4.68 52.9958 4.39ZM57.5949 8H58.8349V5.99C58.8349 4.72 59.3449 3.94 59.9849 3.94C60.4649 3.94 60.7049 4.22 60.7049 4.77V8H61.9449V4.4C61.9449 3.41 61.3249 2.88 60.3949 2.88C59.7649 2.88 59.2449 3.18 58.8349 3.77V2.96H57.5949V8ZM66.0041 6.9C65.8541 6.98 65.6941 7.02 65.5241 7.02C65.0841 7.02 64.8641 6.8 64.8641 6.2V4.02H66.1941V2.96H64.8641V0.92L63.6241 1.7V2.96H62.8441V4.02H63.6241V6.22C63.6241 7.45 64.3141 8.08 65.4741 8.08C65.7641 8.08 66.0341 8.02 66.2941 7.9L66.0041 6.9ZM68.6201 6.21C68.6201 4.68 69.1801 3.99 69.9701 3.99C70.1601 3.99 70.3401 4.04 70.4901 4.13L70.7201 2.98C70.5001 2.91 70.3001 2.88 70.1101 2.88C69.5201 2.88 68.9801 3.21 68.6201 3.78V2.96H67.3801V8H68.6201V6.21ZM71.9384 7.35C72.3984 7.84 73.0184 8.08 73.8084 8.08C74.5984 8.08 75.2184 7.84 75.6784 7.35C76.1384 6.86 76.3684 6.23 76.3684 5.48C76.3684 4.73 76.1384 4.11 75.6784 3.62C75.2184 3.13 74.5984 2.88 73.8084 2.88C73.0184 2.88 72.3984 3.13 71.9384 3.62C71.4784 4.11 71.2484 4.73 71.2484 5.48C71.2484 6.23 71.4784 6.86 71.9384 7.35ZM72.8884 4.39C73.1184 4.09 73.4184 3.94 73.8084 3.94C74.1984 3.94 74.4984 4.09 74.7284 4.39C74.9584 4.68 75.0684 5.05 75.0684 5.48C75.0684 5.91 74.9584 6.28 74.7284 6.58C74.4984 6.87 74.1984 7.02 73.8084 7.02C73.4184 7.02 73.1184 6.87 72.8884 6.58C72.6584 6.28 72.5484 5.91 72.5484 5.48C72.5484 5.05 72.6584 4.68 72.8884 4.39ZM77.5359 8H78.7759V0.92H77.5359V8ZM81.7319 2.88C81.2619 2.88 80.8719 3.02 80.5719 3.31C80.2719 3.6 80.1219 3.94 80.1219 4.35C80.1219 5.07 80.5019 5.44 81.1419 5.71C81.3319 5.79 81.6819 5.9 81.8519 5.98C81.9419 6.01 82.0419 6.05 82.1319 6.1C82.3219 6.19 82.4019 6.32 82.4019 6.48C82.4019 6.84 82.1919 7.02 81.7819 7.02C81.3119 7.02 80.9719 6.74 80.7719 6.19L79.7819 6.72C79.9319 7.08 80.1819 7.4 80.5319 7.67C80.8819 7.94 81.3019 8.08 81.7819 8.08C82.3119 8.08 82.7419 7.92 83.0719 7.59C83.4019 7.26 83.5719 6.87 83.5719 6.4C83.5719 6.05 83.4119 5.75 83.2619 5.58C83.1919 5.49 83.0719 5.41 82.9019 5.32C82.7419 5.23 82.6219 5.16 82.5419 5.13L82.1119 4.98L81.7519 4.85C81.4319 4.73 81.2719 4.57 81.2719 4.36C81.2719 4.09 81.4819 3.94 81.7319 3.94C82.0619 3.94 82.3419 4.09 82.5719 4.38L83.3119 3.7C82.9919 3.21 82.4019 2.88 81.7319 2.88Z" fill="white"/>
</svg>
