<svg width="10" height="6" viewBox="0 0 10 6" fill="none" xmlns="http://www.w3.org/2000/svg">
<path d="M0.639647 4.86444C0.600585 4.82538 0.581054 4.78631 0.581054 4.70819C0.581054 4.64959 0.600585 4.591 0.639647 4.53241L4.74121 0.450376C4.78027 0.411313 4.83887 0.372251 4.89746 0.372251C4.97558 0.372251 5.01465 0.411313 5.05371 0.450376L9.15527 4.53241C9.19433 4.591 9.21387 4.64959 9.21387 4.70819C9.21387 4.78631 9.19433 4.82538 9.15527 4.86444L8.76465 5.25506C8.72558 5.31366 8.68652 5.33319 8.6084 5.33319C8.5498 5.33319 8.49121 5.31366 8.43262 5.25506L4.89746 1.71991L1.3623 5.25506C1.32324 5.31366 1.26465 5.33319 1.18652 5.33319C1.12793 5.33319 1.06933 5.31366 1.03027 5.25506L0.639647 4.86444Z" fill="white"/>
</svg>
