<svg width="6" height="10" viewBox="0 0 6 10" fill="none" xmlns="http://www.w3.org/2000/svg">
<path d="M0.782854 0.992188C0.821917 0.953125 0.860979 0.933594 0.939104 0.933594C0.997698 0.933594 1.05629 0.953125 1.11489 0.992188L5.19692 5.09375C5.23598 5.13281 5.27504 5.19141 5.27504 5.25C5.27504 5.32812 5.23598 5.36719 5.19692 5.40625L1.11489 9.50781C1.05629 9.54688 0.997698 9.56641 0.939104 9.56641C0.860979 9.56641 0.821917 9.54688 0.782854 9.50781L0.392229 9.11719C0.333635 9.07812 0.314104 9.03906 0.314104 8.96094C0.314104 8.90234 0.333635 8.84375 0.392229 8.78516L3.92739 5.25L0.392229 1.71484C0.333635 1.67578 0.314104 1.61719 0.314104 1.53906C0.314104 1.48047 0.333635 1.42188 0.392229 1.38281L0.782854 0.992188Z" fill="white"/>
</svg>
