<svg width="69" height="32" viewBox="0 0 69 32" fill="none" xmlns="http://www.w3.org/2000/svg">
<path fill-rule="evenodd" clip-rule="evenodd" d="M22.3572 1.11786H8.94286C4.62123 1.11786 1.11786 4.62123 1.11786 8.94286V22.3572C1.11786 26.6788 4.62123 30.1822 8.94286 30.1822H22.3572C26.6788 30.1822 30.1822 26.6788 30.1822 22.3572V8.94286C30.1822 4.62123 26.6788 1.11786 22.3572 1.11786ZM8.94286 0C4.00386 0 0 4.00386 0 8.94286V22.3572C0 27.2962 4.00386 31.3 8.94286 31.3H22.3572C27.2962 31.3 31.3 27.2962 31.3 22.3572V8.94286C31.3 4.00386 27.2962 0 22.3572 0H8.94286Z" fill="white"/>
<path fill-rule="evenodd" clip-rule="evenodd" d="M59.3572 1.11786H45.9429C41.6212 1.11786 38.1179 4.62123 38.1179 8.94286V22.3572C38.1179 26.6788 41.6212 30.1822 45.9429 30.1822H59.3572C63.6788 30.1822 67.1822 26.6788 67.1822 22.3572V8.94286C67.1822 4.62123 63.6788 1.11786 59.3572 1.11786ZM45.9429 0C41.0039 0 37 4.00386 37 8.94286V22.3572C37 27.2962 41.0039 31.3 45.9429 31.3H59.3572C64.2962 31.3 68.3 27.2962 68.3 22.3572V8.94286C68.3 4.00386 64.2962 0 59.3572 0H45.9429Z" fill="white"/>
<path d="M52.7596 6.0655C52.8033 6.02183 52.8688 6 52.9561 6C53.0216 6 53.0871 6.02183 53.1308 6.0655L57.6939 10.6505C57.7376 10.6941 57.7813 10.7596 57.7813 10.8251C57.7813 10.9125 57.7376 10.9561 57.6939 10.9998L53.1308 15.5848C53.0871 15.6284 53.0216 15.6503 52.9561 15.6503C52.8688 15.6503 52.8033 15.6284 52.7596 15.5848L52.323 15.1481C52.2793 15.1044 52.2575 15.0608 52.2575 14.9734C52.2575 14.9079 52.2793 14.8424 52.323 14.7769L55.7071 11.3928H48.262C48.1747 11.3928 48.1092 11.371 48.0655 11.3273C48.0218 11.2836 48 11.2181 48 11.1308V10.5195C48 10.454 48.0218 10.3885 48.0655 10.3448C48.1092 10.3011 48.1747 10.2575 48.262 10.2575H55.7071L52.323 6.87333C52.2793 6.82966 52.2575 6.76416 52.2575 6.67683C52.2575 6.61133 52.2793 6.54583 52.323 6.50216L52.7596 6.0655Z" fill="white"/>
<path d="M16.0216 15.5848C15.9561 15.6284 15.8906 15.6503 15.8251 15.6503C15.7378 15.6503 15.6941 15.6284 15.6505 15.5848L11.0873 10.9998C11.0218 10.9561 11 10.9125 11 10.8251C11 10.7596 11.0218 10.6941 11.0873 10.6505L15.6505 6.0655C15.6941 6.02183 15.7378 6 15.8251 6C15.8906 6 15.9561 6.02183 16.0216 6.0655L16.4583 6.50216C16.502 6.54583 16.5238 6.61133 16.5238 6.67683C16.5238 6.76416 16.502 6.82966 16.4583 6.87333L13.0742 10.2575H20.5193C20.5848 10.2575 20.6503 10.3011 20.6939 10.3448C20.7376 10.3885 20.7813 10.454 20.7813 10.5195V11.1308C20.7813 11.2181 20.7376 11.2836 20.6939 11.3273C20.6503 11.371 20.5848 11.3928 20.5193 11.3928H13.0742L16.4583 14.7769C16.502 14.8424 16.5238 14.9079 16.5238 14.9734C16.5238 15.0608 16.502 15.1044 16.4583 15.1481L16.0216 15.5848Z" fill="white"/>
<path d="M13.1201 26H14.0001L14.6201 24.13H17.3001L17.9201 26H18.8001L16.3801 19H15.5401L13.1201 26ZM17.0201 23.29H14.9001L15.9601 20.14L17.0201 23.29Z" fill="white"/>
<path d="M50.97 26H52.89C53.8 26 54.56 25.69 55.18 25.07C55.8 24.44 56.11 23.59 56.11 22.5C56.11 21.41 55.8 20.56 55.18 19.94C54.56 19.31 53.8 19 52.89 19H50.97V26ZM52.74 19.84C54.03 19.84 55.17 20.54 55.17 22.5C55.17 24.46 54.03 25.16 52.74 25.16H51.85V19.84H52.74Z" fill="white"/>
</svg>
