<svg width="10" height="6" viewBox="0 0 10 6" fill="none" xmlns="http://www.w3.org/2000/svg">
<path id="OR" d="M1.11035 4.7245C1.56035 5.2345 2.14035 5.4845 2.87035 5.4845C3.60035 5.4845 4.18035 5.2345 4.62035 4.7245C5.07035 4.2145 5.29035 3.5945 5.29035 2.8845C5.29035 2.1745 5.07035 1.5645 4.62035 1.05449C4.18035 0.544495 3.60035 0.284495 2.87035 0.284495C2.14035 0.284495 1.56035 0.544495 1.11035 1.05449C0.670351 1.5645 0.450351 2.1745 0.450351 2.8845C0.450351 3.5945 0.670351 4.2145 1.11035 4.7245ZM1.72035 1.5945C2.00035 1.2245 2.38035 1.0445 2.87035 1.0445C3.36035 1.0445 3.74035 1.2245 4.01035 1.5945C4.29035 1.95449 4.43035 2.3845 4.43035 2.8845C4.43035 3.3845 4.29035 3.8145 4.01035 4.1845C3.74035 4.5445 3.36035 4.7245 2.87035 4.7245C2.38035 4.7245 2.00035 4.5445 1.72035 4.1845C1.45035 3.8145 1.31035 3.3845 1.31035 2.8845C1.31035 2.3845 1.45035 1.95449 1.72035 1.5945ZM9.56301 0.434495C9.37301 0.334495 9.14301 0.284495 8.87301 0.284495C8.31301 0.284495 7.68301 0.664495 7.39301 1.2245V0.364495H6.55301V5.4045H7.39301V3.4945C7.39301 2.7245 7.53301 2.1245 7.81301 1.6945C8.09301 1.26449 8.42301 1.0445 8.80301 1.0445C9.01301 1.0445 9.20301 1.09449 9.39301 1.1845L9.56301 0.434495Z" fill="white"/>
</svg>
