<svg width="84" height="54" viewBox="0 0 84 54" fill="none" xmlns="http://www.w3.org/2000/svg">
<path fill-rule="evenodd" clip-rule="evenodd" d="M18.0811 29.9928H7.49537C4.08501 29.9928 1.32037 32.7575 1.32037 36.1678V46.7535C1.32037 50.1639 4.08501 52.9285 7.49537 52.9285H18.0811C21.4914 52.9285 24.2561 50.1639 24.2561 46.7535V36.1678C24.2561 32.7575 21.4914 29.9928 18.0811 29.9928ZM7.49537 29.1107C3.59782 29.1107 0.438232 32.2703 0.438232 36.1678V46.7535C0.438232 50.6511 3.59782 53.8107 7.49537 53.8107H18.0811C21.9786 53.8107 25.1382 50.6511 25.1382 46.7535V36.1678C25.1382 32.2703 21.9786 29.1107 18.0811 29.1107H7.49537Z" fill="white"/>
<path fill-rule="evenodd" clip-rule="evenodd" d="M47.1918 29.9928H36.6061C33.1957 29.9928 30.4311 32.7575 30.4311 36.1678V46.7535C30.4311 50.1639 33.1957 52.9285 36.6061 52.9285H47.1918C50.6021 52.9285 53.3668 50.1639 53.3668 46.7535V36.1678C53.3668 32.7575 50.6021 29.9928 47.1918 29.9928ZM36.6061 29.1107C32.7085 29.1107 29.5489 32.2703 29.5489 36.1678V46.7535C29.5489 50.6511 32.7085 53.8107 36.6061 53.8107H47.1918C51.0893 53.8107 54.2489 50.6511 54.2489 46.7535V36.1678C54.2489 32.2703 51.0893 29.1107 47.1918 29.1107H36.6061Z" fill="white"/>
<path fill-rule="evenodd" clip-rule="evenodd" d="M47.1918 0.882142H36.6061C33.1957 0.882142 30.4311 3.64678 30.4311 7.05714V17.6428C30.4311 21.0532 33.1957 23.8178 36.6061 23.8178H47.1918C50.6021 23.8178 53.3668 21.0532 53.3668 17.6428V7.05714C53.3668 3.64678 50.6021 0.882142 47.1918 0.882142ZM36.6061 0C32.7085 0 29.5489 3.15959 29.5489 7.05714V17.6428C29.5489 21.5404 32.7085 24.7 36.6061 24.7H47.1918C51.0893 24.7 54.2489 21.5404 54.2489 17.6428V7.05714C54.2489 3.15959 51.0893 0 47.1918 0H36.6061Z" fill="white"/>
<path fill-rule="evenodd" clip-rule="evenodd" d="M76.3024 29.9928H65.7167C62.3064 29.9928 59.5417 32.7575 59.5417 36.1678V46.7535C59.5417 50.1639 62.3064 52.9285 65.7167 52.9285H76.3024C79.7128 52.9285 82.4774 50.1639 82.4774 46.7535V36.1678C82.4774 32.7575 79.7128 29.9928 76.3024 29.9928ZM65.7167 29.1107C61.8192 29.1107 58.6596 32.2703 58.6596 36.1678V46.7535C58.6596 50.6511 61.8192 53.8107 65.7167 53.8107H76.3024C80.2 53.8107 83.3596 50.6511 83.3596 46.7535V36.1678C83.3596 32.2703 80.2 29.1107 76.3024 29.1107H65.7167Z" fill="white"/>
<path d="M37.7018 12.6739C37.6674 12.6394 37.6502 12.5878 37.6502 12.5188C37.6502 12.4671 37.6674 12.4155 37.7018 12.381L41.32 8.78007C41.3545 8.74561 41.3889 8.71115 41.4578 8.71115C41.5095 8.71115 41.5612 8.74561 41.5957 8.78007L45.2138 12.381C45.2483 12.4155 45.2655 12.4671 45.2655 12.5188C45.2655 12.5878 45.2483 12.6394 45.2138 12.6739L44.8692 13.0185C44.8348 13.0529 44.7831 13.0702 44.7314 13.0702C44.6625 13.0702 44.6108 13.0529 44.5763 13.0185L41.9058 10.3479V16.2231C41.9058 16.2921 41.8713 16.3437 41.8369 16.3782C41.8024 16.4127 41.7507 16.4299 41.699 16.4299H41.2166C41.1477 16.4299 41.096 16.4127 41.0616 16.3782C41.0271 16.3437 41.0099 16.2921 41.0099 16.2231V10.3479L38.3393 13.0185C38.2876 13.0529 38.236 13.0702 38.1843 13.0702C38.1153 13.0702 38.0809 13.0529 38.0464 13.0185L37.7018 12.6739Z" fill="#C4C4C4"/>
<path d="M45.2138 41.5778C45.2483 41.6295 45.2655 41.6812 45.2655 41.7329C45.2655 41.8018 45.2483 41.8363 45.2138 41.8707L41.6129 45.4889C41.5612 45.5234 41.5095 45.5406 41.4578 45.5406C41.3889 45.5406 41.3545 45.5234 41.32 45.4717L37.7018 41.8707C37.6674 41.8363 37.6502 41.8018 37.6502 41.7329C37.6502 41.6812 37.6674 41.6295 37.7018 41.5778L38.0464 41.2332C38.0809 41.1988 38.1153 41.1816 38.1843 41.1816C38.236 41.1816 38.2876 41.1988 38.3393 41.2332L41.0099 43.9038V38.0286C41.0099 37.9769 41.0271 37.9252 41.0616 37.8908C41.096 37.8563 41.1477 37.8218 41.2166 37.8218H41.699C41.7507 37.8218 41.8024 37.8563 41.8369 37.8908C41.8713 37.9252 41.9058 37.9769 41.9058 38.0286V43.9038L44.5763 41.2332C44.6108 41.1988 44.6625 41.1816 44.7314 41.1816C44.7831 41.1816 44.8348 41.1988 44.8692 41.2332L45.2138 41.5778Z" fill="#C4C4C4"/>
<path d="M70.4652 37.9252C70.4996 37.8907 70.5513 37.8735 70.6202 37.8735C70.6719 37.8735 70.7236 37.8907 70.7581 37.9252L74.359 41.5434C74.3934 41.5778 74.4279 41.6295 74.4279 41.6812C74.4279 41.7501 74.3934 41.7846 74.359 41.819L70.7581 45.4372C70.7236 45.4717 70.6719 45.4889 70.6202 45.4889C70.5513 45.4889 70.4996 45.4717 70.4652 45.4372L70.1206 45.0926C70.0861 45.0582 70.0689 45.0237 70.0689 44.9548C70.0689 44.9031 70.0861 44.8514 70.1206 44.7997L72.7911 42.1292H66.9159C66.847 42.1292 66.7953 42.1119 66.7608 42.0775C66.7264 42.043 66.7092 41.9913 66.7092 41.9224V41.44C66.7092 41.3883 66.7264 41.3366 66.7608 41.3022C66.7953 41.2677 66.847 41.2332 66.9159 41.2332H72.7911L70.1206 38.5627C70.0861 38.5282 70.0689 38.4765 70.0689 38.4076C70.0689 38.3559 70.0861 38.3043 70.1206 38.2698L70.4652 37.9252Z" fill="#C4C4C4"/>
<path d="M12.4505 45.4372C12.3988 45.4717 12.3472 45.4889 12.2955 45.4889C12.2266 45.4889 12.1921 45.4717 12.1576 45.4372L8.5567 41.819C8.50501 41.7846 8.48779 41.7501 8.48779 41.6812C8.48779 41.6295 8.50501 41.5778 8.5567 41.5434L12.1576 37.9252C12.1921 37.8907 12.2266 37.8735 12.2955 37.8735C12.3472 37.8735 12.3988 37.8907 12.4505 37.9252L12.7951 38.2698C12.8296 38.3043 12.8468 38.3559 12.8468 38.4076C12.8468 38.4765 12.8296 38.5282 12.7951 38.5627L10.1246 41.2332H15.9998C16.0515 41.2332 16.1032 41.2677 16.1376 41.3022C16.1721 41.3366 16.2065 41.3883 16.2065 41.44V41.9224C16.2065 41.9913 16.1721 42.043 16.1376 42.0775C16.1032 42.1119 16.0515 42.1292 15.9998 42.1292H10.1246L12.7951 44.7997C12.8296 44.8514 12.8468 44.9031 12.8468 44.9548C12.8468 45.0237 12.8296 45.0582 12.7951 45.0926L12.4505 45.4372Z" fill="#C4C4C4"/>
</svg>
