<svg width="180" height="21" viewBox="0 0 180 21" fill="none" xmlns="http://www.w3.org/2000/svg">
<path d="M0.395195 5.62C0.395195 6.39 0.625195 7 1.0852 7.43C1.5552 7.86 2.1352 8.08 2.8452 8.08C3.5552 8.08 4.1352 7.86 4.5952 7.43C5.0652 7 5.2952 6.39 5.2952 5.62V1H4.4152V5.68C4.4152 6.6 3.8352 7.24 2.8452 7.24C1.8552 7.24 1.2752 6.6 1.2752 5.68V1H0.395195V5.62ZM8.24379 2.88C7.35379 2.88 6.76379 3.47 6.76379 4.27C6.76379 5.23 7.60379 5.55 8.26379 5.8C8.71379 5.96 9.08379 6.2 9.08379 6.53C9.08379 7.06 8.81379 7.32 8.27379 7.32C7.76379 7.32 7.37379 6.99 7.10379 6.33L6.39379 6.72C6.68379 7.49 7.32379 8.08 8.27379 8.08C9.30379 8.08 9.94379 7.48 9.94379 6.48C9.95379 5 7.59379 5.18 7.60379 4.28C7.60379 3.88 7.86379 3.64 8.21379 3.64C8.52379 3.64 8.82379 3.81 9.13379 4.14L9.70379 3.65C9.34379 3.14 8.85379 2.88 8.24379 2.88ZM15.5639 5.27C15.5639 4.6 15.3639 4.04 14.9539 3.58C14.5539 3.11 13.9939 2.88 13.2839 2.88C12.5539 2.88 11.9939 3.13 11.5939 3.64C11.2039 4.14 11.0039 4.75 11.0039 5.48C11.0039 6.21 11.2039 6.82 11.5939 7.33C11.9939 7.83 12.5539 8.08 13.2839 8.08C14.3239 8.08 14.9539 7.67 15.4239 6.68L14.6839 6.36C14.3939 7.01 13.9939 7.32 13.2839 7.32C12.4139 7.32 11.9139 6.65 11.8639 5.66H15.5639V5.27ZM13.2839 3.64C14.0539 3.64 14.5239 4.14 14.6839 4.9H11.9139C12.0739 4.13 12.5339 3.64 13.2839 3.64ZM21.0854 6.6L19.8054 2.96H18.8854L20.6554 7.79L19.8554 10.04H20.7154L23.2154 2.96H22.3354L21.0854 6.6ZM24.535 7.32C24.985 7.83 25.565 8.08 26.295 8.08C27.025 8.08 27.605 7.83 28.045 7.32C28.495 6.81 28.715 6.19 28.715 5.48C28.715 4.77 28.495 4.16 28.045 3.65C27.605 3.14 27.025 2.88 26.295 2.88C25.565 2.88 24.985 3.14 24.535 3.65C24.095 4.16 23.875 4.77 23.875 5.48C23.875 6.19 24.095 6.81 24.535 7.32ZM25.145 4.19C25.425 3.82 25.805 3.64 26.295 3.64C26.785 3.64 27.165 3.82 27.435 4.19C27.715 4.55 27.855 4.98 27.855 5.48C27.855 5.98 27.715 6.41 27.435 6.78C27.165 7.14 26.785 7.32 26.295 7.32C25.805 7.32 25.425 7.14 25.145 6.78C24.875 6.41 24.735 5.98 24.735 5.48C24.735 4.98 24.875 4.55 25.145 4.19ZM30.0446 6.51C30.0446 7.51 30.6046 8.08 31.5246 8.08C32.2546 8.08 32.8146 7.74 33.1946 7.07V8H34.0346V2.96H33.1946V5.07C33.1946 5.74 33.0546 6.29 32.7646 6.7C32.4846 7.11 32.1446 7.32 31.7546 7.32C31.1746 7.32 30.8846 6.98 30.8846 6.29V2.96H30.0446V6.51ZM38.6517 3.03C38.4617 2.93 38.2317 2.88 37.9617 2.88C37.4017 2.88 36.7717 3.26 36.4817 3.82V2.96H35.6417V8H36.4817V6.09C36.4817 5.32 36.6217 4.72 36.9017 4.29C37.1817 3.86 37.5117 3.64 37.8917 3.64C38.1017 3.64 38.2917 3.69 38.4817 3.78L38.6517 3.03ZM42.4483 8H43.2883V5.47L45.4183 8H46.4883L44.1883 5.27L46.3283 2.96H45.2483L43.2883 5.07V0.92H42.4483V8ZM51.6674 5.27C51.6674 4.6 51.4674 4.04 51.0574 3.58C50.6574 3.11 50.0974 2.88 49.3874 2.88C48.6574 2.88 48.0974 3.13 47.6974 3.64C47.3074 4.14 47.1074 4.75 47.1074 5.48C47.1074 6.21 47.3074 6.82 47.6974 7.33C48.0974 7.83 48.6574 8.08 49.3874 8.08C50.4274 8.08 51.0574 7.67 51.5274 6.68L50.7874 6.36C50.4974 7.01 50.0974 7.32 49.3874 7.32C48.5174 7.32 48.0174 6.65 47.9674 5.66H51.6674V5.27ZM49.3874 3.64C50.1574 3.64 50.6274 4.14 50.7874 4.9H48.0174C48.1774 4.13 48.6374 3.64 49.3874 3.64ZM54.4936 6.6L53.2136 2.96H52.2936L54.0636 7.79L53.2636 10.04H54.1236L56.6236 2.96H55.7436L54.4936 6.6ZM59.9341 8.08C61.3741 8.08 62.1741 7.04 62.1741 5.48C62.1741 3.92 61.3741 2.88 59.9341 2.88C59.6341 2.88 59.3341 2.95 59.0441 3.1C58.7541 3.25 58.5541 3.4 58.4641 3.56V0.92H57.6241V8H58.4641V7.38C58.7141 7.77 59.3341 8.08 59.9341 8.08ZM59.8541 3.64C60.7341 3.64 61.3141 4.39 61.3141 5.48C61.3141 6.57 60.7341 7.32 59.8541 7.32C58.9441 7.32 58.3941 6.57 58.3941 5.48C58.3941 4.39 58.9441 3.64 59.8541 3.64ZM63.8904 7.32C64.3404 7.83 64.9204 8.08 65.6504 8.08C66.3804 8.08 66.9604 7.83 67.4004 7.32C67.8504 6.81 68.0704 6.19 68.0704 5.48C68.0704 4.77 67.8504 4.16 67.4004 3.65C66.9604 3.14 66.3804 2.88 65.6504 2.88C64.9204 2.88 64.3404 3.14 63.8904 3.65C63.4504 4.16 63.2304 4.77 63.2304 5.48C63.2304 6.19 63.4504 6.81 63.8904 7.32ZM64.5004 4.19C64.7804 3.82 65.1604 3.64 65.6504 3.64C66.1404 3.64 66.5204 3.82 66.7904 4.19C67.0704 4.55 67.2104 4.98 67.2104 5.48C67.2104 5.98 67.0704 6.41 66.7904 6.78C66.5204 7.14 66.1404 7.32 65.6504 7.32C65.1604 7.32 64.7804 7.14 64.5004 6.78C64.2304 6.41 64.0904 5.98 64.0904 5.48C64.0904 4.98 64.2304 4.55 64.5004 4.19ZM70.0577 6.55C70.0577 5.98 70.5477 5.66 71.3977 5.66H72.2977V5.78C72.2977 6.31 72.1577 6.7 71.8777 6.95C71.5977 7.2 71.2677 7.32 70.8877 7.32C70.3577 7.32 70.0577 7.03 70.0577 6.55ZM73.1377 4.78C73.1377 3.5 72.3677 2.88 71.1977 2.88C70.2477 2.88 69.5377 3.41 69.4077 4.26L70.1477 4.43C70.2577 3.94 70.6677 3.64 71.1977 3.64C71.9277 3.64 72.2977 3.99 72.2977 4.68V4.9H71.4777C70.0677 4.9 69.1977 5.48 69.1977 6.55C69.1977 7.58 69.8477 8.08 70.7577 8.08C71.4477 8.08 71.9677 7.82 72.3377 7.29L72.4777 8H73.1377V4.78ZM77.5677 3.03C77.3777 2.93 77.1477 2.88 76.8777 2.88C76.3177 2.88 75.6877 3.26 75.3977 3.82V2.96H74.5577V8H75.3977V6.09C75.3977 5.32 75.5377 4.72 75.8177 4.29C76.0977 3.86 76.4277 3.64 76.8077 3.64C77.0177 3.64 77.2077 3.69 77.3977 3.78L77.5677 3.03ZM80.3532 2.88C78.9132 2.88 78.1132 3.92 78.1132 5.48C78.1132 7.04 78.9132 8.08 80.3532 8.08C80.9532 8.08 81.5732 7.77 81.8232 7.38V8H82.6632V0.92H81.8232V3.56C81.7332 3.4 81.5332 3.25 81.2432 3.1C80.9532 2.95 80.6532 2.88 80.3532 2.88ZM80.4332 7.32C79.5532 7.32 78.9732 6.57 78.9732 5.48C78.9732 4.39 79.5532 3.64 80.4332 3.64C81.3432 3.64 81.8932 4.39 81.8932 5.48C81.8932 6.57 81.3432 7.32 80.4332 7.32ZM87.6749 6.55C87.6749 5.98 88.1649 5.66 89.0149 5.66H89.9149V5.78C89.9149 6.31 89.7749 6.7 89.4949 6.95C89.2149 7.2 88.8849 7.32 88.5049 7.32C87.9749 7.32 87.6749 7.03 87.6749 6.55ZM90.7549 4.78C90.7549 3.5 89.9849 2.88 88.8149 2.88C87.8649 2.88 87.1549 3.41 87.0249 4.26L87.7649 4.43C87.8749 3.94 88.2849 3.64 88.8149 3.64C89.5449 3.64 89.9149 3.99 89.9149 4.68V4.9H89.0949C87.6849 4.9 86.8149 5.48 86.8149 6.55C86.8149 7.58 87.4649 8.08 88.3749 8.08C89.0649 8.08 89.5849 7.82 89.9549 7.29L90.0949 8H90.7549V4.78ZM95.1849 3.03C94.9949 2.93 94.7649 2.88 94.4949 2.88C93.9349 2.88 93.3049 3.26 93.0149 3.82V2.96H92.1749V8H93.0149V6.09C93.0149 5.32 93.1549 4.72 93.4349 4.29C93.7149 3.86 94.0449 3.64 94.4249 3.64C94.6349 3.64 94.8249 3.69 95.0149 3.78L95.1849 3.03ZM99.3157 3.03C99.1257 2.93 98.8957 2.88 98.6257 2.88C98.0657 2.88 97.4357 3.26 97.1457 3.82V2.96H96.3057V8H97.1457V6.09C97.1457 5.32 97.2857 4.72 97.5657 4.29C97.8457 3.86 98.1757 3.64 98.5557 3.64C98.7657 3.64 98.9557 3.69 99.1457 3.78L99.3157 3.03ZM100.521 7.32C100.971 7.83 101.551 8.08 102.281 8.08C103.011 8.08 103.591 7.83 104.031 7.32C104.481 6.81 104.701 6.19 104.701 5.48C104.701 4.77 104.481 4.16 104.031 3.65C103.591 3.14 103.011 2.88 102.281 2.88C101.551 2.88 100.971 3.14 100.521 3.65C100.081 4.16 99.8613 4.77 99.8613 5.48C99.8613 6.19 100.081 6.81 100.521 7.32ZM101.131 4.19C101.411 3.82 101.791 3.64 102.281 3.64C102.771 3.64 103.151 3.82 103.421 4.19C103.701 4.55 103.841 4.98 103.841 5.48C103.841 5.98 103.701 6.41 103.421 6.78C103.151 7.14 102.771 7.32 102.281 7.32C101.791 7.32 101.411 7.14 101.131 6.78C100.861 6.41 100.721 5.98 100.721 5.48C100.721 4.98 100.861 4.55 101.131 4.19ZM110.212 6.83L109.222 2.96H108.382L107.392 6.83L106.362 2.96H105.482L107.012 8H107.812L108.802 4.17L109.792 8H110.592L112.122 2.96H111.242L110.212 6.83ZM114.621 2.88C113.731 2.88 113.141 3.47 113.141 4.27C113.141 5.23 113.981 5.55 114.641 5.8C115.091 5.96 115.461 6.2 115.461 6.53C115.461 7.06 115.191 7.32 114.651 7.32C114.141 7.32 113.751 6.99 113.481 6.33L112.771 6.72C113.061 7.49 113.701 8.08 114.651 8.08C115.681 8.08 116.321 7.48 116.321 6.48C116.331 5 113.971 5.18 113.981 4.28C113.981 3.88 114.241 3.64 114.591 3.64C114.901 3.64 115.201 3.81 115.511 4.14L116.081 3.65C115.721 3.14 115.231 2.88 114.621 2.88ZM120.746 7.32C121.196 7.83 121.776 8.08 122.506 8.08C123.236 8.08 123.816 7.83 124.256 7.32C124.706 6.81 124.926 6.19 124.926 5.48C124.926 4.77 124.706 4.16 124.256 3.65C123.816 3.14 123.236 2.88 122.506 2.88C121.776 2.88 121.196 3.14 120.746 3.65C120.306 4.16 120.086 4.77 120.086 5.48C120.086 6.19 120.306 6.81 120.746 7.32ZM121.356 4.19C121.636 3.82 122.016 3.64 122.506 3.64C122.996 3.64 123.376 3.82 123.646 4.19C123.926 4.55 124.066 4.98 124.066 5.48C124.066 5.98 123.926 6.41 123.646 6.78C123.376 7.14 122.996 7.32 122.506 7.32C122.016 7.32 121.636 7.14 121.356 6.78C121.086 6.41 120.946 5.98 120.946 5.48C120.946 4.98 121.086 4.55 121.356 4.19ZM129.199 3.03C129.009 2.93 128.779 2.88 128.509 2.88C127.949 2.88 127.319 3.26 127.029 3.82V2.96H126.189V8H127.029V6.09C127.029 5.32 127.169 4.72 127.449 4.29C127.729 3.86 128.059 3.64 128.439 3.64C128.649 3.64 128.839 3.69 129.029 3.78L129.199 3.03ZM132.195 8H133.075L133.695 6.13H136.375L136.995 8H137.875L135.455 1H134.615L132.195 8ZM136.095 5.29H133.975L135.035 2.14L136.095 5.29ZM143.788 6.7L142.298 1.74H141.498L140.008 6.7L138.588 1H137.658L139.528 8H140.448L141.898 3.19L143.348 8H144.268L146.138 1H145.208L143.788 6.7ZM150.713 2.04C150.343 1.32 149.823 0.92 148.893 0.92C148.423 0.92 148.023 1.09 147.683 1.43C147.343 1.77 147.173 2.19 147.173 2.7C147.173 3.22 147.333 3.61 147.693 3.93C148.053 4.24 148.323 4.4 148.873 4.65C149.713 5.05 150.193 5.4 150.193 6.01C150.193 6.34 150.103 6.62 149.923 6.84C149.693 7.11 149.383 7.24 148.973 7.24C148.143 7.24 147.743 6.68 147.473 5.73L146.713 6.19C146.833 6.74 147.093 7.2 147.503 7.55C147.913 7.9 148.403 8.08 148.973 8.08C149.613 8.08 150.133 7.86 150.533 7.42C150.893 7.03 151.073 6.55 151.073 5.99C151.043 5.29 150.793 4.88 150.323 4.53C149.993 4.28 149.803 4.18 149.403 3.98L148.863 3.7C148.753 3.64 148.623 3.55 148.463 3.44C148.153 3.2 148.053 2.96 148.053 2.63C148.053 2.16 148.413 1.76 148.893 1.76C149.363 1.76 149.683 1.93 150.003 2.5L150.713 2.04ZM152.352 8H154.272C155.182 8 155.942 7.69 156.562 7.07C157.182 6.44 157.492 5.59 157.492 4.5C157.492 3.41 157.182 2.56 156.562 1.94C155.942 1.31 155.182 1 154.272 1H152.352V8ZM154.122 1.84C155.412 1.84 156.552 2.54 156.552 4.5C156.552 6.46 155.412 7.16 154.122 7.16H153.232V1.84H154.122ZM161.638 8H162.478V5.47L164.608 8H165.678L163.378 5.27L165.518 2.96H164.438L162.478 5.07V0.92H161.638V8ZM170.857 5.27C170.857 4.6 170.657 4.04 170.247 3.58C169.847 3.11 169.287 2.88 168.577 2.88C167.847 2.88 167.287 3.13 166.887 3.64C166.497 4.14 166.297 4.75 166.297 5.48C166.297 6.21 166.497 6.82 166.887 7.33C167.287 7.83 167.847 8.08 168.577 8.08C169.617 8.08 170.247 7.67 170.717 6.68L169.977 6.36C169.687 7.01 169.287 7.32 168.577 7.32C167.707 7.32 167.207 6.65 167.157 5.66H170.857V5.27ZM168.577 3.64C169.347 3.64 169.817 4.14 169.977 4.9H167.207C167.367 4.13 167.827 3.64 168.577 3.64ZM173.683 6.6L172.403 2.96H171.483L173.253 7.79L172.453 10.04H173.313L175.813 2.96H174.933L173.683 6.6ZM178.175 2.88C177.285 2.88 176.695 3.47 176.695 4.27C176.695 5.23 177.535 5.55 178.195 5.8C178.645 5.96 179.015 6.2 179.015 6.53C179.015 7.06 178.745 7.32 178.205 7.32C177.695 7.32 177.305 6.99 177.035 6.33L176.325 6.72C176.615 7.49 177.255 8.08 178.205 8.08C179.235 8.08 179.875 7.48 179.875 6.48C179.885 5 177.525 5.18 177.535 4.28C177.535 3.88 177.795 3.64 178.145 3.64C178.455 3.64 178.755 3.81 179.065 4.14L179.635 3.65C179.275 3.14 178.785 2.88 178.175 2.88ZM55.368 15.72V18.42C55.368 19.51 55.938 20.08 56.828 20.08C57.158 20.08 57.428 20.02 57.648 19.89L57.448 19.16C57.288 19.27 57.098 19.32 56.878 19.32C56.448 19.32 56.208 19.02 56.208 18.49V15.72H57.528V14.96H56.208V12.92L55.368 13.45V14.96H54.498V15.72H55.368ZM59.1395 19.32C59.5895 19.83 60.1695 20.08 60.8995 20.08C61.6295 20.08 62.2095 19.83 62.6495 19.32C63.0995 18.81 63.3195 18.19 63.3195 17.48C63.3195 16.77 63.0995 16.16 62.6495 15.65C62.2095 15.14 61.6295 14.88 60.8995 14.88C60.1695 14.88 59.5895 15.14 59.1395 15.65C58.6995 16.16 58.4795 16.77 58.4795 17.48C58.4795 18.19 58.6995 18.81 59.1395 19.32ZM59.7495 16.19C60.0295 15.82 60.4095 15.64 60.8995 15.64C61.3895 15.64 61.7695 15.82 62.0395 16.19C62.3195 16.55 62.4595 16.98 62.4595 17.48C62.4595 17.98 62.3195 18.41 62.0395 18.78C61.7695 19.14 61.3895 19.32 60.8995 19.32C60.4095 19.32 60.0295 19.14 59.7495 18.78C59.4795 18.41 59.3395 17.98 59.3395 17.48C59.3395 16.98 59.4795 16.55 59.7495 16.19ZM74.2732 16.45C74.2732 15.46 73.7632 14.88 72.8532 14.88C72.1332 14.88 71.5832 15.23 71.2132 15.93C71.0532 15.26 70.5532 14.88 69.8632 14.88C69.1532 14.88 68.6332 15.22 68.2932 15.89V14.96H67.4532V20H68.2932V17.93C68.2932 16.52 68.8732 15.64 69.6332 15.64C70.1732 15.64 70.4432 15.97 70.4432 16.63V20H71.2832V17.93C71.2832 16.52 71.8632 15.64 72.6232 15.64C73.1632 15.64 73.4332 15.97 73.4332 16.63V20H74.2732V16.45ZM76.2488 19.32C76.6988 19.83 77.2788 20.08 78.0088 20.08C78.7388 20.08 79.3188 19.83 79.7588 19.32C80.2088 18.81 80.4288 18.19 80.4288 17.48C80.4288 16.77 80.2088 16.16 79.7588 15.65C79.3188 15.14 78.7388 14.88 78.0088 14.88C77.2788 14.88 76.6988 15.14 76.2488 15.65C75.8088 16.16 75.5888 16.77 75.5888 17.48C75.5888 18.19 75.8088 18.81 76.2488 19.32ZM76.8588 16.19C77.1388 15.82 77.5188 15.64 78.0088 15.64C78.4988 15.64 78.8788 15.82 79.1488 16.19C79.4288 16.55 79.5688 16.98 79.5688 17.48C79.5688 17.98 79.4288 18.41 79.1488 18.78C78.8788 19.14 78.4988 19.32 78.0088 19.32C77.5188 19.32 77.1388 19.14 76.8588 18.78C76.5888 18.41 76.4488 17.98 76.4488 17.48C76.4488 16.98 76.5888 16.55 76.8588 16.19ZM83.198 18.93L81.968 14.96H81.108L82.768 20H83.628L85.288 14.96H84.428L83.198 18.93ZM90.5102 17.27C90.5102 16.6 90.3102 16.04 89.9002 15.58C89.5002 15.11 88.9402 14.88 88.2302 14.88C87.5002 14.88 86.9402 15.13 86.5402 15.64C86.1502 16.14 85.9502 16.75 85.9502 17.48C85.9502 18.21 86.1502 18.82 86.5402 19.33C86.9402 19.83 87.5002 20.08 88.2302 20.08C89.2702 20.08 89.9002 19.67 90.3702 18.68L89.6302 18.36C89.3402 19.01 88.9402 19.32 88.2302 19.32C87.3602 19.32 86.8602 18.65 86.8102 17.66H90.5102V17.27ZM88.2302 15.64C89.0002 15.64 89.4702 16.14 89.6302 16.9H86.8602C87.0202 16.13 87.4802 15.64 88.2302 15.64ZM95.1016 18.55C95.1016 17.98 95.5916 17.66 96.4416 17.66H97.3416V17.78C97.3416 18.31 97.2016 18.7 96.9216 18.95C96.6416 19.2 96.3116 19.32 95.9316 19.32C95.4016 19.32 95.1016 19.03 95.1016 18.55ZM98.1816 16.78C98.1816 15.5 97.4116 14.88 96.2416 14.88C95.2916 14.88 94.5816 15.41 94.4516 16.26L95.1916 16.43C95.3016 15.94 95.7116 15.64 96.2416 15.64C96.9716 15.64 97.3416 15.99 97.3416 16.68V16.9H96.5216C95.1116 16.9 94.2416 17.48 94.2416 18.55C94.2416 19.58 94.8916 20.08 95.8016 20.08C96.4916 20.08 97.0116 19.82 97.3816 19.29L97.5216 20H98.1816V16.78ZM102.612 15.03C102.422 14.93 102.192 14.88 101.922 14.88C101.362 14.88 100.732 15.26 100.442 15.82V14.96H99.6016V20H100.442V18.09C100.442 17.32 100.582 16.72 100.862 16.29C101.142 15.86 101.472 15.64 101.852 15.64C102.062 15.64 102.252 15.69 102.442 15.78L102.612 15.03ZM103.817 19.32C104.267 19.83 104.847 20.08 105.577 20.08C106.307 20.08 106.887 19.83 107.327 19.32C107.777 18.81 107.997 18.19 107.997 17.48C107.997 16.77 107.777 16.16 107.327 15.65C106.887 15.14 106.307 14.88 105.577 14.88C104.847 14.88 104.267 15.14 103.817 15.65C103.377 16.16 103.157 16.77 103.157 17.48C103.157 18.19 103.377 18.81 103.817 19.32ZM104.427 16.19C104.707 15.82 105.087 15.64 105.577 15.64C106.067 15.64 106.447 15.82 106.717 16.19C106.997 16.55 107.137 16.98 107.137 17.48C107.137 17.98 106.997 18.41 106.717 18.78C106.447 19.14 106.067 19.32 105.577 19.32C105.087 19.32 104.707 19.14 104.427 18.78C104.157 18.41 104.017 17.98 104.017 17.48C104.017 16.98 104.157 16.55 104.427 16.19ZM109.327 18.51C109.327 19.51 109.887 20.08 110.807 20.08C111.537 20.08 112.097 19.74 112.477 19.07V20H113.317V14.96H112.477V17.07C112.477 17.74 112.337 18.29 112.047 18.7C111.767 19.11 111.427 19.32 111.037 19.32C110.457 19.32 110.167 18.98 110.167 18.29V14.96H109.327V18.51ZM119.002 16.45C119.002 15.45 118.442 14.88 117.522 14.88C116.792 14.88 116.232 15.22 115.852 15.89V14.96H115.012V20H115.852V17.89C115.852 17.22 115.992 16.67 116.272 16.26C116.562 15.85 116.902 15.64 117.292 15.64C117.872 15.64 118.162 15.98 118.162 16.67V20H119.002V16.45ZM122.526 14.88C121.086 14.88 120.286 15.92 120.286 17.48C120.286 19.04 121.086 20.08 122.526 20.08C123.126 20.08 123.746 19.77 123.996 19.38V20H124.836V12.92H123.996V15.56C123.906 15.4 123.706 15.25 123.416 15.1C123.126 14.95 122.826 14.88 122.526 14.88ZM122.606 19.32C121.726 19.32 121.146 18.57 121.146 17.48C121.146 16.39 121.726 15.64 122.606 15.64C123.516 15.64 124.066 16.39 124.066 17.48C124.066 18.57 123.516 19.32 122.606 19.32Z" fill="white"/>
</svg>
