<svg width="73" height="30" viewBox="0 0 73 30" fill="none" xmlns="http://www.w3.org/2000/svg">
<rect id="state" x="0.5" y="0.5" width="72" height="28" rx="4.5" stroke="white"/>
<path d="M9.26 18.08C10.74 18.08 11.56 17.07 11.56 15.48C11.56 13.89 10.74 12.88 9.26 12.88C8.77 12.88 8.27 13.13 8.04 13.42V10.92H6.8V18H8.04V17.48C8.2 17.77 8.69 18.08 9.26 18.08ZM9.93 16.61C9.71 16.88 9.43 17.02 9.09 17.02C8.75 17.02 8.47 16.89 8.25 16.62C8.04 16.35 7.93 15.97 7.93 15.48C7.93 14.99 8.04 14.62 8.25 14.35C8.47 14.08 8.75 13.94 9.09 13.94C9.43 13.94 9.71 14.08 9.93 14.35C10.15 14.62 10.26 15 10.26 15.48C10.26 15.96 10.15 16.34 9.93 16.61ZM13.6259 14.52C13.7559 14.13 14.0459 13.94 14.4959 13.94C15.0859 13.94 15.3759 14.19 15.3759 14.68V14.9H14.5359C13.2559 14.9 12.3859 15.55 12.3859 16.55C12.3859 17.52 13.0259 18.08 13.9159 18.08C14.5559 18.08 15.0759 17.84 15.4659 17.36L15.5959 18H16.6159V14.99C16.6159 13.58 15.9059 12.88 14.4959 12.88C13.4859 12.88 12.7359 13.44 12.5759 14.28L13.6259 14.52ZM13.6859 16.53C13.6859 16.1 13.9759 15.88 14.5459 15.88H15.3759V15.98C15.3759 16.29 15.2559 16.54 15.0159 16.73C14.7859 16.92 14.5159 17.02 14.2059 17.02C13.8759 17.02 13.6859 16.8 13.6859 16.53ZM17.8445 18H19.0845V10.92H17.8445V18ZM20.2956 18H21.5356V10.92H20.2956V18ZM24.0459 16.21C24.0459 14.68 24.6059 13.99 25.3959 13.99C25.5859 13.99 25.7659 14.04 25.9159 14.13L26.1459 12.98C25.9259 12.91 25.7259 12.88 25.5359 12.88C24.9459 12.88 24.4059 13.21 24.0459 13.78V12.96H22.8059V18H24.0459V16.21ZM27.3641 17.35C27.8241 17.84 28.4441 18.08 29.2341 18.08C30.0241 18.08 30.6441 17.84 31.1041 17.35C31.5641 16.86 31.7941 16.23 31.7941 15.48C31.7941 14.73 31.5641 14.11 31.1041 13.62C30.6441 13.13 30.0241 12.88 29.2341 12.88C28.4441 12.88 27.8241 13.13 27.3641 13.62C26.9041 14.11 26.6741 14.73 26.6741 15.48C26.6741 16.23 26.9041 16.86 27.3641 17.35ZM28.3141 14.39C28.5441 14.09 28.8441 13.94 29.2341 13.94C29.6241 13.94 29.9241 14.09 30.1541 14.39C30.3841 14.68 30.4941 15.05 30.4941 15.48C30.4941 15.91 30.3841 16.28 30.1541 16.58C29.9241 16.87 29.6241 17.02 29.2341 17.02C28.8441 17.02 28.5441 16.87 28.3141 16.58C28.0841 16.28 27.9741 15.91 27.9741 15.48C27.9741 15.05 28.0841 14.68 28.3141 14.39ZM33.4091 17.35C33.8691 17.84 34.4891 18.08 35.2791 18.08C36.0691 18.08 36.6891 17.84 37.1491 17.35C37.6091 16.86 37.8391 16.23 37.8391 15.48C37.8391 14.73 37.6091 14.11 37.1491 13.62C36.6891 13.13 36.0691 12.88 35.2791 12.88C34.4891 12.88 33.8691 13.13 33.4091 13.62C32.9491 14.11 32.7191 14.73 32.7191 15.48C32.7191 16.23 32.9491 16.86 33.4091 17.35ZM34.3591 14.39C34.5891 14.09 34.8891 13.94 35.2791 13.94C35.6691 13.94 35.9691 14.09 36.1991 14.39C36.4291 14.68 36.5391 15.05 36.5391 15.48C36.5391 15.91 36.4291 16.28 36.1991 16.58C35.9691 16.87 35.6691 17.02 35.2791 17.02C34.8891 17.02 34.5891 16.87 34.3591 16.58C34.1291 16.28 34.0191 15.91 34.0191 15.48C34.0191 15.05 34.1291 14.68 34.3591 14.39ZM43.2166 16.04C43.2166 14.68 43.6666 13.94 44.3066 13.94C44.7166 13.94 44.9266 14.17 44.9266 14.64V18H46.1666V14.43C46.1666 13.46 45.5966 12.88 44.6666 12.88C44.0266 12.88 43.5166 13.23 43.1266 13.92C42.9166 13.23 42.3666 12.88 41.7166 12.88C41.1466 12.88 40.6566 13.18 40.2666 13.77V12.96H39.0266V18H40.2666V16.15C40.2666 14.71 40.7166 13.94 41.3566 13.94C41.7666 13.94 41.9766 14.17 41.9766 14.64V18H43.2166V16.04Z" fill="white"/>
<path id="hover" d="M61.6974 10.9922C61.7365 10.9531 61.7755 10.9336 61.8537 10.9336C61.9122 10.9336 61.9708 10.9531 62.0294 10.9922L66.1115 15.0938C66.1505 15.1328 66.1896 15.1914 66.1896 15.25C66.1896 15.3281 66.1505 15.3672 66.1115 15.4062L62.0294 19.5078C61.9708 19.5469 61.9122 19.5664 61.8537 19.5664C61.7755 19.5664 61.7365 19.5469 61.6974 19.5078L61.3068 19.1172C61.2482 19.0781 61.2287 19.0391 61.2287 18.9609C61.2287 18.9023 61.2482 18.8438 61.3068 18.7852L64.8419 15.25L61.3068 11.7148C61.2482 11.6758 61.2287 11.6172 61.2287 11.5391C61.2287 11.4805 61.2482 11.4219 61.3068 11.3828L61.6974 10.9922Z" fill="none"/>
</svg>
