<svg width="29" height="22" viewBox="0 0 29 22" fill="none" xmlns="http://www.w3.org/2000/svg">
<path id="base" d="M14.6 1L7.61284 7.05827H1V14.8544H7.51264L14.6 21V1Z" stroke="white" stroke-width="2" stroke-linejoin="round"/>
<path id="mid" d="M18.333 6.59671C19.1869 7.90479 19.6419 9.43533 19.6419 11C19.6419 12.5647 19.1869 14.0952 18.333 15.4033M21.239 3.6749C22.7947 5.79689 23.6339 8.36384 23.6339 11C23.6339 13.6362 22.7947 16.2031 21.239 18.3251M23.8994 1C26.1648 3.83526 27.3997 7.36314 27.3997 11C27.3997 14.6369 26.1648 18.1647 23.8994 21" stroke="white" stroke-width="2" stroke-linecap="round"/>

<path d="M27.707 9.12117C28.0975 8.73065 28.0975 8.09748 27.707 7.70696C27.3164 7.31643 26.6833 7.31643 26.2927 7.70696L23.7069 10.2928L21.1212 7.70711C20.7306 7.31658 20.0975 7.31658 19.707 7.70711C19.3164 8.09763 19.3164 8.7308 19.707 9.12132L22.2927 11.707L19.707 14.2927C19.3164 14.6833 19.3164 15.3164 19.707 15.707C20.0975 16.0975 20.7306 16.0975 21.1212 15.707L23.7069 13.1212L26.2927 15.7071C26.6833 16.0976 27.3164 16.0976 27.707 15.7071C28.0975 15.3166 28.0975 14.6834 27.707 14.2929L25.1211 11.707L27.707 9.12117Z" fill="white"/>
<line id="mute" x1="1" y1="1" x2="16" y2="13" stroke="white"/>
</svg>
