<svg width="188" height="13" viewBox="0 0 188 13" fill="none" xmlns="http://www.w3.org/2000/svg">
<path d="M26.1312 10H26.9712V4.96H26.1312V10ZM25.9212 3.56C25.9212 3.91 26.1912 4.18 26.5512 4.18C26.9112 4.18 27.1812 3.91 27.1812 3.56C27.1812 3.2 26.9112 2.92 26.5512 2.92C26.1912 2.92 25.9212 3.2 25.9212 3.56ZM35.5623 6.5C35.5623 5.45 35.0123 4.88 34.0823 4.88C33.3123 4.88 32.6523 5.27 32.3323 5.9V2.92H31.4923V10H32.3323V7.86C32.3323 7.2 32.4823 6.67 32.7923 6.26C33.1023 5.85 33.4623 5.64 33.8523 5.64C34.4323 5.64 34.7223 5.98 34.7223 6.67V10H35.5623V6.5ZM37.7735 8.55C37.7735 7.98 38.2635 7.66 39.1135 7.66H40.0135V7.78C40.0135 8.31 39.8735 8.7 39.5935 8.95C39.3135 9.2 38.9835 9.32 38.6035 9.32C38.0735 9.32 37.7735 9.03 37.7735 8.55ZM40.8535 6.78C40.8535 5.5 40.0835 4.88 38.9135 4.88C37.9635 4.88 37.2535 5.41 37.1235 6.26L37.8635 6.43C37.9735 5.94 38.3835 5.64 38.9135 5.64C39.6435 5.64 40.0135 5.99 40.0135 6.68V6.9H39.1935C37.7835 6.9 36.9135 7.48 36.9135 8.55C36.9135 9.58 37.5635 10.08 38.4735 10.08C39.1635 10.08 39.6835 9.82 40.0535 9.29L40.1935 10H40.8535V6.78ZM43.8093 8.93L42.5793 4.96H41.7193L43.3793 10H44.2393L45.8993 4.96H45.0393L43.8093 8.93ZM51.1215 7.27C51.1215 6.6 50.9215 6.04 50.5115 5.58C50.1115 5.11 49.5515 4.88 48.8415 4.88C48.1115 4.88 47.5515 5.13 47.1515 5.64C46.7615 6.14 46.5615 6.75 46.5615 7.48C46.5615 8.21 46.7615 8.82 47.1515 9.33C47.5515 9.83 48.1115 10.08 48.8415 10.08C49.8815 10.08 50.5115 9.67 50.9815 8.68L50.2415 8.36C49.9515 9.01 49.5515 9.32 48.8415 9.32C47.9715 9.32 47.4715 8.65 47.4215 7.66H51.1215V7.27ZM48.8415 5.64C49.6115 5.64 50.0815 6.14 50.2415 6.9H47.4715C47.6315 6.13 48.0915 5.64 48.8415 5.64ZM58.223 5.03C58.033 4.93 57.803 4.88 57.533 4.88C56.973 4.88 56.343 5.26 56.053 5.82V4.96H55.213V10H56.053V8.09C56.053 7.32 56.193 6.72 56.473 6.29C56.753 5.86 57.083 5.64 57.463 5.64C57.673 5.64 57.863 5.69 58.053 5.78L58.223 5.03ZM63.3285 7.27C63.3285 6.6 63.1285 6.04 62.7185 5.58C62.3185 5.11 61.7585 4.88 61.0485 4.88C60.3185 4.88 59.7585 5.13 59.3585 5.64C58.9685 6.14 58.7685 6.75 58.7685 7.48C58.7685 8.21 58.9685 8.82 59.3585 9.33C59.7585 9.83 60.3185 10.08 61.0485 10.08C62.0885 10.08 62.7185 9.67 63.1885 8.68L62.4485 8.36C62.1585 9.01 61.7585 9.32 61.0485 9.32C60.1785 9.32 59.6785 8.65 59.6285 7.66H63.3285V7.27ZM61.0485 5.64C61.8185 5.64 62.2885 6.14 62.4485 6.9H59.6785C59.8385 6.13 60.2985 5.64 61.0485 5.64ZM65.3028 8.55C65.3028 7.98 65.7928 7.66 66.6428 7.66H67.5428V7.78C67.5428 8.31 67.4028 8.7 67.1228 8.95C66.8428 9.2 66.5128 9.32 66.1328 9.32C65.6028 9.32 65.3028 9.03 65.3028 8.55ZM68.3828 6.78C68.3828 5.5 67.6128 4.88 66.4428 4.88C65.4928 4.88 64.7828 5.41 64.6528 6.26L65.3928 6.43C65.5028 5.94 65.9128 5.64 66.4428 5.64C67.1728 5.64 67.5428 5.99 67.5428 6.68V6.9H66.7228C65.3128 6.9 64.4428 7.48 64.4428 8.55C64.4428 9.58 65.0928 10.08 66.0028 10.08C66.6928 10.08 67.2128 9.82 67.5828 9.29L67.7228 10H68.3828V6.78ZM71.9167 4.88C70.4767 4.88 69.6767 5.92 69.6767 7.48C69.6767 9.04 70.4767 10.08 71.9167 10.08C72.5167 10.08 73.1367 9.77 73.3867 9.38V10H74.2267V2.92H73.3867V5.56C73.2967 5.4 73.0967 5.25 72.8067 5.1C72.5167 4.95 72.2167 4.88 71.9167 4.88ZM71.9967 9.32C71.1167 9.32 70.5367 8.57 70.5367 7.48C70.5367 6.39 71.1167 5.64 71.9967 5.64C72.9067 5.64 73.4567 6.39 73.4567 7.48C73.4567 8.57 72.9067 9.32 71.9967 9.32ZM80.6784 10.08C81.4484 10.08 82.0684 9.81 82.5484 9.26L83.1384 10H84.1484L83.0284 8.58C83.2084 8.24 83.3784 7.83 83.5484 7.35L82.9884 6.74C82.8084 7.26 82.6484 7.66 82.5184 7.93L81.0584 6.08C81.6084 5.79 81.9784 5.49 82.1684 5.17C82.3384 4.88 82.4184 4.59 82.4184 4.32C82.4184 3.53 81.8284 2.92 80.8584 2.92C80.4184 2.92 80.0484 3.06 79.7484 3.34C79.4584 3.62 79.3084 3.98 79.3084 4.41C79.3084 4.83 79.5084 5.32 79.9184 5.87C79.5484 6.06 79.2284 6.35 78.9584 6.72C78.6984 7.09 78.5684 7.51 78.5684 8C78.5684 9.29 79.3984 10.08 80.6784 10.08ZM80.6784 9.3C79.9584 9.3 79.3884 8.82 79.3884 8.02C79.3884 7.33 79.7084 6.8 80.3484 6.44L82.0684 8.65C81.7184 9.08 81.2484 9.3 80.6784 9.3ZM80.1084 4.45C80.1084 3.98 80.4084 3.64 80.8584 3.64C81.3084 3.64 81.6284 3.96 81.6284 4.37C81.6284 4.88 81.2684 5.21 80.5984 5.54C80.2684 5.11 80.1084 4.75 80.1084 4.45ZM88.6817 8.55C88.6817 7.98 89.1717 7.66 90.0217 7.66H90.9217V7.78C90.9217 8.31 90.7817 8.7 90.5017 8.95C90.2217 9.2 89.8917 9.32 89.5117 9.32C88.9817 9.32 88.6817 9.03 88.6817 8.55ZM91.7617 6.78C91.7617 5.5 90.9917 4.88 89.8217 4.88C88.8717 4.88 88.1617 5.41 88.0317 6.26L88.7717 6.43C88.8817 5.94 89.2917 5.64 89.8217 5.64C90.5517 5.64 90.9217 5.99 90.9217 6.68V6.9H90.1017C88.6917 6.9 87.8217 7.48 87.8217 8.55C87.8217 9.58 88.4717 10.08 89.3817 10.08C90.0717 10.08 90.5917 9.82 90.9617 9.29L91.1017 10H91.7617V6.78ZM96.7256 8.39C96.4556 9.01 95.9956 9.32 95.3456 9.32C94.4156 9.32 93.9156 8.56 93.9156 7.48C93.9156 6.4 94.4156 5.64 95.3456 5.64C95.9956 5.64 96.4556 5.95 96.7256 6.57L97.4556 6.27C97.0456 5.34 96.3456 4.88 95.3456 4.88C94.6156 4.88 94.0456 5.13 93.6456 5.64C93.2556 6.14 93.0556 6.75 93.0556 7.48C93.0556 8.21 93.2556 8.82 93.6456 9.33C94.0456 9.83 94.6156 10.08 95.3456 10.08C96.3456 10.08 97.0456 9.62 97.4556 8.69L96.7256 8.39ZM102.146 8.39C101.876 9.01 101.416 9.32 100.766 9.32C99.8355 9.32 99.3355 8.56 99.3355 7.48C99.3355 6.4 99.8355 5.64 100.766 5.64C101.416 5.64 101.876 5.95 102.146 6.57L102.876 6.27C102.466 5.34 101.766 4.88 100.766 4.88C100.036 4.88 99.4655 5.13 99.0655 5.64C98.6755 6.14 98.4755 6.75 98.4755 7.48C98.4755 8.21 98.6755 8.82 99.0655 9.33C99.4655 9.83 100.036 10.08 100.766 10.08C101.766 10.08 102.466 9.62 102.876 8.69L102.146 8.39ZM108.455 7.27C108.455 6.6 108.255 6.04 107.845 5.58C107.445 5.11 106.885 4.88 106.175 4.88C105.445 4.88 104.885 5.13 104.485 5.64C104.095 6.14 103.895 6.75 103.895 7.48C103.895 8.21 104.095 8.82 104.485 9.33C104.885 9.83 105.445 10.08 106.175 10.08C107.215 10.08 107.845 9.67 108.315 8.68L107.575 8.36C107.285 9.01 106.885 9.32 106.175 9.32C105.305 9.32 104.805 8.65 104.755 7.66H108.455V7.27ZM106.175 5.64C106.945 5.64 107.415 6.14 107.575 6.9H104.805C104.965 6.13 105.425 5.64 106.175 5.64ZM112.064 10.08C113.504 10.08 114.304 9.04 114.304 7.48C114.304 5.92 113.504 4.88 112.064 4.88C111.464 4.88 110.844 5.19 110.594 5.58V4.96H109.754V12.04H110.594V9.4C110.684 9.56 110.884 9.71 111.174 9.86C111.464 10.01 111.764 10.08 112.064 10.08ZM111.984 5.64C112.864 5.64 113.444 6.39 113.444 7.48C113.444 8.57 112.864 9.32 111.984 9.32C111.074 9.32 110.524 8.57 110.524 7.48C110.524 6.39 111.074 5.64 111.984 5.64ZM115.911 5.72V8.42C115.911 9.51 116.481 10.08 117.371 10.08C117.701 10.08 117.971 10.02 118.191 9.89L117.991 9.16C117.831 9.27 117.641 9.32 117.421 9.32C116.991 9.32 116.751 9.02 116.751 8.49V5.72H118.071V4.96H116.751V2.92L115.911 3.45V4.96H115.041V5.72H115.911ZM122.366 5.72V8.42C122.366 9.51 122.936 10.08 123.826 10.08C124.156 10.08 124.426 10.02 124.646 9.89L124.446 9.16C124.286 9.27 124.096 9.32 123.876 9.32C123.446 9.32 123.206 9.02 123.206 8.49V5.72H124.526V4.96H123.206V2.92L122.366 3.45V4.96H121.496V5.72H122.366ZM129.947 6.5C129.947 5.45 129.397 4.88 128.467 4.88C127.697 4.88 127.037 5.27 126.717 5.9V2.92H125.877V10H126.717V7.86C126.717 7.2 126.867 6.67 127.177 6.26C127.487 5.85 127.847 5.64 128.237 5.64C128.817 5.64 129.107 5.98 129.107 6.67V10H129.947V6.5ZM135.78 7.27C135.78 6.6 135.58 6.04 135.17 5.58C134.77 5.11 134.21 4.88 133.5 4.88C132.77 4.88 132.21 5.13 131.81 5.64C131.42 6.14 131.22 6.75 131.22 7.48C131.22 8.21 131.42 8.82 131.81 9.33C132.21 9.83 132.77 10.08 133.5 10.08C134.54 10.08 135.17 9.67 135.64 8.68L134.9 8.36C134.61 9.01 134.21 9.32 133.5 9.32C132.63 9.32 132.13 8.65 132.08 7.66H135.78V7.27ZM133.5 5.64C134.27 5.64 134.74 6.14 134.9 6.9H132.13C132.29 6.13 132.75 5.64 133.5 5.64ZM142.181 10.08C143.621 10.08 144.421 9.04 144.421 7.48C144.421 5.92 143.621 4.88 142.181 4.88C141.581 4.88 140.961 5.19 140.711 5.58V4.96H139.871V12.04H140.711V9.4C140.801 9.56 141.001 9.71 141.291 9.86C141.581 10.01 141.881 10.08 142.181 10.08ZM142.101 5.64C142.981 5.64 143.561 6.39 143.561 7.48C143.561 8.57 142.981 9.32 142.101 9.32C141.191 9.32 140.641 8.57 140.641 7.48C140.641 6.39 141.191 5.64 142.101 5.64ZM146.406 8.55C146.406 7.98 146.896 7.66 147.746 7.66H148.646V7.78C148.646 8.31 148.506 8.7 148.226 8.95C147.946 9.2 147.616 9.32 147.236 9.32C146.706 9.32 146.406 9.03 146.406 8.55ZM149.486 6.78C149.486 5.5 148.716 4.88 147.546 4.88C146.596 4.88 145.886 5.41 145.756 6.26L146.496 6.43C146.606 5.94 147.016 5.64 147.546 5.64C148.276 5.64 148.646 5.99 148.646 6.68V6.9H147.826C146.416 6.9 145.546 7.48 145.546 8.55C145.546 9.58 146.196 10.08 147.106 10.08C147.796 10.08 148.316 9.82 148.686 9.29L148.826 10H149.486V6.78ZM153.916 5.03C153.726 4.93 153.496 4.88 153.226 4.88C152.666 4.88 152.036 5.26 151.746 5.82V4.96H150.906V10H151.746V8.09C151.746 7.32 151.886 6.72 152.166 6.29C152.446 5.86 152.776 5.64 153.156 5.64C153.366 5.64 153.556 5.69 153.746 5.78L153.916 5.03ZM155.384 5.72V8.42C155.384 9.51 155.954 10.08 156.844 10.08C157.174 10.08 157.444 10.02 157.664 9.89L157.464 9.16C157.304 9.27 157.114 9.32 156.894 9.32C156.464 9.32 156.224 9.02 156.224 8.49V5.72H157.544V4.96H156.224V2.92L155.384 3.45V4.96H154.514V5.72H155.384ZM160.549 8.6L159.269 4.96H158.349L160.119 9.79L159.319 12.04H160.179L162.679 4.96H161.799L160.549 8.6ZM169.405 5.03C169.215 4.93 168.985 4.88 168.715 4.88C168.155 4.88 167.525 5.26 167.235 5.82V4.96H166.395V10H167.235V8.09C167.235 7.32 167.375 6.72 167.655 6.29C167.935 5.86 168.265 5.64 168.645 5.64C168.855 5.64 169.045 5.69 169.235 5.78L169.405 5.03ZM170.465 8.51C170.465 9.51 171.025 10.08 171.945 10.08C172.675 10.08 173.235 9.74 173.615 9.07V10H174.455V4.96H173.615V7.07C173.615 7.74 173.475 8.29 173.185 8.7C172.905 9.11 172.565 9.32 172.175 9.32C171.595 9.32 171.305 8.98 171.305 8.29V4.96H170.465V8.51ZM176.062 10H176.902V2.92H176.062V10ZM182.752 7.27C182.752 6.6 182.552 6.04 182.142 5.58C181.742 5.11 181.182 4.88 180.472 4.88C179.742 4.88 179.182 5.13 178.782 5.64C178.392 6.14 178.192 6.75 178.192 7.48C178.192 8.21 178.392 8.82 178.782 9.33C179.182 9.83 179.742 10.08 180.472 10.08C181.512 10.08 182.142 9.67 182.612 8.68L181.872 8.36C181.582 9.01 181.182 9.32 180.472 9.32C179.602 9.32 179.102 8.65 179.052 7.66H182.752V7.27ZM180.472 5.64C181.242 5.64 181.712 6.14 181.872 6.9H179.102C179.262 6.13 179.722 5.64 180.472 5.64ZM185.549 4.88C184.659 4.88 184.069 5.47 184.069 6.27C184.069 7.23 184.909 7.55 185.569 7.8C186.019 7.96 186.389 8.2 186.389 8.53C186.389 9.06 186.119 9.32 185.579 9.32C185.069 9.32 184.679 8.99 184.409 8.33L183.699 8.72C183.989 9.49 184.629 10.08 185.579 10.08C186.609 10.08 187.249 9.48 187.249 8.48C187.259 7 184.899 7.18 184.909 6.28C184.909 5.88 185.169 5.64 185.519 5.64C185.829 5.64 186.129 5.81 186.439 6.14L187.009 5.65C186.649 5.14 186.159 4.88 185.549 4.88Z" fill="white"/>
<path d="M138.951 11H187.799V11.5H138.951V11Z" fill="white"/>
<rect id="state" x="0.5" y="1.5" width="11" height="11" rx="1.5" fill="none" fill-opacity="0.52" stroke="white"/>
</svg>
