<svg width="73" height="29" viewBox="0 0 73 29" fill="none" xmlns="http://www.w3.org/2000/svg">
<rect id="state" x="0.5" y="0.5" width="72" height="28" rx="4.5" stroke="white" />
<path d="M28.07 16.19C27.8 16.74 27.4 17.02 26.89 17.02C26.13 17.02 25.73 16.4 25.73 15.48C25.73 14.56 26.13 13.94 26.89 13.94C27.4 13.94 27.8 14.22 28.07 14.77L29.18 14.32C28.79 13.36 28.03 12.88 26.89 12.88C26.1 12.88 25.5 13.13 25.07 13.62C24.64 14.11 24.43 14.73 24.43 15.48C24.43 16.23 24.64 16.85 25.07 17.34C25.5 17.83 26.1 18.08 26.89 18.08C28.03 18.08 28.79 17.6 29.18 16.64L28.07 16.19ZM30.2878 18H31.5278V10.92H30.2878V18ZM33.372 17.35C33.832 17.84 34.452 18.08 35.242 18.08C36.032 18.08 36.652 17.84 37.112 17.35C37.572 16.86 37.802 16.23 37.802 15.48C37.802 14.73 37.572 14.11 37.112 13.62C36.652 13.13 36.032 12.88 35.242 12.88C34.452 12.88 33.832 13.13 33.372 13.62C32.912 14.11 32.682 14.73 32.682 15.48C32.682 16.23 32.912 16.86 33.372 17.35ZM34.322 14.39C34.552 14.09 34.852 13.94 35.242 13.94C35.632 13.94 35.932 14.09 36.162 14.39C36.392 14.68 36.502 15.05 36.502 15.48C36.502 15.91 36.392 16.28 36.162 16.58C35.932 16.87 35.632 17.02 35.242 17.02C34.852 17.02 34.552 16.87 34.322 16.58C34.092 16.28 33.982 15.91 33.982 15.48C33.982 15.05 34.092 14.68 34.322 14.39ZM40.4897 12.88C40.0197 12.88 39.6297 13.02 39.3297 13.31C39.0297 13.6 38.8797 13.94 38.8797 14.35C38.8797 15.07 39.2597 15.44 39.8997 15.71C40.0897 15.79 40.4397 15.9 40.6097 15.98C40.6997 16.01 40.7997 16.05 40.8897 16.1C41.0797 16.19 41.1597 16.32 41.1597 16.48C41.1597 16.84 40.9497 17.02 40.5397 17.02C40.0697 17.02 39.7297 16.74 39.5297 16.19L38.5397 16.72C38.6897 17.08 38.9397 17.4 39.2897 17.67C39.6397 17.94 40.0597 18.08 40.5397 18.08C41.0697 18.08 41.4997 17.92 41.8297 17.59C42.1597 17.26 42.3297 16.87 42.3297 16.4C42.3297 16.05 42.1697 15.75 42.0197 15.58C41.9497 15.49 41.8297 15.41 41.6597 15.32C41.4997 15.23 41.3797 15.16 41.2997 15.13L40.8697 14.98L40.5097 14.85C40.1897 14.73 40.0297 14.57 40.0297 14.36C40.0297 14.09 40.2397 13.94 40.4897 13.94C40.8197 13.94 41.0997 14.09 41.3297 14.38L42.0697 13.7C41.7497 13.21 41.1597 12.88 40.4897 12.88ZM47.8914 15.37C47.8914 14.8 47.7114 14.21 47.3514 13.72C46.9914 13.21 46.3414 12.88 45.5414 12.88C43.8114 12.88 43.1214 14.28 43.1214 15.48C43.1214 16.68 43.8114 18.08 45.5414 18.08C46.6414 18.08 47.4014 17.59 47.8314 16.61L46.8314 16.24C46.5314 16.76 46.1214 17.02 45.6114 17.02C44.8914 17.02 44.4514 16.49 44.4214 15.88H47.8914V15.37ZM45.5414 13.94C46.1214 13.94 46.4814 14.26 46.6214 14.9H44.4514C44.5414 14.37 44.9514 13.94 45.5414 13.94Z" fill="white"/>
</svg>
