<svg width="9" height="9" viewBox="0 0 9 9" fill="none" xmlns="http://www.w3.org/2000/svg">
<rect id="state" x="0.5" y="0.5" width="8" height="8" rx="4.5"/>
<path d="M0.46875 0.0585938C0.507812 0.0195312 0.546875 0 0.625 0C0.683594 0 0.742188 0.0195312 0.800781 0.0585938L4.88281 4.16016C4.92188 4.19922 4.96094 4.25781 4.96094 4.31641C4.96094 4.39453 4.92188 4.43359 4.88281 4.47266L0.800781 8.57422C0.742188 8.61328 0.683594 8.63281 0.625 8.63281C0.546875 8.63281 0.507812 8.61328 0.46875 8.57422L0.078125 8.18359C0.0195312 8.14453 0 8.10547 0 8.02734C0 7.96875 0.0195312 7.91016 0.078125 7.85156L3.61328 4.31641L0.078125 0.78125C0.0195312 0.742188 0 0.683594 0 0.605469C0 0.546875 0.0195312 0.488281 0.078125 0.449219L0.46875 0.0585938Z" fill="white"/>
<path d="M8.22189 8.64062C8.18282 8.67969 8.14376 8.69922 8.06564 8.69922C8.00704 8.69922 7.94845 8.67969 7.88985 8.64062L3.80782 4.53906C3.76876 4.5 3.7297 4.44141 3.7297 4.38281C3.7297 4.30469 3.76876 4.26562 3.80782 4.22656L7.88986 0.125C7.94845 0.0859374 8.00704 0.0664062 8.06564 0.0664062C8.14376 0.0664062 8.18282 0.0859375 8.22189 0.125L8.61251 0.515625C8.67111 0.554687 8.69064 0.59375 8.69064 0.671875C8.69064 0.730469 8.67111 0.789062 8.61251 0.847656L5.07735 4.38281L8.61251 7.91797C8.6711 7.95703 8.69064 8.01562 8.69064 8.09375C8.69064 8.15234 8.6711 8.21094 8.61251 8.25L8.22189 8.64062Z" fill="white"/>
</svg>
