<svg width="73" height="33" viewBox="0 0 73 33" fill="none" xmlns="http://www.w3.org/2000/svg">
<rect id="state" x="0.5" y="0.5" width="72" height="32" rx="4.5" stroke="white"/>
<path d="M10.0012 5.75759C10.5341 5.31601 11.1879 5.28732 11.8298 5.24681C12.9239 5.17819 13.9954 5.36776 15.0652 5.56577C15.3954 5.62708 15.7319 5.65633 16.1022 5.70527C16.1022 6.03435 16.1022 6.34767 16.1022 6.7195C15.8973 6.75607 15.672 6.81063 15.4434 6.83538C14.141 6.97489 12.8369 7.10033 11.5402 6.79151C10.9767 6.65706 10.4212 6.49843 10.0001 6.06191C10.0012 5.96066 10.0012 5.8594 10.0012 5.75759Z" fill="white"/>
<path d="M19.7265 9.12092C19.7829 9.98777 19.7197 10.7961 19.399 11.5533C19.2161 11.9847 19.0033 12.4252 18.7086 12.7835C17.9691 13.6819 16.8874 13.6689 16.1157 12.7981C15.642 12.2632 15.3885 11.6146 15.235 10.9339C15.1424 10.5244 15.0995 10.098 15.0882 9.67726C15.0645 8.80535 15.5077 8.23551 16.3454 8.00094C16.4742 7.96494 16.6063 7.94018 16.7666 7.90306C16.7796 7.76524 16.8022 7.63586 16.8027 7.50591C16.8067 6.625 16.8055 5.74409 16.8084 4.86317C16.8089 4.72817 16.8027 4.58923 16.8298 4.45816C16.8835 4.19546 17.1042 4.01939 17.3718 4.0042C17.658 3.98845 17.8804 4.1032 17.9713 4.37547C18.0289 4.5476 18.0391 4.74054 18.0408 4.92449C18.0481 5.70359 18.0436 6.48325 18.0441 7.26234C18.0441 7.44572 18.0441 7.62911 18.0441 7.85243C21.9073 7.85243 25.7225 7.85243 29.5721 7.85243C29.6122 7.71461 29.6539 7.57173 29.6957 7.42885C29.8352 6.95183 29.9492 6.86014 30.4528 6.85845C31.6428 6.85451 32.8329 6.85564 34.0235 6.85507C34.1076 6.85507 34.1917 6.85507 34.2996 6.85507C34.7026 6.17329 35.2621 5.7334 36.0959 5.7244C36.9354 5.7154 37.5011 6.14348 37.9296 6.85732C38.974 6.85732 40.0263 6.85732 41.0791 6.85732C41.1299 6.85732 41.1813 6.85676 41.2321 6.85732C42.4171 6.87307 42.2822 6.70376 42.6791 7.85806C46.4829 7.85806 50.2981 7.85806 54.1607 7.85806C54.1703 7.66005 54.1861 7.48004 54.1861 7.29947C54.1878 6.52037 54.1827 5.74071 54.1861 4.96162C54.1867 4.79342 54.1912 4.62016 54.233 4.45928C54.3159 4.13696 54.5576 3.9772 54.8743 4.00251C55.1774 4.0267 55.3982 4.23483 55.4151 4.57066C55.4371 5.00999 55.4253 5.45101 55.4258 5.89147C55.427 6.54962 55.4258 7.20778 55.4258 7.87718C55.6573 7.94581 55.8521 7.99475 56.0412 8.06113C56.7762 8.32101 57.1392 8.81828 57.1505 9.58838C57.1658 10.575 56.9399 11.5066 56.4341 12.3549C55.5608 13.8191 54.1042 13.8287 53.2123 12.374C52.6664 11.4841 52.4614 10.4974 52.4863 9.45956C52.4885 9.36225 52.4976 9.26549 52.5049 9.14399C52.3463 9.13499 52.213 9.12036 52.0804 9.12036C49.6658 9.11811 47.2518 9.1243 44.8373 9.10967C44.4861 9.10742 44.2615 9.18674 44.1497 9.54C44.0746 9.77739 43.9464 9.99846 43.833 10.2454C43.9939 10.363 44.1282 10.462 44.2632 10.5604C46.4237 12.1287 47.691 14.2382 48.0399 16.8725C48.1393 17.624 48.1082 18.3947 48.1116 19.1564C48.1207 21.1038 48.1156 23.0513 48.115 24.9982C48.115 25.1332 48.1162 25.2699 48.0981 25.4038C48.0518 25.748 47.8728 25.9207 47.5827 25.9157C47.2936 25.9106 47.1101 25.7266 47.1011 25.3779C47.0859 24.8024 47.0955 24.2258 47.0949 23.6498C47.0949 23.4681 47.0949 23.2864 47.0949 23.0811C46.7562 23.0614 46.4739 23.0445 46.1544 23.026C46.1544 22.2519 46.1544 21.4998 46.1544 20.6926C46.4434 20.6735 46.7234 20.6555 46.9916 20.6375C47.0238 20.597 47.0627 20.5717 47.0633 20.5452C47.0988 18.9899 47.218 17.4266 46.8109 15.8988C46.3079 14.0115 45.2477 12.4994 43.6416 11.3727C43.5998 11.3435 43.5569 11.3153 43.5112 11.2934C43.4818 11.2793 43.4474 11.2765 43.3864 11.2625C43.3317 11.353 43.2554 11.4447 43.2159 11.5499C43.0398 12.0157 42.6881 12.1698 42.2139 12.1664C41.0577 12.158 39.9015 12.1659 38.7453 12.1664C35.9232 12.167 33.1005 12.1541 30.2783 12.1754C29.6297 12.1805 29.1357 12.0455 28.9336 11.366C28.9195 11.3193 28.8811 11.2799 28.8393 11.2141C27.9287 11.7862 27.2112 12.4921 26.6173 13.3286C25.613 14.7439 25.1636 16.3336 25.1376 18.0516C25.1246 18.8953 25.1354 19.7391 25.1354 20.6274C25.4605 20.6493 25.7417 20.6679 26.0945 20.6915C26.1301 21.4672 26.1148 22.2311 26.103 23.0282C25.762 23.0462 25.4797 23.0614 25.1342 23.08C25.1342 23.6504 25.1348 24.2045 25.1337 24.7585C25.1331 24.9959 25.1455 25.2344 25.1229 25.4696C25.0958 25.7475 24.9146 25.9067 24.6594 25.9173C24.4026 25.928 24.2101 25.7846 24.148 25.5185C24.1214 25.4043 24.1158 25.2834 24.1164 25.1652C24.1248 22.6412 24.0836 20.116 24.1598 17.5942C24.249 14.6455 25.5909 12.3189 27.9598 10.5689C28.0947 10.4693 28.2302 10.3714 28.4057 10.2437C28.2454 9.90846 28.0958 9.58951 27.9406 9.27337C27.8305 9.04892 27.6176 9.12542 27.4426 9.12486C25.4363 9.12036 23.4304 9.12149 21.4241 9.12149C20.8686 9.12092 20.3113 9.12092 19.7265 9.12092Z" fill="white"/>
<path d="M33.2723 15.8335C33.5669 15.0758 34.1298 14.8603 34.8682 14.8862C35.785 14.9183 36.7041 14.9003 37.622 14.8918C38.1448 14.8868 38.5609 15.0814 38.8019 15.5421C38.9261 15.78 39.0814 15.838 39.3241 15.8363C40.3781 15.8295 41.4321 15.8374 42.4861 15.8357C43.0874 15.8346 43.6254 15.9927 44.0669 16.4196C44.4801 16.819 44.6845 17.3129 44.6862 17.876C44.6935 20.5356 44.7031 23.1952 44.6828 25.8549C44.6726 27.1442 43.5904 27.8636 42.616 27.8563C39.3518 27.8321 36.0876 27.8485 32.8234 27.8485C31.7694 27.8485 30.7137 27.8136 29.6614 27.8563C28.586 27.8996 27.5342 27.0491 27.5393 25.7457C27.5495 23.1536 27.5371 20.5621 27.545 17.97C27.5489 16.7065 28.3737 15.8684 29.6479 15.8408C30.6675 15.8189 31.6881 15.8346 32.7083 15.8335C32.8934 15.8335 33.078 15.8335 33.2723 15.8335ZM36.1254 17.6459C33.7769 17.6426 31.8632 19.5349 31.8665 21.857C31.8699 24.1499 33.7837 26.0647 36.0808 26.0748C38.4231 26.0849 40.3691 24.205 40.3556 21.8761C40.3403 19.2204 38.1488 17.5886 36.1254 17.6459ZM42.2338 19.0753C42.6645 19.0719 43.014 18.7384 43.0258 18.3193C43.0383 17.8946 42.6595 17.5031 42.2304 17.4963C41.7861 17.489 41.4282 17.8456 41.4282 18.2951C41.4288 18.7569 41.7613 19.0793 42.2338 19.0753Z" fill="white"/>
<path d="M18.6824 5.47404C20.4054 5.25522 22.0815 5.01671 23.748 5.5466C24.0348 5.63773 24.3216 5.76261 24.5728 5.92575C24.9398 6.16482 24.9279 6.50852 24.5209 6.64353C24.0139 6.81116 23.4737 6.92029 22.9408 6.96079C21.8868 7.04067 20.8503 6.84041 19.8166 6.65309C19.453 6.58728 19.0838 6.55071 18.683 6.49615C18.6824 6.16707 18.6824 5.85543 18.6824 5.47404Z" fill="white"/>
<path d="M53.5613 5.4871C53.5613 5.85049 53.5613 6.15144 53.5613 6.47602C52.859 6.58852 52.1754 6.69597 51.4934 6.80791C50.5168 6.96767 49.5378 7.05598 48.5522 6.89116C48.3687 6.86022 48.179 6.83941 48.0057 6.77584C47.759 6.68528 47.4361 6.63184 47.4186 6.29714C47.4022 5.99281 47.6828 5.86849 47.9108 5.7768C48.3179 5.61254 48.7356 5.44547 49.1647 5.36728C50.6195 5.10177 52.0676 5.25703 53.5613 5.4871Z" fill="white"/>
<path d="M56.1202 6.75525C56.1202 6.36711 56.1202 6.05266 56.1202 5.71627C57.0466 5.57845 57.9459 5.44344 58.8458 5.31069C59.6401 5.19368 60.4355 5.19312 61.2236 5.34332C61.5014 5.39619 61.7831 5.48901 62.0309 5.62289C62.3092 5.77308 62.3267 5.99359 62.0806 6.18935C61.8728 6.35417 61.6267 6.48524 61.3777 6.58143C60.2774 7.00614 59.1263 7.02751 57.9707 6.9482C57.3655 6.90657 56.7637 6.82388 56.1202 6.75525Z" fill="white"/>
<path d="M33.4311 21.8462C33.4249 20.3887 34.6098 19.1799 36.059 19.1647C37.5889 19.1489 38.7858 20.3145 38.7999 21.835C38.8134 23.3178 37.6109 24.5503 36.1477 24.5531C34.6364 24.5565 33.4373 23.3611 33.4311 21.8462Z" fill="white"/>
<path id="hover" d="M61.6974 10.9922C61.7365 10.9531 61.7755 10.9336 61.8537 10.9336C61.9122 10.9336 61.9708 10.9531 62.0294 10.9922L66.1115 15.0938C66.1505 15.1328 66.1896 15.1914 66.1896 15.25C66.1896 15.3281 66.1505 15.3672 66.1115 15.4062L62.0294 19.5078C61.9708 19.5469 61.9122 19.5664 61.8537 19.5664C61.7755 19.5664 61.7365 19.5469 61.6974 19.5078L61.3068 19.1172C61.2482 19.0781 61.2287 19.0391 61.2287 18.9609C61.2287 18.9023 61.2482 18.8438 61.3068 18.7852L64.8419 15.25L61.3068 11.7148C61.2482 11.6758 61.2287 11.6172 61.2287 11.5391C61.2287 11.4805 61.2482 11.4219 61.3068 11.3828L61.6974 10.9922Z" fill="none"/>
</svg>
