<svg width="148" height="16" viewBox="0 0 148 16" fill="none" xmlns="http://www.w3.org/2000/svg">
<path d="M12.5882 15L7.8482 0.999999H5.2482L0.508203 15H3.3082L4.3282 11.7H8.7682L9.7882 15H12.5882ZM8.0282 9.3H5.0682L6.5482 4.44L8.0282 9.3ZM22.2171 10.24L17.0771 0.999999H14.3371V15H16.9371V5.76L22.0771 15H24.8171V0.999999H22.2171V10.24ZM30.9326 3.4V15H33.5326V3.4H37.4126V0.999999H27.0526V3.4H30.9326ZM39.6496 0.999999V15H42.2496V0.999999H39.6496ZM45.0988 15H50.3188C53.1988 15 54.9388 13.48 54.9388 10.78C54.9388 9.08 54.2388 7.94 52.8388 7.36C53.7188 6.9 54.2188 5.92 54.2188 4.78C54.2188 2.3 52.6788 0.999999 50.2188 0.999999H45.0988V15ZM50.0188 3.4C51.1588 3.4 51.7188 3.82 51.7188 4.92C51.7188 6.02 51.1788 6.44 50.0788 6.44H47.6988V3.4H50.0188ZM50.0788 8.84C51.5788 8.84 52.3388 9.46 52.3388 10.72C52.3388 11.98 51.5788 12.6 50.0788 12.6H47.6988V8.84H50.0788ZM60.196 1.6C58.256 2.58 56.876 4.88 56.876 8C56.876 9.56 57.176 10.9 57.796 12C59.056 14.22 61.056 15.16 63.476 15.16C64.696 15.16 65.776 14.92 66.756 14.42C68.696 13.4 70.076 11.12 70.076 8C70.076 6.44 69.756 5.1 69.136 4C67.916 1.78 65.896 0.84 63.476 0.84C62.256 0.84 61.176 1.1 60.196 1.6ZM66.296 4.44C67.056 5.24 67.436 6.42 67.436 8C67.436 9.58 67.056 10.76 66.296 11.56C65.556 12.36 64.616 12.76 63.476 12.76C62.336 12.76 61.396 12.36 60.636 11.56C59.896 10.76 59.516 9.58 59.516 8C59.516 6.42 59.896 5.24 60.636 4.44C61.396 3.64 62.336 3.24 63.476 3.24C64.616 3.24 65.556 3.64 66.296 4.44ZM76.7835 15C80.0835 15 83.3035 12.88 83.3035 8C83.3035 3.12 80.0835 0.999999 76.7835 0.999999H72.4035V15H76.7835ZM75.0035 3.4H75.9635C77.1835 3.4 78.1835 3.66 79.1235 4.3C80.0835 4.94 80.6635 6.22 80.6635 8C80.6635 9.78 80.0835 11.06 79.1235 11.7C78.1835 12.34 77.1835 12.6 75.9635 12.6H75.0035V3.4ZM87.7099 9.04V15H90.3099V9.04L94.3499 0.999999H91.5499L89.0099 6.44L86.4699 0.999999H83.6699L87.7099 9.04ZM112.694 5.08C112.034 2.38 109.934 0.84 106.894 0.84C105.034 0.84 103.474 1.48 102.194 2.74C100.914 4 100.274 5.76 100.274 8C100.274 10.24 100.914 12 102.194 13.26C103.474 14.52 105.034 15.16 106.894 15.16C109.934 15.16 112.034 13.62 112.694 10.92L110.354 10.32C109.734 11.94 108.594 12.76 106.894 12.76C105.754 12.76 104.794 12.36 104.034 11.54C103.294 10.72 102.914 9.54 102.914 8C102.914 6.46 103.294 5.28 104.034 4.46C104.794 3.64 105.754 3.24 106.894 3.24C108.594 3.24 109.734 4.06 110.354 5.68L112.694 5.08ZM114.982 15H123.522V12.6H117.582V0.999999H114.982V15ZM132.85 0.999999V9.72C132.85 11.74 131.97 12.76 130.23 12.76C128.49 12.76 127.61 11.74 127.61 9.72V0.999999H125.01V9.68C125.01 13.3 127.03 15.16 130.23 15.16C133.43 15.16 135.45 13.3 135.45 9.68V0.999999H132.85ZM137.911 15H143.131C146.011 15 147.751 13.48 147.751 10.78C147.751 9.08 147.051 7.94 145.651 7.36C146.531 6.9 147.031 5.92 147.031 4.78C147.031 2.3 145.491 0.999999 143.031 0.999999H137.911V15ZM142.831 3.4C143.971 3.4 144.531 3.82 144.531 4.92C144.531 6.02 143.991 6.44 142.891 6.44H140.511V3.4H142.831ZM142.891 8.84C144.391 8.84 145.151 9.46 145.151 10.72C145.151 11.98 144.391 12.6 142.891 12.6H140.511V8.84H142.891Z" fill="white"/>
</svg>
