<svg width="73" height="30" viewBox="0 0 73 30" fill="none" xmlns="http://www.w3.org/2000/svg">
<rect id="state" x="0.5" y="0.5" width="72" height="28" rx="4.5" stroke="white"/>
<path d="M9.26 18.08C10.74 18.08 11.56 17.07 11.56 15.48C11.56 13.89 10.74 12.88 9.26 12.88C8.77 12.88 8.27 13.13 8.04 13.42V10.92H6.8V18H8.04V17.48C8.2 17.77 8.69 18.08 9.26 18.08ZM9.93 16.61C9.71 16.88 9.43 17.02 9.09 17.02C8.75 17.02 8.47 16.89 8.25 16.62C8.04 16.35 7.93 15.97 7.93 15.48C7.93 14.99 8.04 14.62 8.25 14.35C8.47 14.08 8.75 13.94 9.09 13.94C9.43 13.94 9.71 14.08 9.93 14.35C10.15 14.62 10.26 15 10.26 15.48C10.26 15.96 10.15 16.34 9.93 16.61ZM13.6259 14.52C13.7559 14.13 14.0459 13.94 14.4959 13.94C15.0859 13.94 15.3759 14.19 15.3759 14.68V14.9H14.5359C13.2559 14.9 12.3859 15.55 12.3859 16.55C12.3859 17.52 13.0259 18.08 13.9159 18.08C14.5559 18.08 15.0759 17.84 15.4659 17.36L15.5959 18H16.6159V14.99C16.6159 13.58 15.9059 12.88 14.4959 12.88C13.4859 12.88 12.7359 13.44 12.5759 14.28L13.6259 14.52ZM13.6859 16.53C13.6859 16.1 13.9759 15.88 14.5459 15.88H15.3759V15.98C15.3759 16.29 15.2559 16.54 15.0159 16.73C14.7859 16.92 14.5159 17.02 14.2059 17.02C13.8759 17.02 13.6859 16.8 13.6859 16.53ZM21.3298 16.19C21.0598 16.74 20.6598 17.02 20.1498 17.02C19.3898 17.02 18.9898 16.4 18.9898 15.48C18.9898 14.56 19.3898 13.94 20.1498 13.94C20.6598 13.94 21.0598 14.22 21.3298 14.77L22.4398 14.32C22.0498 13.36 21.2898 12.88 20.1498 12.88C19.3598 12.88 18.7598 13.13 18.3298 13.62C17.8998 14.11 17.6898 14.73 17.6898 15.48C17.6898 16.23 17.8998 16.85 18.3298 17.34C18.7598 17.83 19.3598 18.08 20.1498 18.08C21.2898 18.08 22.0498 17.6 22.4398 16.64L21.3298 16.19ZM23.3527 18H24.5927V15.62L26.3727 18H27.8927L25.7427 15.28L27.7627 12.96H26.2327L24.5927 14.94V10.92H23.3527V18Z" fill="white"/>
<path d="M62.1878 10.9922C62.2268 10.9531 62.2659 10.9336 62.344 10.9336C62.4026 10.9336 62.4612 10.9531 62.5198 10.9922L66.6018 15.0938C66.6409 15.1328 66.68 15.1914 66.68 15.25C66.68 15.3281 66.6409 15.3672 66.6018 15.4062L62.5198 19.5078C62.4612 19.5469 62.4026 19.5664 62.344 19.5664C62.2659 19.5664 62.2268 19.5469 62.1878 19.5078L61.7972 19.1172C61.7386 19.0781 61.719 19.0391 61.719 18.9609C61.719 18.9023 61.7386 18.8438 61.7972 18.7852L65.3323 15.25L61.7972 11.7148C61.7386 11.6758 61.719 11.6172 61.719 11.5391C61.719 11.4805 61.7386 11.4219 61.7972 11.3828L62.1878 10.9922Z" fill="white"/>
</svg>
