<svg width="73" height="30" viewBox="0 0 73 30" fill="none" xmlns="http://www.w3.org/2000/svg">
<rect id="state" x="0.5" y="0.5" width="72" height="28" rx="4.5" stroke="white"/>
<path d="M10.07 16.19C9.8 16.74 9.4 17.02 8.89 17.02C8.13 17.02 7.73 16.4 7.73 15.48C7.73 14.56 8.13 13.94 8.89 13.94C9.4 13.94 9.8 14.22 10.07 14.77L11.18 14.32C10.79 13.36 10.03 12.88 8.89 12.88C8.1 12.88 7.5 13.13 7.07 13.62C6.64 14.11 6.43 14.73 6.43 15.48C6.43 16.23 6.64 16.85 7.07 17.34C7.5 17.83 8.1 18.08 8.89 18.08C10.03 18.08 10.79 17.6 11.18 16.64L10.07 16.19ZM13.1766 14.52C13.3066 14.13 13.5966 13.94 14.0466 13.94C14.6366 13.94 14.9266 14.19 14.9266 14.68V14.9H14.0866C12.8066 14.9 11.9366 15.55 11.9366 16.55C11.9366 17.52 12.5766 18.08 13.4666 18.08C14.1066 18.08 14.6266 17.84 15.0166 17.36L15.1466 18H16.1666V14.99C16.1666 13.58 15.4566 12.88 14.0466 12.88C13.0366 12.88 12.2866 13.44 12.1266 14.28L13.1766 14.52ZM13.2366 16.53C13.2366 16.1 13.5266 15.88 14.0966 15.88H14.9266V15.98C14.9266 16.29 14.8066 16.54 14.5666 16.73C14.3366 16.92 14.0666 17.02 13.7566 17.02C13.4266 17.02 13.2366 16.8 13.2366 16.53ZM17.3273 18H18.5673V15.99C18.5673 14.72 19.0773 13.94 19.7173 13.94C20.1973 13.94 20.4373 14.22 20.4373 14.77V18H21.6773V14.4C21.6773 13.41 21.0573 12.88 20.1273 12.88C19.4973 12.88 18.9773 13.18 18.5673 13.77V12.96H17.3273V18ZM24.1686 17.68L23.2986 20.04H24.4986L27.0986 12.96H25.8586L24.7586 16.12L23.5886 12.96H22.3386L24.1686 17.68ZM28.243 17.35C28.703 17.84 29.323 18.08 30.113 18.08C30.903 18.08 31.523 17.84 31.983 17.35C32.443 16.86 32.673 16.23 32.673 15.48C32.673 14.73 32.443 14.11 31.983 13.62C31.523 13.13 30.903 12.88 30.113 12.88C29.323 12.88 28.703 13.13 28.243 13.62C27.783 14.11 27.553 14.73 27.553 15.48C27.553 16.23 27.783 16.86 28.243 17.35ZM29.193 14.39C29.423 14.09 29.723 13.94 30.113 13.94C30.503 13.94 30.803 14.09 31.033 14.39C31.263 14.68 31.373 15.05 31.373 15.48C31.373 15.91 31.263 16.28 31.033 16.58C30.803 16.87 30.503 17.02 30.113 17.02C29.723 17.02 29.423 16.87 29.193 16.58C28.963 16.28 28.853 15.91 28.853 15.48C28.853 15.05 28.963 14.68 29.193 14.39ZM33.7922 18H35.0322V15.99C35.0322 14.72 35.5422 13.94 36.1822 13.94C36.6622 13.94 36.9022 14.22 36.9022 14.77V18H38.1422V14.4C38.1422 13.41 37.5222 12.88 36.5922 12.88C35.9622 12.88 35.4422 13.18 35.0322 13.77V12.96H33.7922V18Z" fill="white"/>
<path id="hover" d="M61.6974 10.9922C61.7365 10.9531 61.7755 10.9336 61.8537 10.9336C61.9122 10.9336 61.9708 10.9531 62.0294 10.9922L66.1115 15.0938C66.1505 15.1328 66.1896 15.1914 66.1896 15.25C66.1896 15.3281 66.1505 15.3672 66.1115 15.4062L62.0294 19.5078C61.9708 19.5469 61.9122 19.5664 61.8537 19.5664C61.7755 19.5664 61.7365 19.5469 61.6974 19.5078L61.3068 19.1172C61.2482 19.0781 61.2287 19.0391 61.2287 18.9609C61.2287 18.9023 61.2482 18.8438 61.3068 18.7852L64.8419 15.25L61.3068 11.7148C61.2482 11.6758 61.2287 11.6172 61.2287 11.5391C61.2287 11.4805 61.2482 11.4219 61.3068 11.3828L61.6974 10.9922Z" fill="none"/>
</svg>
