<svg width="73" height="30" viewBox="0 0 73 30" fill="none" xmlns="http://www.w3.org/2000/svg">
<rect id="state" x="0.5" y="0.5" width="72" height="28" rx="4.5" stroke="white"/>
<path d="M6.78 18H8.02V10.92H6.78V18ZM9.86414 17.35C10.3241 17.84 10.9441 18.08 11.7341 18.08C12.5241 18.08 13.1441 17.84 13.6041 17.35C14.0641 16.86 14.2941 16.23 14.2941 15.48C14.2941 14.73 14.0641 14.11 13.6041 13.62C13.1441 13.13 12.5241 12.88 11.7341 12.88C10.9441 12.88 10.3241 13.13 9.86414 13.62C9.40414 14.11 9.17414 14.73 9.17414 15.48C9.17414 16.23 9.40414 16.86 9.86414 17.35ZM10.8141 14.39C11.0441 14.09 11.3441 13.94 11.7341 13.94C12.1241 13.94 12.4241 14.09 12.6541 14.39C12.8841 14.68 12.9941 15.05 12.9941 15.48C12.9941 15.91 12.8841 16.28 12.6541 16.58C12.4241 16.87 12.1241 17.02 11.7341 17.02C11.3441 17.02 11.0441 16.87 10.8141 16.58C10.5841 16.28 10.4741 15.91 10.4741 15.48C10.4741 15.05 10.5841 14.68 10.8141 14.39ZM17.9123 18.08C19.3923 18.08 20.2123 17.07 20.2123 15.48C20.2123 13.89 19.3923 12.88 17.9123 12.88C17.4223 12.88 16.9223 13.13 16.6923 13.42V10.92H15.4523V18H16.6923V17.48C16.8523 17.77 17.3423 18.08 17.9123 18.08ZM18.5823 16.61C18.3623 16.88 18.0823 17.02 17.7423 17.02C17.4023 17.02 17.1223 16.89 16.9023 16.62C16.6923 16.35 16.5823 15.97 16.5823 15.48C16.5823 14.99 16.6923 14.62 16.9023 14.35C17.1223 14.08 17.4023 13.94 17.7423 13.94C18.0823 13.94 18.3623 14.08 18.5823 14.35C18.8023 14.62 18.9123 15 18.9123 15.48C18.9123 15.96 18.8023 16.34 18.5823 16.61ZM23.8303 18.08C25.3103 18.08 26.1303 17.07 26.1303 15.48C26.1303 13.89 25.3103 12.88 23.8303 12.88C23.3403 12.88 22.8403 13.13 22.6103 13.42V10.92H21.3703V18H22.6103V17.48C22.7703 17.77 23.2603 18.08 23.8303 18.08ZM24.5003 16.61C24.2803 16.88 24.0003 17.02 23.6603 17.02C23.3203 17.02 23.0403 16.89 22.8203 16.62C22.6103 16.35 22.5003 15.97 22.5003 15.48C22.5003 14.99 22.6103 14.62 22.8203 14.35C23.0403 14.08 23.3203 13.94 23.6603 13.94C24.0003 13.94 24.2803 14.08 24.5003 14.35C24.7203 14.62 24.8303 15 24.8303 15.48C24.8303 15.96 24.7203 16.34 24.5003 16.61ZM28.3385 17.68L27.4685 20.04H28.6685L31.2685 12.96H30.0285L28.9285 16.12L27.7585 12.96H26.5085L28.3385 17.68Z" fill="white"/>
<path id="hover" d="M61.6974 10.9922C61.7365 10.9531 61.7755 10.9336 61.8537 10.9336C61.9122 10.9336 61.9708 10.9531 62.0294 10.9922L66.1115 15.0938C66.1505 15.1328 66.1896 15.1914 66.1896 15.25C66.1896 15.3281 66.1505 15.3672 66.1115 15.4062L62.0294 19.5078C61.9708 19.5469 61.9122 19.5664 61.8537 19.5664C61.7755 19.5664 61.7365 19.5469 61.6974 19.5078L61.3068 19.1172C61.2482 19.0781 61.2287 19.0391 61.2287 18.9609C61.2287 18.9023 61.2482 18.8438 61.3068 18.7852L64.8419 15.25L61.3068 11.7148C61.2482 11.6758 61.2287 11.6172 61.2287 11.5391C61.2287 11.4805 61.2482 11.4219 61.3068 11.3828L61.6974 10.9922Z" fill="none"/>
</svg>
