<svg width="73" height="30" viewBox="0 0 73 30" fill="none" xmlns="http://www.w3.org/2000/svg">
<rect id="state" x="0.5" y="0.5" width="72" height="28" rx="4.5" stroke="white"/>
<path d="M8.31 12.88C7.84 12.88 7.45 13.02 7.15 13.31C6.85 13.6 6.7 13.94 6.7 14.35C6.7 15.07 7.08 15.44 7.72 15.71C7.91 15.79 8.26 15.9 8.43 15.98C8.52 16.01 8.62 16.05 8.71 16.1C8.9 16.19 8.98 16.32 8.98 16.48C8.98 16.84 8.77 17.02 8.36 17.02C7.89 17.02 7.55 16.74 7.35 16.19L6.36 16.72C6.51 17.08 6.76 17.4 7.11 17.67C7.46 17.94 7.88 18.08 8.36 18.08C8.89 18.08 9.32 17.92 9.65 17.59C9.98 17.26 10.15 16.87 10.15 16.4C10.15 16.05 9.99 15.75 9.84 15.58C9.77 15.49 9.65 15.41 9.48 15.32C9.32 15.23 9.2 15.16 9.12 15.13L8.69 14.98L8.33 14.85C8.01 14.73 7.85 14.57 7.85 14.36C7.85 14.09 8.06 13.94 8.31 13.94C8.64 13.94 8.92 14.09 9.15 14.38L9.89 13.7C9.57 13.21 8.98 12.88 8.31 12.88ZM15.5817 12.96H14.3417V14.97C14.3417 16.24 13.8317 17.02 13.1917 17.02C12.7117 17.02 12.4717 16.74 12.4717 16.19V12.96H11.2317V16.56C11.2317 17.55 11.8517 18.08 12.7817 18.08C13.4117 18.08 13.9317 17.78 14.3417 17.19V18H15.5817V12.96ZM16.9563 18H18.1963V15.99C18.1963 14.72 18.7063 13.94 19.3463 13.94C19.8263 13.94 20.0663 14.22 20.0663 14.77V18H21.3063V14.4C21.3063 13.41 20.6863 12.88 19.7563 12.88C19.1263 12.88 18.6063 13.18 18.1963 13.77V12.96H16.9563V18ZM22.9854 14.02V18H24.2254V14.02H25.2854V12.96H24.2254V12.61C24.2254 12.19 24.4154 11.98 24.7954 11.98H26.2554V18H27.4954V10.92H24.7254C23.6454 10.92 22.9854 11.51 22.9854 12.7V12.96H22.3454V14.02H22.9854ZM29.3759 17.35C29.8359 17.84 30.4559 18.08 31.2459 18.08C32.0359 18.08 32.6559 17.84 33.1159 17.35C33.5759 16.86 33.8059 16.23 33.8059 15.48C33.8059 14.73 33.5759 14.11 33.1159 13.62C32.6559 13.13 32.0359 12.88 31.2459 12.88C30.4559 12.88 29.8359 13.13 29.3759 13.62C28.9159 14.11 28.6859 14.73 28.6859 15.48C28.6859 16.23 28.9159 16.86 29.3759 17.35ZM30.3259 14.39C30.5559 14.09 30.8559 13.94 31.2459 13.94C31.6359 13.94 31.9359 14.09 32.1659 14.39C32.3959 14.68 32.5059 15.05 32.5059 15.48C32.5059 15.91 32.3959 16.28 32.1659 16.58C31.9359 16.87 31.6359 17.02 31.2459 17.02C30.8559 17.02 30.5559 16.87 30.3259 16.58C30.0959 16.28 29.9859 15.91 29.9859 15.48C29.9859 15.05 30.0959 14.68 30.3259 14.39ZM39.4338 16.42L38.5838 12.96H37.4238L36.5738 16.42L35.6738 12.96H34.4238L36.0338 18H37.1338L38.0038 14.74L38.8738 18H39.9738L41.5838 12.96H40.3338L39.4338 16.42ZM46.9422 15.37C46.9422 14.8 46.7622 14.21 46.4022 13.72C46.0422 13.21 45.3922 12.88 44.5922 12.88C42.8622 12.88 42.1722 14.28 42.1722 15.48C42.1722 16.68 42.8622 18.08 44.5922 18.08C45.6922 18.08 46.4522 17.59 46.8822 16.61L45.8822 16.24C45.5822 16.76 45.1722 17.02 44.6622 17.02C43.9422 17.02 43.5022 16.49 43.4722 15.88H46.9422V15.37ZM44.5922 13.94C45.1722 13.94 45.5322 14.26 45.6722 14.9H43.5022C43.5922 14.37 44.0022 13.94 44.5922 13.94ZM49.2998 16.21C49.2998 14.68 49.8598 13.99 50.6498 13.99C50.8398 13.99 51.0198 14.04 51.1698 14.13L51.3998 12.98C51.1798 12.91 50.9798 12.88 50.7898 12.88C50.1998 12.88 49.6598 13.21 49.2998 13.78V12.96H48.0598V18H49.2998V16.21ZM53.7885 12.88C53.3185 12.88 52.9285 13.02 52.6285 13.31C52.3285 13.6 52.1785 13.94 52.1785 14.35C52.1785 15.07 52.5585 15.44 53.1985 15.71C53.3885 15.79 53.7385 15.9 53.9085 15.98C53.9985 16.01 54.0985 16.05 54.1885 16.1C54.3785 16.19 54.4585 16.32 54.4585 16.48C54.4585 16.84 54.2485 17.02 53.8385 17.02C53.3685 17.02 53.0285 16.74 52.8285 16.19L51.8385 16.72C51.9885 17.08 52.2385 17.4 52.5885 17.67C52.9385 17.94 53.3585 18.08 53.8385 18.08C54.3685 18.08 54.7985 17.92 55.1285 17.59C55.4585 17.26 55.6285 16.87 55.6285 16.4C55.6285 16.05 55.4685 15.75 55.3185 15.58C55.2485 15.49 55.1285 15.41 54.9585 15.32C54.7985 15.23 54.6785 15.16 54.5985 15.13L54.1685 14.98L53.8085 14.85C53.4885 14.73 53.3285 14.57 53.3285 14.36C53.3285 14.09 53.5385 13.94 53.7885 13.94C54.1185 13.94 54.3985 14.09 54.6285 14.38L55.3685 13.7C55.0485 13.21 54.4585 12.88 53.7885 12.88Z" fill="white"/>
<path id="hover" d="M61.6974 10.9922C61.7365 10.9531 61.7755 10.9336 61.8537 10.9336C61.9122 10.9336 61.9708 10.9531 62.0294 10.9922L66.1115 15.0938C66.1505 15.1328 66.1896 15.1914 66.1896 15.25C66.1896 15.3281 66.1505 15.3672 66.1115 15.4062L62.0294 19.5078C61.9708 19.5469 61.9122 19.5664 61.8537 19.5664C61.7755 19.5664 61.7365 19.5469 61.6974 19.5078L61.3068 19.1172C61.2482 19.0781 61.2287 19.0391 61.2287 18.9609C61.2287 18.9023 61.2482 18.8438 61.3068 18.7852L64.8419 15.25L61.3068 11.7148C61.2482 11.6758 61.2287 11.6172 61.2287 11.5391C61.2287 11.4805 61.2482 11.4219 61.3068 11.3828L61.6974 10.9922Z" fill="none"/>
</svg>
