<svg width="69" height="63" viewBox="0 0 69 63" fill="none" xmlns="http://www.w3.org/2000/svg">
<path d="M8.55679 35.3884C5.32636 32.7138 2.84727 29.1849 1.41627 25.2404L5.47037 26.3267C5.92103 29.4855 6.89534 32.6519 8.55679 35.3884ZM0.691706 22.8597C-0.157822 19.4342 -0.249894 15.7721 0.5551 12.1195L6.14836 13.6191C5.29366 17.2202 5.01141 20.7685 5.23518 24.0779L0.691706 22.8597ZM40.5303 33.5413L35.9868 32.3231C37.8295 29.5687 39.3531 26.3525 40.4071 22.8042L45.9997 24.303C44.8776 27.8717 42.9726 30.9977 40.5303 33.5413ZM33.8347 31.7458L26.8325 29.869C28.0234 26.9504 29.1577 23.6259 30.1519 20.0544L38.3706 22.2583C37.3001 25.842 35.73 29.0558 33.8347 31.7458ZM24.7835 29.3194L16.4391 27.0824C16.8478 23.981 17.5161 20.5294 18.4415 16.915L28.1154 19.5085C27.1158 23.1025 25.9738 26.4286 24.7835 29.3194ZM14.3892 26.5334L7.38788 24.656C7.08562 21.3755 7.32739 17.8069 8.18542 14.1658L16.405 16.3691C15.4865 19.9612 14.8138 23.4083 14.3892 26.5334ZM7.69103 26.9235L14.1342 28.651C13.8144 31.7526 13.5976 35.5891 14.3829 38.5942C10.5155 36.0553 8.47348 31.3585 7.69103 26.9235ZM16.1938 29.2031L23.9395 31.2787C23.0469 33.2596 19.4959 40.5286 17.4651 39.9837C15.4315 39.4383 15.9822 31.3666 16.1938 29.2031ZM25.9982 31.8315L32.4437 33.5586C29.5586 37.01 25.4406 40.0558 20.8289 40.3222C23.0065 38.1109 24.7311 34.6786 25.9982 31.8315ZM34.6623 34.1543L38.7164 35.2405C35.507 37.9461 31.6124 39.7575 27.4741 40.4599C30.2751 38.9221 32.7016 36.665 34.6623 34.1543Z" fill="white"/>
<path d="M60.4432 5.07144C63.6736 7.74605 66.1527 11.2749 67.5837 15.2194L63.5296 14.1331C63.079 10.9744 62.1047 7.80792 60.4432 5.07144ZM68.3083 17.6002C69.1578 21.0257 69.2499 24.6878 68.4449 28.3404L62.8516 26.8408C63.7063 23.2396 63.9886 19.6913 63.7648 16.382L68.3083 17.6002ZM28.4697 6.91857L33.0132 8.13674C31.1705 10.8912 29.6469 14.1073 28.5929 17.6557L23.0003 16.1569C24.1224 12.5882 26.0274 9.46211 28.4697 6.91857ZM35.1653 8.71407L42.1675 10.5908C40.9766 13.5095 39.8423 16.834 38.8481 20.4054L30.6294 18.2016C31.6999 14.6179 33.27 11.4041 35.1653 8.71407ZM44.2165 11.1404L52.5609 13.3775C52.1522 16.4789 51.4839 19.9304 50.5585 23.5449L40.8846 20.9513C41.8842 17.3573 43.0262 14.0312 44.2165 11.1404ZM54.6108 13.9265L61.6121 15.8038C61.9144 19.0843 61.6726 22.653 60.8146 26.294L52.595 24.0908C53.5135 20.4987 54.1862 17.0516 54.6108 13.9265ZM61.309 13.5364L54.8658 11.8089C55.1856 8.70725 55.4024 4.87076 54.6171 1.86565C58.4845 4.40459 60.5265 9.10137 61.309 13.5364ZM52.8062 11.2567L45.0605 9.18117C45.9531 7.2003 49.5041 -0.0687952 51.5348 0.476107C53.5685 1.02151 53.0178 9.09326 52.8062 11.2567ZM43.0018 8.62839L36.5563 6.90128C39.4414 3.44984 43.5594 0.404097 48.1711 0.137692C45.9935 2.34895 44.2689 5.7813 43.0018 8.62839ZM34.3377 6.30559L30.2836 5.21931C33.493 2.51375 37.3876 0.702315 41.5259 0C38.7249 1.53774 36.2984 3.79488 34.3377 6.30559Z" fill="white"/>
<path d="M6.01819 62.9561C4.82888 62.9561 3.7757 62.7066 2.85864 62.2076C1.95591 61.6935 1.25379 60.9829 0.752274 60.0756C0.250758 59.1533 0 58.0873 0 56.8776V52.6136C0 51.4342 0.250758 50.3909 0.752274 49.4837C1.25379 48.5764 1.95591 47.8733 2.85864 47.3743C3.7757 46.8754 4.82888 46.6259 6.01819 46.6259C7.22183 46.6259 8.27502 46.8754 9.17775 47.3743C10.0948 47.8733 10.8041 48.5764 11.3056 49.4837C11.8071 50.3909 12.0579 51.4342 12.0579 52.6136V56.8776C12.0579 58.0873 11.8071 59.1533 11.3056 60.0756C10.8041 60.9829 10.0948 61.6935 9.17775 62.2076C8.27502 62.7066 7.22183 62.9561 6.01819 62.9561ZM6.01819 59.3045C6.62001 59.3045 7.10004 59.1004 7.45826 58.6921C7.83082 58.2687 8.01709 57.7093 8.01709 57.0137V52.5683C8.01709 51.8727 7.83082 51.3208 7.45826 50.9126C7.10004 50.4892 6.62001 50.2775 6.01819 50.2775C5.4307 50.2775 4.95068 50.4892 4.57813 50.9126C4.2199 51.3208 4.04079 51.8727 4.04079 52.5683V57.0137C4.04079 57.7093 4.2199 58.2687 4.57813 58.6921C4.95068 59.1004 5.4307 59.3045 6.01819 59.3045Z" fill="white"/>
<path d="M20.7003 50.8899C20.8006 50.8899 20.8794 50.9201 20.9367 50.9806C20.994 51.0411 21.0227 51.1242 21.0227 51.2301V53.9518C21.0227 54.0576 20.994 54.1408 20.9367 54.2013C20.8794 54.2618 20.8006 54.292 20.7003 54.292H18.8089C18.7372 54.292 18.7014 54.3298 18.7014 54.4054V62.3437C18.7014 62.4496 18.6727 62.5327 18.6154 62.5932C18.5581 62.6537 18.4793 62.6839 18.379 62.6839H14.983C14.8827 62.6839 14.8039 62.6537 14.7466 62.5932C14.6893 62.5327 14.6606 62.4496 14.6606 62.3437V54.4054C14.6606 54.3298 14.6248 54.292 14.5531 54.292H13.457C13.3567 54.292 13.2779 54.2618 13.2205 54.2013C13.1632 54.1408 13.1346 54.0576 13.1346 53.9518V51.2301C13.1346 51.1242 13.1632 51.0411 13.2205 50.9806C13.2779 50.9201 13.3567 50.8899 13.457 50.8899H14.5531C14.6248 50.8899 14.6606 50.8521 14.6606 50.7765V50.0734C14.6606 48.9091 14.9687 48.0699 15.5848 47.5558C16.2153 47.0417 17.247 46.7846 18.6799 46.7846C19.0381 46.7846 19.3104 46.7922 19.4967 46.8073H20.3994C20.4997 46.8073 20.5785 46.8376 20.6358 46.898C20.6931 46.9585 20.7218 47.0417 20.7218 47.1475V49.3022C20.7218 49.4081 20.6931 49.4912 20.6358 49.5517C20.5785 49.6122 20.4997 49.6424 20.3994 49.6424H19.4967C19.2101 49.6727 19.0023 49.7558 18.8734 49.8919C18.7587 50.0129 18.7014 50.2019 18.7014 50.4589V50.7765C18.7014 50.8521 18.7372 50.8899 18.8089 50.8899H20.7003Z" fill="white"/>
<path d="M29.453 50.8899C29.5534 50.8899 29.6322 50.9201 29.6895 50.9806C29.7468 51.0411 29.7754 51.1242 29.7754 51.2301V53.9518C29.7754 54.0576 29.7468 54.1408 29.6895 54.2013C29.6322 54.2618 29.5534 54.292 29.453 54.292H27.5616C27.49 54.292 27.4541 54.3298 27.4541 54.4054V62.3437C27.4541 62.4496 27.4255 62.5327 27.3682 62.5932C27.3109 62.6537 27.232 62.6839 27.1317 62.6839H23.7358C23.6355 62.6839 23.5566 62.6537 23.4993 62.5932C23.442 62.5327 23.4134 62.4496 23.4134 62.3437V54.4054C23.4134 54.3298 23.3775 54.292 23.3059 54.292H22.2097C22.1094 54.292 22.0306 54.2618 21.9733 54.2013C21.916 54.1408 21.8873 54.0576 21.8873 53.9518V51.2301C21.8873 51.1242 21.916 51.0411 21.9733 50.9806C22.0306 50.9201 22.1094 50.8899 22.2097 50.8899H23.3059C23.3775 50.8899 23.4134 50.8521 23.4134 50.7765V50.0734C23.4134 48.9091 23.7214 48.0699 24.3376 47.5558C24.9681 47.0417 25.9997 46.7846 27.4327 46.7846C27.7909 46.7846 28.0631 46.7922 28.2494 46.8073H29.1521C29.2524 46.8073 29.3312 46.8376 29.3886 46.898C29.4459 46.9585 29.4745 47.0417 29.4745 47.1475V49.3022C29.4745 49.4081 29.4459 49.4912 29.3886 49.5517C29.3312 49.6122 29.2524 49.6424 29.1521 49.6424H28.2494C27.9628 49.6727 27.7551 49.7558 27.6261 49.8919C27.5115 50.0129 27.4541 50.2019 27.4541 50.4589V50.7765C27.4541 50.8521 27.49 50.8899 27.5616 50.8899H29.453Z" fill="white"/>
<path d="M36.7872 62.8654C35.6122 62.8654 34.5734 62.6159 33.6707 62.1169C32.7823 61.6179 32.0873 60.9148 31.5858 60.0076C31.0986 59.1004 30.855 58.057 30.855 56.8776V52.5909C30.855 51.4115 31.0986 50.3758 31.5858 49.4837C32.0873 48.5764 32.7823 47.8733 33.6707 47.3743C34.5734 46.8754 35.6122 46.6259 36.7872 46.6259C37.9335 46.6259 38.9581 46.8678 39.8608 47.3517C40.7635 47.8204 41.4585 48.463 41.9457 49.2795C42.4472 50.096 42.6979 50.9882 42.6979 51.9559V51.9786C42.6979 52.0844 42.6693 52.1676 42.612 52.228C42.5547 52.2885 42.4758 52.3188 42.3755 52.3188H39.0011C38.7861 52.3188 38.6786 52.2507 38.6786 52.1146C38.6786 51.6157 38.5067 51.1847 38.1628 50.8218C37.8332 50.4589 37.3747 50.2775 36.7872 50.2775C36.2141 50.2775 35.7555 50.4816 35.4116 50.8899C35.0677 51.283 34.8958 51.8122 34.8958 52.4775V57.0137C34.8958 57.6639 35.0892 58.1931 35.4761 58.6014C35.8773 59.0096 36.3717 59.2138 36.9592 59.2138C37.4893 59.2138 37.9192 59.0626 38.2488 58.7601C38.5927 58.4426 38.7646 58.0117 38.7646 57.4673V57.1725C38.7646 57.0969 38.7288 57.0591 38.6572 57.0591H36.7657C36.6654 57.0591 36.5866 57.0288 36.5293 56.9684C36.472 56.9079 36.4433 56.8247 36.4433 56.7189V53.9972C36.4433 53.8913 36.472 53.8082 36.5293 53.7477C36.5866 53.6872 36.6654 53.6569 36.7657 53.6569H42.3755C42.4758 53.6569 42.5547 53.6872 42.612 53.7477C42.6693 53.8082 42.6979 53.8913 42.6979 53.9972V57.1044C42.6979 58.2234 42.4472 59.2213 41.9457 60.0983C41.4585 60.9753 40.7635 61.6557 39.8608 62.1396C38.9724 62.6235 37.9479 62.8654 36.7872 62.8654Z" fill="white"/>
<path d="M50.3352 50.7311C50.8224 50.7311 51.2093 50.8294 51.4959 51.026C51.6248 51.1016 51.675 51.2452 51.6463 51.4569L51.1305 54.9498C51.1161 55.0707 51.0732 55.1463 51.0015 55.1766C50.9442 55.2068 50.8582 55.2068 50.7436 55.1766C50.4857 55.1161 50.2564 55.0858 50.0558 55.0858C49.8409 55.0858 49.6402 55.1085 49.454 55.1539C49.0814 55.2295 48.759 55.3958 48.4868 55.6529C48.2288 55.8948 48.0999 56.2274 48.0999 56.6508V62.3437C48.0999 62.4496 48.0712 62.5327 48.0139 62.5932C47.9566 62.6537 47.8778 62.6839 47.7775 62.6839H44.3815C44.2812 62.6839 44.2024 62.6537 44.1451 62.5932C44.0877 62.5327 44.0591 62.4496 44.0591 62.3437V51.2301C44.0591 51.1242 44.0877 51.0411 44.1451 50.9806C44.2024 50.9201 44.2812 50.8899 44.3815 50.8899H47.7775C47.8778 50.8899 47.9566 50.9201 48.0139 50.9806C48.0712 51.0411 48.0999 51.1242 48.0999 51.2301V51.7744C48.0999 51.8198 48.1142 51.85 48.1429 51.8652C48.1715 51.8803 48.193 51.8727 48.2073 51.8425C48.7518 51.1016 49.4611 50.7311 50.3352 50.7311Z" fill="white"/>
<path d="M54.6228 50.096C54.0353 50.096 53.5482 49.8995 53.1613 49.5063C52.7887 49.0981 52.6024 48.584 52.6024 47.964C52.6024 47.329 52.7887 46.8149 53.1613 46.4217C53.5482 46.0286 54.0353 45.832 54.6228 45.832C55.2103 45.832 55.6903 46.0286 56.0629 46.4217C56.4498 46.8149 56.6432 47.329 56.6432 47.964C56.6432 48.5689 56.4498 49.0754 56.0629 49.4837C55.6903 49.8919 55.2103 50.096 54.6228 50.096ZM52.9033 62.6839C52.803 62.6839 52.7242 62.6537 52.6669 62.5932C52.6096 62.5327 52.5809 62.4496 52.5809 62.3437V51.2301C52.5809 51.1242 52.6096 51.0411 52.6669 50.9806C52.7242 50.9201 52.803 50.8899 52.9033 50.8899H56.2993C56.3996 50.8899 56.4784 50.9201 56.5358 50.9806C56.5931 51.0411 56.6217 51.1242 56.6217 51.2301V62.3437C56.6217 62.4496 56.5931 62.5327 56.5358 62.5932C56.4784 62.6537 56.3996 62.6839 56.2993 62.6839H52.9033Z" fill="white"/>
<path d="M64.9592 47.1475C64.9592 47.0417 64.9879 46.9585 65.0452 46.898C65.1025 46.8376 65.1813 46.8073 65.2816 46.8073H68.6776C68.7779 46.8073 68.8567 46.8376 68.914 46.898C68.9713 46.9585 69 47.0417 69 47.1475V62.3437C69 62.4496 68.9713 62.5327 68.914 62.5932C68.8567 62.6537 68.7779 62.6839 68.6776 62.6839H65.2816C65.1813 62.6839 65.1025 62.6537 65.0452 62.5932C64.9879 62.5327 64.9592 62.4496 64.9592 62.3437V61.6633C64.9592 61.6179 64.9449 61.5877 64.9162 61.5726C64.8876 61.5575 64.8589 61.5726 64.8303 61.6179C64.3001 62.4496 63.469 62.8654 62.337 62.8654C61.377 62.8654 60.51 62.5479 59.7363 61.9128C58.9768 61.2626 58.4395 60.3856 58.1243 59.2818C57.9093 58.5258 57.8019 57.679 57.8019 56.7415C57.8019 55.6529 57.9595 54.6851 58.2747 53.8384C58.6186 52.916 59.156 52.1676 59.8867 51.593C60.6175 51.0033 61.4916 50.7084 62.5089 50.7084C63.555 50.7084 64.3287 51.0562 64.8303 51.7517C64.8589 51.782 64.8876 51.7971 64.9162 51.7971C64.9449 51.782 64.9592 51.7517 64.9592 51.7064V47.1475ZM64.6368 58.4426C64.8517 58.0041 64.9592 57.4598 64.9592 56.8096C64.9592 56.0838 64.8446 55.5017 64.6153 55.0632C64.3574 54.5944 63.9848 54.3601 63.4977 54.3601C62.9818 54.3601 62.6021 54.6095 62.3585 55.1085C62.1436 55.5319 62.0361 56.0989 62.0361 56.8096C62.0361 57.49 62.1436 58.0419 62.3585 58.4653C62.6164 58.9643 62.9961 59.2138 63.4977 59.2138C63.9992 59.2138 64.3789 58.9567 64.6368 58.4426Z" fill="white"/>
</svg>
