<svg width="617" height="102" viewBox="0 0 617 102" fill="none" xmlns="http://www.w3.org/2000/svg">
<path d="M475.02 88.6266C467.462 82.3817 461.662 74.1424 458.314 64.9326L467.799 67.4689C468.853 74.8441 471.133 82.2373 475.02 88.6266ZM456.618 59.3739C454.631 51.3758 454.415 42.8253 456.299 34.2971L469.385 37.7985C467.386 46.2066 466.725 54.4914 467.249 62.2182L456.618 59.3739ZM549.829 84.3138L539.199 81.4695C543.51 75.0383 547.075 67.5291 549.541 59.2443L562.626 62.7437C560 71.0761 555.543 78.375 549.829 84.3138ZM534.163 80.1216L517.78 75.7396C520.566 68.925 523.22 61.1628 525.546 52.824L544.776 57.9696C542.271 66.3371 538.598 73.8408 534.163 80.1216ZM512.986 74.4564L493.463 69.2333C494.419 61.9919 495.983 53.9331 498.148 45.4939L520.782 51.5494C518.443 59.9409 515.771 67.7068 512.986 74.4564ZM488.667 67.9514L472.285 63.5681C471.578 55.9086 472.144 47.5763 474.151 39.0751L493.383 44.2193C491.234 52.6064 489.66 60.6547 488.667 67.9514ZM472.995 68.8623L488.07 72.8956C487.322 80.1375 486.814 89.0951 488.652 96.1116C479.603 90.1836 474.825 79.2173 472.995 68.8623ZM492.889 74.1849L511.011 79.031C508.923 83.656 500.615 100.628 495.863 99.356C491.105 98.0825 492.394 79.2362 492.889 74.1849ZM515.828 80.3216L530.909 84.3542C524.158 92.4128 514.524 99.5241 503.733 100.146C508.828 94.9832 512.863 86.9692 515.828 80.3216ZM536.1 85.745L545.585 88.2813C538.076 94.5984 528.964 98.8278 519.281 100.468C525.835 96.8772 531.512 91.6071 536.1 85.745Z" fill="white"/>
<path d="M596.419 17.841C603.978 24.0859 609.778 32.3252 613.126 41.535L603.641 38.9987C602.586 31.6235 600.307 24.2303 596.419 17.841ZM614.821 47.0937C616.809 55.0918 617.024 63.6423 615.141 72.1705L602.054 68.6691C604.054 60.261 604.714 51.9762 604.191 44.2494L614.821 47.0937ZM521.611 22.1538L532.241 24.9981C527.93 31.4293 524.365 38.9385 521.899 47.2233L508.814 43.7239C511.439 35.3915 515.897 28.0926 521.611 22.1538ZM537.276 26.346L553.659 30.728C550.873 37.5426 548.219 45.3048 545.893 53.6436L526.664 48.498C529.168 40.1305 532.842 32.6268 537.276 26.346ZM558.454 32.0112L577.977 37.2343C577.021 44.4757 575.457 52.5345 573.292 60.9737L550.658 54.9182C552.997 46.5267 555.669 38.7608 558.454 32.0112ZM582.773 38.5162L599.154 42.8995C599.861 50.559 599.296 58.8913 597.288 67.3925L578.057 62.2483C580.206 53.8612 581.78 45.8129 582.773 38.5162ZM598.445 37.6053L583.37 33.572C584.118 26.3301 584.625 17.3725 582.788 10.356C591.837 16.284 596.614 27.2503 598.445 37.6053ZM578.551 32.2827L560.428 27.4366C562.517 22.8116 570.825 5.83937 575.576 7.11164C580.334 8.38507 579.046 27.2314 578.551 32.2827ZM555.611 26.146L540.531 22.1134C547.281 14.0548 556.916 6.94351 567.706 6.32149C562.611 11.4844 558.576 19.4985 555.611 26.146ZM535.34 20.7226L525.855 18.1863C533.364 11.8692 542.476 7.6398 552.158 6C545.605 9.5904 539.928 14.8605 535.34 20.7226Z" fill="white"/>
<path d="M37.8273 101.85C30.3628 101.85 23.7527 100.366 17.9969 97.3981C12.3311 94.3404 7.92437 90.1135 4.77669 84.7175C1.62901 79.2315 0.0551758 72.8912 0.0551758 65.6965V40.3352C0.0551758 33.3204 1.62901 27.115 4.77669 21.719C7.92437 16.323 12.3311 12.141 17.9969 9.17323C23.7527 6.20542 30.3628 4.72152 37.8273 4.72152C45.3817 4.72152 51.9918 6.20542 57.6577 9.17323C63.4134 12.141 67.8651 16.323 71.0128 21.719C74.1605 27.115 75.7343 33.3204 75.7343 40.3352V65.6965C75.7343 72.8912 74.1605 79.2315 71.0128 84.7175C67.8651 90.1135 63.4134 94.3404 57.6577 97.3981C51.9918 100.366 45.3817 101.85 37.8273 101.85ZM37.8273 80.1309C41.6045 80.1309 44.6173 78.9168 46.8656 76.4886C49.2039 73.9704 50.373 70.6429 50.373 66.5059V40.0654C50.373 35.9285 49.2039 32.6459 46.8656 30.2177C44.6173 27.6996 41.6045 26.4405 37.8273 26.4405C34.14 26.4405 31.1272 27.6996 28.789 30.2177C26.5406 32.6459 25.4165 35.9285 25.4165 40.0654V66.5059C25.4165 70.6429 26.5406 73.9704 28.789 76.4886C31.1272 78.9168 34.14 80.1309 37.8273 80.1309Z" fill="white"/>
<path d="M129.977 30.0828C130.606 30.0828 131.101 30.2627 131.461 30.6224C131.821 30.9821 132 31.4768 132 32.1063V48.2944C132 48.9239 131.821 49.4185 131.461 49.7783C131.101 50.138 130.606 50.3179 129.977 50.3179H118.106C117.656 50.3179 117.431 50.5427 117.431 50.9924V98.2075C117.431 98.8371 117.251 99.3317 116.892 99.6914C116.532 100.051 116.037 100.231 115.408 100.231H94.0934C93.4639 100.231 92.9693 100.051 92.6095 99.6914C92.2498 99.3317 92.0699 98.8371 92.0699 98.2075V50.9924C92.0699 50.5427 91.8451 50.3179 91.3954 50.3179H84.5155C83.886 50.3179 83.3913 50.138 83.0316 49.7783C82.6719 49.4185 82.492 48.9239 82.492 48.2944V32.1063C82.492 31.4768 82.6719 30.9821 83.0316 30.6224C83.3913 30.2627 83.886 30.0828 84.5155 30.0828H91.3954C91.8451 30.0828 92.0699 29.858 92.0699 29.4083V25.2264C92.0699 18.3015 94.0035 13.3102 97.8706 10.2524C101.828 7.19469 108.303 5.66582 117.296 5.66582C119.545 5.66582 121.253 5.71078 122.423 5.80072H128.088C128.718 5.80072 129.213 5.98059 129.572 6.34032C129.932 6.70006 130.112 7.19469 130.112 7.82422V20.6398C130.112 21.2693 129.932 21.7639 129.572 22.1237C129.213 22.4834 128.718 22.6633 128.088 22.6633H122.423C120.624 22.8431 119.32 23.3378 118.51 24.1472C117.791 24.8666 117.431 25.9908 117.431 27.5197V29.4083C117.431 29.858 117.656 30.0828 118.106 30.0828H129.977Z" fill="white"/>
<path d="M184.912 30.0828C185.542 30.0828 186.036 30.2627 186.396 30.6224C186.756 30.9821 186.935 31.4768 186.935 32.1063V48.2944C186.935 48.9239 186.756 49.4185 186.396 49.7783C186.036 50.138 185.542 50.3179 184.912 50.3179H173.041C172.591 50.3179 172.366 50.5427 172.366 50.9924V98.2075C172.366 98.8371 172.186 99.3317 171.827 99.6914C171.467 100.051 170.972 100.231 170.343 100.231H149.028C148.399 100.231 147.904 100.051 147.545 99.6914C147.185 99.3317 147.005 98.8371 147.005 98.2075V50.9924C147.005 50.5427 146.78 50.3179 146.33 50.3179H139.451C138.821 50.3179 138.326 50.138 137.967 49.7783C137.607 49.4185 137.427 48.9239 137.427 48.2944V32.1063C137.427 31.4768 137.607 30.9821 137.967 30.6224C138.326 30.2627 138.821 30.0828 139.451 30.0828H146.33C146.78 30.0828 147.005 29.858 147.005 29.4083V25.2264C147.005 18.3015 148.939 13.3102 152.806 10.2524C156.763 7.19469 163.238 5.66582 172.231 5.66582C174.48 5.66582 176.188 5.71078 177.358 5.80072H183.023C183.653 5.80072 184.148 5.98059 184.507 6.34032C184.867 6.70006 185.047 7.19469 185.047 7.82422V20.6398C185.047 21.2693 184.867 21.7639 184.507 22.1237C184.148 22.4834 183.653 22.6633 183.023 22.6633H177.358C175.559 22.8431 174.255 23.3378 173.445 24.1472C172.726 24.8666 172.366 25.9908 172.366 27.5197V29.4083C172.366 29.858 172.591 30.0828 173.041 30.0828H184.912Z" fill="white"/>
<path d="M230.944 101.31C223.569 101.31 217.049 99.8263 211.383 96.8585C205.807 93.8907 201.445 89.7088 198.298 84.3128C195.24 78.9168 193.711 72.7113 193.711 65.6965V40.2003C193.711 33.1855 195.24 27.0251 198.298 21.719C201.445 16.323 205.807 12.141 211.383 9.17323C217.049 6.20542 223.569 4.72152 230.944 4.72152C238.138 4.72152 244.569 6.16046 250.234 9.03833C255.9 11.8263 260.262 15.6484 263.32 20.5049C266.467 25.3613 268.041 30.6674 268.041 36.4231V36.558C268.041 37.1876 267.861 37.6822 267.502 38.0419C267.142 38.4017 266.647 38.5815 266.018 38.5815H244.838C243.489 38.5815 242.815 38.1768 242.815 37.3674C242.815 34.3996 241.736 31.8365 239.577 29.6781C237.509 27.5197 234.631 26.4405 230.944 26.4405C227.346 26.4405 224.468 27.6546 222.31 30.0828C220.152 32.4211 219.072 35.5687 219.072 39.5258V66.5059C219.072 70.3731 220.286 73.5207 222.715 75.9489C225.233 78.3772 228.336 79.5913 232.023 79.5913C235.35 79.5913 238.048 78.6919 240.117 76.8932C242.275 75.0046 243.354 72.4415 243.354 69.2039V67.4502C243.354 67.0006 243.13 66.7757 242.68 66.7757H230.809C230.179 66.7757 229.685 66.5958 229.325 66.2361C228.965 65.8764 228.785 65.3817 228.785 64.7522V48.5642C228.785 47.9346 228.965 47.44 229.325 47.0803C229.685 46.7205 230.179 46.5407 230.809 46.5407H266.018C266.647 46.5407 267.142 46.7205 267.502 47.0803C267.861 47.44 268.041 47.9346 268.041 48.5642V67.0455C268.041 73.7006 266.467 79.6362 263.32 84.8524C260.262 90.0685 255.9 94.1155 250.234 96.9934C244.658 99.8713 238.228 101.31 230.944 101.31Z" fill="white"/>
<path d="M315.975 29.1385C319.033 29.1385 321.461 29.7231 323.26 30.8922C324.069 31.3419 324.384 32.1962 324.204 33.4553L320.966 54.23C320.876 54.9494 320.607 55.3991 320.157 55.579C319.797 55.7589 319.258 55.7589 318.538 55.579C316.919 55.2193 315.48 55.0394 314.221 55.0394C312.872 55.0394 311.613 55.1743 310.444 55.4441C308.106 55.8937 306.082 56.883 304.374 58.4119C302.755 59.8508 301.945 61.8294 301.945 64.3475V98.2075C301.945 98.8371 301.766 99.3317 301.406 99.6914C301.046 100.051 300.552 100.231 299.922 100.231H278.608C277.978 100.231 277.484 100.051 277.124 99.6914C276.764 99.3317 276.584 98.8371 276.584 98.2075V32.1063C276.584 31.4768 276.764 30.9821 277.124 30.6224C277.484 30.2627 277.978 30.0828 278.608 30.0828H299.922C300.552 30.0828 301.046 30.2627 301.406 30.6224C301.766 30.9821 301.945 31.4768 301.945 32.1063V35.3439C301.945 35.6137 302.035 35.7936 302.215 35.8835C302.395 35.9735 302.53 35.9285 302.62 35.7486C306.037 31.3419 310.489 29.1385 315.975 29.1385Z" fill="white"/>
<path d="M342.886 25.3613C339.198 25.3613 336.141 24.1921 333.712 21.8539C331.374 19.4257 330.205 16.3679 330.205 12.6806C330.205 8.90343 331.374 5.84569 333.712 3.50742C336.141 1.16914 339.198 0 342.886 0C346.573 0 349.586 1.16914 351.924 3.50742C354.352 5.84569 355.566 8.90343 355.566 12.6806C355.566 16.278 354.352 19.2908 351.924 21.719C349.586 24.1472 346.573 25.3613 342.886 25.3613ZM332.094 100.231C331.464 100.231 330.969 100.051 330.61 99.6914C330.25 99.3317 330.07 98.8371 330.07 98.2075V32.1063C330.07 31.4768 330.25 30.9821 330.61 30.6224C330.969 30.2627 331.464 30.0828 332.094 30.0828H353.408C354.037 30.0828 354.532 30.2627 354.892 30.6224C355.252 30.9821 355.431 31.4768 355.431 32.1063V98.2075C355.431 98.8371 355.252 99.3317 354.892 99.6914C354.532 100.051 354.037 100.231 353.408 100.231H332.094Z" fill="white"/>
<path d="M407.76 7.82422C407.76 7.19469 407.94 6.70006 408.3 6.34032C408.659 5.98059 409.154 5.80072 409.784 5.80072H431.098C431.727 5.80072 432.222 5.98059 432.582 6.34032C432.942 6.70006 433.121 7.19469 433.121 7.82422V98.2075C433.121 98.8371 432.942 99.3317 432.582 99.6914C432.222 100.051 431.727 100.231 431.098 100.231H409.784C409.154 100.231 408.659 100.051 408.3 99.6914C407.94 99.3317 407.76 98.8371 407.76 98.2075V94.1605C407.76 93.8907 407.67 93.7108 407.49 93.6209C407.31 93.531 407.131 93.6209 406.951 93.8907C403.623 98.8371 398.407 101.31 391.302 101.31C385.277 101.31 379.836 99.4216 374.979 95.6444C370.213 91.7773 366.84 86.5611 364.862 79.996C363.513 75.4993 362.838 70.463 362.838 64.8871C362.838 58.4119 363.828 52.6561 365.806 47.6199C367.964 42.1339 371.337 37.6822 375.924 34.2647C380.51 30.7573 385.996 29.0036 392.381 29.0036C398.947 29.0036 403.803 31.0721 406.951 35.209C407.131 35.3889 407.31 35.4788 407.49 35.4788C407.67 35.3889 407.76 35.209 407.76 34.9392V7.82422ZM405.737 75.0047C407.086 72.3966 407.76 69.159 407.76 65.2918C407.76 60.975 407.041 57.5126 405.602 54.9045C403.983 52.1165 401.645 50.7226 398.587 50.7226C395.349 50.7226 392.966 52.2065 391.437 55.1743C390.088 57.6924 389.414 61.0649 389.414 65.2918C389.414 69.3388 390.088 72.6214 391.437 75.1395C393.056 78.1074 395.439 79.5913 398.587 79.5913C401.735 79.5913 404.118 78.0624 405.737 75.0047Z" fill="white"/>
</svg>
