<svg width="71" height="41" viewBox="0 0 71 41" fill="none" xmlns="http://www.w3.org/2000/svg">
<path d="M8.80481 35.8609C5.48075 33.1505 2.9298 29.5746 1.45732 25.5774L5.62893 26.6782C6.09266 29.8791 7.09521 33.0878 8.80481 35.8609ZM0.711755 23.1649C-0.162396 19.6936 -0.257137 15.9826 0.571189 12.2813L6.32658 13.8009C5.4471 17.4501 5.15667 21.0458 5.38692 24.3993L0.711755 23.1649ZM41.7051 33.9891L37.0299 32.7546C38.926 29.9634 40.4938 26.7043 41.5783 23.1086L47.3331 24.6274C46.1784 28.2438 44.2181 31.4116 41.7051 33.9891ZM34.8154 32.1696L27.6103 30.2678C28.8357 27.3101 30.0029 23.9413 31.0258 20.3222L39.4828 22.5554C38.3813 26.187 36.7656 29.4437 34.8154 32.1696ZM25.5018 29.7108L16.9156 27.444C17.3361 24.3011 18.0239 20.8035 18.976 17.1408L28.9303 19.769C27.9018 23.411 26.7267 26.7815 25.5018 29.7108ZM14.8063 26.8876L7.60202 24.9852C7.291 21.6609 7.53977 18.0446 8.42268 14.355L16.8805 16.5876C15.9354 20.2277 15.2432 23.7208 14.8063 26.8876ZM7.91396 27.2829L14.5439 29.0334C14.2148 32.1765 13.9917 36.0642 14.7998 39.1094C10.8203 36.5366 8.71909 31.7771 7.91396 27.2829ZM16.6632 29.593L24.6334 31.6963C23.7149 33.7036 20.061 41.0697 17.9714 40.5175C15.8788 39.9649 16.4454 31.7853 16.6632 29.593ZM26.7518 32.2564L33.3841 34.0066C30.4153 37.5041 26.178 40.5905 21.4326 40.8605C23.6734 38.6197 25.4479 35.1415 26.7518 32.2564ZM35.667 34.6102L39.8386 35.711C36.5362 38.4527 32.5287 40.2883 28.2704 41C31.1526 39.4417 33.6495 37.1545 35.667 34.6102Z" fill="white"/>
<path d="M62.1952 5.13914C65.5192 7.84946 68.0702 11.4254 69.5427 15.4226L65.3711 14.3218C64.9073 11.1209 63.9048 7.91216 62.1952 5.13914ZM70.2882 17.8351C71.1624 21.3064 71.2571 25.0174 70.4288 28.7187L64.6734 27.1991C65.5529 23.5499 65.8433 19.9542 65.6131 16.6007L70.2882 17.8351ZM29.2949 7.01093L33.9701 8.24537C32.074 11.0366 30.5062 14.2957 29.4217 17.8914L23.6669 16.3726C24.8216 12.7562 26.7819 9.58843 29.2949 7.01093ZM36.1846 8.83041L43.3897 10.7322C42.1643 13.6899 40.9971 17.0587 39.9742 20.6778L31.5172 18.4446C32.6187 14.813 34.2344 11.5563 36.1846 8.83041ZM45.4982 11.2892L54.0844 13.556C53.6639 16.6989 52.9761 20.1965 52.024 23.8592L42.0697 21.231C43.0982 17.589 44.2733 14.2185 45.4982 11.2892ZM56.1937 14.1124L63.398 16.0148C63.709 19.3391 63.4602 22.9554 62.5773 26.645L54.1195 24.4124C55.0646 20.7723 55.7568 17.2792 56.1937 14.1124ZM63.086 13.7171L56.4561 11.9666C56.7852 8.82349 57.0083 4.93578 56.2002 1.89056C60.1797 4.46339 62.2809 9.22287 63.086 13.7171ZM54.3368 11.407L46.3666 9.30374C47.2851 7.29643 50.939 -0.0697137 53.0286 0.482463C55.1212 1.03515 54.5546 9.21466 54.3368 11.407ZM44.2482 8.74358L37.6159 6.99341C40.5847 3.49589 44.822 0.409492 49.5674 0.139531C47.3266 2.38031 45.5521 5.85848 44.2482 8.74358ZM35.333 6.38977L31.1614 5.28899C34.4638 2.54731 38.4713 0.711691 42.7295 0C39.8474 1.55827 37.3505 3.84555 35.333 6.38977Z" fill="white"/>
</svg>
