<svg width="129" height="30" viewBox="0 0 129 30" fill="none" xmlns="http://www.w3.org/2000/svg">
<rect id="state" x="0.5" y="0.5" width="128" height="28" rx="4.5"  fill="none" fill-opacity="0.52" stroke="white"/>
<path d="M25.3326 14.58C25.3326 15.01 25.4526 15.38 25.7026 15.68C25.2926 15.89 25.0926 16.2 25.0926 16.61C25.0926 16.95 25.2026 17.22 25.4326 17.41C25.1226 17.68 24.9626 18.03 24.9626 18.46C24.9626 19.5 25.8126 20.12 27.1026 20.12C28.3426 20.12 29.2326 19.55 29.2326 18.38C29.2326 17.49 28.6126 16.99 27.6526 16.99H26.4626C26.0826 16.99 25.8926 16.85 25.8926 16.57C25.8926 16.35 26.0026 16.19 26.2226 16.08C26.4726 16.2 26.7626 16.26 27.0926 16.26C27.6026 16.26 28.0226 16.11 28.3526 15.81C28.6826 15.5 28.8526 15.09 28.8526 14.58C28.8526 14.23 28.7726 13.93 28.6026 13.67L29.2826 13.29L28.9026 12.6L28.0026 13.11C27.7226 12.96 27.4226 12.89 27.0926 12.89C26.5826 12.89 26.1626 13.05 25.8326 13.36C25.5026 13.67 25.3326 14.07 25.3326 14.58ZM27.5226 17.71C28.0926 17.71 28.3726 17.96 28.3726 18.46C28.3726 19.01 27.9426 19.38 27.1026 19.38C26.2626 19.38 25.8026 19 25.8026 18.43C25.8026 18.11 25.9126 17.86 26.1326 17.69C26.2826 17.7 26.4026 17.71 26.5026 17.71H27.5226ZM26.4226 13.87C26.7826 13.52 27.4026 13.52 27.7626 13.87C27.9426 14.04 28.0326 14.28 28.0326 14.58C28.0326 14.88 27.9426 15.12 27.7626 15.29C27.4026 15.62 26.7826 15.62 26.4226 15.29C26.2426 15.12 26.1526 14.88 26.1526 14.58C26.1526 14.28 26.2426 14.04 26.4226 13.87ZM30.431 18H31.271V12.96H30.431V18ZM30.221 11.56C30.221 11.91 30.491 12.18 30.851 12.18C31.211 12.18 31.481 11.91 31.481 11.56C31.481 11.2 31.211 10.92 30.851 10.92C30.491 10.92 30.221 11.2 30.221 11.56ZM34.5739 16.93L33.3439 12.96H32.4839L34.1439 18H35.0039L36.6639 12.96H35.8039L34.5739 16.93ZM41.8861 15.27C41.8861 14.6 41.6861 14.04 41.2761 13.58C40.8761 13.11 40.3161 12.88 39.6061 12.88C38.8761 12.88 38.3161 13.13 37.9161 13.64C37.5261 14.14 37.3261 14.75 37.3261 15.48C37.3261 16.21 37.5261 16.82 37.9161 17.33C38.3161 17.83 38.8761 18.08 39.6061 18.08C40.6461 18.08 41.2761 17.67 41.7461 16.68L41.0061 16.36C40.7161 17.01 40.3161 17.32 39.6061 17.32C38.7361 17.32 38.2361 16.65 38.1861 15.66H41.8861V15.27ZM39.6061 13.64C40.3761 13.64 40.8461 14.14 41.0061 14.9H38.2361C38.3961 14.13 38.8561 13.64 39.6061 13.64ZM52.7976 14.45C52.7976 13.46 52.2876 12.88 51.3776 12.88C50.6576 12.88 50.1076 13.23 49.7376 13.93C49.5776 13.26 49.0776 12.88 48.3876 12.88C47.6776 12.88 47.1576 13.22 46.8176 13.89V12.96H45.9776V18H46.8176V15.93C46.8176 14.52 47.3976 13.64 48.1576 13.64C48.6976 13.64 48.9676 13.97 48.9676 14.63V18H49.8076V15.93C49.8076 14.52 50.3876 13.64 51.1476 13.64C51.6876 13.64 51.9576 13.97 51.9576 14.63V18H52.7976V14.45ZM58.6732 15.27C58.6732 14.6 58.4732 14.04 58.0632 13.58C57.6632 13.11 57.1032 12.88 56.3932 12.88C55.6632 12.88 55.1032 13.13 54.7032 13.64C54.3132 14.14 54.1132 14.75 54.1132 15.48C54.1132 16.21 54.3132 16.82 54.7032 17.33C55.1032 17.83 55.6632 18.08 56.3932 18.08C57.4332 18.08 58.0632 17.67 58.5332 16.68L57.7932 16.36C57.5032 17.01 57.1032 17.32 56.3932 17.32C55.5232 17.32 55.0232 16.65 54.9732 15.66H58.6732V15.27ZM56.3932 13.64C57.1632 13.64 57.6332 14.14 57.7932 14.9H55.0232C55.1832 14.13 55.6432 13.64 56.3932 13.64ZM63.2647 16.55C63.2647 15.98 63.7547 15.66 64.6047 15.66H65.5047V15.78C65.5047 16.31 65.3647 16.7 65.0847 16.95C64.8047 17.2 64.4747 17.32 64.0947 17.32C63.5647 17.32 63.2647 17.03 63.2647 16.55ZM66.3447 14.78C66.3447 13.5 65.5747 12.88 64.4047 12.88C63.4547 12.88 62.7447 13.41 62.6147 14.26L63.3547 14.43C63.4647 13.94 63.8747 13.64 64.4047 13.64C65.1347 13.64 65.5047 13.99 65.5047 14.68V14.9H64.6847C63.2747 14.9 62.4047 15.48 62.4047 16.55C62.4047 17.58 63.0547 18.08 63.9647 18.08C64.6547 18.08 65.1747 17.82 65.5447 17.29L65.6847 18H66.3447V14.78ZM71.3086 16.39C71.0386 17.01 70.5786 17.32 69.9286 17.32C68.9986 17.32 68.4986 16.56 68.4986 15.48C68.4986 14.4 68.9986 13.64 69.9286 13.64C70.5786 13.64 71.0386 13.95 71.3086 14.57L72.0386 14.27C71.6286 13.34 70.9286 12.88 69.9286 12.88C69.1986 12.88 68.6286 13.13 68.2286 13.64C67.8386 14.14 67.6386 14.75 67.6386 15.48C67.6386 16.21 67.8386 16.82 68.2286 17.33C68.6286 17.83 69.1986 18.08 69.9286 18.08C70.9286 18.08 71.6286 17.62 72.0386 16.69L71.3086 16.39ZM76.7286 16.39C76.4586 17.01 75.9986 17.32 75.3486 17.32C74.4186 17.32 73.9186 16.56 73.9186 15.48C73.9186 14.4 74.4186 13.64 75.3486 13.64C75.9986 13.64 76.4586 13.95 76.7286 14.57L77.4586 14.27C77.0486 13.34 76.3486 12.88 75.3486 12.88C74.6186 12.88 74.0486 13.13 73.6486 13.64C73.2586 14.14 73.0586 14.75 73.0586 15.48C73.0586 16.21 73.2586 16.82 73.6486 17.33C74.0486 17.83 74.6186 18.08 75.3486 18.08C76.3486 18.08 77.0486 17.62 77.4586 16.69L76.7286 16.39ZM83.0385 15.27C83.0385 14.6 82.8385 14.04 82.4285 13.58C82.0285 13.11 81.4685 12.88 80.7585 12.88C80.0285 12.88 79.4685 13.13 79.0685 13.64C78.6785 14.14 78.4785 14.75 78.4785 15.48C78.4785 16.21 78.6785 16.82 79.0685 17.33C79.4685 17.83 80.0285 18.08 80.7585 18.08C81.7985 18.08 82.4285 17.67 82.8985 16.68L82.1585 16.36C81.8685 17.01 81.4685 17.32 80.7585 17.32C79.8885 17.32 79.3885 16.65 79.3385 15.66H83.0385V15.27ZM80.7585 13.64C81.5285 13.64 81.9985 14.14 82.1585 14.9H79.3885C79.5485 14.13 80.0085 13.64 80.7585 13.64ZM85.8356 12.88C84.9456 12.88 84.3556 13.47 84.3556 14.27C84.3556 15.23 85.1956 15.55 85.8556 15.8C86.3056 15.96 86.6756 16.2 86.6756 16.53C86.6756 17.06 86.4056 17.32 85.8656 17.32C85.3556 17.32 84.9656 16.99 84.6956 16.33L83.9856 16.72C84.2756 17.49 84.9156 18.08 85.8656 18.08C86.8956 18.08 87.5356 17.48 87.5356 16.48C87.5456 15 85.1856 15.18 85.1956 14.28C85.1956 13.88 85.4556 13.64 85.8056 13.64C86.1156 13.64 86.4156 13.81 86.7256 14.14L87.2956 13.65C86.9356 13.14 86.4456 12.88 85.8356 12.88ZM90.318 12.88C89.428 12.88 88.838 13.47 88.838 14.27C88.838 15.23 89.678 15.55 90.338 15.8C90.788 15.96 91.158 16.2 91.158 16.53C91.158 17.06 90.888 17.32 90.348 17.32C89.838 17.32 89.448 16.99 89.178 16.33L88.468 16.72C88.758 17.49 89.398 18.08 90.348 18.08C91.378 18.08 92.018 17.48 92.018 16.48C92.028 15 89.668 15.18 89.678 14.28C89.678 13.88 89.938 13.64 90.288 13.64C90.598 13.64 90.898 13.81 91.208 14.14L91.778 13.65C91.418 13.14 90.928 12.88 90.318 12.88Z" fill="white"/>
<path d="M112.488 10.9922C112.527 10.9531 112.566 10.9336 112.645 10.9336C112.703 10.9336 112.762 10.9531 112.82 10.9922L116.902 15.0938C116.941 15.1328 116.98 15.1914 116.98 15.25C116.98 15.3281 116.941 15.3672 116.902 15.4062L112.82 19.5078C112.762 19.5469 112.703 19.5664 112.645 19.5664C112.566 19.5664 112.527 19.5469 112.488 19.5078L112.098 19.1172C112.039 19.0781 112.02 19.0391 112.02 18.9609C112.02 18.9023 112.039 18.8438 112.098 18.7852L115.633 15.25L112.098 11.7148C112.039 11.6758 112.02 11.6172 112.02 11.5391C112.02 11.4805 112.039 11.4219 112.098 11.3828L112.488 10.9922Z" fill="white"/>
</svg>