<svg width="100" height="13" viewBox="0 0 100 13" fill="none" xmlns="http://www.w3.org/2000/svg">
<path d="M19.0787 6.58C19.0787 7.01 19.1987 7.38 19.4487 7.68C19.0387 7.89 18.8387 8.2 18.8387 8.61C18.8387 8.95 18.9487 9.22 19.1787 9.41C18.8687 9.68 18.7087 10.03 18.7087 10.46C18.7087 11.5 19.5587 12.12 20.8487 12.12C22.0887 12.12 22.9787 11.55 22.9787 10.38C22.9787 9.49 22.3587 8.99 21.3987 8.99H20.2087C19.8287 8.99 19.6387 8.85 19.6387 8.57C19.6387 8.35 19.7487 8.19 19.9687 8.08C20.2187 8.2 20.5087 8.26 20.8387 8.26C21.3487 8.26 21.7687 8.11 22.0987 7.81C22.4287 7.5 22.5987 7.09 22.5987 6.58C22.5987 6.23 22.5187 5.93 22.3487 5.67L23.0287 5.29L22.6487 4.6L21.7487 5.11C21.4687 4.96 21.1687 4.89 20.8387 4.89C20.3287 4.89 19.9087 5.05 19.5787 5.36C19.2487 5.67 19.0787 6.07 19.0787 6.58ZM21.2687 9.71C21.8387 9.71 22.1187 9.96 22.1187 10.46C22.1187 11.01 21.6887 11.38 20.8487 11.38C20.0087 11.38 19.5487 11 19.5487 10.43C19.5487 10.11 19.6587 9.86 19.8787 9.69C20.0287 9.7 20.1487 9.71 20.2487 9.71H21.2687ZM20.1687 5.87C20.5287 5.52 21.1487 5.52 21.5087 5.87C21.6887 6.04 21.7787 6.28 21.7787 6.58C21.7787 6.88 21.6887 7.12 21.5087 7.29C21.1487 7.62 20.5287 7.62 20.1687 7.29C19.9887 7.12 19.8987 6.88 19.8987 6.58C19.8987 6.28 19.9887 6.04 20.1687 5.87ZM24.7647 8.55C24.7647 7.98 25.2547 7.66 26.1047 7.66H27.0047V7.78C27.0047 8.31 26.8647 8.7 26.5847 8.95C26.3047 9.2 25.9747 9.32 25.5947 9.32C25.0647 9.32 24.7647 9.03 24.7647 8.55ZM27.8447 6.78C27.8447 5.5 27.0747 4.88 25.9047 4.88C24.9547 4.88 24.2447 5.41 24.1147 6.26L24.8547 6.43C24.9647 5.94 25.3747 5.64 25.9047 5.64C26.6347 5.64 27.0047 5.99 27.0047 6.68V6.9H26.1847C24.7747 6.9 23.9047 7.48 23.9047 8.55C23.9047 9.58 24.5547 10.08 25.4647 10.08C26.1547 10.08 26.6747 9.82 27.0447 9.29L27.1847 10H27.8447V6.78ZM36.1336 6.45C36.1336 5.46 35.6236 4.88 34.7136 4.88C33.9936 4.88 33.4436 5.23 33.0736 5.93C32.9136 5.26 32.4136 4.88 31.7236 4.88C31.0136 4.88 30.4936 5.22 30.1536 5.89V4.96H29.3136V10H30.1536V7.93C30.1536 6.52 30.7336 5.64 31.4936 5.64C32.0336 5.64 32.3036 5.97 32.3036 6.63V10H33.1436V7.93C33.1436 6.52 33.7236 5.64 34.4836 5.64C35.0236 5.64 35.2936 5.97 35.2936 6.63V10H36.1336V6.45ZM42.0092 7.27C42.0092 6.6 41.8092 6.04 41.3992 5.58C40.9992 5.11 40.4392 4.88 39.7292 4.88C38.9992 4.88 38.4392 5.13 38.0392 5.64C37.6492 6.14 37.4492 6.75 37.4492 7.48C37.4492 8.21 37.6492 8.82 38.0392 9.33C38.4392 9.83 38.9992 10.08 39.7292 10.08C40.7692 10.08 41.3992 9.67 41.8692 8.68L41.1292 8.36C40.8392 9.01 40.4392 9.32 39.7292 9.32C38.8592 9.32 38.3592 8.65 38.3092 7.66H42.0092V7.27ZM39.7292 5.64C40.4992 5.64 40.9692 6.14 41.1292 6.9H38.3592C38.5192 6.13 38.9792 5.64 39.7292 5.64ZM46.2982 5.03C46.1082 4.93 45.8782 4.88 45.6082 4.88C45.0482 4.88 44.4182 5.26 44.1282 5.82V4.96H43.2882V10H44.1282V8.09C44.1282 7.32 44.2682 6.72 44.5482 6.29C44.8282 5.86 45.1582 5.64 45.5382 5.64C45.7482 5.64 45.9382 5.69 46.1282 5.78L46.2982 5.03ZM53.3848 8.39C53.1148 9.01 52.6548 9.32 52.0048 9.32C51.0748 9.32 50.5748 8.56 50.5748 7.48C50.5748 6.4 51.0748 5.64 52.0048 5.64C52.6548 5.64 53.1148 5.95 53.3848 6.57L54.1148 6.27C53.7048 5.34 53.0048 4.88 52.0048 4.88C51.2748 4.88 50.7048 5.13 50.3048 5.64C49.9148 6.14 49.7148 6.75 49.7148 7.48C49.7148 8.21 49.9148 8.82 50.3048 9.33C50.7048 9.83 51.2748 10.08 52.0048 10.08C53.0048 10.08 53.7048 9.62 54.1148 8.69L53.3848 8.39ZM55.7947 9.32C56.2447 9.83 56.8247 10.08 57.5547 10.08C58.2847 10.08 58.8647 9.83 59.3047 9.32C59.7547 8.81 59.9747 8.19 59.9747 7.48C59.9747 6.77 59.7547 6.16 59.3047 5.65C58.8647 5.14 58.2847 4.88 57.5547 4.88C56.8247 4.88 56.2447 5.14 55.7947 5.65C55.3547 6.16 55.1347 6.77 55.1347 7.48C55.1347 8.19 55.3547 8.81 55.7947 9.32ZM56.4047 6.19C56.6847 5.82 57.0647 5.64 57.5547 5.64C58.0447 5.64 58.4247 5.82 58.6947 6.19C58.9747 6.55 59.1147 6.98 59.1147 7.48C59.1147 7.98 58.9747 8.41 58.6947 8.78C58.4247 9.14 58.0447 9.32 57.5547 9.32C57.0647 9.32 56.6847 9.14 56.4047 8.78C56.1347 8.41 55.9947 7.98 55.9947 7.48C55.9947 6.98 56.1347 6.55 56.4047 6.19ZM65.3543 6.45C65.3543 5.45 64.7943 4.88 63.8743 4.88C63.1443 4.88 62.5843 5.22 62.2043 5.89V4.96H61.3643V10H62.2043V7.89C62.2043 7.22 62.3443 6.67 62.6243 6.26C62.9143 5.85 63.2543 5.64 63.6443 5.64C64.2243 5.64 64.5143 5.98 64.5143 6.67V10H65.3543V6.45ZM67.3065 5.72V8.42C67.3065 9.51 67.8765 10.08 68.7665 10.08C69.0965 10.08 69.3665 10.02 69.5865 9.89L69.3865 9.16C69.2265 9.27 69.0365 9.32 68.8165 9.32C68.3865 9.32 68.1465 9.02 68.1465 8.49V5.72H69.4665V4.96H68.1465V2.92L67.3065 3.45V4.96H66.4365V5.72H67.3065ZM73.8958 5.03C73.7058 4.93 73.4758 4.88 73.2058 4.88C72.6458 4.88 72.0158 5.26 71.7258 5.82V4.96H70.8858V10H71.7258V8.09C71.7258 7.32 71.8658 6.72 72.1458 6.29C72.4258 5.86 72.7558 5.64 73.1358 5.64C73.3458 5.64 73.5358 5.69 73.7258 5.78L73.8958 5.03ZM75.1014 9.32C75.5514 9.83 76.1314 10.08 76.8614 10.08C77.5914 10.08 78.1714 9.83 78.6114 9.32C79.0614 8.81 79.2814 8.19 79.2814 7.48C79.2814 6.77 79.0614 6.16 78.6114 5.65C78.1714 5.14 77.5914 4.88 76.8614 4.88C76.1314 4.88 75.5514 5.14 75.1014 5.65C74.6614 6.16 74.4414 6.77 74.4414 7.48C74.4414 8.19 74.6614 8.81 75.1014 9.32ZM75.7114 6.19C75.9914 5.82 76.3714 5.64 76.8614 5.64C77.3514 5.64 77.7314 5.82 78.0014 6.19C78.2814 6.55 78.4214 6.98 78.4214 7.48C78.4214 7.98 78.2814 8.41 78.0014 8.78C77.7314 9.14 77.3514 9.32 76.8614 9.32C76.3714 9.32 75.9914 9.14 75.7114 8.78C75.4414 8.41 75.3014 7.98 75.3014 7.48C75.3014 6.98 75.4414 6.55 75.7114 6.19ZM80.5924 10H81.4324V2.92H80.5924V10ZM84.5719 4.88C83.6819 4.88 83.0919 5.47 83.0919 6.27C83.0919 7.23 83.9319 7.55 84.5919 7.8C85.0419 7.96 85.4119 8.2 85.4119 8.53C85.4119 9.06 85.1419 9.32 84.6019 9.32C84.0919 9.32 83.7019 8.99 83.4319 8.33L82.7219 8.72C83.0119 9.49 83.6519 10.08 84.6019 10.08C85.6319 10.08 86.2719 9.48 86.2719 8.48C86.2819 7 83.9219 7.18 83.9319 6.28C83.9319 5.88 84.1919 5.64 84.5419 5.64C84.8519 5.64 85.1519 5.81 85.4619 6.14L86.0319 5.65C85.6719 5.14 85.1819 4.88 84.5719 4.88Z" fill="white"/>
<rect id="state" x="0.5" y="1.5" width="11" height="11" rx="1.5" fill="none" fill-opacity="0.52" stroke="white"/>
</svg>
