<svg width="137" height="23" viewBox="0 0 137 23" fill="none" xmlns="http://www.w3.org/2000/svg">
<path d="M0.991797 8H1.8318V0.92H0.991797V8ZM7.68203 5.27C7.68203 4.6 7.48203 4.04 7.07203 3.58C6.67203 3.11 6.11203 2.88 5.40203 2.88C4.67203 2.88 4.11203 3.13 3.71203 3.64C3.32203 4.14 3.12203 4.75 3.12203 5.48C3.12203 6.21 3.32203 6.82 3.71203 7.33C4.11203 7.83 4.67203 8.08 5.40203 8.08C6.44203 8.08 7.07203 7.67 7.54203 6.68L6.80203 6.36C6.51203 7.01 6.11203 7.32 5.40203 7.32C4.53203 7.32 4.03203 6.65 3.98203 5.66H7.68203V5.27ZM5.40203 3.64C6.17203 3.64 6.64203 4.14 6.80203 4.9H4.03203C4.19203 4.13 4.65203 3.64 5.40203 3.64ZM9.36773 3.72V8H10.2077V3.72H11.3677V2.96H10.2077V2.63C10.2077 1.98 10.4377 1.68 10.9877 1.68C11.1777 1.68 11.3577 1.73 11.5477 1.82L11.7177 1.08C11.5277 0.97 11.2877 0.92 10.9977 0.92C9.95773 0.92 9.36773 1.5 9.36773 2.63V2.96H8.64773V3.72H9.36773ZM13.1161 3.72V6.42C13.1161 7.51 13.6861 8.08 14.5761 8.08C14.9061 8.08 15.1761 8.02 15.3961 7.89L15.1961 7.16C15.0361 7.27 14.8461 7.32 14.6261 7.32C14.1961 7.32 13.9561 7.02 13.9561 6.49V3.72H15.2761V2.96H13.9561V0.92L13.1161 1.45V2.96H12.2461V3.72H13.1161ZM22.6612 6.39C22.3912 7.01 21.9312 7.32 21.2812 7.32C20.3512 7.32 19.8512 6.56 19.8512 5.48C19.8512 4.4 20.3512 3.64 21.2812 3.64C21.9312 3.64 22.3912 3.95 22.6612 4.57L23.3912 4.27C22.9812 3.34 22.2812 2.88 21.2812 2.88C20.5512 2.88 19.9812 3.13 19.5812 3.64C19.1912 4.14 18.9912 4.75 18.9912 5.48C18.9912 6.21 19.1912 6.82 19.5812 7.33C19.9812 7.83 20.5512 8.08 21.2812 8.08C22.2812 8.08 22.9812 7.62 23.3912 6.69L22.6612 6.39ZM24.732 8H25.572V0.92H24.732V8ZM27.0765 8H27.9165V2.96H27.0765V8ZM26.8665 1.56C26.8665 1.91 27.1365 2.18 27.4965 2.18C27.8565 2.18 28.1265 1.91 28.1265 1.56C28.1265 1.2 27.8565 0.92 27.4965 0.92C27.1365 0.92 26.8665 1.2 26.8665 1.56ZM32.9151 6.39C32.6451 7.01 32.1851 7.32 31.5351 7.32C30.6051 7.32 30.1051 6.56 30.1051 5.48C30.1051 4.4 30.6051 3.64 31.5351 3.64C32.1851 3.64 32.6451 3.95 32.9151 4.57L33.6451 4.27C33.2351 3.34 32.5351 2.88 31.5351 2.88C30.8051 2.88 30.2351 3.13 29.8351 3.64C29.4451 4.14 29.2451 4.75 29.2451 5.48C29.2451 6.21 29.4451 6.82 29.8351 7.33C30.2351 7.83 30.8051 8.08 31.5351 8.08C32.5351 8.08 33.2351 7.62 33.6451 6.69L32.9151 6.39ZM34.879 8H35.719V5.47L37.849 8H38.919L36.619 5.27L38.759 2.96H37.679L35.719 5.07V0.92H34.879V8ZM43.1622 6.55C43.1622 5.98 43.6522 5.66 44.5022 5.66H45.4022V5.78C45.4022 6.31 45.2622 6.7 44.9822 6.95C44.7022 7.2 44.3722 7.32 43.9922 7.32C43.4622 7.32 43.1622 7.03 43.1622 6.55ZM46.2422 4.78C46.2422 3.5 45.4722 2.88 44.3022 2.88C43.3522 2.88 42.6422 3.41 42.5122 4.26L43.2522 4.43C43.3622 3.94 43.7722 3.64 44.3022 3.64C45.0322 3.64 45.4022 3.99 45.4022 4.68V4.9H44.5822C43.1722 4.9 42.3022 5.48 42.3022 6.55C42.3022 7.58 42.9522 8.08 43.8622 8.08C44.5522 8.08 45.0722 7.82 45.4422 7.29L45.5822 8H46.2422V4.78ZM51.701 4.45C51.701 3.45 51.141 2.88 50.221 2.88C49.491 2.88 48.931 3.22 48.551 3.89V2.96H47.711V8H48.551V5.89C48.551 5.22 48.691 4.67 48.971 4.26C49.261 3.85 49.601 3.64 49.991 3.64C50.571 3.64 50.861 3.98 50.861 4.67V8H51.701V4.45ZM55.2253 2.88C53.7853 2.88 52.9853 3.92 52.9853 5.48C52.9853 7.04 53.7853 8.08 55.2253 8.08C55.8253 8.08 56.4453 7.77 56.6953 7.38V8H57.5353V0.92H56.6953V3.56C56.6053 3.4 56.4053 3.25 56.1153 3.1C55.8253 2.95 55.5253 2.88 55.2253 2.88ZM55.3053 7.32C54.4253 7.32 53.8453 6.57 53.8453 5.48C53.8453 4.39 54.4253 3.64 55.3053 3.64C56.2153 3.64 56.7653 4.39 56.7653 5.48C56.7653 6.57 56.2153 7.32 55.3053 7.32ZM63.907 2.88C62.467 2.88 61.667 3.92 61.667 5.48C61.667 7.04 62.467 8.08 63.907 8.08C64.507 8.08 65.127 7.77 65.377 7.38V8H66.217V0.92H65.377V3.56C65.287 3.4 65.087 3.25 64.797 3.1C64.507 2.95 64.207 2.88 63.907 2.88ZM63.987 7.32C63.107 7.32 62.527 6.57 62.527 5.48C62.527 4.39 63.107 3.64 63.987 3.64C64.897 3.64 65.447 4.39 65.447 5.48C65.447 6.57 64.897 7.32 63.987 7.32ZM70.8382 3.03C70.6482 2.93 70.4182 2.88 70.1482 2.88C69.5882 2.88 68.9582 3.26 68.6682 3.82V2.96H67.8282V8H68.6682V6.09C68.6682 5.32 68.8082 4.72 69.0882 4.29C69.3682 3.86 69.6982 3.64 70.0782 3.64C70.2882 3.64 70.4782 3.69 70.6682 3.78L70.8382 3.03ZM72.3516 6.55C72.3516 5.98 72.8416 5.66 73.6916 5.66H74.5916V5.78C74.5916 6.31 74.4516 6.7 74.1716 6.95C73.8916 7.2 73.5616 7.32 73.1816 7.32C72.6516 7.32 72.3516 7.03 72.3516 6.55ZM75.4316 4.78C75.4316 3.5 74.6616 2.88 73.4916 2.88C72.5416 2.88 71.8316 3.41 71.7016 4.26L72.4416 4.43C72.5516 3.94 72.9616 3.64 73.4916 3.64C74.2216 3.64 74.5916 3.99 74.5916 4.68V4.9H73.7716C72.3616 4.9 71.4916 5.48 71.4916 6.55C71.4916 7.58 72.1416 8.08 73.0516 8.08C73.7416 8.08 74.2616 7.82 74.6316 7.29L74.7716 8H75.4316V4.78ZM77.0855 4.58C77.0855 5.01 77.2055 5.38 77.4555 5.68C77.0455 5.89 76.8455 6.2 76.8455 6.61C76.8455 6.95 76.9555 7.22 77.1855 7.41C76.8755 7.68 76.7155 8.03 76.7155 8.46C76.7155 9.5 77.5655 10.12 78.8555 10.12C80.0955 10.12 80.9855 9.55 80.9855 8.38C80.9855 7.49 80.3655 6.99 79.4055 6.99H78.2155C77.8355 6.99 77.6455 6.85 77.6455 6.57C77.6455 6.35 77.7555 6.19 77.9755 6.08C78.2255 6.2 78.5155 6.26 78.8455 6.26C79.3555 6.26 79.7755 6.11 80.1055 5.81C80.4355 5.5 80.6055 5.09 80.6055 4.58C80.6055 4.23 80.5255 3.93 80.3555 3.67L81.0355 3.29L80.6555 2.6L79.7555 3.11C79.4755 2.96 79.1755 2.89 78.8455 2.89C78.3355 2.89 77.9155 3.05 77.5855 3.36C77.2555 3.67 77.0855 4.07 77.0855 4.58ZM79.2755 7.71C79.8455 7.71 80.1255 7.96 80.1255 8.46C80.1255 9.01 79.6955 9.38 78.8555 9.38C78.0155 9.38 77.5555 9 77.5555 8.43C77.5555 8.11 77.6655 7.86 77.8855 7.69C78.0355 7.7 78.1555 7.71 78.2555 7.71H79.2755ZM78.1755 3.87C78.5355 3.52 79.1555 3.52 79.5155 3.87C79.6955 4.04 79.7855 4.28 79.7855 4.58C79.7855 4.88 79.6955 5.12 79.5155 5.29C79.1555 5.62 78.5355 5.62 78.1755 5.29C77.9955 5.12 77.9055 4.88 77.9055 4.58C77.9055 4.28 77.9955 4.04 78.1755 3.87ZM86.2797 6.6L84.9997 2.96H84.0797L85.8497 7.79L85.0497 10.04H85.9097L88.4097 2.96H87.5297L86.2797 6.6ZM89.7293 7.32C90.1793 7.83 90.7593 8.08 91.4893 8.08C92.2193 8.08 92.7993 7.83 93.2393 7.32C93.6893 6.81 93.9093 6.19 93.9093 5.48C93.9093 4.77 93.6893 4.16 93.2393 3.65C92.7993 3.14 92.2193 2.88 91.4893 2.88C90.7593 2.88 90.1793 3.14 89.7293 3.65C89.2893 4.16 89.0693 4.77 89.0693 5.48C89.0693 6.19 89.2893 6.81 89.7293 7.32ZM90.3393 4.19C90.6193 3.82 90.9993 3.64 91.4893 3.64C91.9793 3.64 92.3593 3.82 92.6293 4.19C92.9093 4.55 93.0493 4.98 93.0493 5.48C93.0493 5.98 92.9093 6.41 92.6293 6.78C92.3593 7.14 91.9793 7.32 91.4893 7.32C90.9993 7.32 90.6193 7.14 90.3393 6.78C90.0693 6.41 89.9293 5.98 89.9293 5.48C89.9293 4.98 90.0693 4.55 90.3393 4.19ZM95.2389 6.51C95.2389 7.51 95.7989 8.08 96.7189 8.08C97.4489 8.08 98.0089 7.74 98.3889 7.07V8H99.2289V2.96H98.3889V5.07C98.3889 5.74 98.2489 6.29 97.9589 6.7C97.6789 7.11 97.3389 7.32 96.9489 7.32C96.3689 7.32 96.0789 6.98 96.0789 6.29V2.96H95.2389V6.51ZM103.846 3.03C103.656 2.93 103.426 2.88 103.156 2.88C102.596 2.88 101.966 3.26 101.676 3.82V2.96H100.836V8H101.676V6.09C101.676 5.32 101.816 4.72 102.096 4.29C102.376 3.86 102.706 3.64 103.086 3.64C103.296 3.64 103.486 3.69 103.676 3.78L103.846 3.03ZM114.463 4.45C114.463 3.46 113.953 2.88 113.043 2.88C112.323 2.88 111.773 3.23 111.403 3.93C111.243 3.26 110.743 2.88 110.053 2.88C109.343 2.88 108.823 3.22 108.483 3.89V2.96H107.643V8H108.483V5.93C108.483 4.52 109.063 3.64 109.823 3.64C110.363 3.64 110.633 3.97 110.633 4.63V8H111.473V5.93C111.473 4.52 112.053 3.64 112.813 3.64C113.353 3.64 113.623 3.97 113.623 4.63V8H114.463V4.45ZM116.438 7.32C116.888 7.83 117.468 8.08 118.198 8.08C118.928 8.08 119.508 7.83 119.948 7.32C120.398 6.81 120.618 6.19 120.618 5.48C120.618 4.77 120.398 4.16 119.948 3.65C119.508 3.14 118.928 2.88 118.198 2.88C117.468 2.88 116.888 3.14 116.438 3.65C115.998 4.16 115.778 4.77 115.778 5.48C115.778 6.19 115.998 6.81 116.438 7.32ZM117.048 4.19C117.328 3.82 117.708 3.64 118.198 3.64C118.688 3.64 119.068 3.82 119.338 4.19C119.618 4.55 119.758 4.98 119.758 5.48C119.758 5.98 119.618 6.41 119.338 6.78C119.068 7.14 118.688 7.32 118.198 7.32C117.708 7.32 117.328 7.14 117.048 6.78C116.778 6.41 116.638 5.98 116.638 5.48C116.638 4.98 116.778 4.55 117.048 4.19ZM121.948 6.51C121.948 7.51 122.508 8.08 123.428 8.08C124.158 8.08 124.718 7.74 125.098 7.07V8H125.938V2.96H125.098V5.07C125.098 5.74 124.958 6.29 124.668 6.7C124.388 7.11 124.048 7.32 123.658 7.32C123.078 7.32 122.788 6.98 122.788 6.29V2.96H121.948V6.51ZM129.092 2.88C128.202 2.88 127.612 3.47 127.612 4.27C127.612 5.23 128.452 5.55 129.112 5.8C129.562 5.96 129.932 6.2 129.932 6.53C129.932 7.06 129.662 7.32 129.122 7.32C128.612 7.32 128.222 6.99 127.952 6.33L127.242 6.72C127.532 7.49 128.172 8.08 129.122 8.08C130.152 8.08 130.792 7.48 130.792 6.48C130.802 5 128.442 5.18 128.452 4.28C128.452 3.88 128.712 3.64 129.062 3.64C129.372 3.64 129.672 3.81 129.982 4.14L130.552 3.65C130.192 3.14 129.702 2.88 129.092 2.88ZM136.413 5.27C136.413 4.6 136.213 4.04 135.803 3.58C135.403 3.11 134.843 2.88 134.133 2.88C133.403 2.88 132.843 3.13 132.443 3.64C132.053 4.14 131.853 4.75 131.853 5.48C131.853 6.21 132.053 6.82 132.443 7.33C132.843 7.83 133.403 8.08 134.133 8.08C135.173 8.08 135.803 7.67 136.273 6.68L135.533 6.36C135.243 7.01 134.843 7.32 134.133 7.32C133.263 7.32 132.763 6.65 132.713 5.66H136.413V5.27ZM134.133 3.64C134.903 3.64 135.373 4.14 135.533 4.9H132.763C132.923 4.13 133.383 3.64 134.133 3.64ZM27.0565 15.72V18.42C27.0565 19.51 27.6265 20.08 28.5165 20.08C28.8465 20.08 29.1165 20.02 29.3365 19.89L29.1365 19.16C28.9765 19.27 28.7865 19.32 28.5665 19.32C28.1365 19.32 27.8965 19.02 27.8965 18.49V15.72H29.2165V14.96H27.8965V12.92L27.0565 13.45V14.96H26.1865V15.72H27.0565ZM30.8279 19.32C31.2779 19.83 31.8579 20.08 32.5879 20.08C33.3179 20.08 33.8979 19.83 34.3379 19.32C34.7879 18.81 35.0079 18.19 35.0079 17.48C35.0079 16.77 34.7879 16.16 34.3379 15.65C33.8979 15.14 33.3179 14.88 32.5879 14.88C31.8579 14.88 31.2779 15.14 30.8279 15.65C30.3879 16.16 30.1679 16.77 30.1679 17.48C30.1679 18.19 30.3879 18.81 30.8279 19.32ZM31.4379 16.19C31.7179 15.82 32.0979 15.64 32.5879 15.64C33.0779 15.64 33.4579 15.82 33.7279 16.19C34.0079 16.55 34.1479 16.98 34.1479 17.48C34.1479 17.98 34.0079 18.41 33.7279 18.78C33.4579 19.14 33.0779 19.32 32.5879 19.32C32.0979 19.32 31.7179 19.14 31.4379 18.78C31.1679 18.41 31.0279 17.98 31.0279 17.48C31.0279 16.98 31.1679 16.55 31.4379 16.19ZM39.4217 19.32C39.8717 19.83 40.4517 20.08 41.1817 20.08C41.9117 20.08 42.4917 19.83 42.9317 19.32C43.3817 18.81 43.6017 18.19 43.6017 17.48C43.6017 16.77 43.3817 16.16 42.9317 15.65C42.4917 15.14 41.9117 14.88 41.1817 14.88C40.4517 14.88 39.8717 15.14 39.4217 15.65C38.9817 16.16 38.7617 16.77 38.7617 17.48C38.7617 18.19 38.9817 18.81 39.4217 19.32ZM40.0317 16.19C40.3117 15.82 40.6917 15.64 41.1817 15.64C41.6717 15.64 42.0517 15.82 42.3217 16.19C42.6017 16.55 42.7417 16.98 42.7417 17.48C42.7417 17.98 42.6017 18.41 42.3217 18.78C42.0517 19.14 41.6717 19.32 41.1817 19.32C40.6917 19.32 40.3117 19.14 40.0317 18.78C39.7617 18.41 39.6217 17.98 39.6217 17.48C39.6217 16.98 39.7617 16.55 40.0317 16.19ZM47.8743 15.03C47.6843 14.93 47.4543 14.88 47.1843 14.88C46.6243 14.88 45.9943 15.26 45.7043 15.82V14.96H44.8643V20H45.7043V18.09C45.7043 17.32 45.8443 16.72 46.1243 16.29C46.4043 15.86 46.7343 15.64 47.1143 15.64C47.3243 15.64 47.5143 15.69 47.7043 15.78L47.8743 15.03ZM48.9075 20H49.7475V14.96H48.9075V20ZM48.6975 13.56C48.6975 13.91 48.9675 14.18 49.3275 14.18C49.6875 14.18 49.9575 13.91 49.9575 13.56C49.9575 13.2 49.6875 12.92 49.3275 12.92C48.9675 12.92 48.6975 13.2 48.6975 13.56ZM55.6361 17.27C55.6361 16.6 55.4361 16.04 55.0261 15.58C54.6261 15.11 54.0661 14.88 53.3561 14.88C52.6261 14.88 52.0661 15.13 51.6661 15.64C51.2761 16.14 51.0761 16.75 51.0761 17.48C51.0761 18.21 51.2761 18.82 51.6661 19.33C52.0661 19.83 52.6261 20.08 53.3561 20.08C54.3961 20.08 55.0261 19.67 55.4961 18.68L54.7561 18.36C54.4661 19.01 54.0661 19.32 53.3561 19.32C52.4861 19.32 51.9861 18.65 51.9361 17.66H55.6361V17.27ZM53.3561 15.64C54.1261 15.64 54.5961 16.14 54.7561 16.9H51.9861C52.1461 16.13 52.6061 15.64 53.3561 15.64ZM61.0614 16.45C61.0614 15.45 60.5014 14.88 59.5814 14.88C58.8514 14.88 58.2914 15.22 57.9114 15.89V14.96H57.0714V20H57.9114V17.89C57.9114 17.22 58.0514 16.67 58.3314 16.26C58.6214 15.85 58.9614 15.64 59.3514 15.64C59.9314 15.64 60.2214 15.98 60.2214 16.67V20H61.0614V16.45ZM63.0136 15.72V18.42C63.0136 19.51 63.5836 20.08 64.4736 20.08C64.8036 20.08 65.0736 20.02 65.2936 19.89L65.0936 19.16C64.9336 19.27 64.7436 19.32 64.5236 19.32C64.0936 19.32 63.8536 19.02 63.8536 18.49V15.72H65.1736V14.96H63.8536V12.92L63.0136 13.45V14.96H62.1436V15.72H63.0136ZM70.6986 18.6L69.4186 14.96H68.4986L70.2686 19.79L69.4686 22.04H70.3286L72.8286 14.96H71.9486L70.6986 18.6ZM74.1482 19.32C74.5982 19.83 75.1782 20.08 75.9082 20.08C76.6382 20.08 77.2182 19.83 77.6582 19.32C78.1082 18.81 78.3282 18.19 78.3282 17.48C78.3282 16.77 78.1082 16.16 77.6582 15.65C77.2182 15.14 76.6382 14.88 75.9082 14.88C75.1782 14.88 74.5982 15.14 74.1482 15.65C73.7082 16.16 73.4882 16.77 73.4882 17.48C73.4882 18.19 73.7082 18.81 74.1482 19.32ZM74.7582 16.19C75.0382 15.82 75.4182 15.64 75.9082 15.64C76.3982 15.64 76.7782 15.82 77.0482 16.19C77.3282 16.55 77.4682 16.98 77.4682 17.48C77.4682 17.98 77.3282 18.41 77.0482 18.78C76.7782 19.14 76.3982 19.32 75.9082 19.32C75.4182 19.32 75.0382 19.14 74.7582 18.78C74.4882 18.41 74.3482 17.98 74.3482 17.48C74.3482 16.98 74.4882 16.55 74.7582 16.19ZM79.6579 18.51C79.6579 19.51 80.2179 20.08 81.1379 20.08C81.8679 20.08 82.4279 19.74 82.8079 19.07V20H83.6479V14.96H82.8079V17.07C82.8079 17.74 82.6679 18.29 82.3779 18.7C82.0979 19.11 81.7579 19.32 81.3679 19.32C80.7879 19.32 80.4979 18.98 80.4979 18.29V14.96H79.6579V18.51ZM88.265 15.03C88.075 14.93 87.845 14.88 87.575 14.88C87.015 14.88 86.385 15.26 86.095 15.82V14.96H85.255V20H86.095V18.09C86.095 17.32 86.235 16.72 86.515 16.29C86.795 15.86 87.125 15.64 87.505 15.64C87.715 15.64 87.905 15.69 88.095 15.78L88.265 15.03ZM93.4216 18.93L92.1916 14.96H91.3316L92.9916 20H93.8516L95.5116 14.96H94.6516L93.4216 18.93ZM96.5443 20H97.3843V14.96H96.5443V20ZM96.3343 13.56C96.3343 13.91 96.6043 14.18 96.9643 14.18C97.3243 14.18 97.5943 13.91 97.5943 13.56C97.5943 13.2 97.3243 12.92 96.9643 12.92C96.6043 12.92 96.3343 13.2 96.3343 13.56ZM103.273 17.27C103.273 16.6 103.073 16.04 102.663 15.58C102.263 15.11 101.703 14.88 100.993 14.88C100.263 14.88 99.7029 15.13 99.3029 15.64C98.9129 16.14 98.7129 16.75 98.7129 17.48C98.7129 18.21 98.9129 18.82 99.3029 19.33C99.7029 19.83 100.263 20.08 100.993 20.08C102.033 20.08 102.663 19.67 103.133 18.68L102.393 18.36C102.103 19.01 101.703 19.32 100.993 19.32C100.123 19.32 99.6229 18.65 99.5729 17.66H103.273V17.27ZM100.993 15.64C101.763 15.64 102.233 16.14 102.393 16.9H99.6229C99.7829 16.13 100.243 15.64 100.993 15.64ZM108.781 18.83L107.791 14.96H106.951L105.961 18.83L104.931 14.96H104.051L105.581 20H106.381L107.371 16.17L108.361 20H109.161L110.691 14.96H109.811L108.781 18.83Z" fill="white"/>
</svg>
