<svg width="28" height="40" viewBox="0 0 28 40" fill="none" xmlns="http://www.w3.org/2000/svg">
<path fill-rule="evenodd" clip-rule="evenodd" d="M17.7282 0.909091H9.33063C4.69278 0.909091 0.933063 4.57222 0.933063 9.09091V26.8182C0.933063 33.5962 6.57264 39.0909 13.5294 39.0909C20.4862 39.0909 26.1258 33.5962 26.1258 26.8182V9.09091C26.1258 4.57222 22.366 0.909091 17.7282 0.909091ZM9.33063 0C4.17746 0 0 4.07014 0 9.09091V26.8182C0 34.0983 6.05732 40 13.5294 40C21.0015 40 27.0588 34.0983 27.0588 26.8182V9.09091C27.0588 4.07014 22.8814 0 17.7282 0H9.33063Z" fill="white"/>
<path d="M11.7646 6.11757C11.7646 5.33788 12.5547 4.70581 13.5294 4.70581C14.504 4.70581 15.2941 5.33788 15.2941 6.11758V12.7058C15.2941 13.4855 14.504 14.1176 13.5294 14.1176C12.5547 14.1176 11.7646 13.4855 11.7646 12.7058V6.11757Z" fill="white"/>
</svg>
