<svg width="88" height="9" viewBox="0 0 88 9" fill="none" xmlns="http://www.w3.org/2000/svg">
<path d="M6.14469 8L3.77469 1H2.47469L0.104688 8H1.50469L2.01469 6.35H4.23469L4.74469 8H6.14469ZM3.86469 5.15H2.38469L3.12469 2.72L3.86469 5.15ZM8.98586 2.88C7.50586 2.88 6.68586 3.89 6.68586 5.48C6.68586 7.07 7.50586 8.08 8.98586 8.08C9.55586 8.08 10.0459 7.77 10.2059 7.48V8H11.4459V0.92H10.2059V3.42C9.97586 3.13 9.47586 2.88 8.98586 2.88ZM8.31586 4.35C8.53586 4.08 8.81586 3.94 9.15586 3.94C9.49586 3.94 9.77586 4.08 9.98586 4.35C10.2059 4.62 10.3159 4.99 10.3159 5.48C10.3159 5.97 10.2059 6.35 9.98586 6.62C9.77586 6.89 9.49586 7.02 9.15586 7.02C8.81586 7.02 8.53586 6.88 8.31586 6.61C8.09586 6.34 7.98586 5.96 7.98586 5.48C7.98586 5 8.09586 4.62 8.31586 4.35ZM14.855 2.88C13.375 2.88 12.555 3.89 12.555 5.48C12.555 7.07 13.375 8.08 14.855 8.08C15.425 8.08 15.915 7.77 16.075 7.48V8H17.315V0.92H16.075V3.42C15.845 3.13 15.345 2.88 14.855 2.88ZM14.185 4.35C14.405 4.08 14.685 3.94 15.025 3.94C15.365 3.94 15.645 4.08 15.855 4.35C16.075 4.62 16.185 4.99 16.185 5.48C16.185 5.97 16.075 6.35 15.855 6.62C15.645 6.89 15.365 7.02 15.025 7.02C14.685 7.02 14.405 6.88 14.185 6.61C13.965 6.34 13.855 5.96 13.855 5.48C13.855 5 13.965 4.62 14.185 4.35ZM18.6753 2.08C18.9853 2.39 19.5053 2.39 19.8153 2.08C20.1253 1.77 20.1253 1.25 19.8153 0.94C19.5053 0.63 18.9853 0.63 18.6753 0.94C18.3653 1.25 18.3653 1.77 18.6753 2.08ZM18.6253 8H19.8653V2.96H18.6253V8ZM23.9806 6.9C23.8306 6.98 23.6706 7.02 23.5006 7.02C23.0606 7.02 22.8406 6.8 22.8406 6.2V4.02H24.1706V2.96H22.8406V0.92L21.6006 1.7V2.96H20.8206V4.02H21.6006V6.22C21.6006 7.45 22.2906 8.08 23.4506 8.08C23.7406 8.08 24.0106 8.02 24.2706 7.9L23.9806 6.9ZM25.2866 2.08C25.5966 2.39 26.1166 2.39 26.4266 2.08C26.7366 1.77 26.7366 1.25 26.4266 0.94C26.1166 0.63 25.5966 0.63 25.2866 0.94C24.9766 1.25 24.9766 1.77 25.2866 2.08ZM25.2366 8H26.4766V2.96H25.2366V8ZM28.3622 7.35C28.8222 7.84 29.4422 8.08 30.2322 8.08C31.0222 8.08 31.6422 7.84 32.1022 7.35C32.5622 6.86 32.7922 6.23 32.7922 5.48C32.7922 4.73 32.5622 4.11 32.1022 3.62C31.6422 3.13 31.0222 2.88 30.2322 2.88C29.4422 2.88 28.8222 3.13 28.3622 3.62C27.9022 4.11 27.6722 4.73 27.6722 5.48C27.6722 6.23 27.9022 6.86 28.3622 7.35ZM29.3122 4.39C29.5422 4.09 29.8422 3.94 30.2322 3.94C30.6222 3.94 30.9222 4.09 31.1522 4.39C31.3822 4.68 31.4922 5.05 31.4922 5.48C31.4922 5.91 31.3822 6.28 31.1522 6.58C30.9222 6.87 30.6222 7.02 30.2322 7.02C29.8422 7.02 29.5422 6.87 29.3122 6.58C29.0822 6.28 28.9722 5.91 28.9722 5.48C28.9722 5.05 29.0822 4.68 29.3122 4.39ZM33.9113 8H35.1513V5.99C35.1513 4.72 35.6613 3.94 36.3013 3.94C36.7813 3.94 37.0213 4.22 37.0213 4.77V8H38.2613V4.4C38.2613 3.41 37.6413 2.88 36.7113 2.88C36.0813 2.88 35.5613 3.18 35.1513 3.77V2.96H33.9113V8ZM40.6005 4.52C40.7305 4.13 41.0205 3.94 41.4705 3.94C42.0605 3.94 42.3505 4.19 42.3505 4.68V4.9H41.5105C40.2305 4.9 39.3605 5.55 39.3605 6.55C39.3605 7.52 40.0005 8.08 40.8905 8.08C41.5305 8.08 42.0505 7.84 42.4405 7.36L42.5705 8H43.5905V4.99C43.5905 3.58 42.8805 2.88 41.4705 2.88C40.4605 2.88 39.7105 3.44 39.5505 4.28L40.6005 4.52ZM40.6605 6.53C40.6605 6.1 40.9505 5.88 41.5205 5.88H42.3505V5.98C42.3505 6.29 42.2305 6.54 41.9905 6.73C41.7605 6.92 41.4905 7.02 41.1805 7.02C40.8505 7.02 40.6605 6.8 40.6605 6.53ZM44.8191 8H46.0591V0.92H44.8191V8ZM53.3727 6.19C53.1027 6.74 52.7027 7.02 52.1927 7.02C51.4327 7.02 51.0327 6.4 51.0327 5.48C51.0327 4.56 51.4327 3.94 52.1927 3.94C52.7027 3.94 53.1027 4.22 53.3727 4.77L54.4827 4.32C54.0927 3.36 53.3327 2.88 52.1927 2.88C51.4027 2.88 50.8027 3.13 50.3727 3.62C49.9427 4.11 49.7327 4.73 49.7327 5.48C49.7327 6.23 49.9427 6.85 50.3727 7.34C50.8027 7.83 51.4027 8.08 52.1927 8.08C53.3327 8.08 54.0927 7.6 54.4827 6.64L53.3727 6.19ZM56.0087 7.35C56.4687 7.84 57.0887 8.08 57.8787 8.08C58.6687 8.08 59.2887 7.84 59.7487 7.35C60.2087 6.86 60.4387 6.23 60.4387 5.48C60.4387 4.73 60.2087 4.11 59.7487 3.62C59.2887 3.13 58.6687 2.88 57.8787 2.88C57.0887 2.88 56.4687 3.13 56.0087 3.62C55.5487 4.11 55.3187 4.73 55.3187 5.48C55.3187 6.23 55.5487 6.86 56.0087 7.35ZM56.9587 4.39C57.1887 4.09 57.4887 3.94 57.8787 3.94C58.2687 3.94 58.5687 4.09 58.7987 4.39C59.0287 4.68 59.1387 5.05 59.1387 5.48C59.1387 5.91 59.0287 6.28 58.7987 6.58C58.5687 6.87 58.2687 7.02 57.8787 7.02C57.4887 7.02 57.1887 6.87 56.9587 6.58C56.7287 6.28 56.6187 5.91 56.6187 5.48C56.6187 5.05 56.7287 4.68 56.9587 4.39ZM61.5578 8H62.7978V5.99C62.7978 4.72 63.3078 3.94 63.9478 3.94C64.4278 3.94 64.6678 4.22 64.6678 4.77V8H65.9078V4.4C65.9078 3.41 65.2878 2.88 64.3578 2.88C63.7278 2.88 63.2078 3.18 62.7978 3.77V2.96H61.5578V8ZM69.967 6.9C69.817 6.98 69.657 7.02 69.487 7.02C69.047 7.02 68.827 6.8 68.827 6.2V4.02H70.157V2.96H68.827V0.92L67.587 1.7V2.96H66.807V4.02H67.587V6.22C67.587 7.45 68.277 8.08 69.437 8.08C69.727 8.08 69.997 8.02 70.257 7.9L69.967 6.9ZM72.583 6.21C72.583 4.68 73.143 3.99 73.933 3.99C74.123 3.99 74.303 4.04 74.453 4.13L74.683 2.98C74.463 2.91 74.263 2.88 74.073 2.88C73.483 2.88 72.943 3.21 72.583 3.78V2.96H71.343V8H72.583V6.21ZM75.9013 7.35C76.3613 7.84 76.9813 8.08 77.7713 8.08C78.5613 8.08 79.1813 7.84 79.6413 7.35C80.1013 6.86 80.3313 6.23 80.3313 5.48C80.3313 4.73 80.1013 4.11 79.6413 3.62C79.1813 3.13 78.5613 2.88 77.7713 2.88C76.9813 2.88 76.3613 3.13 75.9013 3.62C75.4412 4.11 75.2113 4.73 75.2113 5.48C75.2113 6.23 75.4412 6.86 75.9013 7.35ZM76.8513 4.39C77.0813 4.09 77.3813 3.94 77.7713 3.94C78.1613 3.94 78.4613 4.09 78.6913 4.39C78.9213 4.68 79.0313 5.05 79.0313 5.48C79.0313 5.91 78.9213 6.28 78.6913 6.58C78.4613 6.87 78.1613 7.02 77.7713 7.02C77.3813 7.02 77.0813 6.87 76.8513 6.58C76.6213 6.28 76.5113 5.91 76.5113 5.48C76.5113 5.05 76.6213 4.68 76.8513 4.39ZM81.4988 8H82.7388V0.92H81.4988V8ZM85.6948 2.88C85.2248 2.88 84.8348 3.02 84.5348 3.31C84.2348 3.6 84.0848 3.94 84.0848 4.35C84.0848 5.07 84.4648 5.44 85.1048 5.71C85.2948 5.79 85.6448 5.9 85.8148 5.98C85.9048 6.01 86.0048 6.05 86.0948 6.1C86.2848 6.19 86.3648 6.32 86.3648 6.48C86.3648 6.84 86.1548 7.02 85.7448 7.02C85.2748 7.02 84.9348 6.74 84.7348 6.19L83.7448 6.72C83.8948 7.08 84.1448 7.4 84.4948 7.67C84.8448 7.94 85.2648 8.08 85.7448 8.08C86.2748 8.08 86.7048 7.92 87.0348 7.59C87.3648 7.26 87.5348 6.87 87.5348 6.4C87.5348 6.05 87.3748 5.75 87.2248 5.58C87.1548 5.49 87.0348 5.41 86.8648 5.32C86.7048 5.23 86.5848 5.16 86.5048 5.13L86.0748 4.98L85.7148 4.85C85.3948 4.73 85.2348 4.57 85.2348 4.36C85.2348 4.09 85.4448 3.94 85.6948 3.94C86.0248 3.94 86.3048 4.09 86.5348 4.38L87.2748 3.7C86.9548 3.21 86.3648 2.88 85.6948 2.88Z" fill="white"/>
</svg>
