<svg width="333" height="55" viewBox="0 0 333 55" fill="none" xmlns="http://www.w3.org/2000/svg">
<path d="M1.57988 45.32C2.02988 45.83 2.60988 46.08 3.33988 46.08C4.06988 46.08 4.64988 45.83 5.08988 45.32C5.53988 44.81 5.75988 44.19 5.75988 43.48C5.75988 42.77 5.53988 42.16 5.08988 41.65C4.64988 41.14 4.06988 40.88 3.33988 40.88C2.60988 40.88 2.02988 41.14 1.57988 41.65C1.13988 42.16 0.919883 42.77 0.919883 43.48C0.919883 44.19 1.13988 44.81 1.57988 45.32ZM2.18988 42.19C2.46988 41.82 2.84988 41.64 3.33988 41.64C3.82988 41.64 4.20988 41.82 4.47988 42.19C4.75988 42.55 4.89988 42.98 4.89988 43.48C4.89988 43.98 4.75988 44.41 4.47988 44.78C4.20988 45.14 3.82988 45.32 3.33988 45.32C2.84988 45.32 2.46988 45.14 2.18988 44.78C1.91988 44.41 1.77988 43.98 1.77988 43.48C1.77988 42.98 1.91988 42.55 2.18988 42.19ZM9.52785 46.08C10.9679 46.08 11.7679 45.04 11.7679 43.48C11.7679 41.92 10.9679 40.88 9.52785 40.88C8.92785 40.88 8.30785 41.19 8.05785 41.58V40.96H7.21785V48.04H8.05785V45.4C8.14785 45.56 8.34785 45.71 8.63785 45.86C8.92785 46.01 9.22785 46.08 9.52785 46.08ZM9.44785 41.64C10.3279 41.64 10.9079 42.39 10.9079 43.48C10.9079 44.57 10.3279 45.32 9.44785 45.32C8.53785 45.32 7.98785 44.57 7.98785 43.48C7.98785 42.39 8.53785 41.64 9.44785 41.64ZM17.4916 43.27C17.4916 42.6 17.2916 42.04 16.8816 41.58C16.4816 41.11 15.9216 40.88 15.2116 40.88C14.4816 40.88 13.9216 41.13 13.5216 41.64C13.1316 42.14 12.9316 42.75 12.9316 43.48C12.9316 44.21 13.1316 44.82 13.5216 45.33C13.9216 45.83 14.4816 46.08 15.2116 46.08C16.2516 46.08 16.8816 45.67 17.3516 44.68L16.6116 44.36C16.3216 45.01 15.9216 45.32 15.2116 45.32C14.3416 45.32 13.8416 44.65 13.7916 43.66H17.4916V43.27ZM15.2116 41.64C15.9816 41.64 16.4516 42.14 16.6116 42.9H13.8416C14.0016 42.13 14.4616 41.64 15.2116 41.64ZM22.9168 42.45C22.9168 41.45 22.3568 40.88 21.4368 40.88C20.7068 40.88 20.1468 41.22 19.7668 41.89V40.96H18.9268V46H19.7668V43.89C19.7668 43.22 19.9068 42.67 20.1868 42.26C20.4768 41.85 20.8168 41.64 21.2068 41.64C21.7868 41.64 22.0768 41.98 22.0768 42.67V46H22.9168V42.45ZM30.6641 44.39C30.3941 45.01 29.9341 45.32 29.2841 45.32C28.3541 45.32 27.8541 44.56 27.8541 43.48C27.8541 42.4 28.3541 41.64 29.2841 41.64C29.9341 41.64 30.3941 41.95 30.6641 42.57L31.3941 42.27C30.9841 41.34 30.2841 40.88 29.2841 40.88C28.5541 40.88 27.9841 41.13 27.5841 41.64C27.1941 42.14 26.9941 42.75 26.9941 43.48C26.9941 44.21 27.1941 44.82 27.5841 45.33C27.9841 45.83 28.5541 46.08 29.2841 46.08C30.2841 46.08 30.9841 45.62 31.3941 44.69L30.6641 44.39ZM36.7957 42.5C36.7957 41.45 36.2457 40.88 35.3157 40.88C34.5457 40.88 33.8857 41.27 33.5657 41.9V38.92H32.7257V46H33.5657V43.86C33.5657 43.2 33.7157 42.67 34.0257 42.26C34.3357 41.85 34.6957 41.64 35.0857 41.64C35.6657 41.64 35.9557 41.98 35.9557 42.67V46H36.7957V42.5ZM39.0069 44.55C39.0069 43.98 39.4969 43.66 40.3469 43.66H41.2469V43.78C41.2469 44.31 41.1069 44.7 40.8269 44.95C40.5469 45.2 40.2169 45.32 39.8369 45.32C39.3069 45.32 39.0069 45.03 39.0069 44.55ZM42.0869 42.78C42.0869 41.5 41.3169 40.88 40.1469 40.88C39.1969 40.88 38.4869 41.41 38.3569 42.26L39.0969 42.43C39.2069 41.94 39.6169 41.64 40.1469 41.64C40.8769 41.64 41.2469 41.99 41.2469 42.68V42.9H40.4269C39.0169 42.9 38.1469 43.48 38.1469 44.55C38.1469 45.58 38.7969 46.08 39.7069 46.08C40.3969 46.08 40.9169 45.82 41.2869 45.29L41.4269 46H42.0869V42.78ZM43.9608 41.72V44.42C43.9608 45.51 44.5308 46.08 45.4208 46.08C45.7508 46.08 46.0208 46.02 46.2408 45.89L46.0408 45.16C45.8808 45.27 45.6908 45.32 45.4708 45.32C45.0408 45.32 44.8008 45.02 44.8008 44.49V41.72H46.1208V40.96H44.8008V38.92L43.9608 39.45V40.96H43.0908V41.72H43.9608Z" fill="white"/>
<path d="M33.3789 15.7891C33.3789 15.7539 32.6055 14.9102 32.0781 13.8555C33.0273 12.9062 33.625 11.7109 33.625 10.375C33.625 7.5625 30.918 5.24219 27.4023 4.85547C26.3125 2.81641 23.7109 1.375 20.6875 1.375C16.6445 1.375 13.375 3.90625 13.375 7C13.375 8.30078 13.9375 9.49609 14.9219 10.4805C14.3594 11.5352 13.5859 12.3789 13.5859 12.4141C13.375 12.625 13.3047 12.9766 13.4102 13.293C13.5508 13.5742 13.832 13.7852 14.1836 13.7852C16.0469 13.7852 17.5586 13.0469 18.5781 12.4141C18.8945 12.4844 19.2109 12.5195 19.5625 12.5898C20.6523 14.5938 23.2539 16.0352 26.3125 16.0352C27.0156 16.0352 27.7188 15.9297 28.3867 15.7891C29.4062 16.4219 30.918 17.1602 32.8164 17.1602C33.1328 17.1602 33.4141 16.9492 33.5547 16.668C33.6602 16.3516 33.625 16 33.3789 15.7891ZM18.8242 11.2891L18.3672 11.1836L17.9453 11.4648C17.2422 11.9219 16.1875 12.4492 14.8867 12.5898C15.168 12.2031 15.5898 11.6406 15.9062 10.9727L16.293 10.2344L15.6953 9.67188C15.1328 9.10938 14.5 8.23047 14.5 7C14.5 4.53906 17.2773 2.5 20.6875 2.5C24.0977 2.5 26.875 4.53906 26.875 7C26.875 9.49609 24.0977 11.5 20.6875 11.5C20.0547 11.5 19.4219 11.4297 18.8242 11.2891ZM29.0195 14.8398L28.5977 14.5586L28.1406 14.6992C27.543 14.8398 26.9102 14.9102 26.3125 14.9102C23.9922 14.9102 22.0234 13.9961 20.9336 12.625C24.8359 12.5195 28 10.0586 28 7C28 6.68359 27.9297 6.36719 27.8594 6.05078C30.5312 6.54297 32.5 8.30078 32.5 10.375C32.5 11.6055 31.832 12.4844 31.2695 13.0469L30.707 13.6094L31.0586 14.3477C31.375 15.0156 31.7969 15.5781 32.0781 15.9648C30.7773 15.8242 29.7227 15.2969 29.0195 14.8398Z" fill="white"/>
<path d="M201.086 7.07031C200.84 6.92969 200.488 7.07031 200.348 7.35156C200.207 7.63281 200.348 7.94922 200.629 8.08984C201.121 8.33594 201.438 8.79297 201.438 9.25C201.438 9.74219 201.121 10.1992 200.629 10.4453C200.348 10.5859 200.207 10.9023 200.348 11.1836C200.488 11.4648 200.84 11.6055 201.086 11.4648C202 11.043 202.562 10.1992 202.562 9.25C202.562 8.33594 202 7.49219 201.086 7.07031ZM197.184 2.5C196.973 2.5 196.762 2.60547 196.621 2.78125L193.492 5.875H189.906C189.414 5.875 189.062 6.26172 189.062 6.71875V11.7812C189.062 12.2734 189.414 12.625 189.906 12.625H193.492L196.621 15.7539C196.762 15.9297 196.973 16 197.184 16C197.641 16 198.062 15.6836 198.062 15.1562V3.37891C198.062 2.85156 197.641 2.5 197.184 2.5ZM196.938 14.4883L193.949 11.5H190.188V7H193.949L196.938 4.04688V14.4883ZM205.938 9.25C205.938 6.92969 204.707 4.82031 202.809 3.73047C202.527 3.55469 202.176 3.66016 202.035 3.94141C201.859 4.1875 201.965 4.53906 202.246 4.67969C203.793 5.59375 204.777 7.35156 204.777 9.25C204.777 11.1836 203.793 12.9414 202.246 13.8555C201.965 13.9961 201.859 14.3477 202.035 14.5938C202.176 14.875 202.527 14.9805 202.809 14.8047C204.707 13.7148 205.938 11.6055 205.938 9.25Z" fill="white"/>
<path d="M168.014 38.55C168.014 37.98 168.504 37.66 169.354 37.66H170.254V37.78C170.254 38.31 170.114 38.7 169.834 38.95C169.554 39.2 169.224 39.32 168.844 39.32C168.314 39.32 168.014 39.03 168.014 38.55ZM171.094 36.78C171.094 35.5 170.324 34.88 169.154 34.88C168.204 34.88 167.494 35.41 167.364 36.26L168.104 36.43C168.214 35.94 168.624 35.64 169.154 35.64C169.884 35.64 170.254 35.99 170.254 36.68V36.9H169.434C168.024 36.9 167.154 37.48 167.154 38.55C167.154 39.58 167.804 40.08 168.714 40.08C169.404 40.08 169.924 39.82 170.294 39.29L170.434 40H171.094V36.78ZM174.628 34.88C173.188 34.88 172.388 35.92 172.388 37.48C172.388 39.04 173.188 40.08 174.628 40.08C175.228 40.08 175.848 39.77 176.098 39.38V40H176.938V32.92H176.098V35.56C176.008 35.4 175.808 35.25 175.518 35.1C175.228 34.95 174.928 34.88 174.628 34.88ZM174.708 39.32C173.828 39.32 173.248 38.57 173.248 37.48C173.248 36.39 173.828 35.64 174.708 35.64C175.618 35.64 176.168 36.39 176.168 37.48C176.168 38.57 175.618 39.32 174.708 39.32ZM178.104 42.12C179.094 41.93 179.644 41.29 179.644 40.26V34.96H178.804V40.18C178.804 40.89 178.524 41.15 177.884 41.32L178.104 42.12ZM178.574 33.56C178.574 33.91 178.844 34.18 179.204 34.18C179.564 34.18 179.834 33.91 179.834 33.56C179.834 33.2 179.564 32.92 179.204 32.92C178.844 32.92 178.574 33.2 178.574 33.56ZM181.214 38.51C181.214 39.51 181.774 40.08 182.694 40.08C183.424 40.08 183.984 39.74 184.364 39.07V40H185.204V34.96H184.364V37.07C184.364 37.74 184.224 38.29 183.934 38.7C183.654 39.11 183.314 39.32 182.924 39.32C182.344 39.32 182.054 38.98 182.054 38.29V34.96H181.214V38.51ZM188.358 34.88C187.468 34.88 186.878 35.47 186.878 36.27C186.878 37.23 187.718 37.55 188.378 37.8C188.828 37.96 189.198 38.2 189.198 38.53C189.198 39.06 188.928 39.32 188.388 39.32C187.878 39.32 187.488 38.99 187.218 38.33L186.508 38.72C186.798 39.49 187.438 40.08 188.388 40.08C189.418 40.08 190.058 39.48 190.058 38.48C190.068 37 187.708 37.18 187.718 36.28C187.718 35.88 187.978 35.64 188.328 35.64C188.638 35.64 188.938 35.81 189.248 36.14L189.818 35.65C189.458 35.14 188.968 34.88 188.358 34.88ZM191.64 35.72V38.42C191.64 39.51 192.21 40.08 193.1 40.08C193.43 40.08 193.7 40.02 193.92 39.89L193.72 39.16C193.56 39.27 193.37 39.32 193.15 39.32C192.72 39.32 192.48 39.02 192.48 38.49V35.72H193.8V34.96H192.48V32.92L191.64 33.45V34.96H190.77V35.72H191.64ZM199.255 38.93L198.025 34.96H197.165L198.825 40H199.685L201.345 34.96H200.485L199.255 38.93ZM202.667 39.32C203.117 39.83 203.697 40.08 204.427 40.08C205.157 40.08 205.737 39.83 206.177 39.32C206.627 38.81 206.847 38.19 206.847 37.48C206.847 36.77 206.627 36.16 206.177 35.65C205.737 35.14 205.157 34.88 204.427 34.88C203.697 34.88 203.117 35.14 202.667 35.65C202.227 36.16 202.007 36.77 202.007 37.48C202.007 38.19 202.227 38.81 202.667 39.32ZM203.277 36.19C203.557 35.82 203.937 35.64 204.427 35.64C204.917 35.64 205.297 35.82 205.567 36.19C205.847 36.55 205.987 36.98 205.987 37.48C205.987 37.98 205.847 38.41 205.567 38.78C205.297 39.14 204.917 39.32 204.427 39.32C203.937 39.32 203.557 39.14 203.277 38.78C203.007 38.41 202.867 37.98 202.867 37.48C202.867 36.98 203.007 36.55 203.277 36.19ZM208.158 40H208.998V32.92H208.158V40ZM210.52 38.51C210.52 39.51 211.08 40.08 212 40.08C212.73 40.08 213.29 39.74 213.67 39.07V40H214.51V34.96H213.67V37.07C213.67 37.74 213.53 38.29 213.24 38.7C212.96 39.11 212.62 39.32 212.23 39.32C211.65 39.32 211.36 38.98 211.36 38.29V34.96H210.52V38.51ZM223.035 36.45C223.035 35.46 222.525 34.88 221.615 34.88C220.895 34.88 220.345 35.23 219.975 35.93C219.815 35.26 219.315 34.88 218.625 34.88C217.915 34.88 217.395 35.22 217.055 35.89V34.96H216.215V40H217.055V37.93C217.055 36.52 217.635 35.64 218.395 35.64C218.935 35.64 219.205 35.97 219.205 36.63V40H220.045V37.93C220.045 36.52 220.625 35.64 221.385 35.64C221.925 35.64 222.195 35.97 222.195 36.63V40H223.035V36.45ZM228.911 37.27C228.911 36.6 228.711 36.04 228.301 35.58C227.901 35.11 227.341 34.88 226.631 34.88C225.901 34.88 225.341 35.13 224.941 35.64C224.551 36.14 224.351 36.75 224.351 37.48C224.351 38.21 224.551 38.82 224.941 39.33C225.341 39.83 225.901 40.08 226.631 40.08C227.671 40.08 228.301 39.67 228.771 38.68L228.031 38.36C227.741 39.01 227.341 39.32 226.631 39.32C225.761 39.32 225.261 38.65 225.211 37.66H228.911V37.27ZM226.631 35.64C227.401 35.64 227.871 36.14 228.031 36.9H225.261C225.421 36.13 225.881 35.64 226.631 35.64ZM170.997 51.32C171.447 51.83 172.027 52.08 172.757 52.08C173.487 52.08 174.067 51.83 174.507 51.32C174.957 50.81 175.177 50.19 175.177 49.48C175.177 48.77 174.957 48.16 174.507 47.65C174.067 47.14 173.487 46.88 172.757 46.88C172.027 46.88 171.447 47.14 170.997 47.65C170.557 48.16 170.337 48.77 170.337 49.48C170.337 50.19 170.557 50.81 170.997 51.32ZM171.607 48.19C171.887 47.82 172.267 47.64 172.757 47.64C173.247 47.64 173.627 47.82 173.897 48.19C174.177 48.55 174.317 48.98 174.317 49.48C174.317 49.98 174.177 50.41 173.897 50.78C173.627 51.14 173.247 51.32 172.757 51.32C172.267 51.32 171.887 51.14 171.607 50.78C171.337 50.41 171.197 49.98 171.197 49.48C171.197 48.98 171.337 48.55 171.607 48.19ZM176.768 47.72V52H177.608V47.72H178.768V46.96H177.608V46.63C177.608 45.98 177.838 45.68 178.388 45.68C178.578 45.68 178.758 45.73 178.948 45.82L179.118 45.08C178.928 44.97 178.688 44.92 178.398 44.92C177.358 44.92 176.768 45.5 176.768 46.63V46.96H176.048V47.72H176.768ZM183.016 47.72V50.42C183.016 51.51 183.586 52.08 184.476 52.08C184.806 52.08 185.076 52.02 185.296 51.89L185.096 51.16C184.936 51.27 184.746 51.32 184.526 51.32C184.096 51.32 183.856 51.02 183.856 50.49V47.72H185.176V46.96H183.856V44.92L183.016 45.45V46.96H182.146V47.72H183.016ZM190.597 48.5C190.597 47.45 190.047 46.88 189.117 46.88C188.347 46.88 187.687 47.27 187.367 47.9V44.92H186.527V52H187.367V49.86C187.367 49.2 187.517 48.67 187.827 48.26C188.137 47.85 188.497 47.64 188.887 47.64C189.467 47.64 189.757 47.98 189.757 48.67V52H190.597V48.5ZM196.43 49.27C196.43 48.6 196.23 48.04 195.82 47.58C195.42 47.11 194.86 46.88 194.15 46.88C193.42 46.88 192.86 47.13 192.46 47.64C192.07 48.14 191.87 48.75 191.87 49.48C191.87 50.21 192.07 50.82 192.46 51.33C192.86 51.83 193.42 52.08 194.15 52.08C195.19 52.08 195.82 51.67 196.29 50.68L195.55 50.36C195.26 51.01 194.86 51.32 194.15 51.32C193.28 51.32 192.78 50.65 192.73 49.66H196.43V49.27ZM194.15 47.64C194.92 47.64 195.39 48.14 195.55 48.9H192.78C192.94 48.13 193.4 47.64 194.15 47.64ZM207.342 48.45C207.342 47.46 206.832 46.88 205.922 46.88C205.202 46.88 204.652 47.23 204.282 47.93C204.122 47.26 203.622 46.88 202.932 46.88C202.222 46.88 201.702 47.22 201.362 47.89V46.96H200.522V52H201.362V49.93C201.362 48.52 201.942 47.64 202.702 47.64C203.242 47.64 203.512 47.97 203.512 48.63V52H204.352V49.93C204.352 48.52 204.932 47.64 205.692 47.64C206.232 47.64 206.502 47.97 206.502 48.63V52H207.342V48.45ZM209.085 50.51C209.085 51.51 209.645 52.08 210.565 52.08C211.295 52.08 211.855 51.74 212.235 51.07V52H213.075V46.96H212.235V49.07C212.235 49.74 212.095 50.29 211.805 50.7C211.525 51.11 211.185 51.32 210.795 51.32C210.215 51.32 209.925 50.98 209.925 50.29V46.96H209.085V50.51ZM216.229 46.88C215.339 46.88 214.749 47.47 214.749 48.27C214.749 49.23 215.589 49.55 216.249 49.8C216.699 49.96 217.069 50.2 217.069 50.53C217.069 51.06 216.799 51.32 216.259 51.32C215.749 51.32 215.359 50.99 215.089 50.33L214.379 50.72C214.669 51.49 215.309 52.08 216.259 52.08C217.289 52.08 217.929 51.48 217.929 50.48C217.939 49 215.579 49.18 215.589 48.28C215.589 47.88 215.849 47.64 216.199 47.64C216.509 47.64 216.809 47.81 217.119 48.14L217.689 47.65C217.329 47.14 216.839 46.88 216.229 46.88ZM219.194 52H220.034V46.96H219.194V52ZM218.984 45.56C218.984 45.91 219.254 46.18 219.614 46.18C219.974 46.18 220.244 45.91 220.244 45.56C220.244 45.2 219.974 44.92 219.614 44.92C219.254 44.92 218.984 45.2 218.984 45.56ZM225.032 50.39C224.762 51.01 224.302 51.32 223.652 51.32C222.722 51.32 222.222 50.56 222.222 49.48C222.222 48.4 222.722 47.64 223.652 47.64C224.302 47.64 224.762 47.95 225.032 48.57L225.762 48.27C225.352 47.34 224.652 46.88 223.652 46.88C222.922 46.88 222.352 47.13 221.952 47.64C221.562 48.14 221.362 48.75 221.362 49.48C221.362 50.21 221.562 50.82 221.952 51.33C222.352 51.83 222.922 52.08 223.652 52.08C224.652 52.08 225.352 51.62 225.762 50.69L225.032 50.39Z" fill="white"/>
<path d="M105 12.625C106.863 12.625 108.375 11.1484 108.375 9.25V3.625C108.375 1.76172 106.863 0.25 105 0.25C103.102 0.25 101.625 1.76172 101.625 3.625V9.25C101.625 11.1484 103.102 12.625 105 12.625ZM102.75 3.625C102.75 2.39453 103.734 1.375 105 1.375C106.23 1.375 107.25 2.39453 107.25 3.625V9.25C107.25 10.5156 106.23 11.5 105 11.5C103.734 11.5 102.75 10.5156 102.75 9.25V3.625ZM110.344 7H109.781C109.605 7 109.5 7.14062 109.5 7.28125V9.25C109.5 11.8516 107.285 13.9258 104.684 13.75C102.293 13.6094 100.5 11.5 100.5 9.10938V7.28125C100.5 7.14062 100.359 7 100.219 7H99.6562C99.4805 7 99.375 7.14062 99.375 7.28125V9.07422C99.375 11.9922 101.52 14.5586 104.438 14.8398V17.125H101.906C101.73 17.125 101.625 17.2656 101.625 17.4062V17.9688C101.625 18.1445 101.73 18.25 101.906 18.25H108.094C108.234 18.25 108.375 18.1445 108.375 17.9688V17.4062C108.375 17.2656 108.234 17.125 108.094 17.125H105.562V14.8398C108.375 14.5586 110.625 12.168 110.625 9.25V7.28125C110.625 7.14062 110.484 7 110.344 7Z" fill="white"/>
<path d="M79.8073 34.88C78.9173 34.88 78.3273 35.47 78.3273 36.27C78.3273 37.23 79.1673 37.55 79.8273 37.8C80.2773 37.96 80.6473 38.2 80.6473 38.53C80.6473 39.06 80.3773 39.32 79.8373 39.32C79.3273 39.32 78.9373 38.99 78.6673 38.33L77.9573 38.72C78.2473 39.49 78.8873 40.08 79.8373 40.08C80.8673 40.08 81.5073 39.48 81.5073 38.48C81.5173 37 79.1573 37.18 79.1673 36.28C79.1673 35.88 79.4273 35.64 79.7773 35.64C80.0873 35.64 80.3873 35.81 80.6973 36.14L81.2673 35.65C80.9073 35.14 80.4173 34.88 79.8073 34.88ZM87.1273 37.27C87.1273 36.6 86.9273 36.04 86.5173 35.58C86.1173 35.11 85.5573 34.88 84.8473 34.88C84.1173 34.88 83.5573 35.13 83.1573 35.64C82.7673 36.14 82.5673 36.75 82.5673 37.48C82.5673 38.21 82.7673 38.82 83.1573 39.33C83.5573 39.83 84.1173 40.08 84.8473 40.08C85.8873 40.08 86.5173 39.67 86.9873 38.68L86.2473 38.36C85.9573 39.01 85.5573 39.32 84.8473 39.32C83.9773 39.32 83.4773 38.65 83.4273 37.66H87.1273V37.27ZM84.8473 35.64C85.6173 35.64 86.0873 36.14 86.2473 36.9H83.4773C83.6373 36.13 84.0973 35.64 84.8473 35.64ZM88.4645 40H89.3045V32.92H88.4645V40ZM95.1547 37.27C95.1547 36.6 94.9547 36.04 94.5447 35.58C94.1447 35.11 93.5847 34.88 92.8747 34.88C92.1447 34.88 91.5847 35.13 91.1847 35.64C90.7947 36.14 90.5947 36.75 90.5947 37.48C90.5947 38.21 90.7947 38.82 91.1847 39.33C91.5847 39.83 92.1447 40.08 92.8747 40.08C93.9147 40.08 94.5447 39.67 95.0147 38.68L94.2747 38.36C93.9847 39.01 93.5847 39.32 92.8747 39.32C92.0047 39.32 91.5047 38.65 91.4547 37.66H95.1547V37.27ZM92.8747 35.64C93.6447 35.64 94.1147 36.14 94.2747 36.9H91.5047C91.6647 36.13 92.1247 35.64 92.8747 35.64ZM99.9873 38.39C99.7173 39.01 99.2573 39.32 98.6073 39.32C97.6773 39.32 97.1773 38.56 97.1773 37.48C97.1773 36.4 97.6773 35.64 98.6073 35.64C99.2573 35.64 99.7173 35.95 99.9873 36.57L100.717 36.27C100.307 35.34 99.6073 34.88 98.6073 34.88C97.8773 34.88 97.3073 35.13 96.9073 35.64C96.5173 36.14 96.3173 36.75 96.3173 37.48C96.3173 38.21 96.5173 38.82 96.9073 39.33C97.3073 39.83 97.8773 40.08 98.6073 40.08C99.6073 40.08 100.307 39.62 100.717 38.69L99.9873 38.39ZM102.425 35.72V38.42C102.425 39.51 102.995 40.08 103.885 40.08C104.215 40.08 104.485 40.02 104.705 39.89L104.505 39.16C104.345 39.27 104.155 39.32 103.935 39.32C103.505 39.32 103.265 39.02 103.265 38.49V35.72H104.585V34.96H103.265V32.92L102.425 33.45V34.96H101.555V35.72H102.425ZM110.11 38.6L108.83 34.96H107.91L109.68 39.79L108.88 42.04H109.74L112.24 34.96H111.36L110.11 38.6ZM113.559 39.32C114.009 39.83 114.589 40.08 115.319 40.08C116.049 40.08 116.629 39.83 117.069 39.32C117.519 38.81 117.739 38.19 117.739 37.48C117.739 36.77 117.519 36.16 117.069 35.65C116.629 35.14 116.049 34.88 115.319 34.88C114.589 34.88 114.009 35.14 113.559 35.65C113.119 36.16 112.899 36.77 112.899 37.48C112.899 38.19 113.119 38.81 113.559 39.32ZM114.169 36.19C114.449 35.82 114.829 35.64 115.319 35.64C115.809 35.64 116.189 35.82 116.459 36.19C116.739 36.55 116.879 36.98 116.879 37.48C116.879 37.98 116.739 38.41 116.459 38.78C116.189 39.14 115.809 39.32 115.319 39.32C114.829 39.32 114.449 39.14 114.169 38.78C113.899 38.41 113.759 37.98 113.759 37.48C113.759 36.98 113.899 36.55 114.169 36.19ZM119.069 38.51C119.069 39.51 119.629 40.08 120.549 40.08C121.279 40.08 121.839 39.74 122.219 39.07V40H123.059V34.96H122.219V37.07C122.219 37.74 122.079 38.29 121.789 38.7C121.509 39.11 121.169 39.32 120.779 39.32C120.199 39.32 119.909 38.98 119.909 38.29V34.96H119.069V38.51ZM127.676 35.03C127.486 34.93 127.256 34.88 126.986 34.88C126.426 34.88 125.796 35.26 125.506 35.82V34.96H124.666V40H125.506V38.09C125.506 37.32 125.646 36.72 125.926 36.29C126.206 35.86 126.536 35.64 126.916 35.64C127.126 35.64 127.316 35.69 127.506 35.78L127.676 35.03ZM90.3582 48.45C90.3582 47.46 89.8482 46.88 88.9382 46.88C88.2182 46.88 87.6682 47.23 87.2982 47.93C87.1382 47.26 86.6382 46.88 85.9482 46.88C85.2382 46.88 84.7182 47.22 84.3782 47.89V46.96H83.5382V52H84.3782V49.93C84.3782 48.52 84.9582 47.64 85.7182 47.64C86.2582 47.64 86.5282 47.97 86.5282 48.63V52H87.3682V49.93C87.3682 48.52 87.9482 47.64 88.7082 47.64C89.2482 47.64 89.5182 47.97 89.5182 48.63V52H90.3582V48.45ZM92.0638 52H92.9038V46.96H92.0638V52ZM91.8538 45.56C91.8538 45.91 92.1238 46.18 92.4838 46.18C92.8438 46.18 93.1138 45.91 93.1138 45.56C93.1138 45.2 92.8438 44.92 92.4838 44.92C92.1238 44.92 91.8538 45.2 91.8538 45.56ZM97.9024 50.39C97.6324 51.01 97.1724 51.32 96.5224 51.32C95.5924 51.32 95.0924 50.56 95.0924 49.48C95.0924 48.4 95.5924 47.64 96.5224 47.64C97.1724 47.64 97.6324 47.95 97.9024 48.57L98.6324 48.27C98.2224 47.34 97.5224 46.88 96.5224 46.88C95.7924 46.88 95.2224 47.13 94.8224 47.64C94.4324 48.14 94.2324 48.75 94.2324 49.48C94.2324 50.21 94.4324 50.82 94.8224 51.33C95.2224 51.83 95.7924 52.08 96.5224 52.08C97.5224 52.08 98.2224 51.62 98.6324 50.69L97.9024 50.39ZM102.679 52H103.519V46.96H102.679V52ZM102.469 45.56C102.469 45.91 102.739 46.18 103.099 46.18C103.459 46.18 103.729 45.91 103.729 45.56C103.729 45.2 103.459 44.92 103.099 44.92C102.739 44.92 102.469 45.2 102.469 45.56ZM109.003 48.45C109.003 47.45 108.443 46.88 107.523 46.88C106.793 46.88 106.233 47.22 105.853 47.89V46.96H105.013V52H105.853V49.89C105.853 49.22 105.993 48.67 106.273 48.26C106.563 47.85 106.903 47.64 107.293 47.64C107.873 47.64 108.163 47.98 108.163 48.67V52H109.003V48.45ZM113.094 52.08C114.534 52.08 115.334 51.04 115.334 49.48C115.334 47.92 114.534 46.88 113.094 46.88C112.494 46.88 111.874 47.19 111.624 47.58V46.96H110.784V54.04H111.624V51.4C111.714 51.56 111.914 51.71 112.204 51.86C112.494 52.01 112.794 52.08 113.094 52.08ZM113.014 47.64C113.894 47.64 114.474 48.39 114.474 49.48C114.474 50.57 113.894 51.32 113.014 51.32C112.104 51.32 111.554 50.57 111.554 49.48C111.554 48.39 112.104 47.64 113.014 47.64ZM116.662 50.51C116.662 51.51 117.222 52.08 118.142 52.08C118.872 52.08 119.432 51.74 119.812 51.07V52H120.652V46.96H119.812V49.07C119.812 49.74 119.672 50.29 119.382 50.7C119.102 51.11 118.762 51.32 118.372 51.32C117.792 51.32 117.502 50.98 117.502 50.29V46.96H116.662V50.51ZM122.723 47.72V50.42C122.723 51.51 123.293 52.08 124.183 52.08C124.513 52.08 124.783 52.02 125.003 51.89L124.803 51.16C124.643 51.27 124.453 51.32 124.233 51.32C123.803 51.32 123.563 51.02 123.563 50.49V47.72H124.883V46.96H123.563V44.92L122.723 45.45V46.96H121.853V47.72H122.723Z" fill="white"/>
<path d="M308.817 8.82812L307.376 8.19531C307.587 7.94922 307.727 7.52734 307.727 7.21094C307.727 6.64844 307.27 5.98047 306.743 5.76953L294.509 0.390625C294.368 0.320312 294.087 0.285156 293.946 0.285156C293.419 0.285156 292.786 0.636719 292.54 1.05859L289.481 6.4375C289.341 6.64844 289.27 7 289.27 7.24609C289.27 7.84375 289.727 8.51172 290.29 8.72266L295.915 11.0781L294.473 14.875H290.395V12.9062C290.395 12.7656 290.255 12.625 290.114 12.625H289.552C289.376 12.625 289.27 12.7656 289.27 12.9062V17.9688C289.27 18.1445 289.376 18.25 289.552 18.25H290.114C290.255 18.25 290.395 18.1445 290.395 17.9688V16H294.895C295.106 16 295.317 15.8594 295.423 15.6484L296.969 11.5L299.466 12.5547C299.606 12.5898 299.852 12.6602 300.028 12.6602C300.274 12.6602 300.661 12.5195 300.872 12.4141L301.505 11.9922L306.462 14.1719C307.094 14.4883 307.762 14.1016 307.973 13.6094L309.415 10.3398C309.45 10.1992 309.52 10.0234 309.52 9.88281C309.52 9.46094 309.204 8.96875 308.817 8.82812ZM300.274 11.4297C300.204 11.5 300.098 11.5352 300.028 11.5352C299.993 11.5352 299.923 11.5 299.887 11.5L290.712 7.70312H290.677C290.325 7.5625 290.325 7.17578 290.43 7L293.524 1.62109C293.594 1.51562 293.805 1.30469 294.087 1.41016L306.321 6.78906C306.462 6.85938 306.602 7.07031 306.602 7.24609C306.602 7.38672 306.497 7.5625 306.391 7.63281L300.274 11.4297ZM306.919 13.1523L302.665 11.2891L306.356 8.96875L308.36 9.88281L306.919 13.1523Z" fill="white"/>
<path d="M275.539 38.39C275.269 39.01 274.809 39.32 274.159 39.32C273.229 39.32 272.729 38.56 272.729 37.48C272.729 36.4 273.229 35.64 274.159 35.64C274.809 35.64 275.269 35.95 275.539 36.57L276.269 36.27C275.859 35.34 275.159 34.88 274.159 34.88C273.429 34.88 272.859 35.13 272.459 35.64C272.069 36.14 271.869 36.75 271.869 37.48C271.869 38.21 272.069 38.82 272.459 39.33C272.859 39.83 273.429 40.08 274.159 40.08C275.159 40.08 275.859 39.62 276.269 38.69L275.539 38.39ZM281.671 36.5C281.671 35.45 281.121 34.88 280.191 34.88C279.421 34.88 278.761 35.27 278.441 35.9V32.92H277.601V40H278.441V37.86C278.441 37.2 278.591 36.67 278.901 36.26C279.211 35.85 279.571 35.64 279.961 35.64C280.541 35.64 280.831 35.98 280.831 36.67V40H281.671V36.5ZM283.882 38.55C283.882 37.98 284.372 37.66 285.222 37.66H286.122V37.78C286.122 38.31 285.982 38.7 285.702 38.95C285.422 39.2 285.092 39.32 284.712 39.32C284.182 39.32 283.882 39.03 283.882 38.55ZM286.962 36.78C286.962 35.5 286.192 34.88 285.022 34.88C284.072 34.88 283.362 35.41 283.232 36.26L283.972 36.43C284.082 35.94 284.492 35.64 285.022 35.64C285.752 35.64 286.122 35.99 286.122 36.68V36.9H285.302C283.892 36.9 283.022 37.48 283.022 38.55C283.022 39.58 283.672 40.08 284.582 40.08C285.272 40.08 285.792 39.82 286.162 39.29L286.302 40H286.962V36.78ZM292.421 36.45C292.421 35.45 291.861 34.88 290.941 34.88C290.211 34.88 289.651 35.22 289.271 35.89V34.96H288.431V40H289.271V37.89C289.271 37.22 289.411 36.67 289.691 36.26C289.981 35.85 290.321 35.64 290.711 35.64C291.291 35.64 291.581 35.98 291.581 36.67V40H292.421V36.45ZM294.055 36.58C294.055 37.01 294.175 37.38 294.425 37.68C294.015 37.89 293.815 38.2 293.815 38.61C293.815 38.95 293.925 39.22 294.155 39.41C293.845 39.68 293.685 40.03 293.685 40.46C293.685 41.5 294.535 42.12 295.825 42.12C297.065 42.12 297.955 41.55 297.955 40.38C297.955 39.49 297.335 38.99 296.375 38.99H295.185C294.805 38.99 294.615 38.85 294.615 38.57C294.615 38.35 294.725 38.19 294.945 38.08C295.195 38.2 295.485 38.26 295.815 38.26C296.325 38.26 296.745 38.11 297.075 37.81C297.405 37.5 297.575 37.09 297.575 36.58C297.575 36.23 297.495 35.93 297.325 35.67L298.005 35.29L297.625 34.6L296.725 35.11C296.445 34.96 296.145 34.89 295.815 34.89C295.305 34.89 294.885 35.05 294.555 35.36C294.225 35.67 294.055 36.07 294.055 36.58ZM296.245 39.71C296.815 39.71 297.095 39.96 297.095 40.46C297.095 41.01 296.665 41.38 295.825 41.38C294.985 41.38 294.525 41 294.525 40.43C294.525 40.11 294.635 39.86 294.855 39.69C295.005 39.7 295.125 39.71 295.225 39.71H296.245ZM295.145 35.87C295.505 35.52 296.125 35.52 296.485 35.87C296.665 36.04 296.755 36.28 296.755 36.58C296.755 36.88 296.665 37.12 296.485 37.29C296.125 37.62 295.505 37.62 295.145 37.29C294.965 37.12 294.875 36.88 294.875 36.58C294.875 36.28 294.965 36.04 295.145 35.87ZM303.382 37.27C303.382 36.6 303.182 36.04 302.772 35.58C302.372 35.11 301.812 34.88 301.102 34.88C300.372 34.88 299.812 35.13 299.412 35.64C299.022 36.14 298.822 36.75 298.822 37.48C298.822 38.21 299.022 38.82 299.412 39.33C299.812 39.83 300.372 40.08 301.102 40.08C302.142 40.08 302.772 39.67 303.242 38.68L302.502 38.36C302.212 39.01 301.812 39.32 301.102 39.32C300.232 39.32 299.732 38.65 299.682 37.66H303.382V37.27ZM301.102 35.64C301.872 35.64 302.342 36.14 302.502 36.9H299.732C299.892 36.13 300.352 35.64 301.102 35.64ZM308.904 38.6L307.624 34.96H306.704L308.474 39.79L307.674 42.04H308.534L311.034 34.96H310.154L308.904 38.6ZM312.353 39.32C312.803 39.83 313.383 40.08 314.113 40.08C314.843 40.08 315.423 39.83 315.863 39.32C316.313 38.81 316.533 38.19 316.533 37.48C316.533 36.77 316.313 36.16 315.863 35.65C315.423 35.14 314.843 34.88 314.113 34.88C313.383 34.88 312.803 35.14 312.353 35.65C311.913 36.16 311.693 36.77 311.693 37.48C311.693 38.19 311.913 38.81 312.353 39.32ZM312.963 36.19C313.243 35.82 313.623 35.64 314.113 35.64C314.603 35.64 314.983 35.82 315.253 36.19C315.533 36.55 315.673 36.98 315.673 37.48C315.673 37.98 315.533 38.41 315.253 38.78C314.983 39.14 314.603 39.32 314.113 39.32C313.623 39.32 313.243 39.14 312.963 38.78C312.693 38.41 312.553 37.98 312.553 37.48C312.553 36.98 312.693 36.55 312.963 36.19ZM317.863 38.51C317.863 39.51 318.423 40.08 319.343 40.08C320.073 40.08 320.633 39.74 321.013 39.07V40H321.853V34.96H321.013V37.07C321.013 37.74 320.873 38.29 320.583 38.7C320.303 39.11 319.963 39.32 319.573 39.32C318.993 39.32 318.703 38.98 318.703 38.29V34.96H317.863V38.51ZM326.47 35.03C326.28 34.93 326.05 34.88 325.78 34.88C325.22 34.88 324.59 35.26 324.3 35.82V34.96H323.46V40H324.3V38.09C324.3 37.32 324.44 36.72 324.72 36.29C325 35.86 325.33 35.64 325.71 35.64C325.92 35.64 326.11 35.69 326.3 35.78L326.47 35.03ZM273.22 50.39C272.95 51.01 272.49 51.32 271.84 51.32C270.91 51.32 270.41 50.56 270.41 49.48C270.41 48.4 270.91 47.64 271.84 47.64C272.49 47.64 272.95 47.95 273.22 48.57L273.95 48.27C273.54 47.34 272.84 46.88 271.84 46.88C271.11 46.88 270.54 47.13 270.14 47.64C269.75 48.14 269.55 48.75 269.55 49.48C269.55 50.21 269.75 50.82 270.14 51.33C270.54 51.83 271.11 52.08 271.84 52.08C272.84 52.08 273.54 51.62 273.95 50.69L273.22 50.39ZM275.879 50.55C275.879 49.98 276.369 49.66 277.219 49.66H278.119V49.78C278.119 50.31 277.979 50.7 277.699 50.95C277.419 51.2 277.089 51.32 276.709 51.32C276.179 51.32 275.879 51.03 275.879 50.55ZM278.959 48.78C278.959 47.5 278.189 46.88 277.019 46.88C276.069 46.88 275.359 47.41 275.229 48.26L275.969 48.43C276.079 47.94 276.489 47.64 277.019 47.64C277.749 47.64 278.119 47.99 278.119 48.68V48.9H277.299C275.889 48.9 275.019 49.48 275.019 50.55C275.019 51.58 275.669 52.08 276.579 52.08C277.269 52.08 277.789 51.82 278.159 51.29L278.299 52H278.959V48.78ZM287.248 48.45C287.248 47.46 286.738 46.88 285.828 46.88C285.108 46.88 284.558 47.23 284.188 47.93C284.028 47.26 283.528 46.88 282.838 46.88C282.128 46.88 281.608 47.22 281.268 47.89V46.96H280.428V52H281.268V49.93C281.268 48.52 281.848 47.64 282.608 47.64C283.148 47.64 283.418 47.97 283.418 48.63V52H284.258V49.93C284.258 48.52 284.838 47.64 285.598 47.64C286.138 47.64 286.408 47.97 286.408 48.63V52H287.248V48.45ZM293.123 49.27C293.123 48.6 292.923 48.04 292.513 47.58C292.113 47.11 291.553 46.88 290.843 46.88C290.113 46.88 289.553 47.13 289.153 47.64C288.763 48.14 288.563 48.75 288.563 49.48C288.563 50.21 288.763 50.82 289.153 51.33C289.553 51.83 290.113 52.08 290.843 52.08C291.883 52.08 292.513 51.67 292.983 50.68L292.243 50.36C291.953 51.01 291.553 51.32 290.843 51.32C289.973 51.32 289.473 50.65 289.423 49.66H293.123V49.27ZM290.843 47.64C291.613 47.64 292.083 48.14 292.243 48.9H289.473C289.633 48.13 290.093 47.64 290.843 47.64ZM297.412 47.03C297.222 46.93 296.992 46.88 296.722 46.88C296.162 46.88 295.532 47.26 295.242 47.82V46.96H294.402V52H295.242V50.09C295.242 49.32 295.382 48.72 295.662 48.29C295.942 47.86 296.272 47.64 296.652 47.64C296.862 47.64 297.052 47.69 297.242 47.78L297.412 47.03ZM298.926 50.55C298.926 49.98 299.416 49.66 300.266 49.66H301.166V49.78C301.166 50.31 301.026 50.7 300.746 50.95C300.466 51.2 300.136 51.32 299.756 51.32C299.226 51.32 298.926 51.03 298.926 50.55ZM302.006 48.78C302.006 47.5 301.236 46.88 300.066 46.88C299.116 46.88 298.406 47.41 298.276 48.26L299.016 48.43C299.126 47.94 299.536 47.64 300.066 47.64C300.796 47.64 301.166 47.99 301.166 48.68V48.9H300.346C298.936 48.9 298.066 49.48 298.066 50.55C298.066 51.58 298.716 52.08 299.626 52.08C300.316 52.08 300.836 51.82 301.206 51.29L301.346 52H302.006V48.78ZM306.287 52H307.127V46.96H306.287V52ZM306.077 45.56C306.077 45.91 306.347 46.18 306.707 46.18C307.067 46.18 307.337 45.91 307.337 45.56C307.337 45.2 307.067 44.92 306.707 44.92C306.347 44.92 306.077 45.2 306.077 45.56ZM312.611 48.45C312.611 47.45 312.051 46.88 311.131 46.88C310.401 46.88 309.841 47.22 309.461 47.89V46.96H308.621V52H309.461V49.89C309.461 49.22 309.601 48.67 309.881 48.26C310.171 47.85 310.511 47.64 310.901 47.64C311.481 47.64 311.771 47.98 311.771 48.67V52H312.611V48.45ZM316.703 52.08C318.143 52.08 318.943 51.04 318.943 49.48C318.943 47.92 318.143 46.88 316.703 46.88C316.103 46.88 315.483 47.19 315.233 47.58V46.96H314.393V54.04H315.233V51.4C315.323 51.56 315.523 51.71 315.813 51.86C316.103 52.01 316.403 52.08 316.703 52.08ZM316.623 47.64C317.503 47.64 318.083 48.39 318.083 49.48C318.083 50.57 317.503 51.32 316.623 51.32C315.713 51.32 315.163 50.57 315.163 49.48C315.163 48.39 315.713 47.64 316.623 47.64ZM320.27 50.51C320.27 51.51 320.83 52.08 321.75 52.08C322.48 52.08 323.04 51.74 323.42 51.07V52H324.26V46.96H323.42V49.07C323.42 49.74 323.28 50.29 322.99 50.7C322.71 51.11 322.37 51.32 321.98 51.32C321.4 51.32 321.11 50.98 321.11 50.29V46.96H320.27V50.51ZM326.331 47.72V50.42C326.331 51.51 326.901 52.08 327.791 52.08C328.121 52.08 328.391 52.02 328.611 51.89L328.411 51.16C328.251 51.27 328.061 51.32 327.841 51.32C327.411 51.32 327.171 51.02 327.171 50.49V47.72H328.491V46.96H327.171V44.92L326.331 45.45V46.96H325.461V47.72H326.331Z" fill="white"/>
</svg>
