<svg width="84" height="54" viewBox="0 0 84 54" fill="none" xmlns="http://www.w3.org/2000/svg">
<g id="Keys - ASDW outlined">
<path id="Rectangle 2 (Stroke)" fill-rule="evenodd" clip-rule="evenodd" d="M17.8114 29.9928H7.22571C3.81535 29.9928 1.05072 32.7575 1.05072 36.1678V46.7535C1.05072 50.1639 3.81535 52.9285 7.22571 52.9285H17.8114C21.2218 52.9285 23.9864 50.1639 23.9864 46.7535V36.1678C23.9864 32.7575 21.2218 29.9928 17.8114 29.9928ZM7.22571 29.1107C3.32816 29.1107 0.168573 32.2703 0.168573 36.1678V46.7535C0.168573 50.6511 3.32816 53.8107 7.22571 53.8107H17.8114C21.709 53.8107 24.8686 50.6511 24.8686 46.7535V36.1678C24.8686 32.2703 21.709 29.1107 17.8114 29.1107H7.22571Z" fill="white"/>
<path id="A" d="M9.76779 45.1685H10.6478L11.2678 43.2985H13.9478L14.5678 45.1685H15.4478L13.0278 38.1685H12.1878L9.76779 45.1685ZM13.6678 42.4585H11.5478L12.6078 39.3085L13.6678 42.4585Z" fill="white"/>
<path id="S" d="M43.4121 39.2085C43.0421 38.4885 42.5221 38.0885 41.5921 38.0885C41.1221 38.0885 40.7221 38.2585 40.3821 38.5985C40.0421 38.9385 39.8721 39.3585 39.8721 39.8685C39.8721 40.3885 40.0321 40.7785 40.3921 41.0985C40.7521 41.4085 41.0221 41.5685 41.5721 41.8185C42.4121 42.2185 42.8921 42.5685 42.8921 43.1785C42.8921 43.5085 42.8021 43.7885 42.6221 44.0085C42.3921 44.2785 42.0821 44.4085 41.6721 44.4085C40.8421 44.4085 40.4421 43.8485 40.1721 42.8985L39.4121 43.3585C39.5321 43.9085 39.7921 44.3685 40.2021 44.7185C40.6121 45.0685 41.1021 45.2485 41.6721 45.2485C42.3121 45.2485 42.8321 45.0285 43.2321 44.5885C43.5921 44.1985 43.7721 43.7185 43.7721 43.1585C43.7421 42.4585 43.4921 42.0485 43.0221 41.6985C42.6921 41.4485 42.5021 41.3485 42.1021 41.1485L41.5621 40.8685C41.4521 40.8085 41.3221 40.7185 41.1621 40.6085C40.8521 40.3685 40.7521 40.1285 40.7521 39.7985C40.7521 39.3285 41.1121 38.9285 41.5921 38.9285C42.0621 38.9285 42.3821 39.0985 42.7021 39.6685L43.4121 39.2085Z" fill="white"/>
<path id="d" d="M68.9827 45.1685H70.9027C71.8127 45.1685 72.5727 44.8585 73.1927 44.2385C73.8127 43.6085 74.1227 42.7585 74.1227 41.6685C74.1227 40.5785 73.8127 39.7285 73.1927 39.1085C72.5727 38.4785 71.8127 38.1685 70.9027 38.1685H68.9827V45.1685ZM70.7527 39.0085C72.0427 39.0085 73.1827 39.7085 73.1827 41.6685C73.1827 43.6285 72.0427 44.3285 70.7527 44.3285H69.8627V39.0085H70.7527Z" fill="white"/>
<path id="w" d="M43.5178 14.8461L42.0278 9.88607H41.2278L39.7378 14.8461L38.3178 9.14607H37.3878L39.2578 16.1461H40.1778L41.6278 11.3361L43.0778 16.1461H43.9978L45.8678 9.14607H44.9378L43.5178 14.8461Z" fill="white"/>
<path id="Rectangle 4 (Stroke)" fill-rule="evenodd" clip-rule="evenodd" d="M46.9221 29.9928H36.3364C32.926 29.9928 30.1614 32.7575 30.1614 36.1678V46.7535C30.1614 50.1639 32.926 52.9285 36.3364 52.9285H46.9221C50.3325 52.9285 53.0971 50.1639 53.0971 46.7535V36.1678C53.0971 32.7575 50.3325 29.9928 46.9221 29.9928ZM36.3364 29.1107C32.4388 29.1107 29.2793 32.2703 29.2793 36.1678V46.7535C29.2793 50.6511 32.4388 53.8107 36.3364 53.8107H46.9221C50.8196 53.8107 53.9792 50.6511 53.9792 46.7535V36.1678C53.9792 32.2703 50.8196 29.1107 46.9221 29.1107H36.3364Z" fill="white"/>
<path id="Rectangle 5 (Stroke)" fill-rule="evenodd" clip-rule="evenodd" d="M46.9221 0.882142H36.3364C32.926 0.882142 30.1614 3.64678 30.1614 7.05714V17.6428C30.1614 21.0532 32.926 23.8178 36.3364 23.8178H46.9221C50.3325 23.8178 53.0971 21.0532 53.0971 17.6428V7.05714C53.0971 3.64678 50.3325 0.882142 46.9221 0.882142ZM36.3364 0C32.4388 0 29.2793 3.15959 29.2793 7.05714V17.6428C29.2793 21.5404 32.4388 24.7 36.3364 24.7H46.9221C50.8196 24.7 53.9792 21.5404 53.9792 17.6428V7.05714C53.9792 3.15959 50.8196 0 46.9221 0H36.3364Z" fill="white"/>
<path id="Rectangle 3 (Stroke)" fill-rule="evenodd" clip-rule="evenodd" d="M76.0328 29.9928H65.4471C62.0367 29.9928 59.2721 32.7575 59.2721 36.1678V46.7535C59.2721 50.1639 62.0367 52.9285 65.4471 52.9285H76.0328C79.4431 52.9285 82.2078 50.1639 82.2078 46.7535V36.1678C82.2078 32.7575 79.4431 29.9928 76.0328 29.9928ZM65.4471 29.1107C61.5495 29.1107 58.3899 32.2703 58.3899 36.1678V46.7535C58.3899 50.6511 61.5495 53.8107 65.4471 53.8107H76.0328C79.9303 53.8107 83.0899 50.6511 83.0899 46.7535V36.1678C83.0899 32.2703 79.9303 29.1107 76.0328 29.1107H65.4471Z" fill="white"/>
</g>
</svg>
