<svg width="12" height="19" viewBox="0 0 12 19" fill="none" xmlns="http://www.w3.org/2000/svg">
<path d="M6 12.625C7.86328 12.625 9.375 11.1484 9.375 9.25V3.625C9.375 1.76172 7.86328 0.25 6 0.25C4.10156 0.25 2.625 1.76172 2.625 3.625V9.25C2.625 11.1484 4.10156 12.625 6 12.625ZM3.75 3.625C3.75 2.39453 4.73438 1.375 6 1.375C7.23047 1.375 8.25 2.39453 8.25 3.625V9.25C8.25 10.5156 7.23047 11.5 6 11.5C4.73438 11.5 3.75 10.5156 3.75 9.25V3.625ZM11.3438 7H10.7812C10.6055 7 10.5 7.14062 10.5 7.28125V9.25C10.5 11.8516 8.28516 13.9258 5.68359 13.75C3.29297 13.6094 1.5 11.5 1.5 9.10938V7.28125C1.5 7.14062 1.35938 7 1.21875 7H0.65625C0.480469 7 0.375 7.14062 0.375 7.28125V9.07422C0.375 11.9922 2.51953 14.5586 5.4375 14.8398V17.125H2.90625C2.73047 17.125 2.625 17.2656 2.625 17.4062V17.9688C2.625 18.1445 2.73047 18.25 2.90625 18.25H9.09375C9.23438 18.25 9.375 18.1445 9.375 17.9688V17.4062C9.375 17.2656 9.23438 17.125 9.09375 17.125H6.5625V14.8398C9.375 14.5586 11.625 12.168 11.625 9.25V7.28125C11.625 7.14062 11.4844 7 11.3438 7Z" fill="white"/>

<mask id="volumeVal">
  <rect id="gui_micVolumeMask" x="0" y="12" width="12" height="19" fill="white"></rect>
</mask>
<path d="M3.75 3.625C3.75 2.39453 4.73438 1.375 6 1.375C7.23047 1.375 8.25 2.39453 8.25 3.625V9.25C8.25 10.5156 7.23047 11.5 6 11.5C4.73438 11.5 3.75 10.5156 3.75 9.25V3.625Z" fill="white" fill-opacity="1" mask="url(#volumeVal)"></path>

<line id="mute" x1="1" y1="1" x2="11" y2="18" stroke="white" stroke-width="2" />
</svg>
