<svg width="33" height="28" viewBox="0 0 33 28" fill="none" xmlns="http://www.w3.org/2000/svg">
<path d="M13.792 15.2594C15.1144 13.6713 14.1241 11.8839 11.8355 11.6423C9.87903 11.437 7.94065 12.5179 7.07714 14.2872C5.91774 16.6724 6.77522 19.577 9.24498 21.3221C12.2461 23.4416 15.5251 23.508 18.9368 22.1614C19.1784 22.0648 19.4199 21.9561 19.7098 21.8354C19.7098 22.88 19.7098 23.8764 19.7098 24.9271C19.1784 24.9271 18.653 24.9271 18.1337 24.9271C16.5939 24.9271 15.0541 24.915 13.5142 24.9271C11.6242 24.9452 10.0602 24.1964 8.55659 23.3148C7.40926 22.6445 6.46725 21.7871 5.77886 20.7243C5.65809 20.5431 5.57959 20.3076 5.57959 20.1023C5.56751 17.7654 5.56751 15.4285 5.57355 13.0855C5.57355 12.9346 5.5977 12.7534 5.68828 12.6326C7.28245 10.4648 10.1206 9.41409 12.6628 10.0361C14.3355 10.4467 15.4888 11.3766 15.8572 12.9285C16.0323 13.6652 15.8572 14.3657 15.2835 14.9454C14.8669 15.3681 14.3777 15.4647 13.792 15.2594Z" fill="white"/>
<path d="M8.00708 7.25833C9.08798 6.43105 10.2051 5.99024 11.4551 5.79096C15.6338 5.13276 19.7883 7.97692 19.74 12.1495C19.7219 13.943 19.74 15.7364 19.7339 17.5299C19.7339 17.6809 19.6917 17.862 19.589 17.9707C17.5057 20.1083 14.2147 20.6518 11.8295 19.2388C10.5553 18.484 9.86091 17.4212 10.0421 16.0142C10.1145 15.4285 10.4406 14.9333 11.0203 14.6435C11.3102 14.4985 11.7087 14.5167 12.1314 14.4502C12.0831 14.6374 12.0952 14.7039 12.065 14.722C11.0203 15.3681 11.4007 16.7449 12.1012 17.3608C13.2002 18.327 14.8729 18.5383 16.3765 17.8801C18.2726 17.0468 19.4078 15.1628 19.3354 13.2063C19.2146 9.81867 15.8813 7.15567 12.1072 6.84167C10.8814 6.73901 9.68579 6.86582 8.50828 7.15567C8.38751 7.18587 8.27278 7.20398 8.00708 7.25833Z" fill="white"/>
<path fill-rule="evenodd" clip-rule="evenodd" d="M4.06396 4.18471H21.2376V26.5273H4.06396V4.18471ZM5.03013 5.15087V25.5611H20.2714V5.15087H5.03013Z" fill="white"/>
<path fill-rule="evenodd" clip-rule="evenodd" d="M2.0531 2.11349H19.2267V4.31756H18.2605V3.07966H3.01927V23.4899H4.16055V24.4561H2.0531V2.11349Z" fill="white"/>
<path fill-rule="evenodd" clip-rule="evenodd" d="M22.5841 26.0388V4.6777L32.3 3.44249L32.2882 27.7143L22.5841 26.0388ZM31.0804 16.4013L31.0811 16.093L30.7751 16.131L29.7063 16.2639L29.4681 16.2935V16.5335V18.8101V19.0394L29.6941 19.0779L30.7569 19.2591L31.0736 19.3131L31.0743 18.9918L31.0804 16.4013Z" fill="white"/>
<path fill-rule="evenodd" clip-rule="evenodd" d="M0 0H17.1736V2.20407H16.2074V0.966167H0.966167V21.3764H2.10745V22.3426H0V0Z" fill="white"/>
</svg>
