<svg width="23" height="18" viewBox="0 0 23 18" fill="none" xmlns="http://www.w3.org/2000/svg">
<path d="M7.42857 15C7.42857 16.578 5.76563 17.8571 3.71428 17.8571C1.66294 17.8571 0 16.578 0 15C0 13.422 1.66294 12.1429 3.71428 12.1429C5.76563 12.1429 7.42857 13.422 7.42857 15Z" fill="white"/>
<path d="M22.4138 15C22.4138 16.578 20.7509 17.8571 18.6995 17.8571C16.6482 17.8571 14.9853 16.578 14.9853 15C14.9853 13.422 16.6482 12.1429 18.6995 12.1429C20.7509 12.1429 22.4138 13.422 22.4138 15Z" fill="white"/>
<path fill-rule="evenodd" clip-rule="evenodd" d="M6.42857 15V10H7.42857V15H6.42857Z" fill="white"/>
<path fill-rule="evenodd" clip-rule="evenodd" d="M21.4286 15V10H22.4286V15H21.4286Z" fill="white"/>
<path fill-rule="evenodd" clip-rule="evenodd" d="M8.42857 1H20.4286C20.9809 1 21.4286 1.44772 21.4286 2V12H22.4286V2C22.4286 0.895431 21.5331 0 20.4286 0H8.42857C7.324 0 6.42857 0.89543 6.42857 2V12H7.42857V2C7.42857 1.44772 7.87629 1 8.42857 1Z" fill="white"/>
<line id="mute" x1="1" y1="1" x2="22" y2="17" stroke="white"/>
</svg>
