<svg width="18" height="18" viewBox="0 0 18 18" fill="none" xmlns="http://www.w3.org/2000/svg">
<circle cx="9" cy="9" r="8.5" stroke="white"/>
<path d="M9.69623 8.812C9.56423 9.184 9.33623 9.364 9.01223 9.364C8.77223 9.364 8.58023 9.196 8.58023 8.944C8.58023 8.62 8.79623 8.476 9.60023 8.152C10.1882 7.924 10.6082 7.696 10.8602 7.444C11.1242 7.192 11.2562 6.844 11.2562 6.4C11.2562 5.248 10.3802 4.504 9.03623 4.504C7.78823 4.504 6.93623 5.284 6.74423 6.34L8.05223 6.556C8.20823 6.016 8.55623 5.752 9.07223 5.752C9.54023 5.752 9.85223 5.956 9.85223 6.352C9.85223 6.748 9.57623 7 8.65223 7.348C7.78823 7.672 7.35623 8.2 7.35623 8.908C7.35623 9.82 8.04023 10.444 9.01223 10.444C9.86423 10.444 10.4762 9.976 10.7522 9.208L9.69623 8.812ZM8.01623 12.088C8.01623 12.628 8.44823 13.072 9.01223 13.072C9.57623 13.072 10.0082 12.628 10.0082 12.088C10.0082 11.524 9.55223 11.08 9.01223 11.08C8.47223 11.08 8.01623 11.524 8.01623 12.088Z" fill="white"/>
</svg>
