<svg width="18" height="18" viewBox="0 0 18 18" fill="none" xmlns="http://www.w3.org/2000/svg">
<path d="M16.9453 10.7969L15.8203 10.1289C15.8203 9.88281 15.8555 9.49609 15.8555 9.25C15.8555 9.03906 15.8203 8.65234 15.8203 8.40625L16.9453 7.73828C17.2969 7.5625 17.4375 7.14062 17.332 6.78906C16.9453 5.45312 16.2422 4.25781 15.3281 3.27344C15.0469 2.99219 14.625 2.92188 14.2734 3.13281L13.1484 3.80078C12.7617 3.48438 12.0938 3.09766 11.6367 2.92188V1.62109C11.6367 1.19922 11.3906 0.882812 11.0039 0.777344C9.66797 0.460938 8.29688 0.460938 6.96094 0.777344C6.57422 0.882812 6.32812 1.19922 6.32812 1.62109V2.92188C5.87109 3.09766 5.20312 3.48438 4.81641 3.80078L3.69141 3.13281C3.33984 2.92188 2.91797 2.99219 2.63672 3.27344C1.72266 4.25781 1.01953 5.45312 0.632812 6.78906C0.527344 7.14062 0.667969 7.5625 1.01953 7.73828L2.14453 8.40625C2.14453 8.65234 2.10938 9.03906 2.10938 9.25C2.10938 9.49609 2.14453 9.88281 2.14453 10.1289L1.01953 10.7969C0.667969 10.9727 0.527344 11.3945 0.632812 11.7461C1.01953 13.082 1.72266 14.2773 2.63672 15.2617C2.91797 15.543 3.33984 15.6133 3.69141 15.4023L4.81641 14.7344C5.20312 15.0508 5.87109 15.4375 6.32812 15.6133V16.9141C6.32812 17.3359 6.57422 17.6523 6.96094 17.7578C8.29688 18.0742 9.66797 18.0742 11.0039 17.7578C11.3906 17.6523 11.6367 17.3359 11.6367 16.9141V15.6133C12.0938 15.4375 12.7617 15.0508 13.1484 14.7344L14.2734 15.4023C14.625 15.6133 15.0469 15.543 15.3281 15.2617C16.2422 14.2773 16.9453 13.082 17.332 11.7461C17.4375 11.3945 17.2969 10.9727 16.9453 10.7969ZM14.6602 14.3125L13.0078 13.3633C12.0586 14.207 11.7422 14.3828 10.5117 14.8398V16.7031C10.0898 16.8086 9.42188 16.8789 9 16.8789C8.54297 16.8789 7.875 16.8086 7.45312 16.7031V14.8398C6.25781 14.418 5.90625 14.207 4.95703 13.3633L3.30469 14.3125C2.63672 13.5391 2.10938 12.625 1.75781 11.6406L3.41016 10.7266C3.16406 9.46094 3.16406 9.07422 3.41016 7.80859L1.75781 6.89453C2.10938 5.91016 2.63672 4.99609 3.30469 4.22266L4.95703 5.17188C5.90625 4.32812 6.25781 4.11719 7.45312 3.69531V1.83203C7.875 1.72656 8.54297 1.65625 9 1.65625C9.42188 1.65625 10.0898 1.72656 10.5117 1.83203V3.69531C11.707 4.11719 12.0586 4.32812 13.0078 5.17188L14.6602 4.22266C15.3281 4.99609 15.8555 5.91016 16.207 6.89453L14.5547 7.80859C14.8008 9.07422 14.8008 9.46094 14.5547 10.7266L16.207 11.6406C15.8555 12.625 15.3281 13.5391 14.6602 14.3125ZM9 5.875C7.13672 5.875 5.625 7.42188 5.625 9.25C5.625 11.1133 7.13672 12.625 9 12.625C10.8281 12.625 12.375 11.1133 12.375 9.25C12.375 7.42188 10.8281 5.875 9 5.875ZM9 11.5C7.73438 11.5 6.75 10.5156 6.75 9.25C6.75 8.01953 7.73438 7 9 7C10.2305 7 11.25 8.01953 11.25 9.25C11.25 10.5156 10.2305 11.5 9 11.5Z" fill="white"/>
</svg>
