<svg width="100" height="13" viewBox="0 0 100 13" fill="none" xmlns="http://www.w3.org/2000/svg">
<path d="M28.9696 6.45C28.9696 5.45 28.4096 4.88 27.4896 4.88C26.7596 4.88 26.1996 5.22 25.8196 5.89V4.96H24.9796V10H25.8196V7.89C25.8196 7.22 25.9596 6.67 26.2396 6.26C26.5296 5.85 26.8696 5.64 27.2596 5.64C27.8396 5.64 28.1296 5.98 28.1296 6.67V10H28.9696V6.45ZM31.1436 8.55C31.1436 7.98 31.6336 7.66 32.4836 7.66H33.3836V7.78C33.3836 8.31 33.2436 8.7 32.9636 8.95C32.6836 9.2 32.3536 9.32 31.9736 9.32C31.4436 9.32 31.1436 9.03 31.1436 8.55ZM34.2236 6.78C34.2236 5.5 33.4536 4.88 32.2836 4.88C31.3336 4.88 30.6236 5.41 30.4936 6.26L31.2336 6.43C31.3436 5.94 31.7536 5.64 32.2836 5.64C33.0136 5.64 33.3836 5.99 33.3836 6.68V6.9H32.5636C31.1536 6.9 30.2836 7.48 30.2836 8.55C30.2836 9.58 30.9336 10.08 31.8436 10.08C32.5336 10.08 33.0536 9.82 33.4236 9.29L33.5636 10H34.2236V6.78ZM36.0975 5.72V8.42C36.0975 9.51 36.6675 10.08 37.5575 10.08C37.8875 10.08 38.1575 10.02 38.3775 9.89L38.1775 9.16C38.0175 9.27 37.8275 9.32 37.6075 9.32C37.1775 9.32 36.9375 9.02 36.9375 8.49V5.72H38.2575V4.96H36.9375V2.92L36.0975 3.45V4.96H35.2275V5.72H36.0975ZM39.6673 10H40.5073V4.96H39.6673V10ZM39.4573 3.56C39.4573 3.91 39.7273 4.18 40.0873 4.18C40.4473 4.18 40.7173 3.91 40.7173 3.56C40.7173 3.2 40.4473 2.92 40.0873 2.92C39.7273 2.92 39.4573 3.2 39.4573 3.56ZM43.8103 8.93L42.5803 4.96H41.7203L43.3803 10H44.2403L45.9003 4.96H45.0403L43.8103 8.93ZM51.1225 7.27C51.1225 6.6 50.9225 6.04 50.5125 5.58C50.1125 5.11 49.5525 4.88 48.8425 4.88C48.1125 4.88 47.5525 5.13 47.1525 5.64C46.7625 6.14 46.5625 6.75 46.5625 7.48C46.5625 8.21 46.7625 8.82 47.1525 9.33C47.5525 9.83 48.1125 10.08 48.8425 10.08C49.8825 10.08 50.5125 9.67 50.9825 8.68L50.2425 8.36C49.9525 9.01 49.5525 9.32 48.8425 9.32C47.9725 9.32 47.4725 8.65 47.4225 7.66H51.1225V7.27ZM48.8425 5.64C49.6125 5.64 50.0825 6.14 50.2425 6.9H47.4725C47.6325 6.13 48.0925 5.64 48.8425 5.64ZM58.5039 8.39C58.2339 9.01 57.7739 9.32 57.1239 9.32C56.1939 9.32 55.6939 8.56 55.6939 7.48C55.6939 6.4 56.1939 5.64 57.1239 5.64C57.7739 5.64 58.2339 5.95 58.5039 6.57L59.2339 6.27C58.8239 5.34 58.1239 4.88 57.1239 4.88C56.3939 4.88 55.8239 5.13 55.4239 5.64C55.0339 6.14 54.8339 6.75 54.8339 7.48C54.8339 8.21 55.0339 8.82 55.4239 9.33C55.8239 9.83 56.3939 10.08 57.1239 10.08C58.1239 10.08 58.8239 9.62 59.2339 8.69L58.5039 8.39ZM60.9139 9.32C61.3639 9.83 61.9439 10.08 62.6739 10.08C63.4039 10.08 63.9839 9.83 64.4239 9.32C64.8739 8.81 65.0939 8.19 65.0939 7.48C65.0939 6.77 64.8739 6.16 64.4239 5.65C63.9839 5.14 63.4039 4.88 62.6739 4.88C61.9439 4.88 61.3639 5.14 60.9139 5.65C60.4739 6.16 60.2539 6.77 60.2539 7.48C60.2539 8.19 60.4739 8.81 60.9139 9.32ZM61.5239 6.19C61.8039 5.82 62.1839 5.64 62.6739 5.64C63.1639 5.64 63.5439 5.82 63.8139 6.19C64.0939 6.55 64.2339 6.98 64.2339 7.48C64.2339 7.98 64.0939 8.41 63.8139 8.78C63.5439 9.14 63.1639 9.32 62.6739 9.32C62.1839 9.32 61.8039 9.14 61.5239 8.78C61.2539 8.41 61.1139 7.98 61.1139 7.48C61.1139 6.98 61.2539 6.55 61.5239 6.19ZM70.4735 6.45C70.4735 5.45 69.9135 4.88 68.9935 4.88C68.2635 4.88 67.7035 5.22 67.3235 5.89V4.96H66.4835V10H67.3235V7.89C67.3235 7.22 67.4635 6.67 67.7435 6.26C68.0335 5.85 68.3735 5.64 68.7635 5.64C69.3435 5.64 69.6335 5.98 69.6335 6.67V10H70.4735V6.45ZM72.4257 5.72V8.42C72.4257 9.51 72.9957 10.08 73.8857 10.08C74.2157 10.08 74.4857 10.02 74.7057 9.89L74.5057 9.16C74.3457 9.27 74.1557 9.32 73.9357 9.32C73.5057 9.32 73.2657 9.02 73.2657 8.49V5.72H74.5857V4.96H73.2657V2.92L72.4257 3.45V4.96H71.5557V5.72H72.4257ZM79.015 5.03C78.825 4.93 78.595 4.88 78.325 4.88C77.765 4.88 77.135 5.26 76.845 5.82V4.96H76.005V10H76.845V8.09C76.845 7.32 76.985 6.72 77.265 6.29C77.545 5.86 77.875 5.64 78.255 5.64C78.465 5.64 78.655 5.69 78.845 5.78L79.015 5.03ZM80.2205 9.32C80.6705 9.83 81.2505 10.08 81.9805 10.08C82.7105 10.08 83.2905 9.83 83.7305 9.32C84.1805 8.81 84.4005 8.19 84.4005 7.48C84.4005 6.77 84.1805 6.16 83.7305 5.65C83.2905 5.14 82.7105 4.88 81.9805 4.88C81.2505 4.88 80.6705 5.14 80.2205 5.65C79.7805 6.16 79.5605 6.77 79.5605 7.48C79.5605 8.19 79.7805 8.81 80.2205 9.32ZM80.8305 6.19C81.1105 5.82 81.4905 5.64 81.9805 5.64C82.4705 5.64 82.8505 5.82 83.1205 6.19C83.4005 6.55 83.5405 6.98 83.5405 7.48C83.5405 7.98 83.4005 8.41 83.1205 8.78C82.8505 9.14 82.4705 9.32 81.9805 9.32C81.4905 9.32 81.1105 9.14 80.8305 8.78C80.5605 8.41 80.4205 7.98 80.4205 7.48C80.4205 6.98 80.5605 6.55 80.8305 6.19ZM85.7115 10H86.5515V2.92H85.7115V10ZM89.6911 4.88C88.8011 4.88 88.2111 5.47 88.2111 6.27C88.2111 7.23 89.0511 7.55 89.7111 7.8C90.1611 7.96 90.5311 8.2 90.5311 8.53C90.5311 9.06 90.2611 9.32 89.7211 9.32C89.2111 9.32 88.8211 8.99 88.5511 8.33L87.8411 8.72C88.1311 9.49 88.7711 10.08 89.7211 10.08C90.7511 10.08 91.3911 9.48 91.3911 8.48C91.4011 7 89.0411 7.18 89.0511 6.28C89.0511 5.88 89.3111 5.64 89.6611 5.64C89.9711 5.64 90.2711 5.81 90.5811 6.14L91.1511 5.65C90.7911 5.14 90.3011 4.88 89.6911 4.88Z" fill="white"/>
<rect id="state" x="0.5" y="1.5" width="11" height="11" rx="1.5" fill="white" fill-opacity="0.52" stroke="white"/>
</svg>
