<svg width="105" height="11" viewBox="0 0 105 11" fill="none" xmlns="http://www.w3.org/2000/svg">
<path d="M5.13945 2.19C4.73945 1.34 4.06945 0.92 3.11945 0.92C2.56945 0.92 2.11945 1.1 1.74945 1.47C1.38945 1.84 1.20945 2.29 1.20945 2.82C1.18945 4.11 2.26945 4.64 3.09945 4.99C3.68945 5.24 4.13945 5.56 4.13945 5.97C4.13945 6.58 3.83945 6.88 3.22945 6.88C2.56945 6.88 2.10945 6.41 1.83945 5.46L0.789453 6.12C0.899453 6.67 1.17945 7.14 1.61945 7.52C2.05945 7.89 2.58945 8.08 3.19945 8.08C4.55945 8.08 5.43945 7.26 5.43945 5.9C5.44945 4.69 4.33945 4.17 3.49945 3.8C2.92945 3.53 2.44945 3.2 2.44945 2.76C2.44945 2.39 2.72945 2.12 3.11945 2.12C3.50945 2.12 3.83945 2.37 4.08945 2.86L5.13945 2.19ZM11.1473 5.37C11.1473 4.8 10.9673 4.21 10.6073 3.72C10.2473 3.21 9.59727 2.88 8.79727 2.88C7.06727 2.88 6.37727 4.28 6.37727 5.48C6.37727 6.68 7.06727 8.08 8.79727 8.08C9.89727 8.08 10.6573 7.59 11.0873 6.61L10.0873 6.24C9.78727 6.76 9.37727 7.02 8.86727 7.02C8.14727 7.02 7.70727 6.49 7.67727 5.88H11.1473V5.37ZM8.79727 3.94C9.37727 3.94 9.73727 4.26 9.87727 4.9H7.70727C7.79727 4.37 8.20727 3.94 8.79727 3.94ZM12.2448 8H13.4848V0.92H12.2448V8ZM19.409 5.37C19.409 4.8 19.229 4.21 18.869 3.72C18.509 3.21 17.859 2.88 17.059 2.88C15.329 2.88 14.639 4.28 14.639 5.48C14.639 6.68 15.329 8.08 17.059 8.08C18.159 8.08 18.919 7.59 19.349 6.61L18.349 6.24C18.049 6.76 17.639 7.02 17.129 7.02C16.409 7.02 15.969 6.49 15.939 5.88H19.409V5.37ZM17.059 3.94C17.639 3.94 17.999 4.26 18.139 4.9H15.969C16.059 4.37 16.469 3.94 17.059 3.94ZM24.0505 6.19C23.7805 6.74 23.3805 7.02 22.8705 7.02C22.1105 7.02 21.7105 6.4 21.7105 5.48C21.7105 4.56 22.1105 3.94 22.8705 3.94C23.3805 3.94 23.7805 4.22 24.0505 4.77L25.1605 4.32C24.7705 3.36 24.0105 2.88 22.8705 2.88C22.0805 2.88 21.4805 3.13 21.0505 3.62C20.6205 4.11 20.4105 4.73 20.4105 5.48C20.4105 6.23 20.6205 6.85 21.0505 7.34C21.4805 7.83 22.0805 8.08 22.8705 8.08C24.0105 8.08 24.7705 7.6 25.1605 6.64L24.0505 6.19ZM29.0431 6.9C28.8931 6.98 28.7331 7.02 28.5631 7.02C28.1231 7.02 27.9031 6.8 27.9031 6.2V4.02H29.2331V2.96H27.9031V0.92L26.6631 1.7V2.96H25.8831V4.02H26.6631V6.22C26.6631 7.45 27.3531 8.08 28.5131 8.08C28.8031 8.08 29.0731 8.02 29.3331 7.9L29.0431 6.9ZM32.9096 4.58C32.9096 4.99 33.0296 5.33 33.2596 5.62C32.8496 5.87 32.6396 6.22 32.6396 6.68C32.6396 6.99 32.7296 7.25 32.8996 7.46C32.6296 7.71 32.4896 8.05 32.4896 8.46C32.4896 8.99 32.6996 9.4 33.1196 9.69C33.5496 9.98 34.0996 10.12 34.7696 10.12C35.5696 10.12 36.2396 9.92 36.7096 9.37C36.9396 9.1 37.0596 8.77 37.0596 8.38C37.0596 7.43 36.3696 6.9 35.2896 6.9H34.2596C33.9496 6.9 33.7896 6.78 33.7896 6.53C33.7896 6.37 33.8696 6.24 34.0296 6.15C34.2596 6.22 34.5096 6.26 34.7596 6.26C35.2896 6.26 35.7296 6.11 36.0796 5.81C36.4296 5.5 36.6096 5.09 36.6096 4.58C36.6096 4.28 36.5396 4.01 36.4096 3.78L37.1296 3.42L36.6396 2.6L35.6896 3.1C35.3996 2.95 35.0896 2.88 34.7596 2.88C34.2296 2.88 33.7896 3.04 33.4396 3.35C33.0896 3.66 32.9096 4.07 32.9096 4.58ZM35.0096 7.94C35.5496 7.94 35.8196 8.11 35.8196 8.46C35.8196 8.87 35.4696 9.08 34.7696 9.08C34.0896 9.08 33.6396 8.83 33.6396 8.36C33.6396 8.16 33.6796 8.01 33.7496 7.9C33.9096 7.93 34.0996 7.94 34.3296 7.94H35.0096ZM34.0696 4.58C34.0696 4.17 34.3596 3.88 34.7596 3.88C35.1596 3.88 35.4496 4.17 35.4496 4.58C35.4496 4.98 35.1596 5.26 34.7596 5.26C34.3596 5.26 34.0696 4.98 34.0696 4.58ZM39.2861 6.21C39.2861 4.68 39.8461 3.99 40.6361 3.99C40.8261 3.99 41.0061 4.04 41.1561 4.13L41.3861 2.98C41.1661 2.91 40.9661 2.88 40.7761 2.88C40.1861 2.88 39.6461 3.21 39.2861 3.78V2.96H38.0461V8H39.2861V6.21ZM43.1434 4.52C43.2734 4.13 43.5634 3.94 44.0134 3.94C44.6034 3.94 44.8934 4.19 44.8934 4.68V4.9H44.0534C42.7734 4.9 41.9034 5.55 41.9034 6.55C41.9034 7.52 42.5434 8.08 43.4334 8.08C44.0734 8.08 44.5934 7.84 44.9834 7.36L45.1134 8H46.1334V4.99C46.1334 3.58 45.4234 2.88 44.0134 2.88C43.0034 2.88 42.2534 3.44 42.0934 4.28L43.1434 4.52ZM43.2034 6.53C43.2034 6.1 43.4934 5.88 44.0634 5.88H44.8934V5.98C44.8934 6.29 44.7734 6.54 44.5334 6.73C44.3034 6.92 44.0334 7.02 43.7234 7.02C43.3934 7.02 43.2034 6.8 43.2034 6.53ZM49.8616 8.08C51.3416 8.08 52.1616 7.07 52.1616 5.48C52.1616 3.89 51.3416 2.88 49.8616 2.88C49.2916 2.88 48.8016 3.19 48.6416 3.48V2.96H47.4016V10.04H48.6416V7.54C48.8716 7.83 49.3716 8.08 49.8616 8.08ZM50.5316 6.61C50.3116 6.88 50.0316 7.02 49.6916 7.02C49.3516 7.02 49.0716 6.89 48.8516 6.62C48.6416 6.35 48.5316 5.97 48.5316 5.48C48.5316 4.99 48.6416 4.62 48.8516 4.35C49.0716 4.08 49.3516 3.94 49.6916 3.94C50.0316 3.94 50.3116 4.08 50.5316 4.35C50.7516 4.62 50.8616 5 50.8616 5.48C50.8616 5.96 50.7516 6.34 50.5316 6.61ZM53.3488 8H54.5888V5.87C54.5888 4.6 55.1288 3.94 55.7688 3.94C56.2688 3.94 56.5188 4.24 56.5188 4.84V8H57.7588V4.4C57.7588 3.4 57.1588 2.88 56.1888 2.88C55.4988 2.88 54.9588 3.18 54.5888 3.77V0.92H53.3488V8ZM59.0698 2.08C59.3798 2.39 59.8998 2.39 60.2098 2.08C60.5198 1.77 60.5198 1.25 60.2098 0.94C59.8998 0.63 59.3798 0.63 59.0698 0.94C58.7598 1.25 58.7598 1.77 59.0698 2.08ZM59.0198 8H60.2598V2.96H59.0198V8ZM65.0954 6.19C64.8254 6.74 64.4254 7.02 63.9154 7.02C63.1554 7.02 62.7554 6.4 62.7554 5.48C62.7554 4.56 63.1554 3.94 63.9154 3.94C64.4254 3.94 64.8254 4.22 65.0954 4.77L66.2054 4.32C65.8154 3.36 65.0554 2.88 63.9154 2.88C63.1254 2.88 62.5254 3.13 62.0954 3.62C61.6654 4.11 61.4554 4.73 61.4554 5.48C61.4554 6.23 61.6654 6.85 62.0954 7.34C62.5254 7.83 63.1254 8.08 63.9154 8.08C65.0554 8.08 65.8154 7.6 66.2054 6.64L65.0954 6.19ZM68.8432 2.88C68.3732 2.88 67.9832 3.02 67.6832 3.31C67.3832 3.6 67.2332 3.94 67.2332 4.35C67.2332 5.07 67.6132 5.44 68.2532 5.71C68.4432 5.79 68.7932 5.9 68.9632 5.98C69.0532 6.01 69.1532 6.05 69.2432 6.1C69.4332 6.19 69.5132 6.32 69.5132 6.48C69.5132 6.84 69.3032 7.02 68.8932 7.02C68.4232 7.02 68.0832 6.74 67.8832 6.19L66.8932 6.72C67.0432 7.08 67.2932 7.4 67.6432 7.67C67.9932 7.94 68.4132 8.08 68.8932 8.08C69.4232 8.08 69.8532 7.92 70.1832 7.59C70.5132 7.26 70.6832 6.87 70.6832 6.4C70.6832 6.05 70.5232 5.75 70.3732 5.58C70.3032 5.49 70.1832 5.41 70.0132 5.32C69.8532 5.23 69.7332 5.16 69.6532 5.13L69.2232 4.98L68.8632 4.85C68.5432 4.73 68.3832 4.57 68.3832 4.36C68.3832 4.09 68.5932 3.94 68.8432 3.94C69.1732 3.94 69.4532 4.09 69.6832 4.38L70.4232 3.7C70.1032 3.21 69.5132 2.88 68.8432 2.88ZM76.3042 2.88C74.8242 2.88 74.0042 3.89 74.0042 5.48C74.0042 7.07 74.8242 8.08 76.3042 8.08C76.7942 8.08 77.2942 7.83 77.5242 7.54V10.04H78.7642V2.96H77.5242V3.48C77.3642 3.19 76.8742 2.88 76.3042 2.88ZM75.6342 4.35C75.8542 4.08 76.1342 3.94 76.4742 3.94C76.8142 3.94 77.0942 4.08 77.3042 4.35C77.5242 4.62 77.6342 4.99 77.6342 5.48C77.6342 5.97 77.5242 6.35 77.3042 6.62C77.0942 6.89 76.8142 7.02 76.4742 7.02C76.1342 7.02 75.8542 6.88 75.6342 6.61C75.4142 6.34 75.3042 5.96 75.3042 5.48C75.3042 5 75.4142 4.62 75.6342 4.35ZM84.4352 2.96H83.1952V4.97C83.1952 6.24 82.6852 7.02 82.0452 7.02C81.5652 7.02 81.3252 6.74 81.3252 6.19V2.96H80.0852V6.56C80.0852 7.55 80.7052 8.08 81.6352 8.08C82.2652 8.08 82.7852 7.78 83.1952 7.19V8H84.4352V2.96ZM86.8544 4.52C86.9844 4.13 87.2744 3.94 87.7244 3.94C88.3144 3.94 88.6044 4.19 88.6044 4.68V4.9H87.7644C86.4844 4.9 85.6144 5.55 85.6144 6.55C85.6144 7.52 86.2544 8.08 87.1444 8.08C87.7844 8.08 88.3044 7.84 88.6944 7.36L88.8244 8H89.8444V4.99C89.8444 3.58 89.1344 2.88 87.7244 2.88C86.7144 2.88 85.9644 3.44 85.8044 4.28L86.8544 4.52ZM86.9144 6.53C86.9144 6.1 87.2044 5.88 87.7744 5.88H88.6044V5.98C88.6044 6.29 88.4844 6.54 88.2444 6.73C88.0144 6.92 87.7444 7.02 87.4344 7.02C87.1044 7.02 86.9144 6.8 86.9144 6.53ZM91.073 8H92.313V0.92H91.073V8ZM93.6792 2.08C93.9892 2.39 94.5092 2.39 94.8192 2.08C95.1292 1.77 95.1292 1.25 94.8192 0.94C94.5092 0.63 93.9892 0.63 93.6792 0.94C93.3692 1.25 93.3692 1.77 93.6792 2.08ZM93.6292 8H94.8692V2.96H93.6292V8ZM98.9845 6.9C98.8345 6.98 98.6745 7.02 98.5045 7.02C98.0645 7.02 97.8445 6.8 97.8445 6.2V4.02H99.1745V2.96H97.8445V0.92L96.6045 1.7V2.96H95.8245V4.02H96.6045V6.22C96.6045 7.45 97.2945 8.08 98.4545 8.08C98.7445 8.08 99.0145 8.02 99.2745 7.9L98.9845 6.9ZM101.606 7.68L100.736 10.04H101.936L104.536 2.96H103.296L102.196 6.12L101.026 2.96H99.7761L101.606 7.68Z" fill="white"/>
</svg>
