<svg width="331" height="15" viewBox="0 0 331 15" fill="none" xmlns="http://www.w3.org/2000/svg">
<g transform="translate(25,0)"><path d="M4.644 9.623L1.8 4.7H0.873V11H1.665V6.095L4.509 11H5.436V4.7H4.644V9.623ZM10.8566 8.543C10.8566 7.94 10.6766 7.436 10.3076 7.022C9.9476 6.599 9.4436 6.392 8.8046 6.392C8.1476 6.392 7.6436 6.617 7.2836 7.076C6.9326 7.526 6.7526 8.075 6.7526 8.732C6.7526 9.389 6.9326 9.938 7.2836 10.397C7.6436 10.847 8.1476 11.072 8.8046 11.072C9.7406 11.072 10.3076 10.703 10.7306 9.812L10.0646 9.524C9.8036 10.109 9.4436 10.388 8.8046 10.388C8.0216 10.388 7.5716 9.785 7.5266 8.894H10.8566V8.543ZM8.8046 7.076C9.4976 7.076 9.9206 7.526 10.0646 8.21H7.5716C7.7156 7.517 8.1296 7.076 8.8046 7.076ZM12.3635 7.148V9.578C12.3635 10.559 12.8765 11.072 13.6775 11.072C13.9745 11.072 14.2175 11.018 14.4155 10.901L14.2355 10.244C14.0915 10.343 13.9205 10.388 13.7225 10.388C13.3355 10.388 13.1195 10.118 13.1195 9.641V7.148H14.3075V6.464H13.1195V4.628L12.3635 5.105V6.464H11.5805V7.148H12.3635ZM17.6638 11.072C18.9598 11.072 19.6798 10.136 19.6798 8.732C19.6798 7.328 18.9598 6.392 17.6638 6.392C17.3938 6.392 17.1238 6.455 16.8628 6.59C16.6018 6.725 16.4218 6.86 16.3408 7.004V4.628H15.5848V11H16.3408V10.442C16.5658 10.793 17.1238 11.072 17.6638 11.072ZM17.5918 7.076C18.3838 7.076 18.9058 7.751 18.9058 8.732C18.9058 9.713 18.3838 10.388 17.5918 10.388C16.7728 10.388 16.2778 9.713 16.2778 8.732C16.2778 7.751 16.7728 7.076 17.5918 7.076ZM21.2245 10.388C21.6295 10.847 22.1515 11.072 22.8085 11.072C23.4655 11.072 23.9875 10.847 24.3835 10.388C24.7885 9.929 24.9865 9.371 24.9865 8.732C24.9865 8.093 24.7885 7.544 24.3835 7.085C23.9875 6.626 23.4655 6.392 22.8085 6.392C22.1515 6.392 21.6295 6.626 21.2245 7.085C20.8285 7.544 20.6305 8.093 20.6305 8.732C20.6305 9.371 20.8285 9.929 21.2245 10.388ZM21.7735 7.571C22.0255 7.238 22.3675 7.076 22.8085 7.076C23.2495 7.076 23.5915 7.238 23.8345 7.571C24.0865 7.895 24.2125 8.282 24.2125 8.732C24.2125 9.182 24.0865 9.569 23.8345 9.902C23.5915 10.226 23.2495 10.388 22.8085 10.388C22.3675 10.388 22.0255 10.226 21.7735 9.902C21.5305 9.569 21.4045 9.182 21.4045 8.732C21.4045 8.282 21.5305 7.895 21.7735 7.571ZM26.5331 10.388C26.9381 10.847 27.4601 11.072 28.1171 11.072C28.7741 11.072 29.2961 10.847 29.6921 10.388C30.0971 9.929 30.2951 9.371 30.2951 8.732C30.2951 8.093 30.0971 7.544 29.6921 7.085C29.2961 6.626 28.7741 6.392 28.1171 6.392C27.4601 6.392 26.9381 6.626 26.5331 7.085C26.1371 7.544 25.9391 8.093 25.9391 8.732C25.9391 9.371 26.1371 9.929 26.5331 10.388ZM27.0821 7.571C27.3341 7.238 27.6761 7.076 28.1171 7.076C28.5581 7.076 28.9001 7.238 29.1431 7.571C29.3951 7.895 29.5211 8.282 29.5211 8.732C29.5211 9.182 29.3951 9.569 29.1431 9.902C28.9001 10.226 28.5581 10.388 28.1171 10.388C27.6761 10.388 27.3341 10.226 27.0821 9.902C26.8391 9.569 26.7131 9.182 26.7131 8.732C26.7131 8.282 26.8391 7.895 27.0821 7.571ZM31.5282 11H32.2842V8.723L34.2012 11H35.1642L33.0942 8.543L35.0202 6.464H34.0482L32.2842 8.363V4.628H31.5282V11Z" fill="white"/></g>
<g transform="translate(25,0)"><path d="M86.873 11H90.527V10.244H87.665V4.7H86.873V11ZM91.9714 9.695C91.9714 9.182 92.4124 8.894 93.1774 8.894H93.9874V9.002C93.9874 9.479 93.8614 9.83 93.6094 10.055C93.3574 10.28 93.0604 10.388 92.7184 10.388C92.2414 10.388 91.9714 10.127 91.9714 9.695ZM94.7434 8.102C94.7434 6.95 94.0504 6.392 92.9974 6.392C92.1424 6.392 91.5034 6.869 91.3864 7.634L92.0524 7.787C92.1514 7.346 92.5204 7.076 92.9974 7.076C93.6544 7.076 93.9874 7.391 93.9874 8.012V8.21H93.2494C91.9804 8.21 91.1974 8.732 91.1974 9.695C91.1974 10.622 91.7824 11.072 92.6014 11.072C93.2224 11.072 93.6904 10.838 94.0234 10.361L94.1494 11H94.7434V8.102ZM98.2322 11.072C99.5282 11.072 100.248 10.136 100.248 8.732C100.248 7.328 99.5282 6.392 98.2322 6.392C97.6922 6.392 97.1342 6.671 96.9092 7.022V6.464H96.1532V12.836H96.9092V10.46C96.9902 10.604 97.1702 10.739 97.4312 10.874C97.6922 11.009 97.9622 11.072 98.2322 11.072ZM98.1602 7.076C98.9522 7.076 99.4742 7.751 99.4742 8.732C99.4742 9.713 98.9522 10.388 98.1602 10.388C97.3412 10.388 96.8462 9.713 96.8462 8.732C96.8462 7.751 97.3412 7.076 98.1602 7.076ZM101.695 7.148V9.578C101.695 10.559 102.208 11.072 103.009 11.072C103.306 11.072 103.549 11.018 103.747 10.901L103.567 10.244C103.423 10.343 103.252 10.388 103.054 10.388C102.667 10.388 102.451 10.118 102.451 9.641V7.148H103.639V6.464H102.451V4.628L101.695 5.105V6.464H100.912V7.148H101.695ZM105.089 10.388C105.494 10.847 106.016 11.072 106.673 11.072C107.33 11.072 107.852 10.847 108.248 10.388C108.653 9.929 108.851 9.371 108.851 8.732C108.851 8.093 108.653 7.544 108.248 7.085C107.852 6.626 107.33 6.392 106.673 6.392C106.016 6.392 105.494 6.626 105.089 7.085C104.693 7.544 104.495 8.093 104.495 8.732C104.495 9.371 104.693 9.929 105.089 10.388ZM105.638 7.571C105.89 7.238 106.232 7.076 106.673 7.076C107.114 7.076 107.456 7.238 107.699 7.571C107.951 7.895 108.077 8.282 108.077 8.732C108.077 9.182 107.951 9.569 107.699 9.902C107.456 10.226 107.114 10.388 106.673 10.388C106.232 10.388 105.89 10.226 105.638 9.902C105.395 9.569 105.269 9.182 105.269 8.732C105.269 8.282 105.395 7.895 105.638 7.571ZM112.242 11.072C113.538 11.072 114.258 10.136 114.258 8.732C114.258 7.328 113.538 6.392 112.242 6.392C111.702 6.392 111.144 6.671 110.919 7.022V6.464H110.163V12.836H110.919V10.46C111 10.604 111.18 10.739 111.441 10.874C111.702 11.009 111.972 11.072 112.242 11.072ZM112.17 7.076C112.962 7.076 113.484 7.751 113.484 8.732C113.484 9.713 112.962 10.388 112.17 10.388C111.351 10.388 110.856 9.713 110.856 8.732C110.856 7.751 111.351 7.076 112.17 7.076Z" fill="white"/></g>
<g transform="translate(3,0)"><path d="M189.873 11H191.601C192.42 11 193.104 10.721 193.662 10.163C194.22 9.596 194.499 8.831 194.499 7.85C194.499 6.869 194.22 6.104 193.662 5.546C193.104 4.979 192.42 4.7 191.601 4.7H189.873V11ZM191.466 5.456C192.627 5.456 193.653 6.086 193.653 7.85C193.653 9.614 192.627 10.244 191.466 10.244H190.665V5.456H191.466ZM199.646 8.543C199.646 7.94 199.466 7.436 199.097 7.022C198.737 6.599 198.233 6.392 197.594 6.392C196.937 6.392 196.433 6.617 196.073 7.076C195.722 7.526 195.542 8.075 195.542 8.732C195.542 9.389 195.722 9.938 196.073 10.397C196.433 10.847 196.937 11.072 197.594 11.072C198.53 11.072 199.097 10.703 199.52 9.812L198.854 9.524C198.593 10.109 198.233 10.388 197.594 10.388C196.811 10.388 196.361 9.785 196.316 8.894H199.646V8.543ZM197.594 7.076C198.287 7.076 198.71 7.526 198.854 8.21H196.361C196.505 7.517 196.919 7.076 197.594 7.076ZM202.163 6.392C201.362 6.392 200.831 6.923 200.831 7.643C200.831 8.507 201.587 8.795 202.181 9.02C202.586 9.164 202.919 9.38 202.919 9.677C202.919 10.154 202.676 10.388 202.19 10.388C201.731 10.388 201.38 10.091 201.137 9.497L200.498 9.848C200.759 10.541 201.335 11.072 202.19 11.072C203.117 11.072 203.693 10.532 203.693 9.632C203.702 8.3 201.578 8.462 201.587 7.652C201.587 7.292 201.821 7.076 202.136 7.076C202.415 7.076 202.685 7.229 202.964 7.526L203.477 7.085C203.153 6.626 202.712 6.392 202.163 6.392ZM204.91 11H205.666V8.723L207.583 11H208.546L206.476 8.543L208.402 6.464H207.43L205.666 8.363V4.628H204.91V11ZM209.687 7.148V9.578C209.687 10.559 210.2 11.072 211.001 11.072C211.298 11.072 211.541 11.018 211.739 10.901L211.559 10.244C211.415 10.343 211.244 10.388 211.046 10.388C210.659 10.388 210.443 10.118 210.443 9.641V7.148H211.631V6.464H210.443V4.628L209.687 5.105V6.464H208.904V7.148H209.687ZM213.081 10.388C213.486 10.847 214.008 11.072 214.665 11.072C215.322 11.072 215.844 10.847 216.24 10.388C216.645 9.929 216.843 9.371 216.843 8.732C216.843 8.093 216.645 7.544 216.24 7.085C215.844 6.626 215.322 6.392 214.665 6.392C214.008 6.392 213.486 6.626 213.081 7.085C212.685 7.544 212.487 8.093 212.487 8.732C212.487 9.371 212.685 9.929 213.081 10.388ZM213.63 7.571C213.882 7.238 214.224 7.076 214.665 7.076C215.106 7.076 215.448 7.238 215.691 7.571C215.943 7.895 216.069 8.282 216.069 8.732C216.069 9.182 215.943 9.569 215.691 9.902C215.448 10.226 215.106 10.388 214.665 10.388C214.224 10.388 213.882 10.226 213.63 9.902C213.387 9.569 213.261 9.182 213.261 8.732C213.261 8.282 213.387 7.895 213.63 7.571ZM220.234 11.072C221.53 11.072 222.25 10.136 222.25 8.732C222.25 7.328 221.53 6.392 220.234 6.392C219.694 6.392 219.136 6.671 218.911 7.022V6.464H218.155V12.836H218.911V10.46C218.992 10.604 219.172 10.739 219.433 10.874C219.694 11.009 219.964 11.072 220.234 11.072ZM220.162 7.076C220.954 7.076 221.476 7.751 221.476 8.732C221.476 9.713 220.954 10.388 220.162 10.388C219.343 10.388 218.848 9.713 218.848 8.732C218.848 7.751 219.343 7.076 220.162 7.076Z" fill="white"/></g>
<g transform="translate(-28,0)"><path d="M308.076 8.579C308.004 9.623 307.392 10.316 306.339 10.316C305.736 10.316 305.25 10.1 304.872 9.677C304.503 9.254 304.314 8.642 304.314 7.85C304.314 7.058 304.503 6.446 304.872 6.023C305.25 5.6 305.736 5.384 306.339 5.384C307.176 5.384 307.752 5.843 308.049 6.761L308.814 6.536C308.526 5.357 307.635 4.628 306.339 4.628C305.547 4.628 304.872 4.907 304.323 5.465C303.774 6.023 303.495 6.815 303.495 7.85C303.495 8.885 303.765 9.677 304.314 10.235C304.863 10.793 305.529 11.072 306.303 11.072C307.122 11.072 307.761 10.685 308.076 10.136L308.157 11H308.832V7.823H306.717V8.579H308.076ZM310.703 9.695C310.703 9.182 311.144 8.894 311.909 8.894H312.719V9.002C312.719 9.479 312.593 9.83 312.341 10.055C312.089 10.28 311.792 10.388 311.45 10.388C310.973 10.388 310.703 10.127 310.703 9.695ZM313.475 8.102C313.475 6.95 312.782 6.392 311.729 6.392C310.874 6.392 310.235 6.869 310.118 7.634L310.784 7.787C310.883 7.346 311.252 7.076 311.729 7.076C312.386 7.076 312.719 7.391 312.719 8.012V8.21H311.981C310.712 8.21 309.929 8.732 309.929 9.695C309.929 10.622 310.514 11.072 311.333 11.072C311.954 11.072 312.422 10.838 312.755 10.361L312.881 11H313.475V8.102ZM320.935 7.805C320.935 6.914 320.476 6.392 319.657 6.392C319.009 6.392 318.514 6.707 318.181 7.337C318.037 6.734 317.587 6.392 316.966 6.392C316.327 6.392 315.859 6.698 315.553 7.301V6.464H314.797V11H315.553V9.137C315.553 7.868 316.075 7.076 316.759 7.076C317.245 7.076 317.488 7.373 317.488 7.967V11H318.244V9.137C318.244 7.868 318.766 7.076 319.45 7.076C319.936 7.076 320.179 7.373 320.179 7.967V11H320.935V7.805ZM326.223 8.543C326.223 7.94 326.043 7.436 325.674 7.022C325.314 6.599 324.81 6.392 324.171 6.392C323.514 6.392 323.01 6.617 322.65 7.076C322.299 7.526 322.119 8.075 322.119 8.732C322.119 9.389 322.299 9.938 322.65 10.397C323.01 10.847 323.514 11.072 324.171 11.072C325.107 11.072 325.674 10.703 326.097 9.812L325.431 9.524C325.17 10.109 324.81 10.388 324.171 10.388C323.388 10.388 322.938 9.785 322.893 8.894H326.223V8.543ZM324.171 7.076C324.864 7.076 325.287 7.526 325.431 8.21H322.938C323.082 7.517 323.496 7.076 324.171 7.076ZM330.083 6.527C329.912 6.437 329.705 6.392 329.462 6.392C328.958 6.392 328.391 6.734 328.13 7.238V6.464H327.374V11H328.13V9.281C328.13 8.588 328.256 8.048 328.508 7.661C328.76 7.274 329.057 7.076 329.399 7.076C329.588 7.076 329.759 7.121 329.93 7.202L330.083 6.527Z" fill="white"/></g>
</svg>
