<?xml version="1.0" standalone="no"?>
<!DOCTYPE svg PUBLIC "-//W3C//DTD SVG 20010904//EN"
 "http://www.w3.org/TR/2001/REC-SVG-20010904/DTD/svg10.dtd">
<svg version="1.0" xmlns="http://www.w3.org/2000/svg"
 width="192.000000pt" height="192.000000pt" viewBox="0 0 192.000000 192.000000"
 preserveAspectRatio="xMidYMid meet">
<metadata>
Created by potrace 1.11, written by Peter Selinger 2001-2013
</metadata>
<g transform="translate(0.000000,192.000000) scale(0.100000,-0.100000)"
fill="#000000" stroke="none">
<path d="M0 960 l0 -960 960 0 960 0 0 960 0 960 -960 0 -960 0 0 -960z m1015
847 c17 1 39 -2 50 -7 11 -4 46 -13 78 -20 72 -15 160 -52 207 -89 19 -16 43
-27 53 -25 10 1 28 -12 43 -32 15 -19 33 -34 40 -34 8 0 14 -7 14 -16 0 -10 5
-14 15 -10 10 3 19 -2 26 -17 13 -30 59 -93 65 -89 8 5 43 -44 65 -90 11 -24
29 -58 40 -76 20 -35 62 -190 74 -277 11 -79 13 -209 4 -267 -5 -29 -11 -69
-13 -88 -7 -55 -60 -176 -111 -254 -8 -12 -12 -26 -8 -31 5 -4 2 -5 -4 -1 -8
4 -13 1 -13 -8 0 -9 -4 -16 -10 -16 -5 0 -9 -4 -7 -8 2 -8 -51 -62 -62 -62 -4
0 -21 -13 -38 -29 -72 -66 -202 -129 -261 -127 -17 0 -32 -2 -32 -6 0 -5 -9
-8 -19 -8 -11 0 -23 -5 -26 -10 -3 -6 -35 -10 -71 -10 -35 0 -64 -3 -64 -7 0
-5 -26 -7 -58 -6 -168 7 -221 12 -264 26 -27 8 -48 12 -48 7 0 -9 -46 -2 -75
11 -11 4 -32 10 -47 12 -15 1 -37 12 -48 22 -12 11 -25 19 -29 18 -11 -5 -94
59 -175 136 -81 75 -184 191 -170 191 4 0 -5 15 -22 32 -17 20 -9 15 21 -12
27 -25 52 -47 55 -51 33 -34 217 -138 246 -139 6 0 17 -6 23 -14 7 -8 34 -17
61 -21 28 -4 53 -11 56 -16 3 -6 14 -7 25 -4 13 4 19 2 17 -6 -3 -13 34 -20
97 -17 39 1 85 1 110 -2 11 -1 35 1 53 3 17 3 32 1 32 -4 0 -6 10 -4 23 2 12
7 42 14 67 16 57 5 79 8 110 16 14 4 43 9 65 12 23 3 47 14 57 26 10 11 22 18
27 14 6 -3 17 5 26 18 8 13 26 30 40 37 14 7 27 22 31 32 3 10 9 16 14 13 10
-6 50 30 50 45 0 6 4 10 9 10 5 0 17 20 28 45 10 25 21 45 26 45 4 0 7 11 7
25 0 14 5 25 11 25 6 0 8 7 5 16 -3 8 -2 12 4 9 9 -6 14 34 12 93 -1 12 3 22
7 22 5 0 7 16 4 35 -2 19 0 35 5 35 12 0 8 59 -6 93 -15 37 -15 50 1 41 9 -6
9 -5 0 7 -6 8 -11 16 -11 19 -1 3 -6 19 -13 35 -7 17 -11 34 -10 39 1 5 -4 13
-11 17 -7 5 -14 13 -14 19 -1 5 -3 12 -4 15 -1 3 -3 9 -4 14 -1 9 -34 56 -53
76 -7 8 -13 18 -13 24 0 5 -10 13 -21 16 -12 4 -37 23 -56 41 -19 20 -44 34
-58 34 -32 0 -56 10 -49 21 3 5 -17 8 -43 7 -29 -1 -47 2 -46 8 1 6 -11 8 -29
6 -23 -3 -29 -1 -23 8 6 9 3 9 -14 1 -11 -7 -21 -8 -21 -4 0 11 -123 9 -140
-2 -9 -6 -11 -4 -5 6 5 8 -2 5 -15 -6 -20 -17 -22 -17 -17 -3 4 12 2 15 -9 11
-7 -3 -14 -8 -14 -12 0 -8 -10 -10 -62 -13 -34 -1 -46 -9 -116 -73 -40 -37
-44 -45 -44 -87 0 -25 7 -57 16 -71 21 -30 84 -50 139 -42 23 3 65 8 92 11 28
2 67 6 87 8 24 3 38 -1 42 -10 4 -9 13 -11 35 -4 20 5 31 5 31 -1 0 -6 9 -7
22 -4 17 6 20 4 15 -9 -5 -12 0 -16 23 -16 20 0 31 -6 35 -20 3 -11 13 -20 21
-20 8 0 13 -3 13 -7 -3 -21 2 -33 15 -33 12 0 24 -16 31 -42 2 -5 4 -11 5 -15
1 -5 2 -15 1 -25 -1 -9 2 -19 7 -22 5 -3 6 -27 1 -56 -4 -28 -5 -58 -2 -66 3
-8 -1 -14 -8 -14 -11 0 -11 -3 1 -10 13 -8 13 -11 1 -19 -8 -5 -12 -18 -8 -30
3 -12 1 -19 -4 -15 -5 3 -9 -2 -9 -12 0 -9 -8 -23 -17 -31 -19 -14 -93 -52
-128 -64 l-20 -7 20 -1 c38 -2 -29 -28 -72 -28 -22 0 -47 -4 -54 -9 -20 -12
-71 -14 -93 -2 -13 7 -21 7 -26 -2 -5 -8 -13 -9 -21 -4 -8 5 -45 9 -82 11 -38
1 -75 7 -83 14 -11 9 -14 9 -14 -1 0 -9 -4 -9 -12 -3 -7 6 -34 18 -61 28 -26
10 -47 21 -47 26 0 5 -6 6 -12 4 -7 -3 -23 10 -36 29 -13 19 -36 40 -53 46
-16 7 -29 17 -29 22 0 5 -11 19 -25 32 -14 13 -25 28 -25 33 0 5 -11 16 -25
23 -14 7 -25 22 -25 33 0 11 -6 25 -13 31 -18 14 -49 115 -40 129 3 6 1 7 -6
3 -8 -5 -10 0 -7 18 2 13 1 26 -3 28 -13 5 -24 48 -13 48 13 0 10 24 -6 42 -6
8 -9 18 -5 21 3 4 0 7 -7 7 -9 0 -8 5 4 19 12 13 14 21 6 26 -8 5 -8 10 0 20
7 8 9 33 6 59 -3 32 0 48 10 57 9 7 13 21 11 31 -3 10 3 29 14 42 10 13 19 31
19 39 0 9 4 18 10 22 5 3 7 12 4 19 -3 9 3 17 15 21 12 3 24 17 27 30 3 13 15
27 25 30 11 4 17 11 14 16 -4 5 0 9 8 9 8 0 29 16 46 35 17 19 35 35 41 35 5
0 15 9 22 20 7 11 19 20 26 20 7 0 15 7 18 15 4 8 10 13 14 10 5 -3 11 -1 15
5 3 5 15 10 26 10 10 0 19 5 19 11 0 5 4 8 10 4 5 -3 26 2 47 11 81 34 130 43
270 46 41 1 60 5 56 12 -5 8 -2 8 8 1 8 -6 28 -10 44 -8z"/>
</g>
</svg>
