<svg width="28" height="22" viewBox="0 0 28 22" fill="none" xmlns="http://www.w3.org/2000/svg">
<path d="M14.6 1L7.61284 7.05827L0.999999 7.05827L0.999998 14.8544L7.51263 14.8544L14.6 21L14.6 1Z" stroke="white" stroke-width="2" stroke-linejoin="round"/>
<path d="M27.707 9.12117C28.0975 8.73065 28.0975 8.09748 27.707 7.70696C27.3164 7.31643 26.6833 7.31643 26.2927 7.70696L23.7069 10.2928L21.1212 7.70711C20.7306 7.31658 20.0975 7.31658 19.707 7.70711C19.3164 8.09763 19.3164 8.7308 19.707 9.12132L22.2927 11.707L19.707 14.2927C19.3164 14.6833 19.3164 15.3164 19.707 15.707C20.0975 16.0975 20.7306 16.0975 21.1212 15.707L23.7069 13.1212L26.2927 15.7071C26.6833 16.0976 27.3164 16.0976 27.707 15.7071C28.0975 15.3166 28.0975 14.6834 27.707 14.2929L25.1211 11.707L27.707 9.12117Z" fill="white"/>
</svg>
