<svg width="17" height="14" viewBox="0 0 17 14" fill="none" xmlns="http://www.w3.org/2000/svg">
<path id="base" d="M8.18359 0.5C7.97266 0.5 7.76172 0.605469 7.62109 0.78125L4.49219 3.875H0.90625C0.414062 3.875 0.0625 4.26172 0.0625 4.71875V9.78125C0.0625 10.2734 0.414062 10.625 0.90625 10.625H4.49219L7.62109 13.7539C7.76172 13.9297 7.97266 14 8.18359 14C8.64062 14 9.0625 13.6836 9.0625 13.1562V1.37891C9.0625 0.851562 8.64062 0.5 8.18359 0.5Z
M7.9375 12.4883L4.94922 9.5H1.1875V5H4.94922L7.9375 2.04688V12.4883Z" fill="white"/>
<path id="mid" d="M12.0859 5.07031C11.8398 4.92969 11.4883 5.07031 11.3477 5.35156C11.207 5.63281 11.3477 5.94922 11.6289 6.08984C12.1211 6.33594 12.4375 6.79297 12.4375 7.25C12.4375 7.74219 12.1211 8.19922 11.6289 8.44531C11.3477 8.58594 11.207 8.90234 11.3477 9.18359C11.4883 9.46484 11.8398 9.60547 12.0859 9.46484C13 9.04297 13.5625 8.19922 13.5625 7.25C13.5625 6.33594 13 5.49219 12.0859 5.07031Z" fill="white"/>
<path id="max" d="M16.9375 7.25C16.9375 4.92969 15.707 2.82031 13.8086 1.73047C13.5273 1.55469 13.1758 1.66016 13.0352 1.94141C12.8594 2.1875 12.9648 2.53906 13.2461 2.67969C14.793 3.59375 15.7773 5.35156 15.7773 7.25C15.7773 9.18359 14.793 10.9414 13.2461 11.8555C12.9648 11.9961 12.8594 12.3477 13.0352 12.5938C13.1758 12.875 13.5273 12.9805 13.8086 12.8047C15.707 11.7148 16.9375 9.60547 16.9375 7.25Z" fill="white"/>
<line id="mute" x1="1" y1="1" x2="16" y2="13" stroke="white"/>
</svg>
